<svg xmlns="http://www.w3.org/2000/svg" xmlns:xlink="http://www.w3.org/1999/xlink" width="253" height="141" viewBox="0 0 253 141">
  <defs>
    <clipPath id="clip-path">
      <rect id="Rectángulo_377430" data-name="Rectángulo 377430" width="190.325" height="140.049" fill="none"/>
    </clipPath>
    <clipPath id="clip-path-3">
      <rect id="Rectángulo_377425" data-name="Rectángulo 377425" width="182.172" height="62.194" fill="none"/>
    </clipPath>
    <clipPath id="clip-path-4">
      <path id="Trazado_608864" data-name="Trazado 608864" d="M40.953,116.755a339.48,339.48,0,0,1,64.34-.593c1.533.132,3.4.478,3.734,1.536.451,1.431-2.26,2.236-3.416,3.456-1.386,1.464-.245,3.568,1.774,4.606s4.624,1.29,7.109,1.508l50.007,4.394c6.664.585,13.668,1.265,19.02,4.11,1.552.825,3.068,2.316,1.338,3.448a3.382,3.382,0,0,1-.527.276c-4.007,1.711-8.656,2.462-13.238,3.128-10.335,1.5-20.754,2.7-31.171,3.889-12.288,1.407-24.686,2.819-37.121,2.394A62.257,62.257,0,0,1,87.524,146.8c-1.12-.328-2.323-.793-2.669-1.61-.4-.937.505-1.881.722-2.847.311-1.386-.873-2.777-2.5-3.59a17.621,17.621,0,0,0-5.61-1.392c-9.592-1.177-19.424-.5-29.158-.694-2.9-.059-6.744-.905-6.5-2.933.153-1.259,1.91-2.052,3.267-2.882,1.505-.922,2.669-2.72.66-3.538a3.882,3.882,0,0,0-.8-.218c-7.535-1.27-15.614-.669-22.877-2.613a2.164,2.164,0,0,1-1.03-.564c-.8-.867.348-1.724,1.4-2.259q.226-.115.455-.228a48.862,48.862,0,0,1,17.655-4.644Z" transform="translate(-20.758 -114.917)" fill="none"/>
    </clipPath>
    <clipPath id="clip-path-5">
      <rect id="Rectángulo_377426" data-name="Rectángulo 377426" width="3.431" height="1.915" fill="none"/>
    </clipPath>
    <clipPath id="clip-path-6">
      <rect id="Rectángulo_377427" data-name="Rectángulo 377427" width="7.693" height="5.75" fill="none"/>
    </clipPath>
    <clipPath id="clip-path-7">
      <rect id="Rectángulo_377428" data-name="Rectángulo 377428" width="7.953" height="4.966" fill="none"/>
    </clipPath>
  </defs>
  <g id="Grupo_1071364" data-name="Grupo 1071364" transform="translate(-327 -5710)">
    <rect id="Rectángulo_377321" data-name="Rectángulo 377321" width="253" height="141" transform="translate(327 5710)" fill="none"/>
    <g id="Grupo_1071363" data-name="Grupo 1071363" transform="translate(358 5710)">
      <g id="Grupo_1071362" data-name="Grupo 1071362" clip-path="url(#clip-path)">
        <g id="Grupo_1071361" data-name="Grupo 1071361">
          <g id="Grupo_1071360" data-name="Grupo 1071360" clip-path="url(#clip-path)">
            <path id="Trazado_608858" data-name="Trazado 608858" d="M181.2,43.3a43.851,43.851,0,0,1,2.694,24.669,31.239,31.239,0,0,0,15.525-4.251,2.572,2.572,0,0,0,.954-.806,2.6,2.6,0,0,0,.223-1.543,45.674,45.674,0,0,0-7.364-21.921,12.849,12.849,0,0,1-12.211,3.886Z" transform="translate(-30.126 -6.565)" fill="#fff"/>
            <g id="Grupo_1071350" data-name="Grupo 1071350" transform="translate(0 77.855)" opacity="0.48">
              <g id="Grupo_1071349" data-name="Grupo 1071349">
                <g id="Grupo_1071348" data-name="Grupo 1071348" clip-path="url(#clip-path-3)">
                  <path id="Trazado_608859" data-name="Trazado 608859" d="M40.953,116.755a339.471,339.471,0,0,1,64.339-.593c1.533.132,3.4.478,3.734,1.536.45,1.431-2.261,2.236-3.417,3.456-1.385,1.464-.245,3.568,1.775,4.607s4.624,1.29,7.108,1.508l50.008,4.393c6.664.585,13.667,1.265,19.02,4.11,1.552.826,3.068,2.316,1.339,3.448a3.428,3.428,0,0,1-.528.276c-4.007,1.712-8.655,2.462-13.238,3.128-10.334,1.5-20.754,2.7-31.17,3.889-12.288,1.407-24.686,2.819-37.122,2.394A62.263,62.263,0,0,1,87.523,146.8c-1.119-.328-2.323-.793-2.668-1.61-.4-.937.505-1.881.722-2.847.311-1.386-.873-2.777-2.5-3.59a17.616,17.616,0,0,0-5.61-1.392c-9.592-1.177-19.424-.5-29.157-.694-2.9-.059-6.743-.905-6.5-2.933.153-1.259,1.91-2.052,3.267-2.882,1.506-.922,2.67-2.72.66-3.538a3.853,3.853,0,0,0-.8-.218c-7.535-1.27-15.614-.669-22.877-2.613a2.164,2.164,0,0,1-1.029-.563c-.8-.868.348-1.725,1.4-2.26q.226-.115.454-.228a48.866,48.866,0,0,1,17.656-4.644Z" transform="translate(-3.455 -96.98)" fill="#3d71b0"/>
                  <g id="Grupo_1071347" data-name="Grupo 1071347" transform="translate(17.304 17.936)">
                    <g id="Grupo_1071346" data-name="Grupo 1071346" clip-path="url(#clip-path-4)">
                      <path id="Trazado_608860" data-name="Trazado 608860" d="M111.172,93.4C40.425,115.608,22.589,127.4,1.106,137c-.612.274-1.283.638-1.064,1.028.16.287.744.458,1.28.6l4.386,1.17a766.036,766.036,0,0,1,74.12-33.659Z" transform="translate(-17.304 -111.335)" fill="#729fcc"/>
                      <path id="Trazado_608861" data-name="Trazado 608861" d="M85.842,110.558,33.963,134.634c-2.391,1.11-4.924,2.352-5.337,3.947,2.292,1.063,6.021,1.065,8.9.425s8.379-4.365,7.284-2.919c-12.87,16.982,40.6-19.651,62.765-28.458Z" transform="translate(-22.068 -113.704)" fill="#729fcc"/>
                      <path id="Trazado_608862" data-name="Trazado 608862" d="M147.26,125.694,95.381,149.77c-2.392,1.11-4.925,2.352-5.337,3.947,2.292,1.063,6.021,1.065,8.9.425s8.379-4.365,7.283-2.919c-12.87,16.982,40.6-19.651,62.765-28.458Z" transform="translate(-32.289 -116.223)" fill="#729fcc"/>
                      <path id="Trazado_608863" data-name="Trazado 608863" d="M176.664,131.237l-51.878,24.076c-2.391,1.11-4.924,2.352-5.337,3.947,2.293,1.063,6.021,1.065,8.9.425s-2.96-4.124-4.055-2.678c-12.87,16.982,40.6-19.65,62.765-28.458Z" transform="translate(-37.183 -117.185)" fill="#729fcc"/>
                    </g>
                  </g>
                </g>
              </g>
            </g>
            <path id="Trazado_608865" data-name="Trazado 608865" d="M79.572,64.775c-4.3-6.637-16.4-19.768-21.8-25.555a3.753,3.753,0,0,1-1.271-2.231,8.592,8.592,0,0,0,.062-1.544c-.272-1.195-1.894-1.349-3.113-1.225q-6.577.666-13.114,1.675c.29,1.28,1.781,1.819,3.053,2.143l6.769,1.727a5.029,5.029,0,0,1,2.048.864,5.019,5.019,0,0,1,.973,1.257c4.051,6.579,10.1,18.641,19.369,26.608a55.1,55.1,0,0,0,7.254-5.524Z" transform="translate(-6.714 -5.689)" fill="#f9d0b8"/>
            <path id="Trazado_608866" data-name="Trazado 608866" d="M56.424,36.715a21.115,21.115,0,0,0,.553-2.975,2.287,2.287,0,0,0-1.509-2.356,3.02,3.02,0,0,1-.826-.176,1.545,1.545,0,0,1-.6-.874l-.894-2.327-1.9.543a7.886,7.886,0,0,1,.4,1.37,2.454,2.454,0,0,1-1.482,2.306,5.052,5.052,0,0,1-2.865.283c-.964-.134-1.911-.394-2.882-.472a7.768,7.768,0,0,0-5.206,1.5c-.538.4-1.063,1.122-.7,1.686a1.419,1.419,0,0,0,.547.432A17.858,17.858,0,0,0,45,37.624a10.827,10.827,0,0,1-3.3-1.644.6.6,0,0,1-.308-.428c0-.315.414-.423.729-.432l7.215-.206a17.6,17.6,0,0,1,3.725.157,5.912,5.912,0,0,1,3.279,1.653Z" transform="translate(-6.389 -4.661)"/>
            <path id="Trazado_608867" data-name="Trazado 608867" d="M73.845,77.367C67.526,72.609,52.658,61.42,45.608,57.834a3.753,3.753,0,0,1-1.96-1.66,8.463,8.463,0,0,0-.471-1.471c-.665-1.029-2.241-.618-3.344-.083Q33.883,57.5,28.09,60.693c.712,1.1,2.3,1.1,3.6.966l6.95-.7a5.029,5.029,0,0,1,2.221.108,5,5,0,0,1,1.345.848C48.272,66.7,60.791,80.81,66.853,85.6a94.975,94.975,0,0,0,6.593-10.007Z" transform="translate(-4.675 -8.999)" fill="#f9d0b8"/>
            <path id="Trazado_608868" data-name="Trazado 608868" d="M132.785,28.921c4.217,2.014,12.484,8.225,13.064,8.147.623-.083,9.33-8.122,9.219-8.429-.652-1.808-1.8-4.846-2.456-6.654a.3.3,0,0,1,.423-.375,4.093,4.093,0,0,1,2.222,2.991,37.889,37.889,0,0,1,1.121-7.755.3.3,0,0,1,.586-.014,11.951,11.951,0,0,1,.343,5.725l1.764-5.606a.3.3,0,0,1,.6.089,36.545,36.545,0,0,1-.545,6.019,20.063,20.063,0,0,1,1.766-4.831.3.3,0,0,1,.573.162,28.611,28.611,0,0,1-1.029,5.3,0,0,0,1,0,.009,0,16.089,16.089,0,0,1,2.515-4.087c.2-.228.233.272.532.238a38.172,38.172,0,0,1-5.033,9.32c-2.092,2.754-6.172,9.769-8.264,12.524a4.808,4.808,0,0,1-1.655,1.574,4.755,4.755,0,0,1-3.416-.2,136.715,136.715,0,0,1-14.653-5.686,1.575,1.575,0,0,1-.679-.469,1.6,1.6,0,0,1-.131-1.142q.334-2.461.743-4.91Z" transform="translate(-21.572 -2.766)" fill="#f9d0b8"/>
            <path id="Trazado_608869" data-name="Trazado 608869" d="M127.115,12.221c.279,2.779,2.648,7.074,2.928,9.853-3.173-.636-9.379-2.881-9.768-7.677-.155-1.911,1.241-4.177,1.584-6.063a5.244,5.244,0,0,1,.63-1.953c.84-1.3,2.574-1.593,4.107-1.771Z" transform="translate(-20.015 -0.767)"/>
            <path id="Trazado_608870" data-name="Trazado 608870" d="M136.52,6.1a34.774,34.774,0,0,0,1.658,5.994c1.313.1,4.2,2.647,4.185,2.655.018-.008-3.253,2.211-3.293,2.191s1.171,5.717.228,5.277c-.075-.035-6.018.475-6,.54,0,0-2.011,3.512-2.337,4.175-1.486-.992-2.447-1.59-3.933-2.582a14.685,14.685,0,0,0,2.392-4.813,1.873,1.873,0,0,1-1.382-3.44,1.722,1.722,0,0,0,.648-.453c.143-.218-.46-7.085-.648-9.212A69.881,69.881,0,0,0,136.52,6.1" transform="translate(-21.14 -1.015)" fill="#f9d0b8"/>
            <path id="Trazado_608871" data-name="Trazado 608871" d="M128.072,14.876a15.368,15.368,0,0,0,1.544-8.945,8.45,8.45,0,0,0,2.508,1.35,2.865,2.865,0,0,0,2.695-.5,2.572,2.572,0,0,0,1.25,2.312,1.237,1.237,0,0,0,.862.193A3.442,3.442,0,0,0,137.559,9a4.7,4.7,0,0,1,1.268-.235A4.455,4.455,0,0,0,142.5,5.129c-1.322.676-3.042,1.032-4.212.118-.805-.629-1.125-1.687-1.753-2.492a5.292,5.292,0,0,0-4.66-1.721,15.346,15.346,0,0,0-4.9,1.594,6.738,6.738,0,0,0-2.577,1.707,5.2,5.2,0,0,0-.969,2.791,11.227,11.227,0,0,0,3.272,8.961l1.467-1.9Z" transform="translate(-20.533 -0.168)"/>
            <path id="Trazado_608872" data-name="Trazado 608872" d="M120.725,7.1a3.864,3.864,0,0,0-.969-3.872,2.943,2.943,0,0,0-1.48-.828,3.422,3.422,0,0,0-1.941.287,4.677,4.677,0,0,0-2.982,4.99,4.2,4.2,0,0,0,4.624,3,4.12,4.12,0,0,0,3.472-4.228Z" transform="translate(-18.852 -0.393)"/>
            <path id="Trazado_608873" data-name="Trazado 608873" d="M122.775,29.533c.779,3.4,2.139,12.012,1.387,15.422-.392,1.774-4.133,3.033-5.01,4.624-1.487,2.7-5.607,10.53-6.474,12.248a59.138,59.138,0,0,1-5.793,8.738L99.306,80.65c-2.141,2.848-4.6,5.9-8.1,6.584-1.967.383-8.917,1.828-19.225-6.074,3.418-5.372,6.093-17.712,10.079-22.677a32.606,32.606,0,0,1,4.734,3.709c.363.023,7.078-12.573,15.123-16.881,1.353-.724,2.888-.734,3.713-2.029a9.39,9.39,0,0,0,.936-2.855,14.628,14.628,0,0,1,5.078-7.876c2.121-1.677,6.3-4.007,7.267-6.531a13.148,13.148,0,0,1,4.41,2.629Z" transform="translate(-11.98 -4.33)" fill="#e26349"/>
            <path id="Trazado_608874" data-name="Trazado 608874" d="M43.973,56.172a21.168,21.168,0,0,0-.42-3,2.286,2.286,0,0,0-2.179-1.754,3.081,3.081,0,0,1-.839.1,1.544,1.544,0,0,1-.85-.638L38.1,48.957l-1.625,1.117a7.888,7.888,0,0,1,.811,1.173,2.454,2.454,0,0,1-.674,2.658,5.057,5.057,0,0,1-2.627,1.178c-.958.178-1.937.233-2.882.468a7.759,7.759,0,0,0-4.459,3.08c-.383.553-.652,1.4-.126,1.82a1.409,1.409,0,0,0,.655.236,17.833,17.833,0,0,0,6.254-.023,10.829,10.829,0,0,1-3.649-.511c-.173-.056-.368-.137-.427-.309-.1-.3.258-.533.553-.641l6.777-2.487a17.566,17.566,0,0,1,3.582-1.034,5.913,5.913,0,0,1,3.635.525Z" transform="translate(-4.364 -8.148)"/>
            <path id="Trazado_608875" data-name="Trazado 608875" d="M120.264,54.219,114.093,49l-1.741-1.471c-.152-.128-.369.1-.215.226l6.171,5.214,1.74,1.47c.153.129.37-.1.216-.225" transform="translate(-18.654 -7.905)" fill="#ad402f"/>
            <path id="Trazado_608876" data-name="Trazado 608876" d="M89.68,69.759q.366,2.638.679,5.284t.573,5.322q.146,1.5.274,3c.018.2.329.2.312,0q-.228-2.655-.508-5.3t-.621-5.317q-.19-1.493-.4-2.985a.162.162,0,0,0-.158-.154.157.157,0,0,0-.154.158" transform="translate(-14.925 -11.584)" fill="#ad402f"/>
            <path id="Trazado_608877" data-name="Trazado 608877" d="M88.857,70.021q.425,4.634.511,9.291.024,1.323.02,2.645a.156.156,0,0,0,.312,0q.012-4.654-.316-9.3-.094-1.319-.215-2.637c-.018-.2-.33-.2-.312,0" transform="translate(-14.788 -11.628)" fill="#ad402f"/>
            <path id="Trazado_608878" data-name="Trazado 608878" d="M103.745,70.994a14.057,14.057,0,0,0-2.931-6.644A13.87,13.87,0,0,0,99.4,62.837c-.148-.136-.363.088-.216.225a13.725,13.725,0,0,1,4.26,8.018c.031.2.33.11.3-.086" transform="translate(-16.499 -10.451)" fill="#ad402f"/>
            <path id="Trazado_608879" data-name="Trazado 608879" d="M101.925,69.48a18.941,18.941,0,0,0-2.841-4.548q-.493-.585-1.032-1.129c-.141-.143-.357.083-.215.226A18.666,18.666,0,0,1,101,68.29q.358.663.662,1.352a.157.157,0,0,0,.214.052.159.159,0,0,0,.052-.214" transform="translate(-16.275 -10.611)" fill="#ad402f"/>
            <path id="Trazado_608880" data-name="Trazado 608880" d="M129.815,19.792l-1.22-1.085c-.149-.133-.366.092-.216.225l1.22,1.085c.15.133.366-.091.216-.225" transform="translate(-21.357 -3.107)" fill="#b56e46"/>
            <path id="Trazado_608881" data-name="Trazado 608881" d="M129.023,19.456l-.448,1.046a.16.16,0,0,0,.061.212.158.158,0,0,0,.212-.061l.448-1.045a.161.161,0,0,0-.061-.213.158.158,0,0,0-.212.061" transform="translate(-21.396 -3.225)" fill="#b56e46"/>
            <path id="Trazado_608882" data-name="Trazado 608882" d="M136.427,16.223c.041.458.353.8.7.772a.75.75,0,0,0,.547-.884c-.041-.458-.353-.8-.7-.772a.75.75,0,0,0-.547.884" transform="translate(-22.705 -2.553)" fill="#1c1c1b"/>
            <path id="Trazado_608883" data-name="Trazado 608883" d="M137.193,12.159q-.26.625-.518,1.25a8.821,8.821,0,0,0-3.229-1.325,7.261,7.261,0,0,1,3.56-.071Z" transform="translate(-22.209 -1.968)" fill="#1c1c1b"/>
            <path id="Trazado_608884" data-name="Trazado 608884" d="M138.007,12.312a6.662,6.662,0,0,1-.507,1.21.156.156,0,1,0,.273.152,7.158,7.158,0,0,0,.536-1.285.156.156,0,1,0-.3-.078" transform="translate(-22.881 -2.029)" fill="#1c1c1b"/>
            <path id="Trazado_608885" data-name="Trazado 608885" d="M138.475,12.712a2.679,2.679,0,0,0-.455.933.156.156,0,0,0,.3.078c.019-.076.043-.151.069-.225.007-.017.012-.033.019-.051.015-.038-.013.03,0-.008l.009-.023c.016-.037.033-.073.05-.109a2.225,2.225,0,0,1,.108-.2c.021-.035.042-.068.065-.1l.031-.045.018-.024c-.017.02,0,.005.005-.007a.169.169,0,0,0,.043-.11.156.156,0,0,0-.268-.106" transform="translate(-22.97 -2.108)" fill="#1c1c1b"/>
            <path id="Trazado_608886" data-name="Trazado 608886" d="M121.468,8.537a10.666,10.666,0,0,0,1.163-1.952,4.691,4.691,0,0,0,.572-2.152,1.954,1.954,0,0,0-.084-.469.763.763,0,0,0-.25-.419c-.318-.214-.581.173-.734.4a4.38,4.38,0,0,0-.6,1.59,22.643,22.643,0,0,1-.586,3.447,3.809,3.809,0,0,1-1.1,1.572,5.028,5.028,0,0,1-.864.6c-.148.081-.3.158-.452.223-.116.05-.318.143-.383-.022s.07-.326.179-.433a3.637,3.637,0,0,1,.508-.408c.363-.25.751-.459,1.126-.689a3.61,3.61,0,0,0,1.575-1.613c.073-.184-.2-.338-.273-.151a3.228,3.228,0,0,1-1.384,1.448c-.321.2-.652.382-.971.584a3.755,3.755,0,0,0-.892.7.614.614,0,0,0-.033.856c.253.228.606.043.862-.079a5.089,5.089,0,0,0,1.667-1.243,4.172,4.172,0,0,0,.853-1.634,10.89,10.89,0,0,0,.284-1.719,12.506,12.506,0,0,1,.269-1.733,4.073,4.073,0,0,1,.271-.761,3.284,3.284,0,0,1,.2-.355c.048-.074.2-.353.3-.329.057.014.1.165.114.209a1.6,1.6,0,0,1,.073.3,2.153,2.153,0,0,1-.013.621A5.221,5.221,0,0,1,122.5,6.1a10.338,10.338,0,0,1-1.261,2.222c-.118.159.105.377.225.216" transform="translate(-19.609 -0.579)" fill="#e26349"/>
            <path id="Trazado_608887" data-name="Trazado 608887" d="M125.5,3.77A8.505,8.505,0,0,1,132.355.311a5.74,5.74,0,0,1,3.339,1.072,4.118,4.118,0,0,1,1.154,1.375c.341.651.554,1.367.959,1.986a3.477,3.477,0,0,0,3.565,1.481c.2-.04.11-.339-.086-.3A3.155,3.155,0,0,1,138.1,4.62a20.636,20.636,0,0,1-.984-2.026,4.322,4.322,0,0,0-1.16-1.4c-2.012-1.58-4.9-1.437-7.135-.451a8.888,8.888,0,0,0-3.54,2.815c-.118.158.106.376.225.215" transform="translate(-20.844 0)" fill="#1c1c1b"/>
            <path id="Trazado_608888" data-name="Trazado 608888" d="M129.985,6.359a4.666,4.666,0,0,1,1.108,2.9,6.458,6.458,0,0,1-.649,2.973,11.8,11.8,0,0,1-.759,1.323,2.878,2.878,0,0,0-.534,1.4,3.709,3.709,0,0,0,.354,1.556,8.774,8.774,0,0,0,.805,1.516c.178.265.375.513.567.768a2.846,2.846,0,0,1,.467.8c.133.405.062,1.014-.4,1.184-.187.069-.1.37.086.3a1.116,1.116,0,0,0,.683-1.018,2.2,2.2,0,0,0-.573-1.43,11.42,11.42,0,0,1-.991-1.477,6.142,6.142,0,0,1-.644-1.646,2,2,0,0,1-.01-.824,2.485,2.485,0,0,1,.3-.719c.268-.458.573-.889.811-1.365a7.034,7.034,0,0,0,.8-3.052A5.058,5.058,0,0,0,130.2,6.134c-.133-.151-.348.075-.216.225" transform="translate(-21.494 -1.013)" fill="#1c1c1b"/>
            <path id="Trazado_608889" data-name="Trazado 608889" d="M127.748,24.094c.1.488-.359.9-.789,1.024a2.859,2.859,0,0,1-1.793-.337c-.183-.077-.337.2-.152.273a3,3,0,0,0,2.128.333,1.276,1.276,0,0,0,.905-1.378c-.04-.2-.339-.11-.3.085" transform="translate(-20.792 -3.977)" fill="#1c1c1b"/>
            <path id="Trazado_608890" data-name="Trazado 608890" d="M127.755,23.856a1.924,1.924,0,0,1-2.187-.366c-.141-.143-.357.083-.216.225a2.242,2.242,0,0,0,2.566.407c.178-.09.016-.356-.163-.266" transform="translate(-20.854 -3.902)" fill="#1c1c1b"/>
            <path id="Trazado_608891" data-name="Trazado 608891" d="M140.976,21.777a1.877,1.877,0,0,1-1.052-.125.722.722,0,0,1-.373-.9.836.836,0,0,1,.314-.314,1.888,1.888,0,0,1,.972-.288Z" transform="translate(-23.216 -3.354)" fill="#fff"/>
            <path id="Trazado_608892" data-name="Trazado 608892" d="M140.943,21.59a1.364,1.364,0,0,1-1.16-.252.558.558,0,0,1-.158-.433c.028-.2.218-.324.38-.414a1.736,1.736,0,0,1,.8-.213l-.158-.155q.06.71.121,1.42l.018.205a.16.16,0,0,0,.158.154.157.157,0,0,0,.154-.158q-.06-.709-.121-1.419l-.018-.205a.158.158,0,0,0-.158-.154,2.1,2.1,0,0,0-.885.218,1.065,1.065,0,0,0-.576.562.794.794,0,0,0,.109.671,1.065,1.065,0,0,0,.6.436,2.387,2.387,0,0,0,.894.048.16.16,0,0,0,.154-.158.157.157,0,0,0-.158-.154" transform="translate(-23.185 -3.323)" fill="#b56e46"/>
            <g id="Grupo_1071353" data-name="Grupo 1071353" transform="translate(108.723 20.993)" opacity="0.52">
              <g id="Grupo_1071352" data-name="Grupo 1071352">
                <g id="Grupo_1071351" data-name="Grupo 1071351" clip-path="url(#clip-path-5)">
                  <path id="Trazado_608893" data-name="Trazado 608893" d="M133.86,25.933l-3.431-.748L133.2,27.1Z" transform="translate(-130.43 -25.185)" fill="#b56e46"/>
                </g>
              </g>
            </g>
            <path id="Trazado_608894" data-name="Trazado 608894" d="M125.131,61.445l.033.022c.009.006.008.006,0,0l.012.01c.02.018.039.033.058.053l.039.042.016.021.022.033c.013.019.025.039.037.06l.021.042c0,.009.008.021,0,0a1.012,1.012,0,0,1,.047.15c0,.01,0,.02.006.03.01.048,0-.015,0,.013s.005.052.006.078,0,.053,0,.078,0,.026,0,.039c0-.017,0,0,0,.006a.863.863,0,0,1-.038.15c0,.008-.009.022,0,.007l-.016.035a.821.821,0,0,1-.043.074.156.156,0,1,0,.273.152,1.018,1.018,0,0,0-.316-1.369.156.156,0,1,0-.152.273" transform="translate(-20.812 -10.177)" fill="#b56e46"/>
            <path id="Trazado_608895" data-name="Trazado 608895" d="M148.912,41.415q0,1.8.139,3.588c.016.2.328.2.312,0q-.141-1.791-.139-3.589a.156.156,0,0,0-.312,0" transform="translate(-24.783 -6.867)" fill="#b56e46"/>
            <path id="Trazado_608896" data-name="Trazado 608896" d="M160.134,26.01c.718.993,1.625,2.292,1.084,3.574-.078.183.2.337.273.152a2.758,2.758,0,0,0,.033-1.929,7.256,7.256,0,0,0-1.124-1.959c-.117-.161-.383,0-.266.163" transform="translate(-26.646 -4.291)" fill="#b56e46"/>
            <path id="Trazado_608897" data-name="Trazado 608897" d="M165.817,24.389a36.267,36.267,0,0,0-4.329-1.436.156.156,0,0,0-.078.3,35.6,35.6,0,0,1,4.255,1.407c.184.074.338-.2.152-.273" transform="translate(-26.845 -3.819)" fill="#b56e46"/>
            <path id="Trazado_608898" data-name="Trazado 608898" d="M165.417,25.375a8.539,8.539,0,0,0-2.625,4.069c-.057.193.246.269.3.078a8.247,8.247,0,0,1,2.547-3.932c.153-.13-.073-.345-.225-.215" transform="translate(-27.092 -4.216)" fill="#b56e46"/>
            <path id="Trazado_608899" data-name="Trazado 608899" d="M56.857,38.386c-.022.015-.043.03-.066.043l-.02.01c-.016.008-.012.006.009,0,0,.006-.024.009-.031.012a.527.527,0,0,1-.073.02l-.015,0,.013,0a.1.1,0,0,1-.043,0,.684.684,0,0,1-.072,0,.18.18,0,0,1-.038,0c.036.012.006,0-.005,0s-.051-.01-.076-.017l-.036-.012c-.011,0-.05-.012-.011,0a.453.453,0,0,1-.133-.071c-.033-.022.017.014-.007-.006l-.027-.021a.664.664,0,0,1-.054-.054l-.015-.016c-.011-.013-.009-.011,0,.006-.007,0-.015-.021-.018-.027a.517.517,0,0,1-.039-.065l-.007-.015.006.013c-.006,0-.012-.034-.015-.041l-.008-.032c0-.009-.012-.059-.005-.013a.16.16,0,0,0-.158-.155c-.074,0-.167.072-.154.158a.755.755,0,0,0,.178.4.812.812,0,0,0,.3.215.79.79,0,0,0,.775-.057.161.161,0,0,0,.052-.214.158.158,0,0,0-.214-.052" transform="translate(-9.281 -6.314)" fill="#b56e46"/>
            <path id="Trazado_608900" data-name="Trazado 608900" d="M44.1,59.98c.028-.022-.018.012-.023.015l-.034.021c-.007,0-.058.028-.022.013l-.038.014c-.03.01-.06.018-.091.025l-.027,0c.018,0,.02,0,.008,0l-.047,0a.708.708,0,0,1-.094,0c.034,0-.009,0-.013,0l-.053-.012-.038-.012c-.017-.006-.017-.006,0,0l-.018-.008a.652.652,0,0,1-.083-.045l-.017-.013c.013.01.013.009,0,0l-.031-.028c-.014-.013-.026-.027-.039-.041.022.023-.007-.009-.009-.012a.628.628,0,0,1-.051-.084c0-.008-.008-.018-.013-.026.006.015.008.017,0,.006s-.011-.031-.016-.047a.535.535,0,0,1-.023-.1c.005.034,0-.007,0-.015s0-.038,0-.056,0-.028,0-.043,0-.018,0,0l.005-.028a.62.62,0,0,1,.028-.1.158.158,0,0,0-.113-.19.161.161,0,0,0-.19.113.807.807,0,0,0,.129.758.78.78,0,0,0,.708.288.823.823,0,0,0,.427-.184.155.155,0,0,0-.005-.22.162.162,0,0,0-.22,0" transform="translate(-7.16 -9.856)" fill="#b56e46"/>
            <g id="Grupo_1071356" data-name="Grupo 1071356" transform="translate(103.478 74.824)" opacity="0.17">
              <g id="Grupo_1071355" data-name="Grupo 1071355">
                <g id="Grupo_1071354" data-name="Grupo 1071354" clip-path="url(#clip-path-6)">
                  <path id="Trazado_608901" data-name="Trazado 608901" d="M124.363,95.485l5.77-4.228,1.63-1.195c.161-.118.005-.388-.157-.269l-5.771,4.228-1.63,1.195c-.16.118-.005.388.158.269" transform="translate(-124.138 -89.763)" fill="#1b4466"/>
                </g>
              </g>
            </g>
            <g id="Grupo_1071359" data-name="Grupo 1071359" transform="translate(106.371 76.777)" opacity="0.17">
              <g id="Grupo_1071358" data-name="Grupo 1071358">
                <g id="Grupo_1071357" data-name="Grupo 1071357" clip-path="url(#clip-path-7)">
                  <path id="Trazado_608902" data-name="Trazado 608902" d="M127.836,97.044q2.875-1.987,5.922-3.705.856-.484,1.726-.944c.178-.094.02-.363-.157-.269q-3.087,1.638-6.015,3.551-.824.539-1.634,1.1c-.163.113-.008.383.158.269" transform="translate(-127.609 -92.106)" fill="#1b4466"/>
                </g>
              </g>
            </g>
            <path id="Trazado_608903" data-name="Trazado 608903" d="M200.624,73.274h12.825l4.635-.5c.3.665,5.29,48.868,5.29,48.868l-14.413-.092L198.578,78.038Zm.911,5.412a1.449,1.449,0,0,0,.248.962,1.419,1.419,0,0,0,.762.37,29.12,29.12,0,0,0,8.387.376,2.035,2.035,0,0,0,1.478-.484,1.964,1.964,0,0,0,.37-.972q.318-1.75.478-3.525l-2.686-1.559a27.956,27.956,0,0,1-8.655.369,23.566,23.566,0,0,0-.383,4.463" transform="translate(-33.049 -12.112)" fill="#aa8b09"/>
            <path id="Trazado_608904" data-name="Trazado 608904" d="M194.648,73.8l.458-2.717,7.892-.2a34.729,34.729,0,0,1,6.286.417l6.892,1.093c0,.275,1.221,63.731,1.221,63.731l-7.39-.4L207.565,132l-10.962-.855-2.5,3.176-6.749-.733Zm4.54,6.318c.779.6,7.02.862,9.4.941a4.554,4.554,0,0,0,2.288-.518,1.952,1.952,0,0,0,.859-.73,23.923,23.923,0,0,0,.5-4.331l-6.513-.378-6.939-.2s-.563,4.473.4,5.213" transform="translate(-31.18 -11.795)" fill="#f2c508"/>
            <path id="Trazado_608905" data-name="Trazado 608905" d="M214.52,123.8a1.583,1.583,0,0,0,.858-.253l.175-.113a1.581,1.581,0,0,0,.716-1.359L215.4,87.655a1.579,1.579,0,0,0-1.495-1.531l-16.844-.831a1.565,1.565,0,0,0-1.635,1.355l-4.645,33.44a1.57,1.57,0,0,0,.4,1.276l.208.228a1.569,1.569,0,0,0,1.041.508l21.975,1.7c.04,0,.079,0,.119,0m-.629-37.375-.015.305a.966.966,0,0,1,.914.937l.869,34.422a.969.969,0,0,1-.438.832l-.175.113a.964.964,0,0,1-.6.152l-21.974-1.7a.959.959,0,0,1-.637-.312l-.208-.228a.96.96,0,0,1-.243-.78l4.645-33.441a.957.957,0,0,1,1-.829l16.844.832Z" transform="translate(-31.749 -14.195)" fill="#aa8b09"/>
            <path id="Trazado_608906" data-name="Trazado 608906" d="M215.132,75.625l-.275,3.118-.138,1.559a10.276,10.276,0,0,1-.155,1.269,2.581,2.581,0,0,1-.478,1.079,1.722,1.722,0,0,1-1.109.6,9.509,9.509,0,0,1-1.478.043q-.773-.008-1.545-.027-1.56-.038-3.119-.123t-3.113-.218c-.479-.041-.959-.076-1.435-.148a3.714,3.714,0,0,1-1.21-.375,2.287,2.287,0,0,1-.892-.872,3.189,3.189,0,0,1-.368-1.124,7.348,7.348,0,0,1-.067-1.233c.01-.5.035-.989.063-1.483q.085-1.544.252-3.082.041-.379.087-.757a.282.282,0,0,1,.275-.275c.134.006.293.122.275.275q-.183,1.505-.288,3.019-.053.754-.086,1.507c-.019.433-.04.865-.027,1.3q.009.291.045.58c-.007-.049,0-.01,0,.015l.01.065c.008.051.018.1.028.152.018.088.04.177.065.263a2.646,2.646,0,0,0,.09.263.3.3,0,0,0,.012.029s-.02-.045-.007-.017l.03.068c.02.042.041.083.063.122a2.088,2.088,0,0,0,.147.232l.019.025-.011-.013c.013.016.027.033.041.049.033.038.066.075.1.11s.064.062.1.091.036.031.053.045.045.035.018.014l.018.013a2.189,2.189,0,0,0,.253.156c.041.022.082.042.123.061.01,0,.069.03.041.018l.01,0,.043.017c.094.036.19.067.287.093a4.8,4.8,0,0,0,.6.123l.071.01.021,0,.165.019.31.031q1.518.139,3.039.234t3.044.144q1.523.049,3.048.053a5.878,5.878,0,0,0,.641-.025c.054,0-.028.006.026,0l.085-.014c.053-.01.105-.022.156-.036s.1-.034.152-.05c.029-.009,0,0-.009,0,.012,0,.022-.01.033-.015s.052-.025.078-.038.078-.046.116-.071l.033-.024c.005,0,.032-.026,0,0s.026-.023.034-.03c.03-.027.059-.054.087-.083l.04-.044.026-.03c.026-.03-.006,0-.006.008,0-.022.056-.078.068-.1.026-.039.049-.08.072-.121s.038-.073.054-.109c.005-.009.028-.047.025-.056s-.019.049-.008.018l.015-.038a3.229,3.229,0,0,0,.148-.528c.018-.091.033-.183.046-.275,0-.011,0-.022.005-.033s-.007.053,0,.02.007-.049.009-.074q.009-.069.015-.138c.049-.48.087-.962.128-1.442l.268-3.044c.022-.25.044-.5.067-.75a.275.275,0,1,1,.549,0" transform="translate(-33.244 -12.245)" fill="#aa8b09"/>
            <path id="Trazado_608907" data-name="Trazado 608907" d="M220.355,73.43l-.1,1.31a.292.292,0,0,1-.081.194.278.278,0,0,1-.194.08.275.275,0,0,1-.275-.274q.05-.655.1-1.31a.291.291,0,0,1,.08-.194.282.282,0,0,1,.194-.081.279.279,0,0,1,.2.081.271.271,0,0,1,.08.194" transform="translate(-36.565 -12.175)" fill="#aa8b09"/>
            <path id="Trazado_608908" data-name="Trazado 608908" d="M219.228,73.463a4.616,4.616,0,0,1-.063,1.388.275.275,0,0,1-.338.192.281.281,0,0,1-.192-.338c.016-.082.029-.163.041-.246l-.01.073a4.407,4.407,0,0,0,.013-1.069.273.273,0,0,1,.08-.194.282.282,0,0,1,.194-.081.277.277,0,0,1,.194.081.314.314,0,0,1,.081.194" transform="translate(-36.386 -12.181)" fill="#aa8b09"/>
            <path id="Trazado_608909" data-name="Trazado 608909" d="M199.594,72.412q-.078.656-.156,1.314a.3.3,0,0,1-.081.194.282.282,0,0,1-.194.081.277.277,0,0,1-.194-.081.265.265,0,0,1-.081-.194q.079-.656.157-1.314a.3.3,0,0,1,.08-.194.282.282,0,0,1,.194-.081.277.277,0,0,1,.194.081.265.265,0,0,1,.081.194" transform="translate(-33.1 -12.006)" fill="#aa8b09"/>
            <path id="Trazado_608910" data-name="Trazado 608910" d="M198.456,72.307q-.058.606-.116,1.215a.3.3,0,0,1-.08.194.28.28,0,0,1-.2.08.275.275,0,0,1-.194-.08.269.269,0,0,1-.08-.194q.058-.608.116-1.215a.3.3,0,0,1,.08-.194.282.282,0,0,1,.194-.081.276.276,0,0,1,.194.081.268.268,0,0,1,.081.194" transform="translate(-32.918 -11.988)" fill="#aa8b09"/>
            <path id="Trazado_608911" data-name="Trazado 608911" d="M199.66,90.976a1.208,1.208,0,0,0-.939-.625,1.226,1.226,0,0,0-1.147.409,1.284,1.284,0,0,0-.212.635,1.546,1.546,0,0,0,.055.569,1.378,1.378,0,0,0,.288.534,1.147,1.147,0,0,0,.488.323,1.2,1.2,0,0,0,.627.037,1.022,1.022,0,0,0,.564-.336.228.228,0,0,0,.038-.173.23.23,0,0,0-.266-.185.26.26,0,0,0-.146.093c-.005.006-.029.033,0,0s.006-.007,0,0a.459.459,0,0,1-.037.033l-.038.031c-.017.013-.068.041,0,0a.9.9,0,0,1-.178.082l.057-.018a.967.967,0,0,1-.233.042l.061,0a1,1,0,0,1-.259-.023l.06.013a.943.943,0,0,1-.236-.087l.052.028a.859.859,0,0,1-.15-.1l-.017-.014c-.028-.024.034.033.014.013l-.035-.035a.911.911,0,0,1-.064-.074l-.027-.035c-.006-.009-.038-.058-.014-.021s-.008-.013-.013-.023-.016-.028-.023-.043a1.278,1.278,0,0,1-.078-.188c.007.018.013.038.018.057a1.385,1.385,0,0,1-.059-.34l0,.062a1.418,1.418,0,0,1,.033-.366c-.005.02-.009.039-.013.059a1.1,1.1,0,0,1,.092-.257c-.009.018-.018.035-.028.053a.771.771,0,0,1,.084-.122c.015-.018-.043.043-.008.008l.022-.021a.684.684,0,0,1,.056-.044.17.17,0,0,1,.029-.021c-.013.007-.046.028-.014.01s.038-.022.058-.032a.974.974,0,0,1,.134-.053l-.056.018a1.262,1.262,0,0,1,.315-.055l-.061,0a1.248,1.248,0,0,1,.324.03l-.059-.013a1.149,1.149,0,0,1,.273.1l-.053-.028a.986.986,0,0,1,.113.07l.048.037.023.02c.03.026-.043-.044-.01-.009a.9.9,0,0,1,.083.1.266.266,0,0,1,.018.024c.025.037,0-.01-.009-.015.013.007.028.051.034.063a.229.229,0,0,0,.415-.194" transform="translate(-32.846 -15.035)" fill="#1b4466"/>
            <path id="Trazado_608912" data-name="Trazado 608912" d="M201.232,92.868q.289-.805.509-1.633.063-.238.12-.476l-.235.148a3.032,3.032,0,0,0,.557.021l-.267-.185.535,1.7q.076.24.151.48a.26.26,0,0,0,.093.146.235.235,0,0,0,.174.038.23.23,0,0,0,.146-.093.219.219,0,0,0,.038-.173l-.535-1.7q-.075-.24-.151-.48a.241.241,0,0,0-.093-.146.268.268,0,0,0-.173-.039h-.015l.062,0a2.719,2.719,0,0,1-.48-.024.215.215,0,0,0-.143.036.207.207,0,0,0-.093.112q-.2.831-.469,1.645-.078.233-.161.464a.229.229,0,0,0,.429.161" transform="translate(-33.417 -15.053)" fill="#1b4466"/>
            <path id="Trazado_608913" data-name="Trazado 608913" d="M201.437,92.6l.044,0-.062,0a3.6,3.6,0,0,1,.935.086l-.06-.013c.048.011.1.023.143.036a.246.246,0,0,0,.178-.007.235.235,0,0,0,.118-.128.232.232,0,0,0-.134-.294,3.961,3.961,0,0,0-.616-.119,3.849,3.849,0,0,0-.628-.012.227.227,0,0,0-.146.093.233.233,0,0,0-.038.173.228.228,0,0,0,.093.146.268.268,0,0,0,.173.039" transform="translate(-33.48 -15.335)" fill="#1b4466"/>
            <path id="Trazado_608914" data-name="Trazado 608914" d="M204.173,90.631l.022.618c.008.216.013.433.029.649a1.633,1.633,0,0,0,.4,1.04,1.021,1.021,0,0,0,.222.175,1.061,1.061,0,0,0,.319.115.792.792,0,0,0,.553-.094,1.526,1.526,0,0,0,.588-1.049,5.2,5.2,0,0,0,.024-1.313.228.228,0,0,0-.267-.184.23.23,0,0,0-.146.093.266.266,0,0,0-.038.173c.007.11.013.221.018.331l0-.061a3.721,3.721,0,0,1-.063,1c.005-.02.009-.04.014-.06a1.982,1.982,0,0,1-.17.467l.027-.053a1.214,1.214,0,0,1-.068.114c-.014.019-.028.039-.043.058l-.019.023c-.015.018.042-.043.007-.008a.617.617,0,0,1-.048.045l-.028.022c-.007,0-.038.026,0,0s0,0-.007,0l-.032.016a.436.436,0,0,1-.065.025l.057-.018a.7.7,0,0,1-.149.026l.062,0a.742.742,0,0,1-.177-.016l.06.013a.774.774,0,0,1-.189-.071l.053.028a.679.679,0,0,1-.08-.051.451.451,0,0,1-.038-.028c-.014-.012-.052-.053,0,0a1.478,1.478,0,0,1-.117-.133c-.009-.013-.017-.027-.027-.039.044.058.01.016,0,0s-.027-.048-.039-.073a1.42,1.42,0,0,1-.071-.177l.018.057a2.6,2.6,0,0,1-.1-.68l0,.061c-.014-.334-.025-.669-.038-1a.251.251,0,0,0-.052-.168.234.234,0,0,0-.156-.082.228.228,0,0,0-.167.053.214.214,0,0,0-.081.155" transform="translate(-33.98 -15.049)" fill="#1b4466"/>
            <path id="Trazado_608915" data-name="Trazado 608915" d="M207.544,90.931l1.9.154a.229.229,0,1,0,.041-.456l-1.9-.154a.229.229,0,1,0-.042.456" transform="translate(-34.507 -15.057)" fill="#1b4466"/>
            <path id="Trazado_608916" data-name="Trazado 608916" d="M208.424,90.792q-.006.853-.011,1.7c0,.163,0,.325,0,.487a.241.241,0,0,0,.052.168.229.229,0,0,0,.4-.126q.006-.851.011-1.7c0-.163,0-.325,0-.487a.242.242,0,0,0-.052-.168.229.229,0,0,0-.4.126" transform="translate(-34.685 -15.076)" fill="#1b4466"/>
            <path id="Trazado_608917" data-name="Trazado 608917" d="M210.528,90.723q0,.924-.038,1.848c-.007.175-.015.349-.024.524a.229.229,0,0,0,.456.041q.049-.923.059-1.847,0-.263,0-.524a.246.246,0,0,0-.052-.168.229.229,0,0,0-.4.126" transform="translate(-35.028 -15.064)" fill="#1b4466"/>
            <path id="Trazado_608918" data-name="Trazado 608918" d="M213.4,91.163c.027.019.053.038.078.059.006.005.031.033.038.034s-.04-.039-.017-.017l.021.02a1.345,1.345,0,0,1,.13.153l.026.038c.005.008.025.038,0,0s-.005-.007,0,0q.025.041.048.085a1.31,1.31,0,0,1,.078.191l-.018-.057a1.289,1.289,0,0,1,.055.313l0-.062a1.134,1.134,0,0,1-.025.281c0-.02.009-.04.013-.06a1.153,1.153,0,0,1-.1.265l.027-.053a1.127,1.127,0,0,1-.113.173l-.031.038a.207.207,0,0,1-.018.02c.008-.006.04-.043.013-.015a1,1,0,0,1-.075.071.912.912,0,0,1-.077.061l-.023.015c-.031.022.008-.006.018-.01-.014.007-.027.017-.042.025a1.072,1.072,0,0,1-.193.084l.057-.018a.963.963,0,0,1-.243.043l.062,0a1.012,1.012,0,0,1-.241-.021l.059.013a.889.889,0,0,1-.213-.079l.052.028a.968.968,0,0,1-.138-.1c-.033-.027.036.036.007.007l-.033-.036a.6.6,0,0,1-.049-.062c-.008-.012-.016-.024-.024-.035.04.051.015.024.006.008s-.028-.05-.04-.076a1.393,1.393,0,0,1-.063-.161c.006.018.012.038.018.057a1.719,1.719,0,0,1-.076-.43l0,.062a1.6,1.6,0,0,1,.036-.418c0,.02-.009.04-.013.06a1.229,1.229,0,0,1,.112-.3l-.028.053a.981.981,0,0,1,.086-.133c.015-.02.032-.038.048-.057-.048.058-.017.018,0,0l.028-.026c.02-.018.041-.035.062-.051l.027-.019c.044-.031-.041.023,0,0a.984.984,0,0,1,.163-.074l-.057.018a.854.854,0,0,1,.219-.039l-.062,0a.907.907,0,0,1,.223.02l-.06-.013a.919.919,0,0,1,.213.079l-.053-.028.108.062a.246.246,0,0,0,.173.039.235.235,0,0,0,.146-.093.232.232,0,0,0-.053-.32,2.135,2.135,0,0,0-.237-.125,1.022,1.022,0,0,0-.4-.078,1.051,1.051,0,0,0-.752.311,1.329,1.329,0,0,0-.237.338,1.491,1.491,0,0,0-.114.356,1.785,1.785,0,0,0,.005.716,1.32,1.32,0,0,0,.406.756,1.088,1.088,0,0,0,.816.231,1.315,1.315,0,0,0,1.082-.929,1.451,1.451,0,0,0-.407-1.435,1.7,1.7,0,0,0-.168-.141.229.229,0,0,0-.266.373" transform="translate(-35.266 -15.076)" fill="#1b4466"/>
            <path id="Trazado_608919" data-name="Trazado 608919" d="M215.909,93.366q.033-.92.1-1.839.018-.26.039-.521l-.435.077q.538.908.988,1.862c.084.179.166.358.245.539a.231.231,0,0,0,.354.078.707.707,0,0,0,.173-.5c.018-.159.038-.318.056-.478l.113-.961c.021-.182.043-.363.063-.545a.23.23,0,0,0-.207-.248.234.234,0,0,0-.249.207q-.1.872-.2,1.742c-.01.083-.02.166-.029.249s-.014.152-.029.227c0-.021.009-.04.013-.06a.325.325,0,0,1-.021.063l.028-.053c0,.008-.01.016-.014.023s.043-.04.014-.016l.353.079c-.283-.644-.6-1.275-.937-1.888-.1-.173-.2-.344-.3-.513a.229.229,0,0,0-.435.077q-.075.917-.116,1.837-.012.261-.021.523a.229.229,0,1,0,.456.041" transform="translate(-35.858 -15.104)" fill="#1b4466"/>
            <path id="Trazado_608920" data-name="Trazado 608920" d="M201.152,117.339a12.266,12.266,0,0,1,.624,1.572c-.006-.018-.012-.038-.018-.057q.163.511.281,1.034a.229.229,0,0,0,.44.04q.3-.949.529-1.922c.047-.2.091-.4.133-.6l-.453.02q.185.924.405,1.84c.042.173.084.345.128.518a.234.234,0,0,0,.2.188.241.241,0,0,0,.235-.148,11.613,11.613,0,0,0,.684-1.842q.08-.293.146-.588a.226.226,0,0,0-.052-.168.237.237,0,0,0-.156-.082.232.232,0,0,0-.167.053.271.271,0,0,0-.082.155l0,.014c.005-.02.009-.04.013-.06a11.523,11.523,0,0,1-.589,1.851q-.105.255-.223.505l.439.039q-.23-.913-.425-1.835c-.038-.174-.073-.348-.108-.522a.23.23,0,0,0-.236-.186.217.217,0,0,0-.137.05.265.265,0,0,0-.081.156q-.049.235-.1.468c.005-.019.009-.039.014-.059q-.18.785-.411,1.559-.066.219-.136.437l.44.04a12.586,12.586,0,0,0-.672-2.1c-.079-.188-.163-.375-.252-.559a.229.229,0,1,0-.414.194" transform="translate(-33.474 -19.474)" fill="#1b4466"/>
            <path id="Trazado_608921" data-name="Trazado 608921" d="M208.6,117.273a6.178,6.178,0,0,0-1.6-.082.209.209,0,0,0-.126.071.215.215,0,0,0-.061.133q-.01.785-.018,1.57c0,.129,0,.259,0,.388l0,.2a.463.463,0,0,0,.048.27c.1.15.3.145.453.168l.391.056.872.123a.23.23,0,0,0,.248-.207.235.235,0,0,0-.208-.249l-.751-.106-.376-.053c-.122-.018-.245-.03-.366-.053l.059.013a.131.131,0,0,1-.029-.009l.053.028c-.02-.013-.014,0,.019.028s.033.046.024.023c.007.019.012.038.018.057l0-.02c0,.02,0,.041,0,.062,0-.144,0-.289,0-.433l.005-.434.01-.876c0-.168,0-.335.006-.5l-.188.205c.064,0,.128-.009.193-.012l-.062,0a5.989,5.989,0,0,1,1.343.1.23.23,0,0,0,.168-.052.234.234,0,0,0,.082-.156.228.228,0,0,0-.053-.167.257.257,0,0,0-.155-.082" transform="translate(-34.416 -19.501)" fill="#1b4466"/>
            <path id="Trazado_608922" data-name="Trazado 608922" d="M207.108,118.958l1.393.171a.229.229,0,1,0,.042-.456l-1.394-.171a.23.23,0,0,0-.248.207.234.234,0,0,0,.208.249" transform="translate(-34.434 -19.722)" fill="#1b4466"/>
            <path id="Trazado_608923" data-name="Trazado 608923" d="M210.526,117.727a8.079,8.079,0,0,0,1.592.1c.167-.007.333-.017.5-.032a.231.231,0,0,0,.146-.093.229.229,0,0,0-.227-.358c-.133.012-.267.022-.4.028l.062,0a8.132,8.132,0,0,1-1.629-.1.23.23,0,0,0-.249.208.235.235,0,0,0,.208.248" transform="translate(-35.003 -19.517)" fill="#1b4466"/>
            <path id="Trazado_608924" data-name="Trazado 608924" d="M211.543,117.6l-.158,1.738-.045.5a.229.229,0,1,0,.456.041l.158-1.737.045-.5a.229.229,0,1,0-.456-.042" transform="translate(-35.173 -19.537)" fill="#1b4466"/>
            <path id="Trazado_608925" data-name="Trazado 608925" d="M197.668,125.275q.078-.9.134-1.8c.01-.169.021-.339.03-.508l-.249.208.678.033.334.017.168.008a1.057,1.057,0,0,1,.163.009l-.059-.013.008,0-.052-.028.006,0-.074-.089,0,.007c-.007-.039-.014-.079-.021-.118.013-.032.028-.069.041-.107l.086-.07-.005,0,.057-.018.056,0,.15.08c.015.053.033.109.049.164a.23.23,0,0,0-.207-.253.233.233,0,0,0-.039.464.251.251,0,0,0,.223-.1.241.241,0,0,0,.021-.248.262.262,0,0,0-.211-.141c-.073-.008-.149-.007-.223-.012l-.22-.011-.89-.043a.233.233,0,0,0-.248.208q-.051.9-.123,1.8-.02.254-.042.508a.229.229,0,1,0,.456.042" transform="translate(-32.822 -20.424)" fill="#1b4466"/>
            <path id="Trazado_608926" data-name="Trazado 608926" d="M197.473,124.564l1.315-.023a.247.247,0,0,0,.168-.053.228.228,0,0,0,.029-.323.221.221,0,0,0-.155-.081l-1.315.023a.247.247,0,0,0-.168.052.228.228,0,0,0-.029.323.222.222,0,0,0,.155.082" transform="translate(-32.83 -20.651)" fill="#1b4466"/>
            <path id="Trazado_608927" data-name="Trazado 608927" d="M201.079,122.958l-.035,1.746-.01.5a.237.237,0,0,0,.208.249,2.719,2.719,0,0,0,.558.018c.25-.009.5-.028.751-.044.123-.009.248-.017.371-.023l-.062,0a3.305,3.305,0,0,1,.34,0,.229.229,0,0,0,.041-.456,4.328,4.328,0,0,0-.509.009c-.19.01-.38.025-.571.038-.11.007-.22.014-.331.019l.062,0a2.855,2.855,0,0,1-.609-.015c.069.083.138.165.207.248l.035-1.746.01-.5a.242.242,0,0,0-.052-.168.229.229,0,0,0-.4.126" transform="translate(-33.458 -20.429)" fill="#1b4466"/>
            <path id="Trazado_608928" data-name="Trazado 608928" d="M206.646,123.395l.05.025-.053-.028a1,1,0,0,1,.158.105l.038.031c.023.02-.018-.015-.02-.018a.134.134,0,0,0,.016.015.863.863,0,0,1,.064.071.768.768,0,0,1,.054.072c0,.005.008.012.012.018s-.033-.054-.012-.018l.021.036a1.033,1.033,0,0,1,.074.174l-.018-.057a1,1,0,0,1,.044.248l0-.062a.992.992,0,0,1-.024.258c.005-.02.009-.04.014-.06a1.625,1.625,0,0,1-.142.369l.027-.053a1.231,1.231,0,0,1-.121.187l-.033.038c-.018.02.037-.038.018-.019l-.018.019c-.023.022-.047.043-.072.063s-.048.038-.073.054.009-.008.018-.012l-.018.011c-.014.008-.028.017-.042.023a1.058,1.058,0,0,1-.183.077l.057-.018a1.186,1.186,0,0,1-.3.053l.061,0a1.124,1.124,0,0,1-.3-.027l.06.014a1.1,1.1,0,0,1-.258-.1l.053.028a1.12,1.12,0,0,1-.173-.113l-.038-.032c-.006,0-.028-.027,0,0s0,0,0,0c-.025-.025-.049-.051-.072-.078s-.043-.053-.062-.079l-.015-.022c-.018-.025.006.012.011.018a.236.236,0,0,1-.026-.044,1.183,1.183,0,0,1-.088-.2c.007.019.012.038.018.057a1.18,1.18,0,0,1-.053-.289c0,.021,0,.041,0,.062a1.089,1.089,0,0,1,.026-.285c0,.02-.009.04-.013.06a1.16,1.16,0,0,1,.1-.278l-.027.052a1.172,1.172,0,0,1,.109-.167c.011-.014.022-.027.033-.04s.015-.013.015-.018-.039.041-.017.018.048-.048.074-.071.051-.041.077-.06.068-.04,0,0l.04-.023a1.056,1.056,0,0,1,.2-.085l-.057.018a1.158,1.158,0,0,1,.293-.051l-.062,0a1.175,1.175,0,0,1,.3.028l-.06-.014a1.115,1.115,0,0,1,.267.1l-.053-.028c.032.018.062.037.094.052a.23.23,0,0,0,.3-.134.234.234,0,0,0-.134-.294l.053.028a1.373,1.373,0,0,0-.837-.184,1.273,1.273,0,0,0-.734.326,1.362,1.362,0,0,0-.405.7,1.322,1.322,0,0,0,.093.854,1.374,1.374,0,0,0,.625.634,1.343,1.343,0,0,0,1.428-.168,1.494,1.494,0,0,0,.443-.712,1.235,1.235,0,0,0-.019-.793,1.2,1.2,0,0,0-.458-.577,1.355,1.355,0,0,0-.187-.1.231.231,0,0,0-.3.133.235.235,0,0,0,.134.3" transform="translate(-34.093 -20.438)" fill="#1b4466"/>
            <path id="Trazado_608929" data-name="Trazado 608929" d="M211.335,123.6l.05.024-.053-.028a1.062,1.062,0,0,1,.158.1l.038.032c.022.02-.018-.015-.02-.018a.135.135,0,0,0,.016.015.864.864,0,0,1,.064.071.886.886,0,0,1,.054.071l.012.018c.014.021-.033-.053-.012-.018l.021.037a1.025,1.025,0,0,1,.074.173l-.018-.057a1.009,1.009,0,0,1,.044.249l0-.062a.994.994,0,0,1-.024.258c.005-.02.009-.04.014-.06a1.62,1.62,0,0,1-.142.368l.027-.052a1.233,1.233,0,0,1-.121.187l-.033.038c-.017.02.037-.038.018-.019l-.018.018c-.023.023-.047.044-.072.064s-.048.037-.073.054.009-.008.018-.012a.133.133,0,0,0-.018.011l-.042.023a1.059,1.059,0,0,1-.183.077l.057-.018a1.186,1.186,0,0,1-.3.053l.061,0a1.161,1.161,0,0,1-.3-.027l.06.013a1.062,1.062,0,0,1-.258-.1l.052.028a1.152,1.152,0,0,1-.172-.113c-.013-.01-.026-.021-.038-.032s-.029-.027,0,0,0,0,0,0q-.037-.038-.073-.078c-.021-.026-.042-.053-.061-.079l-.015-.022c-.017-.026.006.013.011.018a.236.236,0,0,1-.026-.044,1.185,1.185,0,0,1-.088-.2c.007.019.013.038.018.057a1.142,1.142,0,0,1-.053-.289c0,.02,0,.041,0,.062a1.1,1.1,0,0,1,.026-.286c0,.02-.009.04-.013.06a1.151,1.151,0,0,1,.1-.278l-.028.053a1.23,1.23,0,0,1,.109-.168c.011-.013.022-.027.033-.039s.015-.013.015-.018-.039.041-.017.018a1,1,0,0,1,.075-.071c.024-.022.05-.041.076-.06s.068-.04,0,0l.04-.023a1.055,1.055,0,0,1,.2-.085l-.057.018a1.122,1.122,0,0,1,.293-.051l-.062,0a1.215,1.215,0,0,1,.3.027l-.06-.013a1.081,1.081,0,0,1,.267.1l-.053-.028c.032.018.062.037.094.052a.231.231,0,0,0,.3-.134.235.235,0,0,0-.134-.3l.053.028a1.373,1.373,0,0,0-.837-.184,1.262,1.262,0,0,0-.734.326,1.361,1.361,0,0,0-.405.7,1.321,1.321,0,0,0,.093.854,1.374,1.374,0,0,0,.625.634,1.343,1.343,0,0,0,1.428-.168,1.492,1.492,0,0,0,.443-.713,1.233,1.233,0,0,0-.019-.792,1.2,1.2,0,0,0-.458-.577,1.453,1.453,0,0,0-.187-.1.231.231,0,0,0-.3.134.235.235,0,0,0,.134.3" transform="translate(-34.873 -20.472)" fill="#1b4466"/>
            <path id="Trazado_608930" data-name="Trazado 608930" d="M214.351,123.5q.048.376.064.755l0-.062a9.088,9.088,0,0,1-.045,1.38.229.229,0,0,0,.457.042,9.452,9.452,0,0,0,.025-1.724q-.018-.238-.048-.473a.231.231,0,0,0-.266-.184.234.234,0,0,0-.185.266" transform="translate(-35.674 -20.51)" fill="#1b4466"/>
            <path id="Trazado_608931" data-name="Trazado 608931" d="M214.721,123.495a2.135,2.135,0,0,1,.4-.055l-.062,0a3.257,3.257,0,0,1,.829.078l-.06-.013a1.208,1.208,0,0,1,.293.1l-.053-.028a.739.739,0,0,1,.1.062c.017.013.06.059.01,0,.013.013.025.025.037.038a.5.5,0,0,1,.033.041l.013.019s-.033-.054-.01-.015a.54.54,0,0,1,.045.1c-.006-.019-.012-.038-.018-.057a.468.468,0,0,1,.023.122c0-.021,0-.041,0-.062a.455.455,0,0,1-.008.1c0-.02.009-.04.013-.06a.443.443,0,0,1-.037.1l.027-.053a.521.521,0,0,1-.028.046l-.015.019c-.014.017-.035.028.013-.013-.014.012-.026.025-.04.036s-.038.035-.044.033.054-.034.019-.013l-.023.013-.056.028a1.084,1.084,0,0,1-.109.041l.057-.018a2.245,2.245,0,0,1-.363.073c-.152.021-.3.034-.457.041l.062,0q-.238.01-.473,0a.229.229,0,1,0-.042.456c.164.024.328.049.491.086l-.06-.013a2.1,2.1,0,0,1,.516.183l-.052-.028a1.344,1.344,0,0,1,.173.11c.027.021.053.043.078.065s-.032-.031-.014-.013l.021.019.035.038a.836.836,0,0,1,.064.078c.011.013.02.027.03.041a.12.12,0,0,0,.013.018c-.008-.006-.031-.05-.011-.017a.932.932,0,0,1,.085.185c-.007-.019-.013-.038-.018-.057a.817.817,0,0,1,.038.205l0-.062a.417.417,0,0,0,.08.272.26.26,0,0,0,.373.041.229.229,0,0,0-.126-.4.263.263,0,0,0-.167.053l.035-.024.057-.018h-.007l.062,0h-.007l.06.013-.007,0,.053.028c-.012-.009-.008-.006.01.009a.114.114,0,0,1,.038.048.206.206,0,0,0-.012-.028c.007.019.012.038.018.057a.193.193,0,0,1-.006-.038l0,.061a1.08,1.08,0,0,0-.109-.467,1.279,1.279,0,0,0-.257-.347,1.635,1.635,0,0,0-.4-.281,2.085,2.085,0,0,0-.453-.158c-.191-.045-.384-.078-.578-.106-.014.152-.028.3-.042.456a5.354,5.354,0,0,0,1.014-.043,1.292,1.292,0,0,0,.749-.288.623.623,0,0,0,.2-.431.756.756,0,0,0-.169-.478,1.294,1.294,0,0,0-.868-.391,2.885,2.885,0,0,0-1.079.019.229.229,0,0,0,.082.451" transform="translate(-35.691 -20.468)" fill="#1b4466"/>
            <path id="Trazado_608932" data-name="Trazado 608932" d="M209.443,103.186a.781.781,0,0,0-.731-.228,1.36,1.36,0,0,1-1.136-.255,5.068,5.068,0,0,0-.589-.525,1.661,1.661,0,0,0-.623-.171,18.1,18.1,0,0,0-2.346-.155c-.253,0-.6.1-.541.368a.312.312,0,0,0,.2.223,10.7,10.7,0,0,0,2.86.557c.033.568,0,1.257-.493,1.537a2.05,2.05,0,0,1-1.129.086,4.022,4.022,0,0,0-3.31,1.918.374.374,0,0,0-.04.248c.038.188.191.216.329.221a1.988,1.988,0,0,0,1.114-.309,5.629,5.629,0,0,1,1.3-.778c.644-.115,1.644,1.224,1.638,1.328a28.943,28.943,0,0,0-2.324,2.934.4.4,0,0,0-.023.313.645.645,0,0,0,.876.258,19.639,19.639,0,0,0,2.185-1.716,6.681,6.681,0,0,0,1.136-1.081,8.2,8.2,0,0,0,1.281-3.113A10.333,10.333,0,0,0,210.8,107.2c.346-.128.3-.629.173-.975a16.74,16.74,0,0,0-1.345-2.845Z" transform="translate(-33.546 -16.951)" fill="#1b4466"/>
            <path id="Trazado_608933" data-name="Trazado 608933" d="M209.517,100.775a.724.724,0,0,0-.646.5c-.011.03-.019.06-.028.091a.73.73,0,0,0,.117.638.856.856,0,0,0,.256.184c.308.163.721.274.944-.057a.581.581,0,0,0,.061-.12,1.076,1.076,0,0,0-.038-.811.7.7,0,0,0-.666-.428" transform="translate(-34.753 -16.772)" fill="#1b4466"/>
            <path id="Trazado_608934" data-name="Trazado 608934" d="M211.414,111.869a2.988,2.988,0,0,0,2.657-4.341l-5.5-10.84a2.988,2.988,0,0,0-5.168-.28l-6.638,10.185a2.989,2.989,0,0,0,2.342,4.615l12.138.656c.057,0,.113,0,.168,0M205.9,95.936c.039,0,.078,0,.118,0a2.081,2.081,0,0,1,1.762,1.149l5.5,10.841a2.1,2.1,0,0,1-1.871,3.056c-.039,0-.078,0-.118,0l-12.138-.657a2.1,2.1,0,0,1-1.649-3.249l6.638-10.184a2.08,2.08,0,0,1,1.758-.955" transform="translate(-32.666 -15.819)" fill="#1b4466"/>
            <path id="Trazado_608935" data-name="Trazado 608935" d="M214.23,75.31l-4.775-.316-4.775-.315L202,74.5a.275.275,0,1,1,0-.549l4.775.315,4.775.316,2.68.178a.275.275,0,1,1,0,.549" transform="translate(-33.573 -12.308)" fill="#aa8b09"/>
            <path id="Trazado_608936" data-name="Trazado 608936" d="M216.05,141.074q-5.016-.2-10.028-.5-4.986-.3-9.965-.7-2.793-.224-5.586-.479a.283.283,0,0,1-.275-.275.278.278,0,0,1,.275-.275q5,.458,10.008.814,4.981.355,9.97.61,2.8.144,5.6.256c.353.013.354.563,0,.549" transform="translate(-31.654 -23.107)" fill="#aa8b09"/>
            <path id="Trazado_608937" data-name="Trazado 608937" d="M220.954,143.15q.351,1.212.7,2.424c.066.229.133.458.2.687a.277.277,0,0,1-.192.338.281.281,0,0,1-.338-.192q-.35-1.212-.7-2.424c-.066-.229-.132-.458-.2-.687a.277.277,0,0,1,.192-.338.281.281,0,0,1,.338.192" transform="translate(-36.683 -23.791)" fill="#aa8b09"/>
            <path id="Trazado_608938" data-name="Trazado 608938" d="M217.8,143.3q.351,1.212.7,2.424c.066.229.133.458.2.687a.275.275,0,0,1-.529.146q-.351-1.212-.7-2.424l-.2-.687a.277.277,0,0,1,.192-.338.28.28,0,0,1,.338.192" transform="translate(-36.159 -23.816)" fill="#aa8b09"/>
            <path id="Trazado_608939" data-name="Trazado 608939" d="M214.653,143.443q.351,1.212.7,2.424c.066.229.133.458.2.687a.275.275,0,0,1-.529.146q-.351-1.212-.7-2.424l-.2-.687a.277.277,0,0,1,.192-.338.28.28,0,0,1,.338.192" transform="translate(-35.635 -23.84)" fill="#aa8b09"/>
            <path id="Trazado_608940" data-name="Trazado 608940" d="M189.912,141.165l-.881,2.365-.249.67a.3.3,0,0,1-.127.164.28.28,0,0,1-.212.028.275.275,0,0,1-.164-.127.269.269,0,0,1-.028-.212q.44-1.182.881-2.365c.083-.223.166-.447.249-.669a.3.3,0,0,1,.127-.164.273.273,0,0,1,.376.1.27.27,0,0,1,.028.212" transform="translate(-31.329 -23.436)" fill="#aa8b09"/>
            <path id="Trazado_608941" data-name="Trazado 608941" d="M193.042,141.546q-.44,1.183-.881,2.365l-.249.67a.3.3,0,0,1-.127.164.275.275,0,0,1-.376-.1.269.269,0,0,1-.028-.212q.44-1.182.881-2.365c.083-.223.166-.447.249-.669a.3.3,0,0,1,.127-.164.28.28,0,0,1,.212-.028.284.284,0,0,1,.164.127.27.27,0,0,1,.028.212" transform="translate(-31.849 -23.499)" fill="#aa8b09"/>
            <path id="Trazado_608942" data-name="Trazado 608942" d="M196.173,141.928q-.44,1.183-.881,2.365l-.249.67a.3.3,0,0,1-.127.164.28.28,0,0,1-.212.028.275.275,0,0,1-.164-.127.269.269,0,0,1-.028-.212q.44-1.182.881-2.365c.083-.223.166-.447.249-.669a.3.3,0,0,1,.127-.164.28.28,0,0,1,.212-.028.284.284,0,0,1,.164.127.27.27,0,0,1,.028.212" transform="translate(-32.371 -23.563)" fill="#aa8b09"/>
            <path id="Trazado_608943" data-name="Trazado 608943" d="M144.817,85.68a47.055,47.055,0,0,0,16.158-18.2,75.181,75.181,0,0,0,15.4,1.223,72.7,72.7,0,0,1-13.695,26.016c-1.164-4.07-7.184-4.951-10.889-7a31.043,31.043,0,0,0-6.335-2.482Z" transform="translate(-24.102 -11.23)" fill="#fff"/>
            <path id="Trazado_608944" data-name="Trazado 608944" d="M159.347,104.995c8.076-2.814,16.445-6.167,21.832-12.809a18.749,18.749,0,0,0,13.527,9.044A45.41,45.41,0,0,1,173.62,119.35a21.63,21.63,0,0,0-14.636-14Z" transform="translate(-26.459 -15.342)" fill="#fff"/>
            <path id="Trazado_608945" data-name="Trazado 608945" d="M184.27,46.977a25.713,25.713,0,0,0,7.305-1.746q.993-.4,1.951-.879c.2-.1.024-.4-.173-.3a25.475,25.475,0,0,1-7,2.306q-1.037.18-2.084.273c-.218.018-.221.363,0,.343" transform="translate(-30.64 -7.329)" fill="#c6aca1"/>
            <path id="Trazado_608946" data-name="Trazado 608946" d="M186.363,49.128a21.721,21.721,0,0,0,5.655-1.536q.768-.325,1.509-.709c.2-.1.023-.4-.173-.3a21.334,21.334,0,0,1-5.392,1.925q-.794.168-1.6.274a.177.177,0,0,0-.172.172.173.173,0,0,0,.172.172" transform="translate(-30.987 -7.75)" fill="#c6aca1"/>
            <path id="Trazado_608947" data-name="Trazado 608947" d="M187.71,52.65a21.823,21.823,0,0,1,4.9-2.031.172.172,0,0,0-.092-.332,22.288,22.288,0,0,0-4.981,2.066.172.172,0,0,0,.173.3" transform="translate(-31.197 -8.368)" fill="#c6aca1"/>
            <path id="Trazado_608948" data-name="Trazado 608948" d="M188.934,55.938a56.73,56.73,0,0,0,5.537-1.675q.778-.279,1.547-.581c.2-.08.115-.413-.091-.332a56.921,56.921,0,0,1-5.486,1.836q-.8.221-1.6.42a.172.172,0,0,0,.092.332" transform="translate(-31.408 -8.877)" fill="#c6aca1"/>
            <path id="Trazado_608949" data-name="Trazado 608949" d="M189.394,60.782a27.486,27.486,0,0,0,6.053-2.055c.2-.1.026-.392-.173-.3a27.088,27.088,0,0,1-5.971,2.02c-.216.047-.124.378.092.332" transform="translate(-31.485 -9.721)" fill="#c6aca1"/>
            <path id="Trazado_608950" data-name="Trazado 608950" d="M189.813,65.746l2.1-.372a.173.173,0,0,0,.12-.212.176.176,0,0,0-.211-.12l-2.1.373a.172.172,0,0,0-.12.211.175.175,0,0,0,.211.12" transform="translate(-31.554 -10.824)" fill="#c6aca1"/>
            <path id="Trazado_608951" data-name="Trazado 608951" d="M165.129,70.978a14.3,14.3,0,0,0,6.605,2.261,13.871,13.871,0,0,0,2,.023c.219-.013.221-.357,0-.343a13.87,13.87,0,0,1-8.437-2.238c-.186-.121-.358.176-.173.3" transform="translate(-27.469 -11.759)" fill="#c6aca1"/>
            <path id="Trazado_608952" data-name="Trazado 608952" d="M164.838,74.991a13.782,13.782,0,0,0,6.533,2.146,13.417,13.417,0,0,0,1.971-.016c.219-.018.221-.362,0-.343a13.438,13.438,0,0,1-6.644-1.161,13.234,13.234,0,0,1-1.687-.923c-.187-.12-.358.178-.173.3" transform="translate(-27.421 -12.427)" fill="#c6aca1"/>
            <path id="Trazado_608953" data-name="Trazado 608953" d="M162.693,76.322l2.454,1.407a.172.172,0,0,0,.173-.3l-2.454-1.407a.172.172,0,0,0-.173.3" transform="translate(-27.063 -12.649)" fill="#c6aca1"/>
            <path id="Trazado_608954" data-name="Trazado 608954" d="M169.031,80.655l2.856.9c.211.067.3-.265.091-.331l-2.855-.9c-.212-.066-.3.265-.092.332" transform="translate(-28.112 -13.367)" fill="#c6aca1"/>
            <path id="Trazado_608955" data-name="Trazado 608955" d="M159.315,81.4l4.238,2.051c.2.1.373-.2.173-.3l-4.238-2.051c-.2-.1-.373.2-.173.3" transform="translate(-26.5 -13.495)" fill="#c6aca1"/>
            <path id="Trazado_608956" data-name="Trazado 608956" d="M165.628,85.19a9.033,9.033,0,0,0,3.285.982c.219.022.218-.322,0-.343a8.6,8.6,0,0,1-3.112-.935c-.2-.1-.37.194-.173.3" transform="translate(-27.551 -14.125)" fill="#c6aca1"/>
            <path id="Trazado_608957" data-name="Trazado 608957" d="M157.995,85.244a16.637,16.637,0,0,0,5.782,2.65,17.01,17.01,0,0,0,1.771.325.173.173,0,0,0,.172-.172.175.175,0,0,0-.172-.172,16.278,16.278,0,0,1-7.38-2.928c-.18-.129-.352.168-.173.3" transform="translate(-26.282 -14.132)" fill="#c6aca1"/>
            <path id="Trazado_608958" data-name="Trazado 608958" d="M155.922,87.645a10.666,10.666,0,0,0,4.665,2.117c.216.039.308-.292.091-.332a10.314,10.314,0,0,1-4.513-2.029c-.172-.135-.416.107-.243.243" transform="translate(-25.94 -14.54)" fill="#c6aca1"/>
            <path id="Trazado_608959" data-name="Trazado 608959" d="M166.887,108.793a16.185,16.185,0,0,1,4.1,2.532,16.5,16.5,0,0,1,3.183,3.615,16.173,16.173,0,0,1,1.28,2.4c.087.2.383.028.3-.173a16.446,16.446,0,0,0-2.577-4.145A16.808,16.808,0,0,0,169.5,109.8a16.108,16.108,0,0,0-2.44-1.3c-.2-.086-.376.21-.173.3" transform="translate(-27.76 -18.054)" fill="#c6aca1"/>
            <path id="Trazado_608960" data-name="Trazado 608960" d="M171.2,106.553a18.752,18.752,0,0,1,4.866,2.742c.172.135.417-.107.243-.243a19.265,19.265,0,0,0-5.017-2.831c-.207-.079-.3.253-.091.331" transform="translate(-28.474 -17.676)" fill="#c6aca1"/>
            <path id="Trazado_608961" data-name="Trazado 608961" d="M178.268,112.86l2.457,2.457a.172.172,0,0,0,.243-.243l-2.457-2.456a.172.172,0,0,0-.243.243" transform="translate(-29.66 -18.734)" fill="#c6aca1"/>
            <path id="Trazado_608962" data-name="Trazado 608962" d="M176.663,104.782l3.021,2.948c.158.155.4-.088.243-.243l-3.02-2.949c-.158-.154-.4.088-.243.243" transform="translate(-29.393 -17.39)" fill="#c6aca1"/>
            <path id="Trazado_608963" data-name="Trazado 608963" d="M183.741,114.545l1.053,1.053a.172.172,0,0,0,.243-.243l-1.053-1.052a.172.172,0,0,0-.243.243" transform="translate(-30.572 -19.015)" fill="#c6aca1"/>
            <path id="Trazado_608964" data-name="Trazado 608964" d="M180.342,102.8a21.612,21.612,0,0,1,6.343,8.344c.088.2.383.028.3-.173a21.869,21.869,0,0,0-6.4-8.414c-.17-.137-.415.105-.243.243" transform="translate(-30.004 -17.061)" fill="#c6aca1"/>
            <path id="Trazado_608965" data-name="Trazado 608965" d="M183.831,101.018a17.906,17.906,0,0,1,5.9,6.651c.1.2.4.023.3-.173a18.3,18.3,0,0,0-4.417-5.556A18.552,18.552,0,0,0,184,100.721c-.183-.124-.356.173-.173.3" transform="translate(-30.582 -16.758)" fill="#c6aca1"/>
            <path id="Trazado_608966" data-name="Trazado 608966" d="M187.529,98.547l5.293,4.881c.162.149.406-.093.243-.243L187.773,98.3c-.163-.15-.406.093-.243.243" transform="translate(-31.201 -16.353)" fill="#c6aca1"/>
            <path id="Trazado_608967" data-name="Trazado 608967" d="M109.63,45.182c2.713,5.007,7.5,8.355,12.71,10.652,1.234-2.243,2.556-4.583,4.724-5.944a13.839,13.839,0,0,0,2.649-1.69c1.307-1.32,1.4-3.381,1.415-5.239q.041-5.58.083-11.161a4.144,4.144,0,0,0-.382-2.176,4.139,4.139,0,0,0-1.136-1.109l-4.352-3.266c-1.385,2.442-4.175,3.639-6.44,5.3-4.591,3.363-6.91,9.456-9.271,14.635" transform="translate(-18.246 -4.202)" fill="#b7998d"/>
            <path id="Trazado_608968" data-name="Trazado 608968" d="M110.2,46.24c2.268,6.344,6.405,10.144,12.97,11.656-.747,1.224-1.314,2.671-2.061,3.894-3.286-.856-5.338-2.531-7.646-5.021a31.215,31.215,0,0,1-5.417-8.572c.528-.8,1.516-.919,2.045-1.722Z" transform="translate(-17.981 -7.696)"/>
            <path id="Trazado_608969" data-name="Trazado 608969" d="M124.36,39.985a3.916,3.916,0,0,0-3.524,4.226c.549,6.374,2.37,15.036,2.852,15.409s26.373.889,27.519-.509c.618-.754-2.527-.762-4.031-.5a24.913,24.913,0,0,0,4.508-6.847.374.374,0,0,0-.6-.416,25.3,25.3,0,0,0-3.749,5.065A15.709,15.709,0,0,0,150.5,49.96a.374.374,0,0,0-.683-.279l-3.964,6.2a12.978,12.978,0,0,0,2.526-5.078.374.374,0,0,0-.689-.244l-2.832,4.514a7.689,7.689,0,0,0,1.32-3.674.185.185,0,0,0-.342-.117l-4.063,6.478c-3.008-.749-12.5-3.486-12.728-3.732-.183-.2-.117-5.69-.394-10.374a3.917,3.917,0,0,0-4.293-3.665" transform="translate(-20.108 -6.652)" fill="#f9d0b8"/>
            <path id="Trazado_608970" data-name="Trazado 608970" d="M151.975,61.865a4.422,4.422,0,0,0-4.23.417c-.164.114,0,.382.162.267a4.106,4.106,0,0,1,3.916-.411c.183.078.336-.193.152-.273" transform="translate(-24.578 -10.237)" fill="#b56e46"/>
            <path id="Trazado_608971" data-name="Trazado 608971" d="M149.349,57.843a2.706,2.706,0,0,1-1.343,2.457c-.174.1-.012.366.162.266a3.018,3.018,0,0,0,1.493-2.726c-.01-.2-.322-.2-.312,0" transform="translate(-24.62 -9.601)" fill="#b56e46"/>
            <path id="Trazado_608972" data-name="Trazado 608972" d="M152.383,59.347l-2.957-1.817c-.172-.105-.323.168-.152.273l2.957,1.817c.172.105.323-.168.152-.273" transform="translate(-24.831 -9.571)" fill="#b56e46"/>
            <path id="Trazado_608973" data-name="Trazado 608973" d="M129.744,56.6a9.223,9.223,0,0,0-5.111.9c-.18.088-.017.354.163.266a8.938,8.938,0,0,1,4.952-.853c.2.023.193-.289,0-.312" transform="translate(-20.729 -9.409)" fill="#b56e46"/>
            <path id="Trazado_608974" data-name="Trazado 608974" d="M127.007,27.743l4.277,5.076a.173.173,0,0,0,.27-.035,4.7,4.7,0,0,1,2.1-2.185c.2-.1.023-.4-.173-.3a5.006,5.006,0,0,0-2.228,2.308l.27-.035L127.251,27.5c-.143-.169-.385.075-.243.243" transform="translate(-21.131 -4.567)" fill="#775d54"/>
            <path id="Trazado_608975" data-name="Trazado 608975" d="M120.61,40.891a3.42,3.42,0,0,1,2.27-1.63,7.423,7.423,0,0,1,1.633-.2,8.884,8.884,0,0,1,1.589.083,5.174,5.174,0,0,1,1.682.542c.2.105.368-.191.173-.3a6.644,6.644,0,0,0-3.266-.674,5.991,5.991,0,0,0-3.253.79,3.275,3.275,0,0,0-1.124,1.211c-.1.2.194.37.3.173" transform="translate(-20.02 -6.443)" fill="#775d54"/>
            <path id="Trazado_608976" data-name="Trazado 608976" d="M133.968,33.317a67.172,67.172,0,0,1-.268,7.451c-.1,1.119-.236,2.235-.378,3.348a11.976,11.976,0,0,1-.564,2.617,4.818,4.818,0,0,1-1.745,2.307c-.179.126-.008.424.173.3a5.071,5.071,0,0,0,1.717-2.06,9.642,9.642,0,0,0,.686-2.611c.339-2.337.563-4.7.669-7.057q.1-2.146.053-4.294a.172.172,0,0,0-.343,0" transform="translate(-21.792 -5.517)" fill="#775d54"/>
            <path id="Trazado_608977" data-name="Trazado 608977" d="M112,48.733l.574-.711a.188.188,0,0,0,.05-.122.172.172,0,0,0-.293-.122l-.574.711a.191.191,0,0,0-.05.122.178.178,0,0,0,.05.122.174.174,0,0,0,.243,0" transform="translate(-18.591 -7.943)" fill="#775d54"/>
            <path id="Trazado_608978" data-name="Trazado 608978" d="M112.965,49.583l.589-.58a.172.172,0,1,0-.243-.243l-.59.58a.172.172,0,0,0,.243.243" transform="translate(-18.752 -8.107)" fill="#775d54"/>
            <path id="Trazado_608979" data-name="Trazado 608979" d="M117.844,53.9q-.1.471-.2.942a.172.172,0,0,0,.332.092q.1-.471.2-.942a.176.176,0,0,0-.121-.212.174.174,0,0,0-.211.12" transform="translate(-19.578 -8.949)" fill="#775d54"/>
            <path id="Trazado_608980" data-name="Trazado 608980" d="M118.68,54.6l-.234.585a.172.172,0,0,0,.12.211.171.171,0,0,0,.133-.018.2.2,0,0,0,.079-.1l.233-.584a.171.171,0,0,0-.017-.133.172.172,0,0,0-.235-.062.2.2,0,0,0-.079.1" transform="translate(-19.712 -9.066)" fill="#775d54"/>
            <path id="Trazado_608981" data-name="Trazado 608981" d="M120.652,34.433a3.517,3.517,0,0,0-1.366,1.454.175.175,0,0,0,.062.235.173.173,0,0,0,.235-.062,3.183,3.183,0,0,1,1.243-1.33.172.172,0,0,0-.173-.3" transform="translate(-19.849 -5.727)" fill="#775d54"/>
            <path id="Trazado_608982" data-name="Trazado 608982" d="M122.438,34.733l-.583.7a.184.184,0,0,0-.051.122.175.175,0,0,0,.051.121.173.173,0,0,0,.243,0l.584-.7a.186.186,0,0,0,.05-.121.178.178,0,0,0-.05-.122.174.174,0,0,0-.243,0" transform="translate(-20.272 -5.772)" fill="#775d54"/>
          </g>
        </g>
      </g>
    </g>
  </g>
</svg>
