<svg id="Grupo_1071489" data-name="Grupo 1071489" xmlns="http://www.w3.org/2000/svg" xmlns:xlink="http://www.w3.org/1999/xlink" width="254" height="169.457" viewBox="0 0 254 169.457">
  <defs>
    <clipPath id="clip-path">
      <rect id="Rectángulo_377694" data-name="Rectángulo 377694" width="254" height="169.458" fill="none"/>
    </clipPath>
  </defs>
  <g id="Grupo_1071488" data-name="Grupo 1071488" clip-path="url(#clip-path)">
    <path id="Trazado_609164" data-name="Trazado 609164" d="M70.75,163.134c36.439,9.143,96.007,10.164,136.212-9.083,37.139-17.776,44.782-83.131,19.295-120.2C208.144,7.507,173.441-3,140.165.731,100.9,5.136,90.483,32.287,64.429,51.795,48.217,63.932,15.1,60.946,8.852,96.36c-7.121,40.362,36.741,60.46,61.9,66.774" transform="translate(-4.833 0)" fill="#fff"/>
    <path id="Trazado_609165" data-name="Trazado 609165" d="M481.26,275.489c4.674-81.085,39.944-91.068,45.482-84.244,11.6,14.291-28.683,59.033-45.482,84.244" transform="translate(-287.847 -113.332)" fill="#cadeb4"/>
    <path id="Trazado_609166" data-name="Trazado 609166" d="M524.323,201.848a189.985,189.985,0,0,0-40.683,80.39" transform="translate(-289.271 -120.728)" fill="none" stroke="#755952" stroke-linecap="round" stroke-miterlimit="10" stroke-width="1"/>
    <path id="Trazado_609167" data-name="Trazado 609167" d="M558.98,203.578a35.551,35.551,0,0,1,1.849,10.546,58.578,58.578,0,0,1,11.474-1.306" transform="translate(-334.332 -121.762)" fill="none" stroke="#755952" stroke-linecap="round" stroke-miterlimit="10" stroke-width="1"/>
    <path id="Trazado_609168" data-name="Trazado 609168" d="M525.2,238.548a44.828,44.828,0,0,1,4.843,12.37,62.6,62.6,0,0,1,13.652-1.387" transform="translate(-314.128 -142.678)" fill="none" stroke="#755952" stroke-linecap="round" stroke-miterlimit="10" stroke-width="1"/>
    <path id="Trazado_609169" data-name="Trazado 609169" d="M501.92,289.258a59.172,59.172,0,0,1,4.762,9.131,34.2,34.2,0,0,1,13.708-2.472" transform="translate(-300.204 -173.009)" fill="none" stroke="#755952" stroke-linecap="round" stroke-miterlimit="10" stroke-width="1"/>
    <path id="Trazado_609170" data-name="Trazado 609170" d="M506.694,329.17a29.071,29.071,0,0,0-8.5.635,27.307,27.307,0,0,0-3.05-6.527" transform="translate(-296.149 -193.356)" fill="none" stroke="#755952" stroke-linecap="round" stroke-miterlimit="10" stroke-width="1"/>
    <path id="Trazado_609171" data-name="Trazado 609171" d="M481.26,335.288c25.922-41.274,59.013-54.874,60.516-39.96,2.086,20.653-42.62,34.132-60.516,39.96" transform="translate(-287.847 -173.131)" fill="#cadeb4"/>
    <path id="Trazado_609172" data-name="Trazado 609172" d="M538.608,307.688a219.383,219.383,0,0,0-55.758,38.171" transform="translate(-288.798 -184.032)" fill="none" stroke="#755952" stroke-linecap="round" stroke-miterlimit="10" stroke-width="1"/>
    <path id="Trazado_609173" data-name="Trazado 609173" d="M602.12,296.968a34.566,34.566,0,0,1-.82,8.576,14.72,14.72,0,0,1,7.789,3.179" transform="translate(-359.644 -177.62)" fill="none" stroke="#755952" stroke-linecap="round" stroke-miterlimit="10" stroke-width="1"/>
    <path id="Trazado_609174" data-name="Trazado 609174" d="M568.96,312.848a43.234,43.234,0,0,1,.627,9.2,23.321,23.321,0,0,1,10.771,3.806" transform="translate(-340.301 -187.118)" fill="none" stroke="#755952" stroke-linecap="round" stroke-miterlimit="10" stroke-width="1"/>
    <path id="Trazado_609175" data-name="Trazado 609175" d="M536.42,336.518a16.944,16.944,0,0,1,1.439,7.592,22.841,22.841,0,0,1,10.055,3.251" transform="translate(-320.839 -201.275)" fill="none" stroke="#755952" stroke-linecap="round" stroke-miterlimit="10" stroke-width="1"/>
    <rect id="Rectángulo_377676" data-name="Rectángulo 377676" width="57.47" height="6.028" transform="translate(147.943 97.381)" fill="#f2cdbf"/>
    <path id="Trazado_609176" data-name="Trazado 609176" d="M426.412,257.308v58.748H421.32v-3.215H377.4v3.215H372.33V257.308Z" transform="translate(-222.695 -153.899)" fill="#f2cdbf"/>
    <rect id="Rectángulo_377677" data-name="Rectángulo 377677" width="54.078" height="1.206" transform="translate(149.635 103.409)" fill="#d4a59b"/>
    <rect id="Rectángulo_377678" data-name="Rectángulo 377678" width="43.103" height="13.061" transform="translate(155.045 108.674)" fill="#d4a59b"/>
    <rect id="Rectángulo_377679" data-name="Rectángulo 377679" width="43.987" height="13.061" transform="translate(154.603 107.468)" fill="#faded2"/>
    <rect id="Rectángulo_377680" data-name="Rectángulo 377680" width="43.103" height="13.061" transform="translate(155.045 125.151)" fill="#d4a59b"/>
    <rect id="Rectángulo_377681" data-name="Rectángulo 377681" width="43.987" height="13.061" transform="translate(154.603 123.946)" fill="#faded2"/>
    <rect id="Rectángulo_377682" data-name="Rectángulo 377682" width="43.103" height="13.061" transform="translate(155.045 141.629)" fill="#d4a59b"/>
    <rect id="Rectángulo_377683" data-name="Rectángulo 377683" width="43.987" height="13.061" transform="translate(154.603 140.423)" fill="#faded2"/>
    <path id="Trazado_609177" data-name="Trazado 609177" d="M403.2,221.411v-9.143h2.512v9.143a1.1,1.1,0,0,1-1.105,1.105h-.3a1.1,1.1,0,0,1-1.105-1.105" transform="translate(-241.159 -126.96)" fill="#fff"/>
    <path id="Trazado_609178" data-name="Trazado 609178" d="M402.07,211.117h0a.291.291,0,0,1,.289-.289H405.2a.289.289,0,0,1,0,.579h-2.841a.293.293,0,0,1-.289-.289" transform="translate(-240.483 -126.099)" fill="#fff"/>
    <path id="Trazado_609179" data-name="Trazado 609179" d="M404.2,225.748v-5.98h1.708v5.98a.854.854,0,0,1-1.708,0" transform="translate(-241.757 -131.446)" fill="#f0d3d8"/>
    <path id="Trazado_609180" data-name="Trazado 609180" d="M415.7,221.411v-9.143h2.512v9.143a1.1,1.1,0,0,1-1.105,1.105h-.3a1.1,1.1,0,0,1-1.105-1.105" transform="translate(-248.635 -126.96)" fill="#fff"/>
    <path id="Trazado_609181" data-name="Trazado 609181" d="M414.57,211.117h0a.291.291,0,0,1,.289-.289H417.7a.289.289,0,1,1,0,.579h-2.841a.293.293,0,0,1-.289-.289" transform="translate(-247.959 -126.099)" fill="#fff"/>
    <path id="Trazado_609182" data-name="Trazado 609182" d="M416.7,225.748v-5.98h1.708v5.98a.854.854,0,0,1-1.708,0" transform="translate(-249.233 -131.446)" fill="#f0d3d8"/>
    <path id="Trazado_609183" data-name="Trazado 609183" d="M428.95,221.411v-9.143h2.512v9.143a1.1,1.1,0,0,1-1.105,1.105h-.3a1.1,1.1,0,0,1-1.105-1.105" transform="translate(-256.56 -126.96)" fill="#fff"/>
    <path id="Trazado_609184" data-name="Trazado 609184" d="M427.82,211.117h0a.291.291,0,0,1,.289-.289h2.841a.289.289,0,0,1,0,.579h-2.841a.293.293,0,0,1-.289-.289" transform="translate(-255.884 -126.099)" fill="#fff"/>
    <path id="Trazado_609185" data-name="Trazado 609185" d="M429.95,225.748v-5.98h1.708v5.98a.854.854,0,0,1-1.708,0" transform="translate(-257.158 -131.446)" fill="#f0d3d8"/>
    <path id="Trazado_609186" data-name="Trazado 609186" d="M442.45,221.411v-9.143h2.512v9.143a1.1,1.1,0,0,1-1.105,1.105h-.3a1.1,1.1,0,0,1-1.105-1.105" transform="translate(-264.634 -126.96)" fill="#fff"/>
    <path id="Trazado_609187" data-name="Trazado 609187" d="M441.32,211.117h0a.291.291,0,0,1,.289-.289h2.841a.289.289,0,0,1,0,.579h-2.841a.293.293,0,0,1-.289-.289" transform="translate(-263.959 -126.099)" fill="#fff"/>
    <path id="Trazado_609188" data-name="Trazado 609188" d="M443.45,225.748v-5.98h1.708v5.98a.854.854,0,0,1-1.708,0" transform="translate(-265.233 -131.446)" fill="#f0d3d8"/>
    <path id="Trazado_609189" data-name="Trazado 609189" d="M456.95,221.411v-9.143h2.512v9.143a1.1,1.1,0,0,1-1.105,1.105h-.3a1.1,1.1,0,0,1-1.105-1.105" transform="translate(-273.307 -126.96)" fill="#fff"/>
    <path id="Trazado_609190" data-name="Trazado 609190" d="M455.82,211.117h0a.291.291,0,0,1,.289-.289h2.841a.289.289,0,0,1,0,.579h-2.841a.293.293,0,0,1-.289-.289" transform="translate(-272.631 -126.099)" fill="#fff"/>
    <path id="Trazado_609191" data-name="Trazado 609191" d="M457.95,225.748v-5.98h1.708v5.98a.854.854,0,0,1-1.708,0" transform="translate(-273.905 -131.446)" fill="#f0d3d8"/>
    <rect id="Rectángulo_377684" data-name="Rectángulo 377684" width="30.945" height="0.804" transform="translate(159.558 85.835)" fill="#a7c2d9"/>
    <rect id="Rectángulo_377685" data-name="Rectángulo 377685" width="34.562" height="2.009" transform="translate(157.938 95.371)" fill="#d49ba0"/>
    <rect id="Rectángulo_377686" data-name="Rectángulo 377686" width="0.88" height="11.643" transform="translate(159.309 84.729)" fill="#d49ba0"/>
    <rect id="Rectángulo_377687" data-name="Rectángulo 377687" width="0.88" height="11.643" transform="translate(189.977 84.729)" fill="#d49ba0"/>
    <path id="Trazado_609192" data-name="Trazado 609192" d="M69.462,219.92a45.929,45.929,0,0,0,9.71-32.714A45.6,45.6,0,0,0,63,156.828a226.611,226.611,0,0,1-1.065,25.745c-.8,8.134-2.03,16.453-.084,24.395a24.975,24.975,0,0,0,7.612,12.953" transform="translate(-36.371 -93.801)" fill="#cadeb4"/>
    <path id="Trazado_609193" data-name="Trazado 609193" d="M75.359,238.023c0-28.747,7.628-38.027-3.549-68.365" transform="translate(-42.95 -101.474)" fill="none" stroke="#755952" stroke-linecap="round" stroke-miterlimit="10" stroke-width="1"/>
    <path id="Trazado_609194" data-name="Trazado 609194" d="M74.954,182.068q-1.17,2.5-2.339,5a12.169,12.169,0,0,0-4.445-1.214" transform="translate(-40.773 -108.897)" fill="none" stroke="#755952" stroke-linecap="round" stroke-miterlimit="10" stroke-width="1"/>
    <path id="Trazado_609195" data-name="Trazado 609195" d="M65.68,220.331a19.6,19.6,0,0,1,8.412,2.287,27.205,27.205,0,0,1,6.028-5.49" transform="translate(-39.284 -129.867)" fill="none" stroke="#755952" stroke-linecap="round" stroke-miterlimit="10" stroke-width="1"/>
    <path id="Trazado_609196" data-name="Trazado 609196" d="M64.85,253.332a13.444,13.444,0,0,1,8.424,2.154,37.247,37.247,0,0,1,8.15-6.5" transform="translate(-38.788 -148.923)" fill="none" stroke="#755952" stroke-linecap="round" stroke-miterlimit="10" stroke-width="1"/>
    <path id="Trazado_609197" data-name="Trazado 609197" d="M68.16,284.3a9.408,9.408,0,0,1,5.823,2.91,25.279,25.279,0,0,1,5.751-5.659" transform="translate(-40.767 -168.397)" fill="none" stroke="#755952" stroke-linecap="round" stroke-miterlimit="10" stroke-width="1"/>
    <path id="Trazado_609198" data-name="Trazado 609198" d="M91.968,230.026a33.955,33.955,0,0,1,1.74-28.357c4.381-8.186,13.845-18.149,25.649-26.48,0,0-5.618,30.584-12.6,43.372a22.735,22.735,0,0,1-14.789,11.466" transform="translate(-53.632 -104.782)" fill="#cadeb4"/>
    <path id="Trazado_609199" data-name="Trazado 609199" d="M111.6,189.918c-12.193,19.588-20.874,40.96-27.758,62.948" transform="translate(-50.146 -113.592)" fill="none" stroke="#755952" stroke-linecap="round" stroke-miterlimit="10" stroke-width="1"/>
    <path id="Trazado_609200" data-name="Trazado 609200" d="M133.61,201.988a32.565,32.565,0,0,1,1.748,5.273,50.557,50.557,0,0,1,6.265-.788" transform="translate(-79.914 -120.811)" fill="none" stroke="#f2cdbf" stroke-linecap="round" stroke-miterlimit="10" stroke-width="1"/>
    <path id="Trazado_609201" data-name="Trazado 609201" d="M109.51,232.568a33.2,33.2,0,0,1,4.1,7.869,34.924,34.924,0,0,1,10.252-3.111" transform="translate(-65.499 -139.102)" fill="none" stroke="#755952" stroke-linecap="round" stroke-miterlimit="10" stroke-width="1"/>
    <path id="Trazado_609202" data-name="Trazado 609202" d="M95.34,258.428A27.572,27.572,0,0,1,100,267.446a56.018,56.018,0,0,1,11.309-3.412" transform="translate(-57.024 -154.569)" fill="none" stroke="#755952" stroke-linecap="round" stroke-miterlimit="10" stroke-width="1"/>
    <path id="Trazado_609203" data-name="Trazado 609203" d="M91.5,289.548a48.966,48.966,0,0,1,3.388,4.232,36.826,36.826,0,0,1,8.339-2.323" transform="translate(-54.727 -173.182)" fill="none" stroke="#755952" stroke-linecap="round" stroke-miterlimit="10" stroke-width="1"/>
    <path id="Trazado_609204" data-name="Trazado 609204" d="M26.665,241.517s5.365-7.608,1.4-20.8C22.63,202.638,0,189.818,0,189.818s6.069,24.732,10.8,37.054a23.29,23.29,0,0,0,15.863,14.645" transform="translate(0 -113.532)" fill="#cadeb4"/>
    <path id="Trazado_609205" data-name="Trazado 609205" d="M32.526,253.3S29.439,228.427,7.46,198.438" transform="translate(-4.462 -118.688)" fill="none" stroke="#755952" stroke-linecap="round" stroke-miterlimit="10" stroke-width="1"/>
    <path id="Trazado_609206" data-name="Trazado 609206" d="M18.338,211.488a17.307,17.307,0,0,0-1.274,4.69,17.277,17.277,0,0,0-4.734-.651" transform="translate(-7.375 -126.493)" fill="none" stroke="#755952" stroke-linecap="round" stroke-miterlimit="10" stroke-width="1"/>
    <path id="Trazado_609207" data-name="Trazado 609207" d="M20.06,243.227a20.5,20.5,0,0,1,9.006.631,16.277,16.277,0,0,1,3.637-7.31" transform="translate(-11.998 -141.482)" fill="none" stroke="#755952" stroke-linecap="round" stroke-miterlimit="10" stroke-width="1"/>
    <path id="Trazado_609208" data-name="Trazado 609208" d="M47.275,266.078a23.546,23.546,0,0,0-4.69,7.736,13.611,13.611,0,0,0-9.095-.579" transform="translate(-20.031 -159.144)" fill="none" stroke="#755952" stroke-linecap="round" stroke-miterlimit="10" stroke-width="1"/>
    <path id="Trazado_609209" data-name="Trazado 609209" d="M49.41,302.106a17.969,17.969,0,0,1,5.94-.08,13.747,13.747,0,0,1,2.878-4.228" transform="translate(-29.553 -178.116)" fill="none" stroke="#755952" stroke-linecap="round" stroke-miterlimit="10" stroke-width="1"/>
    <path id="Trazado_609210" data-name="Trazado 609210" d="M73.747,323.668,72.9,328.45l-.928,5.261-.49,2.757-.928,5.265-2.476,14.014H50l-2.524-14.014-.948-5.265-.494-2.757-.952-5.261-.86-4.782Z" transform="translate(-26.448 -193.589)" fill="#d49ba0"/>
    <path id="Trazado_609211" data-name="Trazado 609211" d="M74.179,335.568l-.928,5.261H47.312l-.952-5.261Z" transform="translate(-27.728 -200.707)" fill="#faded2"/>
    <path id="Trazado_609212" data-name="Trazado 609212" d="M74.913,355.518l-.928,5.265H50.908l-.948-5.265Z" transform="translate(-29.882 -212.639)" fill="#faded2"/>
    <rect id="Rectángulo_377688" data-name="Rectángulo 377688" width="29.607" height="2.753" transform="translate(50.594 154.823)" fill="#326894"/>
    <path id="Trazado_609213" data-name="Trazado 609213" d="M126.921,319.369a1.83,1.83,0,0,1-.016.209l-.458,3.794-4.1,33.8a1.612,1.612,0,0,1-1.8,1.435,1.64,1.64,0,0,1-1.415-1.636,1.829,1.829,0,0,1,.016-.209l4.043-33.393.506-4.2a1.612,1.612,0,0,1,3.215.2" transform="translate(-71.259 -190.034)" fill="#4d8ab3"/>
    <path id="Trazado_609214" data-name="Trazado 609214" d="M132.967,319.369a1.83,1.83,0,0,1-.016.209l-.458,3.794H129.25l.506-4.2a1.61,1.61,0,0,1,3.211.2" transform="translate(-77.306 -190.034)" fill="#326894"/>
    <path id="Trazado_609215" data-name="Trazado 609215" d="M162.955,318.644v37.882a1.627,1.627,0,0,1-1.608,1.652,1.583,1.583,0,0,1-1.137-.486,1.666,1.666,0,0,1-.47-1.169V318.64a1.63,1.63,0,0,1,1.608-1.652,1.569,1.569,0,0,1,1.137.486,1.688,1.688,0,0,1,.47,1.169" transform="translate(-95.542 -189.594)" fill="#4d8ab3"/>
    <path id="Trazado_609216" data-name="Trazado 609216" d="M162.469,317.49a1.656,1.656,0,0,1,.47,1.169v4.284H159.72V318.66a1.63,1.63,0,0,1,1.608-1.652,1.552,1.552,0,0,1,1.141.482" transform="translate(-95.53 -189.606)" fill="#326894"/>
    <path id="Trazado_609217" data-name="Trazado 609217" d="M196.427,356.955a1.635,1.635,0,0,1-1.411,1.64,1.618,1.618,0,0,1-1.8-1.435l-4.1-33.8-.458-3.794a1.829,1.829,0,0,1-.016-.209,1.643,1.643,0,0,1,1.415-1.636,1.62,1.62,0,0,1,1.8,1.435l.506,4.2,4.043,33.393a1.285,1.285,0,0,1,.016.209" transform="translate(-112.834 -190.024)" fill="#4d8ab3"/>
    <path id="Trazado_609218" data-name="Trazado 609218" d="M192.377,323.357h-3.243l-.458-3.794a1.825,1.825,0,0,1-.016-.209,1.643,1.643,0,0,1,1.415-1.636,1.62,1.62,0,0,1,1.8,1.435Z" transform="translate(-112.84 -190.024)" fill="#326894"/>
    <path id="Trazado_609219" data-name="Trazado 609219" d="M159.941,305.424V306.5a3.394,3.394,0,0,1-3.4,3.4h-30.4a3.394,3.394,0,0,1-3.4-3.4v-1.073a3.394,3.394,0,0,1,3.4-3.4h30.4a3.392,3.392,0,0,1,3.4,3.4" transform="translate(-73.418 -180.646)" fill="#994403"/>
    <path id="Trazado_609220" data-name="Trazado 609220" d="M164.116,305.424V306.5a3.394,3.394,0,0,1-3.4,3.4H133.126a3.394,3.394,0,0,1-3.4-3.4v-1.073a3.394,3.394,0,0,1,3.4-3.4H160.72a3.392,3.392,0,0,1,3.4,3.4" transform="translate(-77.593 -180.646)" fill="#852e03"/>
    <path id="Trazado_609221" data-name="Trazado 609221" d="M125.8,136.4c-.382.78-.768,1.563-1.109,2.315a16.893,16.893,0,0,0,0,4.079,11.586,11.586,0,0,1-.229,4.063,4.553,4.553,0,0,1-2.58,3.054c-.852.326-1.869.35-2.528.969a2.845,2.845,0,0,0-.422,2.857,4.44,4.44,0,0,0,1.238,2.194,2.251,2.251,0,0,0,2.4.526,1.729,1.729,0,0,1,2.134.506c.506.619.743,1.419,1.242,2.046A4.027,4.027,0,0,0,129,160.395a6.151,6.151,0,0,0,3.175-.619c1.66-1.041,3.73-1.732,5.43-.756a19.794,19.794,0,0,0,2.572,1.7,3.161,3.161,0,0,0,2.56-.157c.776-.41,1.073-1.286,1.559-1.957.892-1.23,3.054-.237,4.549-.643a3.281,3.281,0,0,0,2.3-3.766c-.374-1.571-2.114-2.13-3.665-2.363-1.065-.161-1.5-1.515-1.748-2.528a11.246,11.246,0,0,1-.157-3.119c.092-2.126,1.061-7.085.446-7.752a10.291,10.291,0,0,0-1.965-1.431q-3.026-1.38-6.052-2.765a13.37,13.37,0,0,0-5.791-1.64,7.075,7.075,0,0,0-6.41,3.8" transform="translate(-71.026 -79.31)" fill="#732d02"/>
    <path id="Trazado_609222" data-name="Trazado 609222" d="M138.8,189.687s-8.954,1.415-9.9,4.586,4.489,25.359,4.489,25.359L153.5,218.4s1.463-25.576-1.736-27.18-12.969-1.535-12.969-1.535" transform="translate(-77.027 -113.454)" fill="#ebf5ff"/>
    <path id="Trazado_609223" data-name="Trazado 609223" d="M156.419,182.864s-1.306,4.449-3.677,5.421-7.551-4.959-7.551-4.959c1.045-.663,1.439-2.259,1.567-3.713a16.182,16.182,0,0,0-.016-2.805l7.194,1.382c-.185,2.226.47,3.4,1.157,4.011a2.627,2.627,0,0,0,1.326.663" transform="translate(-86.84 -105.751)" fill="#fbbd9a"/>
    <path id="Trazado_609224" data-name="Trazado 609224" d="M157.4,182.211c-3.416.45-6.511-1.262-8.335-2.588a16.182,16.182,0,0,0-.016-2.805l7.194,1.383c-.189,2.222.47,3.4,1.157,4.011" transform="translate(-89.149 -105.757)" fill="#f0997f"/>
    <path id="Trazado_609225" data-name="Trazado 609225" d="M200.419,379.029c-.776,1.29-14.239-7.009-14.239-8.44,0-.932,1.756-2.283,2.978-3.1.655-.442,1.153-.735,1.153-.735l3.143-1.443,1.415.76a78.172,78.172,0,0,1,5.016,9.83c.587,1.519.824,2.652.535,3.131" transform="translate(-111.356 -218.495)" fill="#d43226"/>
    <path id="Trazado_609226" data-name="Trazado 609226" d="M204.326,375.888c-3.858.161-8.958-6.081-10.726-8.412.655-.442,1.153-.735,1.153-.735L197.9,365.3l1.415.76a77.631,77.631,0,0,1,5.016,9.83" transform="translate(-115.794 -218.489)" fill="#f0997f"/>
    <path id="Trazado_609227" data-name="Trazado 609227" d="M175.579,265.858s24.507,3.1,25.339,9.376-15.372,33.956-15.372,33.956l-5.827-1.519,7.6-24.748-19.512-8.279,3.886-8.785Z" transform="translate(-100.369 -159.013)" fill="#002a42"/>
    <path id="Trazado_609228" data-name="Trazado 609228" d="M185.6,380.808c-.776,1.29-14.239-7.009-14.239-8.44,0-.932,1.756-2.283,2.978-3.1.655-.442,1.153-.735,1.153-.735l3.143-1.443,1.415.76a78.166,78.166,0,0,1,5.016,9.83c.587,1.519.824,2.652.535,3.131" transform="translate(-102.492 -219.56)" fill="#eb4a2a"/>
    <path id="Trazado_609229" data-name="Trazado 609229" d="M189.506,377.668c-3.858.161-8.958-6.081-10.726-8.412.655-.442,1.153-.735,1.153-.735l3.143-1.443,1.415.76a77.629,77.629,0,0,1,5.016,9.83" transform="translate(-106.93 -219.554)" fill="#fbbd9a"/>
    <path id="Trazado_609230" data-name="Trazado 609230" d="M132.133,257.554s-8.492,16.791,6.45,18.6c10.855,1.318,18.049,1.053,18.274,1.656.37.969-7.061,24.415-7.061,24.415l7.318,2.315s15.147-32.533,14.323-35.366c-.679-2.331-21.581-5.888-21.581-5.888,1.76-.836,3.054-3.878,2.865-7.8Z" transform="translate(-77.593 -152.81)" fill="#06384f"/>
    <path id="Trazado_609231" data-name="Trazado 609231" d="M137.872,257.008S133,267.726,136.9,272.075c4.594,5.124,24.684,3.472,26.083,5.285,1.121,1.451-7.76,25.15-7.76,25.15" transform="translate(-80.977 -153.719)" fill="none" stroke="#27788f" stroke-linecap="round" stroke-miterlimit="10" stroke-width="1"/>
    <line id="Línea_892" data-name="Línea 892" x2="7.081" y2="2.158" transform="translate(72.794 148.433)" fill="none" stroke="#27788f" stroke-linecap="round" stroke-miterlimit="10" stroke-width="1"/>
    <path id="Trazado_609232" data-name="Trazado 609232" d="M177.4,157.552c1.727-.2,3.242.668,3.385,1.93s-1.141,2.443-2.868,2.638-3.242-.668-3.386-1.93,1.141-2.443,2.868-2.638" transform="translate(-104.385 -94.217)" fill="#f0997f"/>
    <path id="Trazado_609233" data-name="Trazado 609233" d="M139.15,141.279c0-5.96,3.786-10.791,8.87-10.791s9.207,4.831,9.207,10.791-2.6,11.088-7.387,11.273c-4.823.185-10.69-5.317-10.69-11.273" transform="translate(-83.227 -78.046)" fill="#fbbd9a"/>
    <path id="Trazado_609234" data-name="Trazado 609234" d="M140.38,144.246a10.731,10.731,0,0,0,5.606-5.9,9.128,9.128,0,0,0,5.208,2.7,27.626,27.626,0,0,0,5.847.245,3.536,3.536,0,0,1,1.182,2.038,12,12,0,0,0-.551-5.277q-7.6-2.315-15.1-4.915c-.748,3.565-1.5,7.13-2.194,11.108" transform="translate(-83.963 -79.631)" fill="#f0997f"/>
    <path id="Trazado_609235" data-name="Trazado 609235" d="M150.785,130.647a9.132,9.132,0,0,0,5.409,4.127,25.2,25.2,0,0,0,6.925.888,15.612,15.612,0,0,1,.446,4.135,14.378,14.378,0,0,0,1.306-5.044c.02-.45.02-.908.008-1.391a7.94,7.94,0,0,0-3.3-6.543,10.312,10.312,0,0,0-6.362-1.993c-2.271,0-3.713.514-4.578,1.411a3.467,3.467,0,0,0-.707,1.085c-.37.868.044,1.813.848,3.324" transform="translate(-89.597 -74.661)" fill="#8c4206"/>
    <path id="Trazado_609236" data-name="Trazado 609236" d="M133.323,142.617c-.076-2.914-.261-7.9.912-10.284a5.426,5.426,0,0,1,3.943-3.091,3.668,3.668,0,0,1,4.027,2.528,20.286,20.286,0,0,1-5.514,10.325,5.559,5.559,0,0,1-3.368.522" transform="translate(-79.707 -77.283)" fill="#8c4206"/>
    <path id="Trazado_609237" data-name="Trazado 609237" d="M151.89,126.249a11.541,11.541,0,0,1,9.814,1.977,12.661,12.661,0,0,1,4.417,6.539c.02-.45.02-.908.008-1.391a7.94,7.94,0,0,0-3.3-6.543,10.312,10.312,0,0,0-6.362-1.993c-2.275,0-3.717.514-4.582,1.411" transform="translate(-90.847 -74.667)" fill="#a66317"/>
    <path id="Trazado_609238" data-name="Trazado 609238" d="M130.658,160.443c.315-1.23,1.935-1.878,3.619-1.447s2.794,1.778,2.478,3.008-1.935,1.878-3.619,1.446-2.793-1.777-2.478-3.007" transform="translate(-78.116 -95.018)" fill="#fbbd9a"/>
    <path id="Trazado_609239" data-name="Trazado 609239" d="M161.358,162.838c.264,0,.478.342.478.764s-.214.764-.478.764-.478-.342-.478-.764.214-.764.478-.764" transform="translate(-96.224 -97.395)" fill="#2f344d"/>
    <path id="Trazado_609240" data-name="Trazado 609240" d="M177.908,162.848c.264,0,.478.342.478.764s-.214.764-.478.764-.478-.342-.478-.764.214-.764.478-.764" transform="translate(-106.123 -97.401)" fill="#2f344d"/>
    <path id="Trazado_609241" data-name="Trazado 609241" d="M175.14,155.648a3.343,3.343,0,0,1,2.793.338" transform="translate(-104.753 -92.998)" fill="none" stroke="#8c4206" stroke-linecap="round" stroke-miterlimit="10" stroke-width="2"/>
    <path id="Trazado_609242" data-name="Trazado 609242" d="M158.156,155.339a3.178,3.178,0,0,0-3.316.571" transform="translate(-92.612 -92.774)" fill="none" stroke="#8c4206" stroke-linecap="round" stroke-miterlimit="10" stroke-width="2"/>
    <path id="Trazado_609243" data-name="Trazado 609243" d="M170.235,163.588a4.2,4.2,0,0,1-.2,2.456" transform="translate(-101.697 -97.844)" fill="none" stroke="#d45e4e" stroke-linecap="round" stroke-miterlimit="10" stroke-width="2"/>
    <path id="Trazado_609244" data-name="Trazado 609244" d="M163.894,173.67a4.056,4.056,0,0,1-3.5-1.282" transform="translate(-95.931 -103.107)" fill="none" stroke="#d45e4e" stroke-linecap="round" stroke-miterlimit="10" stroke-width="2"/>
    <path id="Trazado_609245" data-name="Trazado 609245" d="M178.62,195.394l3.589-2.166s3.026.257,5.076,4.023c2.038,3.746,5.876,15.854,7.085,16.389s15.955.723,15.955.723l.2,4.32s-18.061,2.865-20.215,1.68-9.127-15.151-9.127-15.151Z" transform="translate(-106.835 -115.572)" fill="#fbbd9a"/>
    <path id="Trazado_609246" data-name="Trazado 609246" d="M178.07,193.807l.691-2.419s3.963.169,5.988,1.756,3.685,5.9,3.685,5.9l-5.152,8.319Z" transform="translate(-106.506 -114.471)" fill="#de3b26"/>
    <path id="Trazado_609247" data-name="Trazado 609247" d="M193.28,229.977a86.642,86.642,0,0,0,6.386-5.972c.422-.591,3.416,6.366,2.91,7.218-.808,1.358-5.852,4.622-6.133,4.433s-3.163-5.679-3.163-5.679" transform="translate(-115.603 -133.959)" fill="#163649"/>
    <path id="Trazado_609248" data-name="Trazado 609248" d="M189.241,215.535q2.5-3.973,5-7.941a1.263,1.263,0,0,1,.334-.394.867.867,0,0,1,1.186.53,2.465,2.465,0,0,1-.08,1.471,1.055,1.055,0,0,1,1.081.973,2.674,2.674,0,0,1-.418,1.543,14.4,14.4,0,0,1-7.186,6.531,3.919,3.919,0,0,1,.084-2.713" transform="translate(-113.015 -123.869)" fill="#b82621"/>
    <path id="Trazado_609249" data-name="Trazado 609249" d="M251.84,240.7c2.066-1.451,6.06-4.328,6.362-4.465a10.884,10.884,0,0,1,4.1.225,4.548,4.548,0,0,1,3.03,2.612c.133.366.169.852-.153,1.065a.687.687,0,0,1-.715-.036,2.688,2.688,0,0,1-.551-.518,4,4,0,0,0-3.135-1.419,3.948,3.948,0,0,1,3.328,2.994c.1.334.141.756-.129.973a.673.673,0,0,1-.764-.024,2.626,2.626,0,0,1-.559-.595,5.859,5.859,0,0,0-2.419-1.813,4.288,4.288,0,0,1,2.508,3.263,1.167,1.167,0,0,1-.036.623.483.483,0,0,1-.49.313.733.733,0,0,1-.386-.277,10.2,10.2,0,0,0-2.23-2.247c.868,1.157,1.6,3.038,1.419,3.529-.056.149-.426.406-.84,0-.47-.47-.8-1.274-1.531-2.17a5.39,5.39,0,0,1-5.092,1.632c-.591-1.238-1.169-2.48-1.72-3.661" transform="translate(-150.628 -141.23)" fill="#fbbd9a"/>
    <path id="Trazado_609250" data-name="Trazado 609250" d="M261.17,240.809a42.219,42.219,0,0,1,4.481-1.338,1.781,1.781,0,0,1,.615-.072.631.631,0,0,1,.5.317.611.611,0,0,1-.092.6,1.619,1.619,0,0,1-.49.41,20.668,20.668,0,0,1-2.034,1.077,2.964,2.964,0,0,1-1.961,2.379" transform="translate(-156.209 -143.183)" fill="#fbbd9a"/>
    <path id="Trazado_609251" data-name="Trazado 609251" d="M261.17,240.809a42.219,42.219,0,0,1,4.481-1.338,1.781,1.781,0,0,1,.615-.072.631.631,0,0,1,.5.317.611.611,0,0,1-.092.6,1.619,1.619,0,0,1-.49.41,20.668,20.668,0,0,1-2.034,1.077,2.964,2.964,0,0,1-1.961,2.379" transform="translate(-156.209 -143.183)" fill="none" stroke="#d45e4e" stroke-linecap="round" stroke-miterlimit="10" stroke-width="1"/>
    <path id="Trazado_609252" data-name="Trazado 609252" d="M170.117,190.323c.86.748,1.419,4.959,1.861,7.636.663,4.011,4.039,21.449,4.24,22.683.358,2.178,7.254,2.03,7.531.892.052-.209-2.013-1.169-2.343-2.56-.293-1.246-2.584-25.524-3.689-26.8-1.459-1.688-7.877-2.09-7.6-1.849" transform="translate(-101.744 -113.796)" fill="#eb4a2a"/>
    <path id="Trazado_609253" data-name="Trazado 609253" d="M133.847,190.416c.719.257,2.978,5.056,4.051,9.448,2.243,9.175.908,22.8,0,24.6s-9.71,2.592-11.2,2.114c-.868-.277-1.813-27.742-1.214-31.191.4-2.3,8.15-5.048,8.367-4.971" transform="translate(-74.938 -113.889)" fill="#eb4a2a"/>
    <path id="Trazado_609254" data-name="Trazado 609254" d="M178.75,263.751a48.522,48.522,0,0,1,7.973-2.017,2.776,2.776,0,0,1,1.993.973,4.25,4.25,0,0,1,.591,1.407l.687,2.411a2.127,2.127,0,0,1,.121.864.655.655,0,0,1-.514.6c-.386.032-.627-.43-.768-.82-.362-1-.723-2-1.081-2.982.237,1.234.47,2.472.707,3.705a2.126,2.126,0,0,1,.044.884.658.658,0,0,1-.571.555c-.41-.008-.607-.534-.7-.969a26.684,26.684,0,0,0-.731-2.89,8.247,8.247,0,0,1,.177,4.24,1.251,1.251,0,0,1-.257.591.406.406,0,0,1-.555.064.71.71,0,0,1-.157-.458c-.125-1.246-.249-2.5-.374-3.742a10.55,10.55,0,0,1-.133,3.926,1.285,1.285,0,0,1-.317.6.462.462,0,0,1-.6.056.833.833,0,0,1-.193-.619c-.028-.784-.056-1.567-.06-2.484a4.43,4.43,0,0,1-2.656,1.5,6.8,6.8,0,0,1-3.058-.394c.088-1.459.173-2.922.43-5.008" transform="translate(-106.655 -156.544)" fill="#fbbd9a"/>
    <path id="Trazado_609255" data-name="Trazado 609255" d="M131.762,201.808c-.563-2.6-2.894-6.816-4.795-5.944-1.089.5-4.228,1.551-4.228,8.428,0,9.3,1.222,21.509,4.228,23.555,1.527,1.041,18.23,2.062,18.23,2.062l1.222-5.984s-12.31-2.283-12.877-3.971c-.8-2.383-.285-11.229-1.78-18.145" transform="translate(-73.412 -117.079)" fill="#eb4a2a"/>
    <path id="Trazado_609256" data-name="Trazado 609256" d="M141.57,207.278c2.066,6.985,2.5,18.869,2.805,19.584.277.651,1.849.924,3.082,1.346" transform="translate(-84.675 -123.975)" fill="none" stroke="#b82621" stroke-linecap="round" stroke-miterlimit="10" stroke-width="1"/>
    <path id="Trazado_609257" data-name="Trazado 609257" d="M135.424,268.884c-2.291-.229-5.136-.675-5.771-1.149-.748-.559-1.66-3.291-2.3-5.156" transform="translate(-76.169 -157.051)" fill="none" stroke="#b82621" stroke-linecap="round" stroke-miterlimit="10" stroke-width="1"/>
    <path id="Trazado_609258" data-name="Trazado 609258" d="M146.61,228.839c.824-1.033,1.161-2.745,1.23-4.831" transform="translate(-87.689 -133.982)" fill="none" stroke="#b82621" stroke-linecap="round" stroke-miterlimit="10" stroke-width="1"/>
    <rect id="Rectángulo_377689" data-name="Rectángulo 377689" width="29.607" height="2.681" transform="translate(119.911 154.107)" fill="#326894"/>
    <path id="Trazado_609259" data-name="Trazado 609259" d="M299.411,319.294a1.762,1.762,0,0,1-.016.2l-.458,3.693-4.1,32.919a1.612,1.612,0,0,1-3.211-.193,1.761,1.761,0,0,1,.016-.2l4.043-32.525.506-4.091a1.614,1.614,0,0,1,3.215.2" transform="translate(-174.427 -190.011)" fill="#4d8ab3"/>
    <path id="Trazado_609260" data-name="Trazado 609260" d="M305.457,319.3a1.762,1.762,0,0,1-.016.2l-.458,3.693H301.74l.506-4.091a1.612,1.612,0,0,1,3.211.193" transform="translate(-180.474 -190.017)" fill="#326894"/>
    <path id="Trazado_609261" data-name="Trazado 609261" d="M335.435,318.606V355.5a1.608,1.608,0,1,1-3.215,0V318.606A1.607,1.607,0,0,1,333.828,317a1.605,1.605,0,0,1,1.608,1.608" transform="translate(-198.705 -189.6)" fill="#4d8ab3"/>
    <path id="Trazado_609262" data-name="Trazado 609262" d="M334.959,317.468a1.594,1.594,0,0,1,.47,1.137v4.176H332.21v-4.176a1.611,1.611,0,0,1,2.749-1.137" transform="translate(-198.699 -189.6)" fill="#326894"/>
    <path id="Trazado_609263" data-name="Trazado 609263" d="M368.917,355.926a1.61,1.61,0,0,1-3.207.2l-4.1-32.919-.458-3.693a1.769,1.769,0,0,1-.016-.2,1.612,1.612,0,0,1,3.211-.193l.506,4.091,4.043,32.525a1.042,1.042,0,0,1,.016.193" transform="translate(-216.002 -190.023)" fill="#4d8ab3"/>
    <path id="Trazado_609264" data-name="Trazado 609264" d="M364.867,323.2h-3.243l-.458-3.693a1.756,1.756,0,0,1-.016-.2,1.612,1.612,0,0,1,3.211-.193Z" transform="translate(-216.008 -190.017)" fill="#326894"/>
    <path id="Trazado_609265" data-name="Trazado 609265" d="M332.431,305.424V306.5a3.394,3.394,0,0,1-3.4,3.4h-30.4a3.394,3.394,0,0,1-3.4-3.4v-1.073a3.394,3.394,0,0,1,3.4-3.4h30.4a3.392,3.392,0,0,1,3.4,3.4" transform="translate(-176.586 -180.646)" fill="#994403"/>
    <path id="Trazado_609266" data-name="Trazado 609266" d="M336.612,305.424V306.5a3.394,3.394,0,0,1-3.4,3.4h-27.59a3.394,3.394,0,0,1-3.4-3.4v-1.073a3.394,3.394,0,0,1,3.4-3.4h27.59a3.392,3.392,0,0,1,3.4,3.4" transform="translate(-180.767 -180.646)" fill="#852e03"/>
    <path id="Trazado_609267" data-name="Trazado 609267" d="M277.229,179.238c.611-1,.016-2.3.209-3.46a1.367,1.367,0,0,1,.442-.852.7.7,0,0,1,.9,0c.285.277.189.743.185,1.141a9.733,9.733,0,0,0,.482,2.078c.362,1.7-.539,3.091-1.4,4.553a8.374,8.374,0,0,1-3.444,1.362c-.571.056-3.492-1.555-4.634-5.02-.575-1.736-.506-2.456-.313-2.693a.624.624,0,0,1,.816-.165.921.921,0,0,1,.277.466c.366,1.041.727,2.082,1.085,3.163a6.693,6.693,0,0,1-2.086-5.2c.02-.37.133-.816.486-.924a.666.666,0,0,1,.647.2,2.024,2.024,0,0,1,.374.6c.506,1.1,1.017,2.19,1.728,3.492a5.066,5.066,0,0,1-1.382-4.883c.076-.289.249-.627.551-.631s.486.334.595.623q.772,2.068,1.543,4.139a5.861,5.861,0,0,1-.868-3.906c.064-.49.313-1.081.812-1.1a.82.82,0,0,1,.691.422,2.737,2.737,0,0,1,.277.8c.386,1.575,1.085,3.07,2.03,5.8" transform="translate(-161.2 -103.005)" fill="#fdbd9b"/>
    <path id="Trazado_609268" data-name="Trazado 609268" d="M270.63,182.11c.458-.125.78.036.956.7.249.936.912,3.107,1.6,3.589" transform="translate(-161.867 -108.899)" fill="none" stroke="#b0514a" stroke-linecap="round" stroke-miterlimit="10" stroke-width="0.5"/>
    <path id="Trazado_609269" data-name="Trazado 609269" d="M284.03,196.158l1.684,3.926-4.453,2.7-1.981-5.241Z" transform="translate(-167.041 -117.324)" fill="#fdbd9b"/>
    <path id="Trazado_609270" data-name="Trazado 609270" d="M280.4,179.6a3.859,3.859,0,0,0-3.223-3.275l-.024-.125s-.808.145-1.077.2a3.974,3.974,0,0,0,1.37,7.684c.273-.036,1.081-.181,1.081-.181l-.024-.125a3.842,3.842,0,0,0,1.9-4.184" transform="translate(-163.594 -105.386)" fill="#316382"/>
    <path id="Trazado_609271" data-name="Trazado 609271" d="M278.251,176.157a3.95,3.95,0,1,1-2.715,4.465,3.709,3.709,0,0,1,2.715-4.465" transform="translate(-164.76 -105.333)" fill="#407c91"/>
    <path id="Trazado_609272" data-name="Trazado 609272" d="M282.73,180.893a2.859,2.859,0,0,0-3.151-2.5.518.518,0,0,0-.076.016,3.046,3.046,0,0,0,1.061,5.928.5.5,0,0,0,.076-.012,2.851,2.851,0,0,0,2.09-3.432" transform="translate(-165.937 -106.677)" fill="#ebf5ff"/>
    <path id="Trazado_609273" data-name="Trazado 609273" d="M296.309,190.444l-2.741-2.086a7.318,7.318,0,0,0-2.741,3.131c-.952,2.118-2.214,9.187-2.214,9.187l-5.12-8.5-6.523,4.63s7.234,18.31,11.59,18.531,7.423-3.814,7.423-3.814Z" transform="translate(-165.659 -112.659)" fill="#fff"/>
    <path id="Trazado_609274" data-name="Trazado 609274" d="M271.33,389.812l.832,5.245,3.432,1.395,3.943-1.885-.715-5.168Z" transform="translate(-162.286 -232.903)" fill="#fbbd9a"/>
    <path id="Trazado_609275" data-name="Trazado 609275" d="M270.515,408.489l-17.792-.257a4.524,4.524,0,0,1-.169-.9,3.2,3.2,0,0,1,1.1-2.9c1.5-1.161,3.87-1.322,5.413-1.921a3.438,3.438,0,0,0,1.483-1.27l2.532.145s.209,1.411,1.149,1.326a23,23,0,0,0,4.047-1.608,15.652,15.652,0,0,1,2.206,6.229,6.385,6.385,0,0,1,.028,1.161" transform="translate(-151.045 -239.901)" fill="#502202"/>
    <path id="Trazado_609276" data-name="Trazado 609276" d="M270.54,417.759l-17.792-.257a4.525,4.525,0,0,1-.169-.9h17.928a6.221,6.221,0,0,1,.032,1.161" transform="translate(-151.071 -249.172)" fill="#855321"/>
    <path id="Trazado_609277" data-name="Trazado 609277" d="M324.27,389.812l.832,5.245,3.432,1.395,3.943-1.885-.715-5.168Z" transform="translate(-193.95 -232.903)" fill="#fbbd9a"/>
    <path id="Trazado_609278" data-name="Trazado 609278" d="M323.455,408.489l-17.792-.257a4.525,4.525,0,0,1-.169-.9,3.2,3.2,0,0,1,1.1-2.9c1.5-1.161,3.87-1.322,5.413-1.921a3.438,3.438,0,0,0,1.483-1.27l2.532.145s.209,1.411,1.149,1.326a23,23,0,0,0,4.047-1.608,15.652,15.652,0,0,1,2.206,6.229,6.385,6.385,0,0,1,.028,1.161" transform="translate(-182.709 -239.901)" fill="#502202"/>
    <path id="Trazado_609279" data-name="Trazado 609279" d="M323.48,417.759l-17.792-.257a4.526,4.526,0,0,1-.169-.9h17.928a6.221,6.221,0,0,1,.032,1.161" transform="translate(-182.735 -249.172)" fill="#855321"/>
    <path id="Trazado_609280" data-name="Trazado 609280" d="M287.122,261.428l-2.914,4.722s-16.682,2.54-19.383,6.627c-2.492,3.77.884,41.981.884,41.981h11.458s-.876-28.225,0-30.837,27.148-2.464,28.655-6.008,2.009-15.983,2.009-15.983" transform="translate(-157.847 -156.363)" fill="#112c45"/>
    <path id="Trazado_609281" data-name="Trazado 609281" d="M333.035,265.837s.647,10.228-2.713,12.676c-2.918,2.126-10.337,2.681-10.337,2.681l1.431,31.814-10.955.715s-5.442-37.13-5.184-40.691,10.795-6.137,10.075-6.643c0,0-8.122-2.757-5.112-5.787.068-.068.145-.141.221-.209.7-.619,9.255.02,9.255.02l7.889-.723,3.123,3.541Z" transform="translate(-182.584 -155.322)" fill="#163a4a"/>
    <path id="Trazado_609282" data-name="Trazado 609282" d="M339.969,269.07c-.068.5-.145,1.041-.225,1.587-1.35-1.716-3.533-4.228-5.458-5.285-3.991-2.194-16.747-3.693-16.747-3.693l.048-1.089c.068-.068.145-.141.221-.209.7-.619,9.255.02,9.255.02l7.889-.723,3.123,3.541Z" transform="translate(-189.924 -155.316)" fill="#112c45"/>
    <path id="Trazado_609283" data-name="Trazado 609283" d="M341.1,171.218s-4.7,6.069-7.624,5.759-5.212-3.549-5.212-3.549a3.251,3.251,0,0,0,1.68-2.351,10.625,10.625,0,0,0-.141-5l8.7-1.29a12.044,12.044,0,0,0,.326,3.014,4.991,4.991,0,0,0,2.275,3.416" transform="translate(-196.336 -98.562)" fill="#fdbd9b"/>
    <path id="Trazado_609284" data-name="Trazado 609284" d="M332.231,171.088a10.625,10.625,0,0,0-.141-5l8.7-1.29a12.044,12.044,0,0,0,.326,3.014,14.768,14.768,0,0,1-8.882,3.275" transform="translate(-198.627 -98.568)" fill="#f0997f"/>
    <path id="Trazado_609285" data-name="Trazado 609285" d="M312.195,152.484c.133-1.176,1.546-1.98,3.156-1.8s2.807,1.283,2.674,2.459-1.546,1.981-3.156,1.8-2.807-1.283-2.674-2.459" transform="translate(-186.721 -90.111)" fill="#f0997f"/>
    <path id="Trazado_609286" data-name="Trazado 609286" d="M317.768,154.889v-.032a.7.7,0,0,0-.7-.7h-.39a.7.7,0,0,0-.7.7v.032a.7.7,0,0,0,.7.7h.39a.7.7,0,0,0,.7-.7" transform="translate(-188.991 -92.204)" fill="#4b8394"/>
    <rect id="Rectángulo_377690" data-name="Rectángulo 377690" width="0.587" height="1.608" transform="translate(126.989 62.67)" fill="#4b8394"/>
    <path id="Trazado_609287" data-name="Trazado 609287" d="M335.509,132.657c0-5.554-3.842-10.059-8.584-10.059s-8.584,2.966-8.584,10.059c0,5.554,2.154,10.373,7.258,10.71,4.73.309,9.911-5.152,9.911-10.71" transform="translate(-190.403 -73.327)" fill="#fdbd9b"/>
    <path id="Trazado_609288" data-name="Trazado 609288" d="M334.233,138.2a12.074,12.074,0,0,1-3.308-5.59,2.618,2.618,0,0,1-2.3-.35,6.386,6.386,0,0,1-5.393-.309,4.493,4.493,0,0,1-4-.125,8.53,8.53,0,0,0-1.33,2.729q.181-2.869.37-5.743,6.794-.959,13.648-1.334a1.491,1.491,0,0,1,.764.092,1.473,1.473,0,0,1,.6.948,21.8,21.8,0,0,1,.948,9.681" transform="translate(-190.14 -76.238)" fill="#f0997f"/>
    <path id="Trazado_609289" data-name="Trazado 609289" d="M335.4,119.911c-.189,2.853-.374,6.535-.563,9.352-.265.969-1.1.932-2.226,1.294a27.928,27.928,0,0,1-2.082-7.62,5.533,5.533,0,0,1-3.408-.225,7.271,7.271,0,0,1-5.309-.012,6.127,6.127,0,0,1-3.947.072,24.623,24.623,0,0,0-.808,5.028c-.161-1.37-.691-5.61-.824-8.516a9.81,9.81,0,0,1,.1-2.673,1.639,1.639,0,0,1,2.749-.526,2.614,2.614,0,0,1,1.772-1.479,2.875,2.875,0,0,1,2.347.559,3,3,0,0,1,2.52-1.547,2.5,2.5,0,0,1,2.415,1.543,5.26,5.26,0,0,1,1.515-.611,2.21,2.21,0,0,1,1.583.245,1.708,1.708,0,0,1,.555.591,2.437,2.437,0,0,1,.309.9,1.6,1.6,0,0,1,2.005-.374,2.611,2.611,0,0,1,1.23,1.776,7.593,7.593,0,0,1,.064,2.218" transform="translate(-189.124 -67.956)" fill="#502202"/>
    <path id="Trazado_609290" data-name="Trazado 609290" d="M331.785,115.38a2.963,2.963,0,0,0-1.825-.177,2.724,2.724,0,0,0-1.833,1.407,2.5,2.5,0,0,0-2.4-1.583,2.922,2.922,0,0,0-2.443,2.013,2.653,2.653,0,0,0-2.291-.9,2.525,2.525,0,0,0-2.009,1.5,1.142,1.142,0,0,0-1.25-.253,2.207,2.207,0,0,0-1,.884,4.869,4.869,0,0,0-.506,1.013,9.81,9.81,0,0,1,.1-2.673,1.639,1.639,0,0,1,2.749-.526,2.614,2.614,0,0,1,1.772-1.479,2.875,2.875,0,0,1,2.347.559,3,3,0,0,1,2.52-1.547,2.5,2.5,0,0,1,2.415,1.543,5.26,5.26,0,0,1,1.515-.611,2.21,2.21,0,0,1,1.583.245,1.729,1.729,0,0,1,.559.595" transform="translate(-189.118 -67.95)" fill="#6b4019"/>
    <path id="Trazado_609291" data-name="Trazado 609291" d="M323.752,146.459a2.793,2.793,0,0,0-2.182.4" transform="translate(-192.335 -87.555)" fill="none" stroke="#502202" stroke-linecap="round" stroke-miterlimit="10" stroke-width="2"/>
    <path id="Trazado_609292" data-name="Trazado 609292" d="M341.11,146.618a2.644,2.644,0,0,1,2.508.245" transform="translate(-204.022 -87.569)" fill="none" stroke="#502202" stroke-linecap="round" stroke-miterlimit="10" stroke-width="2"/>
    <path id="Trazado_609293" data-name="Trazado 609293" d="M332.55,154.568a16.739,16.739,0,0,0,.233,2.371" transform="translate(-198.902 -92.449)" fill="none" stroke="#b0514a" stroke-linecap="round" stroke-miterlimit="10" stroke-width="2"/>
    <path id="Trazado_609294" data-name="Trazado 609294" d="M335.34,164.509a3.743,3.743,0,0,0,2.648-.981" transform="translate(-200.571 -97.808)" fill="none" stroke="#b0514a" stroke-linecap="round" stroke-miterlimit="10" stroke-width="2"/>
    <path id="Trazado_609295" data-name="Trazado 609295" d="M341.366,154.121c.243-.043.485.18.541.5a.529.529,0,0,1-.338.651c-.242.043-.484-.18-.54-.5a.528.528,0,0,1,.338-.651" transform="translate(-203.966 -92.179)" fill="#2d3a5e"/>
    <path id="Trazado_609296" data-name="Trazado 609296" d="M324.625,154.35c.243-.043.485.18.541.5a.528.528,0,0,1-.338.651c-.242.043-.484-.18-.54-.5a.528.528,0,0,1,.338-.651" transform="translate(-193.953 -92.315)" fill="#2d3a5e"/>
    <path id="Trazado_609297" data-name="Trazado 609297" d="M355.305,150.666c1.605-.221,3.037.549,3.2,1.721s-1.008,2.3-2.613,2.523-3.037-.549-3.2-1.721,1.008-2.3,2.613-2.523" transform="translate(-210.94 -90.092)" fill="#fdbd9b"/>
    <path id="Trazado_609298" data-name="Trazado 609298" d="M358.99,154.889v-.032a.7.7,0,0,1,.7-.7h.39a.7.7,0,0,1,.7.7v.032a.7.7,0,0,1-.7.7h-.39a.7.7,0,0,1-.7-.7" transform="translate(-214.716 -92.204)" fill="#4b8394"/>
    <rect id="Rectángulo_377691" data-name="Rectángulo 377691" width="0.587" height="1.608" transform="translate(145.476 62.67)" fill="#4b8394"/>
    <path id="Trazado_609299" data-name="Trazado 609299" d="M334.016,177.478s-4.762,2.878-5.59,3.91a6.229,6.229,0,0,0-1.081,2.452,22.066,22.066,0,0,0-1.4-2.608c-.257-.2-2.255-2.094-2.255-2.094l-2.343,1.776-3.139,1.632.133,30.15,21.228,1.439.547-32.718Z" transform="translate(-190.325 -106.152)" fill="#69c5c9"/>
    <path id="Trazado_609300" data-name="Trazado 609300" d="M337.764,193.748c-1,8.456.739,23.233-2.094,28.972" transform="translate(-200.768 -115.883)" fill="none" stroke="#3e7c8a" stroke-linecap="round" stroke-miterlimit="10" stroke-width="0.5"/>
    <path id="Trazado_609301" data-name="Trazado 609301" d="M341.9,182.478a4.4,4.4,0,0,1,1.182-1.993c.824-.659,5.072-3.159,5.184-3.187s2.2,1.427,2.2,1.427l-3.151,4.473s-3.231-2.271-3.987-2.078c-.723.189-1.427,1.358-1.427,1.358" transform="translate(-204.494 -106.043)" fill="#9bebe7"/>
    <path id="Trazado_609302" data-name="Trazado 609302" d="M331.546,184.468a4.706,4.706,0,0,0-.675-1.471,17.883,17.883,0,0,0-2.315-2.379,5.977,5.977,0,0,0-2.138,1.62,14.473,14.473,0,0,0-.129,3.476s2.821-2.685,3.922-2.379a3.009,3.009,0,0,1,1.334,1.133" transform="translate(-195.129 -108.03)" fill="#9bebe7"/>
    <path id="Trazado_609303" data-name="Trazado 609303" d="M355.421,179.548s-3.685,3.464-4.24,6.981-.342,22.019,3.07,28.176c2.958,5.341,3.239,22.353,3.239,30.25l10.353-3.569a128.606,128.606,0,0,0-3.388-27.284c-2.592-10.168-.1-28.747-1.587-30.564-1.033-1.27-7.447-3.991-7.447-3.991" transform="translate(-209.906 -107.39)" fill="#fff"/>
    <path id="Trazado_609304" data-name="Trazado 609304" d="M350.631,198.576s-.856-9.774-.028-12.921,3.223-7.146,3.87-7.286c1.069-.229,3.46,1.624,3.46,1.624a23.6,23.6,0,0,0-2.508,8.436c-.052.458-3.85,1.861-3.85,1.861a24.934,24.934,0,0,1,2.926,2.383c-.044.221-3.87,5.9-3.87,5.9" transform="translate(-209.484 -106.673)" fill="#dae8f7"/>
    <path id="Trazado_609305" data-name="Trazado 609305" d="M328.313,263.888c2.222,0,4.023,1.121,4.023,2.5s-1.8,2.5-4.023,2.5-4.023-1.121-4.023-2.5,1.8-2.5,4.023-2.5" transform="translate(-193.962 -157.834)" fill="#407c91"/>
    <path id="Trazado_609306" data-name="Trazado 609306" d="M336.372,261.084l-4.1-.543a1.974,1.974,0,0,0-1.093.064,1.475,1.475,0,0,0-.715,1.294c.683.06,1.366.117,2.058.229a13.484,13.484,0,0,1-3.014,2.994,3.309,3.309,0,0,0-.719.615.975.975,0,0,0-.2.888.93.93,0,0,0,.711.559,7.9,7.9,0,0,0,1,.028,1.088,1.088,0,0,0,.526,1.186,1.307,1.307,0,0,0,1.366-.177,1.455,1.455,0,0,0,1.057.743,3.24,3.24,0,0,0,1.3-.2,1.715,1.715,0,0,0,1.306.587,2.174,2.174,0,0,0,1.374-.6,10.572,10.572,0,0,0,2.737-3.846,29.337,29.337,0,0,1-3.585-3.818" transform="translate(-196.507 -155.806)" fill="#fbbd9a"/>
    <path id="Trazado_609307" data-name="Trazado 609307" d="M351.934,189.75c-.1-1.941.884-5.594,2.283-5.976,2.178-.591,5.88,2.681,6.852,5.285s3.91,18.563,3.087,20.737c-1.129,2.966-16.043,10.943-16.043,10.943l-4.622-6.756s10.341-5.61,10.956-7.395c.382-1.117-2.275-12.286-2.512-16.839" transform="translate(-205.445 -109.875)" fill="#fff"/>
    <path id="Trazado_609308" data-name="Trazado 609308" d="M364.39,190.428a10.619,10.619,0,0,0-1.668,6.113c0,3.93.965,13.238.74,13.58s-7.511,5.068-7.511,5.068" transform="translate(-212.898 -113.897)" fill="none" stroke="#b8c8e3" stroke-linecap="round" stroke-miterlimit="10" stroke-width="1"/>
    <path id="Trazado_609309" data-name="Trazado 609309" d="M369.822,213.8a10.217,10.217,0,0,1-2.2-4.425" transform="translate(-219.878 -125.231)" fill="none" stroke="#b8c8e3" stroke-linecap="round" stroke-miterlimit="10" stroke-width="1"/>
    <path id="Trazado_609310" data-name="Trazado 609310" d="M363.25,264.505a62.232,62.232,0,0,0,7.853-4.947" transform="translate(-217.264 -155.245)" fill="none" stroke="#b8c8e3" stroke-linecap="round" stroke-miterlimit="10" stroke-width="1"/>
    <path id="Trazado_609311" data-name="Trazado 609311" d="M310.345,181.258a28.889,28.889,0,0,0-.627,6.6c0,7.033-.916,26.589-4.618,29.479-2.91,2.271-6.555,2.126-8.211,2.126,0,0,3.444-1.833,4.73-3.959,1.431-2.363,1.672-9.874,1.861-13.789.2-4.147.575-15.577,1.049-16.574,1.029-2.15,5.815-3.886,5.815-3.886" transform="translate(-177.573 -108.412)" fill="#fff"/>
    <path id="Trazado_609312" data-name="Trazado 609312" d="M321.166,200.526a111.444,111.444,0,0,0,.84-11.221,41.183,41.183,0,0,1,.848-8.7s-2.926.928-3.247,1.4-1.837,3.2-2.612,8.351c-.129.852,3.328,1.555,3.328,1.555s-2.665,2.07-2.665,2.588c0,1,3.508,6.02,3.508,6.02" transform="translate(-189.596 -108.024)" fill="#dae8f7"/>
    <path id="Trazado_609313" data-name="Trazado 609313" d="M313.257,196.018a167.734,167.734,0,0,1-1.507,23.3" transform="translate(-186.461 -117.241)" fill="none" stroke="#b8c8e3" stroke-linecap="round" stroke-miterlimit="10" stroke-width="1"/>
    <path id="Trazado_609314" data-name="Trazado 609314" d="M311.54,206.018a9.467,9.467,0,0,0,1.419,3.681" transform="translate(-186.336 -123.222)" fill="none" stroke="#b8c8e3" stroke-linecap="round" stroke-miterlimit="10" stroke-width="1"/>
    <path id="Trazado_609315" data-name="Trazado 609315" d="M316.68,159.848s.551,12.937,8.307,13.431c6.547.418,10.18-7.628,10.18-13.451" transform="translate(-189.41 -95.595)" fill="none" stroke="#163649" stroke-miterlimit="10" stroke-width="1"/>
    <path id="Trazado_609316" data-name="Trazado 609316" d="M264.051,193.7s-4.77,17.434-18,20.585c-16.2,3.858-32.067-.478-32.067-.478" transform="translate(-127.984 -115.853)" fill="none" stroke="#163649" stroke-linecap="round" stroke-miterlimit="10" stroke-width="1"/>
    <path id="Trazado_609317" data-name="Trazado 609317" d="M242.663,194.928s1.829,10.57-6.366,16.043c-7.258,4.851-22.317,3.352-22.317,3.352" transform="translate(-127.984 -116.589)" fill="none" stroke="#163649" stroke-linecap="round" stroke-miterlimit="10" stroke-width="1"/>
    <path id="Trazado_609318" data-name="Trazado 609318" d="M258.281,254.27s-29.683.06-44.811-10.542" transform="translate(-127.679 -145.777)" fill="none" stroke="#163649" stroke-linecap="round" stroke-miterlimit="10" stroke-width="1"/>
    <path id="Trazado_609319" data-name="Trazado 609319" d="M479.585,73.973a6.89,6.89,0,0,1,13.122-3.312c1.149,2.46.756,5.341.2,8s-1.238,5.413-.607,8.054c.535,2.222,1.969,4.184,2.255,6.45a6.775,6.775,0,0,1-4.847,7.15c-1.72.446-3.943-.1-4.489-1.8-.506-1.567.651-3.235.418-4.863-.2-1.366-1.31-2.379-2.226-3.408-3.376-3.8-3.424-9.28-3.826-16.276" transform="translate(-286.839 -39.897)" fill="#381b07"/>
    <path id="Trazado_609320" data-name="Trazado 609320" d="M402.137,162.982A12.67,12.67,0,0,1,399.472,157a10.491,10.491,0,0,1,.241-3.725,9.34,9.34,0,0,1,.928-1.7c.4-.623.792-1.246,1.19-1.869a1.257,1.257,0,0,1,.647-.611c.494-.133.948.426.924.94a2.008,2.008,0,0,1-.948,1.4,5.543,5.543,0,0,1,1.354-2.512.748.748,0,0,1,.655-.313c.406.1.394.675.285,1.077-.273,1.009-.543,2.017-.76,2.886.86,1.64.784,3.585.8,5.434s.2,3.85,1.419,5.241c-1.173.514-2.556-1.535-4.071-.257" transform="translate(-238.902 -88.875)" fill="#db8e62"/>
    <path id="Trazado_609321" data-name="Trazado 609321" d="M405.73,176.914s4.079,13.937,7.162,14.223c3.73.35,6.76-3.1,6.76-3.1l2.435-12.483-5.522-3.308-3.046,10-4.348-4.915Z" transform="translate(-242.672 -103.023)" fill="#db8e62"/>
    <path id="Trazado_609322" data-name="Trazado 609322" d="M437.863,160.854c-3.038-1.149-6.089-2.275-9.123-3.44.828-3.967,1.977-8.721,2.982-10.24a6.743,6.743,0,0,1,4.919-2.986l1.387,4.1-.165,12.479v.084" transform="translate(-256.434 -86.24)" fill="#1d9fb3"/>
    <path id="Trazado_609323" data-name="Trazado 609323" d="M415.043,171.578l-8.882-22.96-10.891,2.825,10.079,25.564Z" transform="translate(-236.415 -88.89)" fill="#b23f37"/>
    <path id="Trazado_609324" data-name="Trazado 609324" d="M415.663,172.194l-8-20.436-8.882,2.407,8.749,22.361Z" transform="translate(-238.515 -90.768)" fill="#ebf5ff"/>
    <path id="Trazado_609325" data-name="Trazado 609325" d="M408.493,150.378l.555,1.483-3.484.969-.623-1.515Z" transform="translate(-242.199 -89.943)" fill="#678ca8"/>
    <path id="Trazado_609326" data-name="Trazado 609326" d="M431.41,399.61c.032,1.507,15.838,1,16.55-.245.462-.812-.39-2.853-1.041-4.176-.346-.711-.635-1.214-.635-1.214l-2.009-2.813-1.6-.044a77.476,77.476,0,0,0-9.239,6.036c-1.262,1.037-2.034,1.9-2.022,2.456" transform="translate(-258.031 -233.932)" fill="#136d94"/>
    <path id="Trazado_609327" data-name="Trazado 609327" d="M436.44,397.164c3.267,2.058,10.795-.82,13.487-1.965-.346-.711-.635-1.214-.635-1.214l-2.009-2.813-1.6-.044a77.152,77.152,0,0,0-9.239,6.036" transform="translate(-261.04 -233.938)" fill="#db8e62"/>
    <path id="Trazado_609328" data-name="Trazado 609328" d="M448.51,374.214l.559,6.161.2,2.21.141,1.519,6.394-.671.052-1.073v0l.052-1.125.354-7.282.036-.731-3.894.5Z" transform="translate(-268.259 -223.226)" fill="#db8e62"/>
    <path id="Trazado_609329" data-name="Trazado 609329" d="M448.51,374.956l.559,6.161,3.2.4h0l2.7.342.94.117.354-7.282-3.858-.233Z" transform="translate(-268.259 -223.967)" fill="#cf6e4a"/>
    <path id="Trazado_609330" data-name="Trazado 609330" d="M433.881,222.318a51.632,51.632,0,0,0-2.206,18.415c.543,10.811,5.1,48.512,5.1,48.512l11.357-.535-1.945-48.669-2.741-15.071" transform="translate(-258.147 -132.971)" fill="#1d9fb3"/>
    <path id="Trazado_609331" data-name="Trazado 609331" d="M501.711,389.893c1,1.125,12.7-9.517,12.438-10.919-.173-.916-2.146-1.917-3.5-2.5-.723-.313-1.27-.51-1.27-.51l-3.356-.836-1.25,1a77.263,77.263,0,0,0-3.115,10.586c-.293,1.6-.318,2.757.052,3.175" transform="translate(-299.915 -224.368)" fill="#136d94"/>
    <path id="Trazado_609332" data-name="Trazado 609332" d="M501.99,386.708c3.822-.555,7.684-7.628,8.99-10.244-.723-.313-1.27-.51-1.27-.51l-3.356-.836-1.25,1a77.1,77.1,0,0,0-3.115,10.586" transform="translate(-300.246 -224.362)" fill="#db8e62"/>
    <path id="Trazado_609333" data-name="Trazado 609333" d="M491.43,364.309l2.656,2.6,3.348,3.275,1.093,1.065,4.433-4.654-.659-.856-1.917-2.484-3.673-4.758Z" transform="translate(-293.93 -214.422)" fill="#db8e62"/>
    <path id="Trazado_609334" data-name="Trazado 609334" d="M491.43,364.309l2.656,2.6,6.3-3.653-3.673-4.758Z" transform="translate(-293.93 -214.422)" fill="#cf6e4a"/>
    <path id="Trazado_609335" data-name="Trazado 609335" d="M433.331,225.821c1.105,3.07,9.428,8.48,9.428,8.48s-.08,21.433.229,26.834,11.5,23.036,11.5,23.036l10.489-9.312s-8.13-13.6-8.689-16.791,2.958-20,2.958-26.838a26.409,26.409,0,0,0-.309-3.862,48.177,48.177,0,0,0-1.869-7.712c-.671-2.07-1.238-3.428-1.238-3.428a103.407,103.407,0,0,0-11.389,2.419c-5.208,1.455-10.4,3.557-11.189,6.237a1.513,1.513,0,0,0,.076.936" transform="translate(-259.108 -129.328)" fill="#25b2c2"/>
    <path id="Trazado_609336" data-name="Trazado 609336" d="M433.332,229.422a67.572,67.572,0,0,0,8.637,4.308,12.981,12.981,0,0,1,.627-1.483c.261.567.526,1.125.848,1.893,5.128-1.286,10.3-2.375,15.5-3.171a48.174,48.174,0,0,0-1.869-7.712q-6.306-.591-12.627-1.009c-5.208,1.455-10.4,3.557-11.189,6.237a1.481,1.481,0,0,0,.072.936" transform="translate(-259.11 -132.929)" fill="#1d9fb3"/>
    <path id="Trazado_609337" data-name="Trazado 609337" d="M459.768,144.66c-.4-2.411-9.525-5.51-12.627-5.229-6.663.607-11.49,1.817-13.009,2.769s-2.906,9.85-2.906,12.33c0,2.934,1.009,8.693.739,11.016-.522,4.505-3.255,14.046-3.255,14.046l10.043,3.521L440,180.918l1.137,2.781,16.6-3.806s-1.27-13.218-1.27-15.537c0-2.222,3.818-16.586,3.3-19.7" transform="translate(-256.416 -83.385)" fill="#27b8c1"/>
    <path id="Trazado_609338" data-name="Trazado 609338" d="M461.04,156.388c-3.336,17.374-3.521,22.349-4.28,34.554" transform="translate(-273.193 -93.537)" fill="none" stroke="#51dbdb" stroke-linecap="round" stroke-miterlimit="10" stroke-width="1"/>
    <path id="Trazado_609339" data-name="Trazado 609339" d="M467.679,163.558a.559.559,0,1,1-.559.559.558.558,0,0,1,.559-.559" transform="translate(-279.39 -97.826)" fill="#136d94"/>
    <path id="Trazado_609340" data-name="Trazado 609340" d="M464.2,182.468a.559.559,0,1,1-.559.559.558.558,0,0,1,.559-.559" transform="translate(-277.308 -109.136)" fill="#136d94"/>
    <path id="Trazado_609341" data-name="Trazado 609341" d="M461.519,202.4a.559.559,0,1,1-.559.559.558.558,0,0,1,.559-.559" transform="translate(-275.705 -121.057)" fill="#136d94"/>
    <path id="Trazado_609342" data-name="Trazado 609342" d="M460.129,225.248a.559.559,0,1,1-.559.559.558.558,0,0,1,.559-.559" transform="translate(-274.874 -134.723)" fill="#136d94"/>
    <path id="Trazado_609343" data-name="Trazado 609343" d="M419.21,175.543l1.664.133.129.012,11.156-2.93a1.223,1.223,0,0,0,.711-1.543,1.263,1.263,0,0,0-1.612-.707l-10.642,3.762-.108.1Z" transform="translate(-250.734 -101.937)" fill="#136d94"/>
    <path id="Trazado_609344" data-name="Trazado 609344" d="M419.21,181.4l.458.036,1.206.1a.778.778,0,0,1-.108-.092.551.551,0,0,1-.165-.539c.024-.08.072-.165.04-.241a.387.387,0,0,0-.072-.088.4.4,0,0,1-.064-.35l-.952.868Z" transform="translate(-250.734 -107.79)" fill="#d68a5a"/>
    <path id="Trazado_609345" data-name="Trazado 609345" d="M419.21,182.687l.458.036a.446.446,0,0,1-.1-.181.452.452,0,0,1-.016-.165Z" transform="translate(-250.734 -109.082)" fill="#24151a"/>
    <path id="Trazado_609346" data-name="Trazado 609346" d="M436.8,177.9c-1.1-2.034-2.19-4.067-3.36-6.1a11.062,11.062,0,0,0-2.841-1.567,7.907,7.907,0,0,0-3.227,2.054c-.225.237-.462.571-.358.888a.517.517,0,0,0,.543.33,1.548,1.548,0,0,0,.631-.253c.607-.354,1.214-.711,1.917-1.053a5.141,5.141,0,0,1,.543.51,4.6,4.6,0,0,0-1.31.153,20.664,20.664,0,0,0-2.295,1.266.841.841,0,0,0-.462.575.534.534,0,0,0,.285.506,1,1,0,0,0,.563.08,3.712,3.712,0,0,0,1.969-.735,2.582,2.582,0,0,1,.643.249,3.27,3.27,0,0,0-.884.253,1.229,1.229,0,0,0-.579,1.744.465.465,0,0,0-.241.458,1.294,1.294,0,0,0,.169.518,10.273,10.273,0,0,0,.567.985,1.8,1.8,0,0,0,.731.711.723.723,0,0,0,.92-.35,4.1,4.1,0,0,0,3.882,2.11A12.456,12.456,0,0,0,436.8,177.9" transform="translate(-255.139 -101.815)" fill="#db8e62"/>
    <path id="Trazado_609347" data-name="Trazado 609347" d="M438.25,176.573a4.391,4.391,0,0,0-1.25-.265" transform="translate(-261.375 -105.452)" fill="none" stroke="#a8473e" stroke-linecap="round" stroke-miterlimit="10" stroke-width="0.5"/>
    <path id="Trazado_609348" data-name="Trazado 609348" d="M436.467,181.312a4.6,4.6,0,0,0-1.1.032" transform="translate(-260.4 -108.434)" fill="none" stroke="#a8473e" stroke-linecap="round" stroke-miterlimit="10" stroke-width="0.5"/>
    <path id="Trazado_609349" data-name="Trazado 609349" d="M431.69,185.625a3.977,3.977,0,0,1,2.118-.406" transform="translate(-258.199 -110.77)" fill="none" stroke="#a8473e" stroke-linecap="round" stroke-miterlimit="10" stroke-width="0.5"/>
    <path id="Trazado_609350" data-name="Trazado 609350" d="M435.8,190.284a4.269,4.269,0,0,1-.446-1.206" transform="translate(-260.388 -113.09)" fill="none" stroke="#a8473e" stroke-linecap="round" stroke-miterlimit="10" stroke-width="0.5"/>
    <path id="Trazado_609351" data-name="Trazado 609351" d="M434.593,190.708a3.627,3.627,0,0,1-.723.056" transform="translate(-259.503 -114.065)" fill="none" stroke="#a8473e" stroke-linecap="round" stroke-miterlimit="10" stroke-width="0.5"/>
    <path id="Trazado_609352" data-name="Trazado 609352" d="M444.87,183.066s13.889,11.779,17.639,10.453c1.491-.53,2.97-4.855,4.043-8.882.989-3.7,1.632-7.146,1.632-7.146l-7.869-3.324s-.526,3.569-1.057,6.47a13.75,13.75,0,0,1-.892,3.657c-.8.225-11-4.312-11-4.312Z" transform="translate(-266.082 -104.172)" fill="#db8e62"/>
    <path id="Trazado_609353" data-name="Trazado 609353" d="M480.67,180.648a44.213,44.213,0,0,0,7.29,4c.989-3.7,1.632-7.146,1.632-7.146l-7.869-3.324s-.522,3.569-1.053,6.47" transform="translate(-287.494 -104.178)" fill="#cf6e4a"/>
    <path id="Trazado_609354" data-name="Trazado 609354" d="M488.779,164.969a58.566,58.566,0,0,1-9.469-2.4c.466-3.866,1.555-10.859,2.439-13.013.627-1.527,3.091-4.212,5.868-3.05s3.842,2.994,3.549,7.829c-.109,1.72-1.744,7.134-2.387,10.634" transform="translate(-286.681 -87.457)" fill="#32c9cf"/>
    <path id="Trazado_609355" data-name="Trazado 609355" d="M461.09,131.391s.808,3.657,2.367,4.726,7.463-5.506,7.463-5.506c-1.017-.948-1.262-2.809-1.25-4.457a19.093,19.093,0,0,1,.293-3.127l-7.194,2.078a14.434,14.434,0,0,1-.3,3.979c-.49,2-1.382,2.307-1.382,2.307" transform="translate(-275.783 -73.584)" fill="#db8e62"/>
    <path id="Trazado_609356" data-name="Trazado 609356" d="M464.54,129.084c3.316.7,5.851-1.407,7.194-2.93a19.093,19.093,0,0,1,.293-3.127l-7.194,2.078a14.293,14.293,0,0,1-.293,3.979" transform="translate(-277.847 -73.584)" fill="#cf6e4a"/>
    <path id="Trazado_609357" data-name="Trazado 609357" d="M467.622,144.463a9.269,9.269,0,0,1,.6-2.7c.233-.213,5.9-5.18,6.241-5a6.7,6.7,0,0,1,1.31,1.841,20.773,20.773,0,0,1-3.364,3.364c-1.511,1.226-3.922,2.636-4.791,2.488" transform="translate(-279.683 -81.801)" fill="#136d94"/>
    <path id="Trazado_609358" data-name="Trazado 609358" d="M462.92,145.774a10.232,10.232,0,0,0-.273-2.8,9.5,9.5,0,0,1-1.266-4s-1.431.543-1.608.856.6,2.636,1.2,3.742c1.017,1.861,1.845,2.3,1.945,2.2" transform="translate(-274.981 -83.124)" fill="#136d94"/>
    <path id="Trazado_609359" data-name="Trazado 609359" d="M443.2,110.585c.136-1.2,1.578-2.021,3.221-1.835s2.865,1.31,2.729,2.509-1.578,2.021-3.221,1.835-2.865-1.31-2.729-2.509" transform="translate(-265.075 -65.029)" fill="#cf6e4a"/>
    <path id="Trazado_609360" data-name="Trazado 609360" d="M466.966,90.358c0-5.667-3.918-10.26-8.753-10.26s-8.753,4.594-8.753,10.26,2.415,11.3,7.314,11.1c4.827-.2,10.192-5.434,10.192-11.1" transform="translate(-268.827 -47.908)" fill="#db8e62"/>
    <path id="Trazado_609361" data-name="Trazado 609361" d="M465.022,93.286a9.583,9.583,0,0,1-1.817-4.079,4.788,4.788,0,0,1-2.741-2.472c-1.483,1.483-7.117,2.319-9,1.829-1.338,1.652-1.378,2.472-1.853,4.582a23.072,23.072,0,0,1,.4-7.736A82.909,82.909,0,0,0,460.328,81.3a1.978,1.978,0,0,1,1.8-.229,2.125,2.125,0,0,1,.711.969A12.291,12.291,0,0,0,466,86.056c.342.285.731.607.747,1.049a1.591,1.591,0,0,1-.281.808c-.631,1.161-.522,3.955-1.443,5.373" transform="translate(-268.824 -48.404)" fill="#cf6e4a"/>
    <path id="Trazado_609362" data-name="Trazado 609362" d="M445.76,81.812c-.028,2.146,1.72,6.6,1.72,6.6a12.309,12.309,0,0,1,1.684-6.052c3.46,0,7.294-.161,9.416-2.13a4.7,4.7,0,0,0,2.946,2.894c-.04,1.945.852,3.766,1.411,5.4,1.089-.663,1.909-.382,2.8-1.431a23.374,23.374,0,0,0,.9-6.708,9.246,9.246,0,0,0-1.334-4.216,6.534,6.534,0,0,0-.643-.848,5.235,5.235,0,0,0-4.979-1.724,5.721,5.721,0,0,0-4.039-1.977,8.031,8.031,0,0,0-4.373,1.153,10.35,10.35,0,0,0-5.281,6.933,11.041,11.041,0,0,0-.229,2.1" transform="translate(-266.614 -42.833)" fill="#412408"/>
    <path id="Trazado_609363" data-name="Trazado 609363" d="M445.76,81.806a8.45,8.45,0,0,1,.261-.82,11.665,11.665,0,0,1,2.222-3.529,11.007,11.007,0,0,1,5.172-3.549,6.251,6.251,0,0,1,5.948,1.266,5.9,5.9,0,0,1,5.936.989,6.537,6.537,0,0,0-.643-.848,5.235,5.235,0,0,0-4.979-1.724,5.721,5.721,0,0,0-4.039-1.977,8.031,8.031,0,0,0-4.373,1.153,10.35,10.35,0,0,0-5.281,6.933,11.452,11.452,0,0,0-.225,2.106" transform="translate(-266.614 -42.827)" fill="#664216"/>
    <path id="Trazado_609364" data-name="Trazado 609364" d="M488.108,108.825c1.6-.41,3.144.206,3.443,1.376s-.757,2.45-2.359,2.86-3.143-.205-3.443-1.375.756-2.451,2.358-2.861" transform="translate(-290.502 -65.014)" fill="#db8e62"/>
    <path id="Trazado_609365" data-name="Trazado 609365" d="M472.152,113.548c.211,0,.382.274.382.611s-.171.611-.382.611-.382-.274-.382-.611.171-.611.382-.611" transform="translate(-282.171 -67.914)" fill="#411f00"/>
    <path id="Trazado_609366" data-name="Trazado 609366" d="M454.7,113.548c.211,0,.382.274.382.611s-.171.611-.382.611-.382-.274-.382-.611.171-.611.382-.611" transform="translate(-271.734 -67.914)" fill="#411f00"/>
    <path id="Trazado_609367" data-name="Trazado 609367" d="M454.715,105.631a2.847,2.847,0,0,0-2.255.181" transform="translate(-270.621 -63.088)" fill="none" stroke="#412408" stroke-linecap="round" stroke-miterlimit="10" stroke-width="2"/>
    <path id="Trazado_609368" data-name="Trazado 609368" d="M471.24,106.332a2.7,2.7,0,0,1,2.556.249" transform="translate(-281.854 -63.471)" fill="none" stroke="#412408" stroke-linecap="round" stroke-miterlimit="10" stroke-width="2"/>
    <path id="Trazado_609369" data-name="Trazado 609369" d="M461.732,116.228a7.425,7.425,0,0,0,.008,1.716" transform="translate(-276.14 -69.517)" fill="none" stroke="#a8473e" stroke-linecap="round" stroke-miterlimit="10" stroke-width="2"/>
    <path id="Trazado_609370" data-name="Trazado 609370" d="M462.87,123.707a2.205,2.205,0,0,0,2.753-.679" transform="translate(-276.848 -73.584)" fill="none" stroke="#a8473e" stroke-linecap="round" stroke-miterlimit="10" stroke-width="2"/>
    <path id="Trazado_609371" data-name="Trazado 609371" d="M133.505,19.748A14.745,14.745,0,1,1,118.76,34.493a14.745,14.745,0,0,1,14.745-14.745" transform="translate(-71.032 -11.812)" fill="#c1cdf5"/>
    <path id="Trazado_609372" data-name="Trazado 609372" d="M130.888,40.785c3.227-6.012,9.609,2.058,9.609,2.058s6.394-6.9,9.609-2.415c3.34,4.65-9.609,15.481-9.609,15.481S128.143,45.9,130.888,40.785" transform="translate(-78.047 -23.062)" fill="#b82621"/>
    <path id="Trazado_609373" data-name="Trazado 609373" d="M128.83,49.607l4.473.048,1.391-5.442,2.865,10.345,2.267-12.531,2.464,11.285,1.471-8.182,1.575,4.292,4.891.133" transform="translate(-77.055 -25.137)" fill="none" stroke="#fff" stroke-linecap="round" stroke-miterlimit="10" stroke-width="1"/>
    <path id="Trazado_609374" data-name="Trazado 609374" d="M234.581,76.118A15.071,15.071,0,1,1,219.51,91.189a15.071,15.071,0,0,1,15.071-15.071" transform="translate(-131.291 -45.527)" fill="#c1cdf5"/>
    <path id="Trazado_609375" data-name="Trazado 609375" d="M249.658,102.56l-11.534,6.607a4.576,4.576,0,1,1-4.549-7.941l11.534-6.607a4.575,4.575,0,0,1,6.687,5.172,4.532,4.532,0,0,1-2.138,2.769" transform="translate(-138.327 -56.231)" fill="#fff"/>
    <path id="Trazado_609376" data-name="Trazado 609376" d="M261.66,102.56l-5.771,3.3-4.549-7.941,5.771-3.3a4.575,4.575,0,0,1,6.687,5.172,4.532,4.532,0,0,1-2.138,2.769" transform="translate(-150.329 -56.231)" fill="#b82621"/>
    <path id="Trazado_609377" data-name="Trazado 609377" d="M330.435,7.748A14.745,14.745,0,1,1,315.69,22.493,14.745,14.745,0,0,1,330.435,7.748" transform="translate(-188.818 -4.634)" fill="#cadeb4"/>
    <path id="Trazado_609378" data-name="Trazado 609378" d="M348.7,22.846V32.954a7.318,7.318,0,0,1-3.336,6.129l-4.18,2.439-3.834-2.488a7.338,7.338,0,0,1-3.685-6.346V22.846l7.467-2.138.052.016Z" transform="translate(-199.572 -12.386)" fill="#fff"/>
    <path id="Trazado_609379" data-name="Trazado 609379" d="M359.9,22.87V32.977a7.318,7.318,0,0,1-3.336,6.129l-4.18,2.439v-20.8Z" transform="translate(-210.763 -12.41)" fill="#f2e4e5"/>
    <rect id="Rectángulo_377692" data-name="Rectángulo 377692" width="3.468" height="11.422" transform="translate(139.881 13.016)" fill="#b82621"/>
    <rect id="Rectángulo_377693" data-name="Rectángulo 377693" width="11.422" height="3.468" transform="translate(135.903 16.994)" fill="#b82621"/>
  </g>
</svg>
