<svg xmlns="http://www.w3.org/2000/svg" xmlns:xlink="http://www.w3.org/1999/xlink" width="1030" height="362" viewBox="0 0 1030 362">
  <defs>
    <linearGradient id="linear-gradient" x1="0.5" x2="0.5" y2="1" gradientUnits="objectBoundingBox">
      <stop offset="0" stop-color="#f1ece6"/>
      <stop offset="1" stop-color="#fff7ef"/>
    </linearGradient>
    <clipPath id="clip-path">
      <rect id="Rectángulo_377317" data-name="Rectángulo 377317" width="306.624" height="178.282" fill="#c4c4c4"/>
    </clipPath>
    <clipPath id="clip-path-2">
      <rect id="Rectángulo_377316" data-name="Rectángulo 377316" width="306.626" height="178.282" fill="#c6d8af"/>
    </clipPath>
    <clipPath id="clip-path-3">
      <rect id="Rectángulo_377315" data-name="Rectángulo 377315" width="306.624" height="178.282" fill="#c1cdf5"/>
    </clipPath>
    <clipPath id="clip-path-4">
      <rect id="Rectángulo_377393" data-name="Rectángulo 377393" width="105.535" height="72.414" fill="none"/>
    </clipPath>
    <clipPath id="clip-path-5">
      <rect id="Rectángulo_377398" data-name="Rectángulo 377398" width="62.181" height="32.877" transform="matrix(0.849, -0.529, 0.529, 0.849, 0, 32.896)" fill="none"/>
    </clipPath>
    <clipPath id="clip-path-7">
      <rect id="Rectángulo_377405" data-name="Rectángulo 377405" width="61.466" height="32.162" transform="matrix(0.849, -0.529, 0.529, 0.849, 0, 32.519)" fill="none"/>
    </clipPath>
    <clipPath id="clip-path-9">
      <rect id="Rectángulo_377412" data-name="Rectángulo 377412" width="60.751" height="32.877" transform="matrix(0.849, -0.529, 0.529, 0.849, 0, 32.141)" fill="none"/>
    </clipPath>
    <clipPath id="clip-path-11">
      <rect id="Rectángulo_377419" data-name="Rectángulo 377419" width="61.466" height="32.877" transform="matrix(0.849, -0.529, 0.529, 0.849, 0, 32.518)" fill="none"/>
    </clipPath>
    <clipPath id="clip-path-13">
      <rect id="Rectángulo_377421" data-name="Rectángulo 377421" width="77.053" height="53.539" fill="none"/>
    </clipPath>
    <clipPath id="clip-path-14">
      <rect id="Rectángulo_377423" data-name="Rectángulo 377423" width="98.057" height="35.575" fill="none"/>
    </clipPath>
  </defs>
  <g id="Grupo_1080483" data-name="Grupo 1080483" transform="translate(-285 -5017)">
    <path id="Trazado_608389" data-name="Trazado 608389" d="M29,0h972a29,29,0,0,1,29,29V333a29,29,0,0,1-29,29H29A29,29,0,0,1,0,333V29A29,29,0,0,1,29,0Z" transform="translate(285 5017)" fill="url(#linear-gradient)"/>
    <g id="Grupo_1071206" data-name="Grupo 1071206" transform="translate(903.375 5174.344)" style="mix-blend-mode: multiply;isolation: isolate">
      <g id="Grupo_1071205" data-name="Grupo 1071205">
        <g id="Grupo_1071204" data-name="Grupo 1071204" clip-path="url(#clip-path)">
          <path id="Trazado_608379" data-name="Trazado 608379" d="M444.336,251.038c-84.536,0-153.312-68.776-153.312-153.312a24.969,24.969,0,1,1,49.938,0,103.374,103.374,0,0,0,206.748,0,24.969,24.969,0,1,1,49.938,0c0,84.536-68.776,153.312-153.312,153.312" transform="translate(-291.024 -72.756)" fill="#c4c4c4"/>
        </g>
      </g>
    </g>
    <path id="Trazado_608380" data-name="Trazado 608380" d="M235.454,132.081A103.374,103.374,0,1,1,132.079,28.706,103.374,103.374,0,0,1,235.454,132.081" transform="translate(411.233 5067.233)" fill="#9aa4c4"/>
    <path id="Trazado_608381" data-name="Trazado 608381" d="M380.031,131.613A102.906,102.906,0,1,1,277.123,28.706,102.907,102.907,0,0,1,380.031,131.613" transform="translate(522.782 5067.233)" fill="#a1b190"/>
    <path id="Trazado_608382" data-name="Trazado 608382" d="M526.477,132.081A103.374,103.374,0,1,1,423.1,28.706,103.375,103.375,0,0,1,526.477,132.081" transform="translate(633.271 5067.232)" fill="#cbcbc4"/>
    <path id="Trazado_608383" data-name="Trazado 608383" d="M205.833,117.27a88.564,88.564,0,1,1-88.564-88.564,88.564,88.564,0,0,1,88.564,88.564" transform="translate(426.044 5082.043)" fill="#e6ebfb"/>
    <path id="Trazado_608387" data-name="Trazado 608387" d="M205.833,117.27a88.564,88.564,0,1,1-88.564-88.564,88.564,88.564,0,0,1,88.564,88.564" transform="translate(682.294 5082.043)" fill="#eaf2e1"/>
    <path id="Trazado_608388" data-name="Trazado 608388" d="M205.833,117.27a88.564,88.564,0,1,1-88.564-88.564,88.564,88.564,0,0,1,88.564,88.564" transform="translate(939.294 5082.043)" fill="#f5f5f5"/>
    <g id="Grupo_1071203" data-name="Grupo 1071203" transform="translate(646.687 5046)" style="mix-blend-mode: multiply;isolation: isolate">
      <g id="Grupo_1071202" data-name="Grupo 1071202">
        <g id="Grupo_1071201" data-name="Grupo 1071201" clip-path="url(#clip-path-2)">
          <path id="Trazado_608378" data-name="Trazado 608378" d="M427.168,178.282a24.969,24.969,0,0,1-24.968-24.97,103.375,103.375,0,0,0-206.75,0,24.969,24.969,0,1,1-49.938,0C145.512,68.776,214.286,0,298.824,0S452.136,68.776,452.136,153.312a24.969,24.969,0,0,1-24.968,24.97" transform="translate(-145.51)" fill="#c6d8af"/>
        </g>
      </g>
    </g>
    <g id="Grupo_1071200" data-name="Grupo 1071200" transform="translate(390 5174.344)" style="mix-blend-mode: multiply;isolation: isolate">
      <g id="Grupo_1071199" data-name="Grupo 1071199">
        <g id="Grupo_1071198" data-name="Grupo 1071198" clip-path="url(#clip-path-3)">
          <path id="Trazado_608377" data-name="Trazado 608377" d="M153.312,251.038C68.776,251.038,0,182.262,0,97.726a24.969,24.969,0,1,1,49.938,0,103.374,103.374,0,0,0,206.748,0,24.969,24.969,0,1,1,49.938,0c0,84.536-68.776,153.312-153.312,153.312" transform="translate(0 -72.756)" fill="#c1cdf5"/>
        </g>
      </g>
    </g>
    <rect id="Rectángulo_377318" data-name="Rectángulo 377318" width="820" height="306.626" transform="translate(390 5046)" fill="none"/>
    <rect id="Rectángulo_377319" data-name="Rectángulo 377319" width="820" height="306.626" transform="translate(390 5046)" fill="none"/>
    <path id="Trazado_831908" data-name="Trazado 831908" d="M-39.786-4.424H-41.77V0h-2.49V-12.086h4.491a5.076,5.076,0,0,1,3.3.955,3.3,3.3,0,0,1,1.162,2.7,3.718,3.718,0,0,1-.535,2.063,3.651,3.651,0,0,1-1.623,1.316l2.615,4.939V0H-37.52ZM-41.77-6.441h2.009a2.057,2.057,0,0,0,1.453-.477,1.706,1.706,0,0,0,.515-1.316,1.826,1.826,0,0,0-.486-1.345,2.018,2.018,0,0,0-1.49-.49h-2ZM-29.435.166a4.409,4.409,0,0,1-3.217-1.212,4.308,4.308,0,0,1-1.241-3.229v-.232a5.426,5.426,0,0,1,.523-2.42,3.838,3.838,0,0,1,1.482-1.644A4.159,4.159,0,0,1-29.7-9.147a3.727,3.727,0,0,1,2.9,1.162,4.722,4.722,0,0,1,1.058,3.3v.979H-31.46a2.229,2.229,0,0,0,.7,1.411,2.12,2.12,0,0,0,1.482.531,2.589,2.589,0,0,0,2.167-1l1.179,1.32A3.6,3.6,0,0,1-27.393-.261,4.793,4.793,0,0,1-29.435.166Zm-.274-7.379a1.5,1.5,0,0,0-1.158.484,2.5,2.5,0,0,0-.569,1.384H-28.1v-.192a1.786,1.786,0,0,0-.432-1.238A1.547,1.547,0,0,0-29.708-7.213Zm.216-5.537h2.615l-2.3,2.573h-1.951Zm4.765,8.193a5.264,5.264,0,0,1,.984-3.329,3.187,3.187,0,0,1,2.652-1.262,2.8,2.8,0,0,1,2.3,1.013l.1-.847h2.175V-.3a3.839,3.839,0,0,1-.535,2.05A3.439,3.439,0,0,1-18.561,3.08a5.3,5.3,0,0,1-2.274.457,4.925,4.925,0,0,1-1.926-.394A3.418,3.418,0,0,1-24.18,2.125L-23.118.664a2.81,2.81,0,0,0,2.175,1,2.057,2.057,0,0,0,1.486-.51,1.915,1.915,0,0,0,.531-1.448V-.772a2.775,2.775,0,0,1-2.183.938A3.179,3.179,0,0,1-23.728-1.1a5.262,5.262,0,0,1-1-3.358Zm2.4.179a3.278,3.278,0,0,0,.49,1.916,1.558,1.558,0,0,0,1.345.694,1.666,1.666,0,0,0,1.569-.823V-6.374A1.662,1.662,0,0,0-20.478-7.2a1.568,1.568,0,0,0-1.357.707A3.694,3.694,0,0,0-22.329-4.379ZM-12.144,0h-2.407V-8.981h2.407Zm-2.548-11.306a1.181,1.181,0,0,1,.361-.888,1.356,1.356,0,0,1,.984-.349,1.36,1.36,0,0,1,.979.349,1.175,1.175,0,0,1,.365.888,1.178,1.178,0,0,1-.369.9,1.363,1.363,0,0,1-.975.349,1.363,1.363,0,0,1-.975-.349A1.178,1.178,0,0,1-14.692-11.306Zm6.773,2.324.075,1a3.156,3.156,0,0,1,2.582-1.17A2.4,2.4,0,0,1-2.88-7.778a3.084,3.084,0,0,1,2.7-1.37A2.679,2.679,0,0,1,1.992-8.3a3.911,3.911,0,0,1,.714,2.561V0H.3V-5.728A1.71,1.71,0,0,0,0-6.844,1.324,1.324,0,0,0-1.054-7.2,1.5,1.5,0,0,0-2.548-6.167L-2.54,0h-2.4V-5.719a1.689,1.689,0,0,0-.307-1.129A1.337,1.337,0,0,0-6.292-7.2,1.555,1.555,0,0,0-7.77-6.35V0h-2.4V-8.981ZM8.683.166A4.409,4.409,0,0,1,5.466-1.046,4.308,4.308,0,0,1,4.225-4.275v-.232a5.426,5.426,0,0,1,.523-2.42A3.838,3.838,0,0,1,6.23-8.571a4.159,4.159,0,0,1,2.187-.577,3.727,3.727,0,0,1,2.9,1.162,4.722,4.722,0,0,1,1.058,3.3v.979H6.657a2.229,2.229,0,0,0,.7,1.411,2.12,2.12,0,0,0,1.482.531,2.589,2.589,0,0,0,2.167-1l1.179,1.32A3.6,3.6,0,0,1,10.725-.261,4.793,4.793,0,0,1,8.683.166ZM8.409-7.213a1.5,1.5,0,0,0-1.158.484,2.5,2.5,0,0,0-.569,1.384h3.337v-.192a1.786,1.786,0,0,0-.432-1.238A1.547,1.547,0,0,0,8.409-7.213Zm7.537-1.768.075,1.038a3.136,3.136,0,0,1,2.582-1.2,2.606,2.606,0,0,1,2.125.838A3.912,3.912,0,0,1,21.441-5.8V0h-2.4V-5.744a1.556,1.556,0,0,0-.332-1.108,1.486,1.486,0,0,0-1.1-.344,1.65,1.65,0,0,0-1.519.863V0h-2.4V-8.981ZM27.119-4.557A5.413,5.413,0,0,1,28.061-7.9a3.057,3.057,0,0,1,2.577-1.245,2.751,2.751,0,0,1,2.167.979V-12.75h2.407V0H33.045l-.116-.955A2.823,2.823,0,0,1,30.622.166a3.049,3.049,0,0,1-2.544-1.249A5.587,5.587,0,0,1,27.119-4.557Zm2.4.179a3.546,3.546,0,0,0,.44,1.937,1.433,1.433,0,0,0,1.278.673A1.605,1.605,0,0,0,32.8-2.707v-3.55A1.582,1.582,0,0,0,31.252-7.2Q29.518-7.2,29.518-4.379ZM41.205.166a4.409,4.409,0,0,1-3.217-1.212,4.308,4.308,0,0,1-1.241-3.229v-.232a5.426,5.426,0,0,1,.523-2.42,3.838,3.838,0,0,1,1.482-1.644,4.159,4.159,0,0,1,2.187-.577,3.727,3.727,0,0,1,2.9,1.162A4.722,4.722,0,0,1,44.9-4.69v.979H39.18a2.229,2.229,0,0,0,.7,1.411,2.12,2.12,0,0,0,1.482.531,2.589,2.589,0,0,0,2.167-1l1.179,1.32A3.6,3.6,0,0,1,43.247-.261,4.793,4.793,0,0,1,41.205.166Zm-.274-7.379a1.5,1.5,0,0,0-1.158.484A2.5,2.5,0,0,0,39.2-5.346h3.337v-.192a1.786,1.786,0,0,0-.432-1.238A1.547,1.547,0,0,0,40.931-7.213Zm-79.65,24.806a5.387,5.387,0,0,1-.942,3.324,3.021,3.021,0,0,1-2.544,1.249,2.8,2.8,0,0,1-2.2-.946v4.233h-2.4V13.019h2.225l.083.88a2.819,2.819,0,0,1,2.274-1.046,3.041,3.041,0,0,1,2.582,1.229,5.532,5.532,0,0,1,.921,3.387Zm-2.4-.174a3.535,3.535,0,0,0-.444-1.934,1.446,1.446,0,0,0-1.291-.681,1.571,1.571,0,0,0-1.552.863v3.677a1.6,1.6,0,0,0,1.569.888Q-41.118,20.232-41.118,17.418Zm8.932-2.15a6.517,6.517,0,0,0-.863-.066,1.757,1.757,0,0,0-1.785.921V22h-2.4V13.019h2.266l.066,1.071a2.223,2.223,0,0,1,2-1.237,2.514,2.514,0,0,1,.747.108ZM-28.5,22h-2.407V13.019H-28.5Zm-2.548-11.306a1.181,1.181,0,0,1,.361-.888,1.356,1.356,0,0,1,.984-.349,1.36,1.36,0,0,1,.979.349,1.175,1.175,0,0,1,.365.888,1.178,1.178,0,0,1-.369.9,1.363,1.363,0,0,1-.975.349,1.363,1.363,0,0,1-.975-.349A1.178,1.178,0,0,1-31.049,10.694Zm6.773,2.324.075,1a3.156,3.156,0,0,1,2.582-1.17,2.4,2.4,0,0,1,2.382,1.37,3.084,3.084,0,0,1,2.7-1.37,2.679,2.679,0,0,1,2.175.851,3.911,3.911,0,0,1,.714,2.561V22h-2.407V16.272a1.71,1.71,0,0,0-.3-1.116,1.324,1.324,0,0,0-1.054-.353,1.5,1.5,0,0,0-1.494,1.029L-18.9,22h-2.4V16.281a1.689,1.689,0,0,0-.307-1.129,1.337,1.337,0,0,0-1.046-.349,1.555,1.555,0,0,0-1.478.847V22h-2.4V13.019ZM-6.6,22a2.664,2.664,0,0,1-.241-.805,2.9,2.9,0,0,1-2.266.971A3.189,3.189,0,0,1-11.3,21.4a2.456,2.456,0,0,1-.867-1.926,2.538,2.538,0,0,1,1.058-2.191,5.222,5.222,0,0,1,3.059-.772h1.1V16a1.48,1.48,0,0,0-.32-1,1.257,1.257,0,0,0-1.009-.374,1.429,1.429,0,0,0-.95.291.987.987,0,0,0-.344.8h-2.4a2.41,2.41,0,0,1,.481-1.444,3.182,3.182,0,0,1,1.361-1.042,4.961,4.961,0,0,1,1.976-.378,3.92,3.92,0,0,1,2.635.834,2.918,2.918,0,0,1,.975,2.345v3.893a4.294,4.294,0,0,0,.357,1.934V22Zm-1.984-1.668a2.066,2.066,0,0,0,.979-.237,1.554,1.554,0,0,0,.664-.635V17.916h-.9q-1.8,0-1.917,1.245l-.008.141a.96.96,0,0,0,.315.739A1.225,1.225,0,0,0-8.587,20.332ZM3.789,13.019l.075,1a3.156,3.156,0,0,1,2.582-1.17,2.4,2.4,0,0,1,2.382,1.37,3.084,3.084,0,0,1,2.7-1.37A2.679,2.679,0,0,1,13.7,13.7a3.911,3.911,0,0,1,.714,2.561V22H12.007V16.272a1.71,1.71,0,0,0-.3-1.116,1.324,1.324,0,0,0-1.054-.353A1.5,1.5,0,0,0,9.16,15.833L9.168,22h-2.4V16.281a1.689,1.689,0,0,0-.307-1.129A1.337,1.337,0,0,0,5.416,14.8a1.555,1.555,0,0,0-1.478.847V22H1.54V13.019Zm16.6,9.147a4.409,4.409,0,0,1-3.217-1.212,4.308,4.308,0,0,1-1.241-3.229v-.232a5.426,5.426,0,0,1,.523-2.42,3.838,3.838,0,0,1,1.482-1.644,4.159,4.159,0,0,1,2.187-.577,3.727,3.727,0,0,1,2.9,1.162,4.722,4.722,0,0,1,1.058,3.3v.979H18.365a2.229,2.229,0,0,0,.7,1.411,2.12,2.12,0,0,0,1.482.531,2.589,2.589,0,0,0,2.167-1l1.179,1.32a3.6,3.6,0,0,1-1.461,1.191A4.793,4.793,0,0,1,20.391,22.166Zm-.274-7.379a1.5,1.5,0,0,0-1.158.484,2.5,2.5,0,0,0-.569,1.384h3.337v-.192a1.786,1.786,0,0,0-.432-1.238A1.547,1.547,0,0,0,20.117,14.787Zm4.956,2.656a5.413,5.413,0,0,1,.942-3.345,3.057,3.057,0,0,1,2.577-1.245,2.751,2.751,0,0,1,2.167.979V9.25h2.407V22H31l-.116-.955a2.823,2.823,0,0,1-2.308,1.121,3.049,3.049,0,0,1-2.544-1.249A5.587,5.587,0,0,1,25.073,17.443Zm2.4.179a3.546,3.546,0,0,0,.44,1.937,1.433,1.433,0,0,0,1.278.673,1.605,1.605,0,0,0,1.569-.939v-3.55a1.582,1.582,0,0,0-1.552-.939Q27.471,14.8,27.471,17.621ZM37.557,22H35.15V13.019h2.407ZM35.009,10.694a1.181,1.181,0,0,1,.361-.888,1.556,1.556,0,0,1,1.963,0,1.268,1.268,0,0,1,0,1.785,1.539,1.539,0,0,1-1.951,0A1.178,1.178,0,0,1,35.009,10.694ZM44.737,22a2.664,2.664,0,0,1-.241-.805,2.9,2.9,0,0,1-2.266.971,3.189,3.189,0,0,1-2.187-.764,2.456,2.456,0,0,1-.867-1.926,2.538,2.538,0,0,1,1.058-2.191,5.222,5.222,0,0,1,3.059-.772h1.1V16a1.48,1.48,0,0,0-.32-1,1.257,1.257,0,0,0-1.009-.374,1.429,1.429,0,0,0-.95.291.987.987,0,0,0-.344.8h-2.4a2.41,2.41,0,0,1,.481-1.444,3.182,3.182,0,0,1,1.361-1.042,4.961,4.961,0,0,1,1.976-.378,3.92,3.92,0,0,1,2.635.834,2.918,2.918,0,0,1,.975,2.345v3.893a4.294,4.294,0,0,0,.357,1.934V22Zm-1.984-1.668a2.066,2.066,0,0,0,.979-.237,1.554,1.554,0,0,0,.664-.635V17.916h-.9q-1.8,0-1.917,1.245l-.008.141a.96.96,0,0,0,.315.739A1.225,1.225,0,0,0,42.753,20.332Z" transform="translate(542 5226.402)" fill="#12263f"/>
    <path id="Trazado_831907" data-name="Trazado 831907" d="M-39.786-4.424H-41.77V0h-2.49V-12.086h4.491a5.076,5.076,0,0,1,3.3.955,3.3,3.3,0,0,1,1.162,2.7,3.718,3.718,0,0,1-.535,2.063,3.651,3.651,0,0,1-1.623,1.316l2.615,4.939V0H-37.52ZM-41.77-6.441h2.009a2.057,2.057,0,0,0,1.453-.477,1.706,1.706,0,0,0,.515-1.316,1.826,1.826,0,0,0-.486-1.345,2.018,2.018,0,0,0-1.49-.49h-2ZM-29.435.166a4.409,4.409,0,0,1-3.217-1.212,4.308,4.308,0,0,1-1.241-3.229v-.232a5.426,5.426,0,0,1,.523-2.42,3.838,3.838,0,0,1,1.482-1.644A4.159,4.159,0,0,1-29.7-9.147a3.727,3.727,0,0,1,2.9,1.162,4.722,4.722,0,0,1,1.058,3.3v.979H-31.46a2.229,2.229,0,0,0,.7,1.411,2.12,2.12,0,0,0,1.482.531,2.589,2.589,0,0,0,2.167-1l1.179,1.32A3.6,3.6,0,0,1-27.393-.261,4.793,4.793,0,0,1-29.435.166Zm-.274-7.379a1.5,1.5,0,0,0-1.158.484,2.5,2.5,0,0,0-.569,1.384H-28.1v-.192a1.786,1.786,0,0,0-.432-1.238A1.547,1.547,0,0,0-29.708-7.213Zm.216-5.537h2.615l-2.3,2.573h-1.951Zm4.765,8.193a5.264,5.264,0,0,1,.984-3.329,3.187,3.187,0,0,1,2.652-1.262,2.8,2.8,0,0,1,2.3,1.013l.1-.847h2.175V-.3a3.839,3.839,0,0,1-.535,2.05A3.439,3.439,0,0,1-18.561,3.08a5.3,5.3,0,0,1-2.274.457,4.925,4.925,0,0,1-1.926-.394A3.418,3.418,0,0,1-24.18,2.125L-23.118.664a2.81,2.81,0,0,0,2.175,1,2.057,2.057,0,0,0,1.486-.51,1.915,1.915,0,0,0,.531-1.448V-.772a2.775,2.775,0,0,1-2.183.938A3.179,3.179,0,0,1-23.728-1.1a5.262,5.262,0,0,1-1-3.358Zm2.4.179a3.278,3.278,0,0,0,.49,1.916,1.558,1.558,0,0,0,1.345.694,1.666,1.666,0,0,0,1.569-.823V-6.374A1.662,1.662,0,0,0-20.478-7.2a1.568,1.568,0,0,0-1.357.707A3.694,3.694,0,0,0-22.329-4.379ZM-12.144,0h-2.407V-8.981h2.407Zm-2.548-11.306a1.181,1.181,0,0,1,.361-.888,1.356,1.356,0,0,1,.984-.349,1.36,1.36,0,0,1,.979.349,1.175,1.175,0,0,1,.365.888,1.178,1.178,0,0,1-.369.9,1.363,1.363,0,0,1-.975.349,1.363,1.363,0,0,1-.975-.349A1.178,1.178,0,0,1-14.692-11.306Zm6.773,2.324.075,1a3.156,3.156,0,0,1,2.582-1.17A2.4,2.4,0,0,1-2.88-7.778a3.084,3.084,0,0,1,2.7-1.37A2.679,2.679,0,0,1,1.992-8.3a3.911,3.911,0,0,1,.714,2.561V0H.3V-5.728A1.71,1.71,0,0,0,0-6.844,1.324,1.324,0,0,0-1.054-7.2,1.5,1.5,0,0,0-2.548-6.167L-2.54,0h-2.4V-5.719a1.689,1.689,0,0,0-.307-1.129A1.337,1.337,0,0,0-6.292-7.2,1.555,1.555,0,0,0-7.77-6.35V0h-2.4V-8.981ZM8.683.166A4.409,4.409,0,0,1,5.466-1.046,4.308,4.308,0,0,1,4.225-4.275v-.232a5.426,5.426,0,0,1,.523-2.42A3.838,3.838,0,0,1,6.23-8.571a4.159,4.159,0,0,1,2.187-.577,3.727,3.727,0,0,1,2.9,1.162,4.722,4.722,0,0,1,1.058,3.3v.979H6.657a2.229,2.229,0,0,0,.7,1.411,2.12,2.12,0,0,0,1.482.531,2.589,2.589,0,0,0,2.167-1l1.179,1.32A3.6,3.6,0,0,1,10.725-.261,4.793,4.793,0,0,1,8.683.166ZM8.409-7.213a1.5,1.5,0,0,0-1.158.484,2.5,2.5,0,0,0-.569,1.384h3.337v-.192a1.786,1.786,0,0,0-.432-1.238A1.547,1.547,0,0,0,8.409-7.213Zm7.537-1.768.075,1.038a3.136,3.136,0,0,1,2.582-1.2,2.606,2.606,0,0,1,2.125.838A3.912,3.912,0,0,1,21.441-5.8V0h-2.4V-5.744a1.556,1.556,0,0,0-.332-1.108,1.486,1.486,0,0,0-1.1-.344,1.65,1.65,0,0,0-1.519.863V0h-2.4V-8.981ZM27.119-4.557A5.413,5.413,0,0,1,28.061-7.9a3.057,3.057,0,0,1,2.577-1.245,2.751,2.751,0,0,1,2.167.979V-12.75h2.407V0H33.045l-.116-.955A2.823,2.823,0,0,1,30.622.166a3.049,3.049,0,0,1-2.544-1.249A5.587,5.587,0,0,1,27.119-4.557Zm2.4.179a3.546,3.546,0,0,0,.44,1.937,1.433,1.433,0,0,0,1.278.673A1.605,1.605,0,0,0,32.8-2.707v-3.55A1.582,1.582,0,0,0,31.252-7.2Q29.518-7.2,29.518-4.379ZM41.205.166a4.409,4.409,0,0,1-3.217-1.212,4.308,4.308,0,0,1-1.241-3.229v-.232a5.426,5.426,0,0,1,.523-2.42,3.838,3.838,0,0,1,1.482-1.644,4.159,4.159,0,0,1,2.187-.577,3.727,3.727,0,0,1,2.9,1.162A4.722,4.722,0,0,1,44.9-4.69v.979H39.18a2.229,2.229,0,0,0,.7,1.411,2.12,2.12,0,0,0,1.482.531,2.589,2.589,0,0,0,2.167-1l1.179,1.32A3.6,3.6,0,0,1,43.247-.261,4.793,4.793,0,0,1,41.205.166Zm-.274-7.379a1.5,1.5,0,0,0-1.158.484A2.5,2.5,0,0,0,39.2-5.346h3.337v-.192a1.786,1.786,0,0,0-.432-1.238A1.547,1.547,0,0,0,40.931-7.213ZM-57.931,22a2.664,2.664,0,0,1-.241-.805,2.9,2.9,0,0,1-2.266.971,3.189,3.189,0,0,1-2.187-.764,2.456,2.456,0,0,1-.867-1.926,2.538,2.538,0,0,1,1.058-2.191,5.222,5.222,0,0,1,3.059-.772h1.1V16a1.48,1.48,0,0,0-.32-1,1.257,1.257,0,0,0-1.009-.374,1.429,1.429,0,0,0-.95.291.987.987,0,0,0-.344.8h-2.4a2.41,2.41,0,0,1,.481-1.444,3.182,3.182,0,0,1,1.361-1.042,4.961,4.961,0,0,1,1.976-.378,3.92,3.92,0,0,1,2.635.834,2.918,2.918,0,0,1,.975,2.345v3.893a4.294,4.294,0,0,0,.357,1.934V22Zm-1.984-1.668a2.066,2.066,0,0,0,.979-.237,1.554,1.554,0,0,0,.664-.635V17.916h-.9q-1.8,0-1.917,1.245l-.008.141a.96.96,0,0,0,.315.739A1.225,1.225,0,0,0-59.915,20.332ZM-51.681,14a2.994,2.994,0,0,1,2.4-1.146q2.922,0,2.963,3.4V22h-2.4V16.314a1.669,1.669,0,0,0-.332-1.141,1.423,1.423,0,0,0-1.1-.369,1.633,1.633,0,0,0-1.527.813V22h-2.4V9.25h2.4Zm6.8,3.428a5.327,5.327,0,0,1,.515-2.382,3.767,3.767,0,0,1,1.482-1.619,4.323,4.323,0,0,1,2.245-.573,4.09,4.09,0,0,1,2.968,1.112,4.464,4.464,0,0,1,1.282,3.021l.017.614a4.694,4.694,0,0,1-1.154,3.316,4.011,4.011,0,0,1-3.1,1.249,4.031,4.031,0,0,1-3.1-1.245,4.777,4.777,0,0,1-1.158-3.387Zm2.4.17A3.357,3.357,0,0,0-42,19.554a1.588,1.588,0,0,0,1.378.678,1.592,1.592,0,0,0,1.361-.669,3.674,3.674,0,0,0,.49-2.141,3.324,3.324,0,0,0-.49-1.945,1.592,1.592,0,0,0-1.378-.69A1.566,1.566,0,0,0-42,15.472,3.735,3.735,0,0,0-42.483,17.6Zm12.634-2.328a6.517,6.517,0,0,0-.863-.066,1.757,1.757,0,0,0-1.785.921V22h-2.4V13.019h2.266l.066,1.071a2.223,2.223,0,0,1,2-1.237,2.514,2.514,0,0,1,.747.108Zm6.2,0a6.517,6.517,0,0,0-.863-.066,1.757,1.757,0,0,0-1.785.921V22h-2.4V13.019h2.266l.066,1.071a2.223,2.223,0,0,1,2-1.237,2.514,2.514,0,0,1,.747.108Zm.481,2.158a5.327,5.327,0,0,1,.515-2.382,3.768,3.768,0,0,1,1.482-1.619,4.323,4.323,0,0,1,2.245-.573,4.09,4.09,0,0,1,2.968,1.112,4.464,4.464,0,0,1,1.282,3.021l.017.614a4.694,4.694,0,0,1-1.154,3.316,4.011,4.011,0,0,1-3.1,1.249,4.031,4.031,0,0,1-3.1-1.245,4.777,4.777,0,0,1-1.158-3.387Zm2.4.17a3.357,3.357,0,0,0,.481,1.958,1.588,1.588,0,0,0,1.378.678,1.592,1.592,0,0,0,1.361-.669,3.674,3.674,0,0,0,.49-2.141,3.324,3.324,0,0,0-.49-1.945,1.592,1.592,0,0,0-1.378-.69,1.566,1.566,0,0,0-1.361.686A3.735,3.735,0,0,0-20.769,17.6ZM-6.417,22H-8.824V13.019h2.407ZM-8.965,10.694A1.181,1.181,0,0,1-8.6,9.806a1.356,1.356,0,0,1,.984-.349,1.36,1.36,0,0,1,.979.349,1.175,1.175,0,0,1,.365.888,1.178,1.178,0,0,1-.369.9,1.363,1.363,0,0,1-.975.349,1.363,1.363,0,0,1-.975-.349A1.178,1.178,0,0,1-8.965,10.694Zm6.732,2.324.075,1.038a3.136,3.136,0,0,1,2.582-1.2,2.606,2.606,0,0,1,2.125.838A3.912,3.912,0,0,1,3.262,16.2V22H.863V16.256a1.556,1.556,0,0,0-.332-1.108,1.486,1.486,0,0,0-1.1-.344,1.65,1.65,0,0,0-1.519.863V22h-2.4V13.019Zm6.939,4.424A5.413,5.413,0,0,1,5.649,14.1a3.057,3.057,0,0,1,2.577-1.245,2.751,2.751,0,0,1,2.167.979V9.25H12.8V22H10.633l-.116-.955a2.823,2.823,0,0,1-2.308,1.121,3.049,3.049,0,0,1-2.544-1.249A5.587,5.587,0,0,1,4.707,17.443Zm2.4.179a3.546,3.546,0,0,0,.44,1.937,1.433,1.433,0,0,0,1.278.673,1.605,1.605,0,0,0,1.569-.939v-3.55A1.582,1.582,0,0,0,8.84,14.8Q7.105,14.8,7.105,17.621ZM17.191,22H14.784V13.019h2.407ZM14.643,10.694A1.181,1.181,0,0,1,15,9.806a1.556,1.556,0,0,1,1.963,0,1.268,1.268,0,0,1,0,1.785,1.539,1.539,0,0,1-1.951,0A1.178,1.178,0,0,1,14.643,10.694Zm7.886,8.375L24.2,13.019H26.7L23.674,22H21.383l-3.03-8.981H20.86ZM30.29,22H27.882V13.019H30.29ZM27.741,10.694a1.181,1.181,0,0,1,.361-.888,1.556,1.556,0,0,1,1.963,0,1.268,1.268,0,0,1,0,1.785,1.539,1.539,0,0,1-1.951,0A1.178,1.178,0,0,1,27.741,10.694Zm4.15,6.749a5.413,5.413,0,0,1,.942-3.345,3.057,3.057,0,0,1,2.577-1.245,2.751,2.751,0,0,1,2.167.979V9.25h2.407V22H37.818l-.116-.955a2.823,2.823,0,0,1-2.308,1.121,3.049,3.049,0,0,1-2.544-1.249A5.587,5.587,0,0,1,31.892,17.443Zm2.4.179a3.546,3.546,0,0,0,.44,1.937,1.433,1.433,0,0,0,1.278.673,1.605,1.605,0,0,0,1.569-.939v-3.55a1.582,1.582,0,0,0-1.552-.939Q34.291,14.8,34.291,17.621Zm12.933,3.465a3.008,3.008,0,0,1-2.457,1.079,2.837,2.837,0,0,1-2.2-.83,3.543,3.543,0,0,1-.776-2.432V13.019h2.4v5.809q0,1.4,1.278,1.4a1.732,1.732,0,0,0,1.677-.848V13.019h2.407V22H47.29ZM56.562,22a2.664,2.664,0,0,1-.241-.805,2.9,2.9,0,0,1-2.266.971,3.189,3.189,0,0,1-2.187-.764A2.456,2.456,0,0,1,51,19.477a2.538,2.538,0,0,1,1.058-2.191,5.222,5.222,0,0,1,3.059-.772h1.1V16a1.48,1.48,0,0,0-.32-1,1.257,1.257,0,0,0-1.009-.374,1.429,1.429,0,0,0-.95.291.987.987,0,0,0-.344.8H51.2a2.41,2.41,0,0,1,.481-1.444,3.182,3.182,0,0,1,1.361-1.042,4.961,4.961,0,0,1,1.976-.378,3.92,3.92,0,0,1,2.635.834,2.918,2.918,0,0,1,.975,2.345v3.893a4.294,4.294,0,0,0,.357,1.934V22Zm-1.984-1.668a2.066,2.066,0,0,0,.979-.237,1.554,1.554,0,0,0,.664-.635V17.916h-.9q-1.8,0-1.917,1.245L53.4,19.3a.96.96,0,0,0,.315.739A1.225,1.225,0,0,0,54.578,20.332ZM63,22H60.6V9.25H63Z" transform="translate(800 5165.402)" fill="#12263f"/>
    <path id="Trazado_831906" data-name="Trazado 831906" d="M-28.285-4.424h-1.984V0h-2.49V-12.086h4.491a5.076,5.076,0,0,1,3.3.955,3.3,3.3,0,0,1,1.162,2.7,3.718,3.718,0,0,1-.535,2.063,3.651,3.651,0,0,1-1.623,1.316l2.615,4.939V0h-2.673Zm-1.984-2.017h2.009a2.057,2.057,0,0,0,1.453-.477,1.706,1.706,0,0,0,.515-1.316,1.826,1.826,0,0,0-.486-1.345,2.018,2.018,0,0,0-1.49-.49h-2ZM-17.934.166A4.409,4.409,0,0,1-21.15-1.046a4.308,4.308,0,0,1-1.241-3.229v-.232a5.426,5.426,0,0,1,.523-2.42,3.838,3.838,0,0,1,1.482-1.644A4.159,4.159,0,0,1-18.2-9.147a3.727,3.727,0,0,1,2.9,1.162,4.722,4.722,0,0,1,1.058,3.3v.979h-5.719a2.229,2.229,0,0,0,.7,1.411,2.12,2.12,0,0,0,1.482.531,2.589,2.589,0,0,0,2.167-1l1.179,1.32A3.6,3.6,0,0,1-15.892-.261,4.793,4.793,0,0,1-17.934.166Zm-.274-7.379a1.5,1.5,0,0,0-1.158.484,2.5,2.5,0,0,0-.569,1.384H-16.6v-.192a1.786,1.786,0,0,0-.432-1.238A1.547,1.547,0,0,0-18.208-7.213Zm.216-5.537h2.615l-2.3,2.573h-1.951Zm4.765,8.193a5.264,5.264,0,0,1,.984-3.329A3.187,3.187,0,0,1-9.592-9.147a2.8,2.8,0,0,1,2.3,1.013l.1-.847h2.175V-.3a3.839,3.839,0,0,1-.535,2.05A3.439,3.439,0,0,1-7.06,3.08a5.3,5.3,0,0,1-2.274.457,4.925,4.925,0,0,1-1.926-.394,3.418,3.418,0,0,1-1.419-1.017L-11.617.664a2.81,2.81,0,0,0,2.175,1,2.057,2.057,0,0,0,1.486-.51A1.915,1.915,0,0,0-7.425-.291V-.772A2.775,2.775,0,0,1-9.608.166,3.179,3.179,0,0,1-12.227-1.1a5.262,5.262,0,0,1-1-3.358Zm2.4.179a3.278,3.278,0,0,0,.49,1.916,1.558,1.558,0,0,0,1.345.694,1.666,1.666,0,0,0,1.569-.823V-6.374A1.662,1.662,0,0,0-8.977-7.2a1.568,1.568,0,0,0-1.357.707A3.694,3.694,0,0,0-10.828-4.379ZM-.643,0H-3.051V-8.981H-.643ZM-3.192-11.306a1.181,1.181,0,0,1,.361-.888,1.356,1.356,0,0,1,.984-.349,1.36,1.36,0,0,1,.979.349,1.175,1.175,0,0,1,.365.888,1.178,1.178,0,0,1-.369.9,1.363,1.363,0,0,1-.975.349,1.363,1.363,0,0,1-.975-.349A1.178,1.178,0,0,1-3.192-11.306ZM3.582-8.981l.075,1a3.156,3.156,0,0,1,2.582-1.17A2.4,2.4,0,0,1,8.62-7.778a3.084,3.084,0,0,1,2.7-1.37,2.679,2.679,0,0,1,2.175.851,3.911,3.911,0,0,1,.714,2.561V0H11.8V-5.728a1.71,1.71,0,0,0-.3-1.116A1.324,1.324,0,0,0,10.447-7.2,1.5,1.5,0,0,0,8.952-6.167L8.961,0h-2.4V-5.719a1.689,1.689,0,0,0-.307-1.129A1.337,1.337,0,0,0,5.209-7.2a1.555,1.555,0,0,0-1.478.847V0h-2.4V-8.981ZM20.183.166a4.409,4.409,0,0,1-3.217-1.212,4.308,4.308,0,0,1-1.241-3.229v-.232a5.426,5.426,0,0,1,.523-2.42A3.838,3.838,0,0,1,17.73-8.571a4.159,4.159,0,0,1,2.187-.577,3.727,3.727,0,0,1,2.9,1.162,4.722,4.722,0,0,1,1.058,3.3v.979H18.158a2.229,2.229,0,0,0,.7,1.411,2.12,2.12,0,0,0,1.482.531,2.589,2.589,0,0,0,2.167-1l1.179,1.32A3.6,3.6,0,0,1,22.225-.261,4.793,4.793,0,0,1,20.183.166Zm-.274-7.379a1.5,1.5,0,0,0-1.158.484,2.5,2.5,0,0,0-.569,1.384H21.52v-.192a1.786,1.786,0,0,0-.432-1.238A1.547,1.547,0,0,0,19.909-7.213Zm7.537-1.768.075,1.038a3.136,3.136,0,0,1,2.582-1.2,2.606,2.606,0,0,1,2.125.838A3.912,3.912,0,0,1,32.942-5.8V0h-2.4V-5.744a1.556,1.556,0,0,0-.332-1.108,1.486,1.486,0,0,0-1.1-.344,1.65,1.65,0,0,0-1.519.863V0h-2.4V-8.981ZM-39.375,22.166a4.409,4.409,0,0,1-3.217-1.212,4.308,4.308,0,0,1-1.241-3.229v-.232a5.426,5.426,0,0,1,.523-2.42,3.838,3.838,0,0,1,1.482-1.644,4.159,4.159,0,0,1,2.187-.577,3.727,3.727,0,0,1,2.9,1.162,4.722,4.722,0,0,1,1.058,3.3v.979H-41.4a2.229,2.229,0,0,0,.7,1.411,2.12,2.12,0,0,0,1.482.531,2.589,2.589,0,0,0,2.167-1l1.179,1.32a3.6,3.6,0,0,1-1.461,1.191A4.793,4.793,0,0,1-39.375,22.166Zm-.274-7.379a1.5,1.5,0,0,0-1.158.484,2.5,2.5,0,0,0-.569,1.384h3.337v-.192a1.786,1.786,0,0,0-.432-1.238A1.547,1.547,0,0,0-39.649,14.787Zm8.749.913,1.511-2.681h2.565l-2.557,4.4L-26.716,22h-2.573l-1.6-2.822L-32.485,22h-2.582l2.665-4.582-2.548-4.4h2.573Zm8.8,4.532a1.573,1.573,0,0,0,1.079-.365,1.28,1.28,0,0,0,.432-.971h2.25a3.077,3.077,0,0,1-.5,1.673,3.286,3.286,0,0,1-1.341,1.179,4.2,4.2,0,0,1-1.88.419A3.9,3.9,0,0,1-25.1,20.942a4.845,4.845,0,0,1-1.112-3.383V17.4a4.79,4.79,0,0,1,1.1-3.312,3.854,3.854,0,0,1,3.03-1.237,3.778,3.778,0,0,1,2.7.959,3.4,3.4,0,0,1,1.033,2.552h-2.25a1.648,1.648,0,0,0-.432-1.139,1.439,1.439,0,0,0-1.1-.438,1.445,1.445,0,0,0-1.266.611,3.541,3.541,0,0,0-.427,1.983v.249a3.586,3.586,0,0,0,.423,2A1.463,1.463,0,0,0-22.1,20.232Zm9.264,1.934a4.409,4.409,0,0,1-3.217-1.212,4.308,4.308,0,0,1-1.241-3.229v-.232a5.426,5.426,0,0,1,.523-2.42,3.838,3.838,0,0,1,1.482-1.644,4.159,4.159,0,0,1,2.187-.577,3.727,3.727,0,0,1,2.9,1.162,4.722,4.722,0,0,1,1.058,3.3v.979h-5.719a2.229,2.229,0,0,0,.7,1.411,2.12,2.12,0,0,0,1.482.531,2.589,2.589,0,0,0,2.167-1l1.179,1.32A3.6,3.6,0,0,1-10.8,21.739,4.793,4.793,0,0,1-12.837,22.166Zm-.274-7.379a1.5,1.5,0,0,0-1.158.484,2.5,2.5,0,0,0-.569,1.384H-11.5v-.192a1.786,1.786,0,0,0-.432-1.238A1.547,1.547,0,0,0-13.111,14.787ZM.3,17.592a5.387,5.387,0,0,1-.942,3.324,3.021,3.021,0,0,1-2.544,1.249,2.8,2.8,0,0,1-2.2-.946v4.233h-2.4V13.019h2.225l.083.88A2.819,2.819,0,0,1-3.2,12.853,3.041,3.041,0,0,1-.618,14.081,5.532,5.532,0,0,1,.3,17.468Zm-2.4-.174a3.535,3.535,0,0,0-.444-1.934A1.446,1.446,0,0,0-3.831,14.8a1.571,1.571,0,0,0-1.552.863v3.677a1.6,1.6,0,0,0,1.569.888Q-2.1,20.232-2.1,17.418Zm6.757-6.607v2.208H6.2v1.76H4.661v4.482a1.07,1.07,0,0,0,.191.714.959.959,0,0,0,.73.216,3.826,3.826,0,0,0,.706-.058V21.95a4.938,4.938,0,0,1-1.453.216,2.29,2.29,0,0,1-2.573-2.548V14.778H.95v-1.76H2.262V10.811Zm8.251,10.276a3.008,3.008,0,0,1-2.457,1.079,2.837,2.837,0,0,1-2.2-.83A3.543,3.543,0,0,1,7.475,18.9V13.019h2.4v5.809q0,1.4,1.278,1.4a1.732,1.732,0,0,0,1.677-.848V13.019h2.407V22H12.978ZM22.25,22a2.664,2.664,0,0,1-.241-.805,2.9,2.9,0,0,1-2.266.971,3.189,3.189,0,0,1-2.187-.764,2.456,2.456,0,0,1-.867-1.926,2.538,2.538,0,0,1,1.058-2.191,5.222,5.222,0,0,1,3.059-.772h1.1V16a1.48,1.48,0,0,0-.32-1,1.257,1.257,0,0,0-1.009-.374,1.429,1.429,0,0,0-.95.291.987.987,0,0,0-.344.8h-2.4a2.41,2.41,0,0,1,.481-1.444,3.182,3.182,0,0,1,1.361-1.042,4.961,4.961,0,0,1,1.976-.378,3.92,3.92,0,0,1,2.635.834,2.918,2.918,0,0,1,.975,2.345v3.893a4.294,4.294,0,0,0,.357,1.934V22Zm-1.984-1.668a2.066,2.066,0,0,0,.979-.237,1.554,1.554,0,0,0,.664-.635V17.916h-.9q-1.8,0-1.917,1.245l-.008.141a.96.96,0,0,0,.315.739A1.225,1.225,0,0,0,20.266,20.332Zm5.52-2.889a5.413,5.413,0,0,1,.942-3.345,3.057,3.057,0,0,1,2.577-1.245,2.751,2.751,0,0,1,2.167.979V9.25H33.88V22H31.713l-.116-.955a2.823,2.823,0,0,1-2.308,1.121,3.049,3.049,0,0,1-2.544-1.249A5.587,5.587,0,0,1,25.786,17.443Zm2.4.179a3.546,3.546,0,0,0,.44,1.937,1.433,1.433,0,0,0,1.278.673,1.605,1.605,0,0,0,1.569-.939v-3.55A1.582,1.582,0,0,0,29.92,14.8Q28.185,14.8,28.185,17.621Zm7.18-.2a5.327,5.327,0,0,1,.515-2.382,3.767,3.767,0,0,1,1.482-1.619,4.323,4.323,0,0,1,2.245-.573,4.09,4.09,0,0,1,2.968,1.112,4.464,4.464,0,0,1,1.282,3.021l.017.614a4.694,4.694,0,0,1-1.154,3.316,4.472,4.472,0,0,1-6.2,0,4.777,4.777,0,0,1-1.158-3.387Zm2.4.17a3.357,3.357,0,0,0,.481,1.958,1.73,1.73,0,0,0,2.739.008,3.674,3.674,0,0,0,.49-2.141,3.324,3.324,0,0,0-.49-1.945,1.592,1.592,0,0,0-1.378-.69,1.566,1.566,0,0,0-1.361.686A3.735,3.735,0,0,0,37.764,17.6Z" transform="translate(1056 5226.402)" fill="#12263f"/>
    <rect id="Rectángulo_377392" data-name="Rectángulo 377392" width="57.892" height="30.019" transform="translate(497.342 5168.148) rotate(-31.941)" fill="#7bc38e"/>
    <g id="Grupo_1071306" data-name="Grupo 1071306" transform="translate(489.465 5129.643)">
      <g id="Grupo_1071305" data-name="Grupo 1071305" clip-path="url(#clip-path-4)">
        <path id="Trazado_608820" data-name="Trazado 608820" d="M66.99,46.651c3.407,5.464,3.189,11.75-.485,14.04s-9.414-.282-12.82-5.746S50.5,43.2,54.17,40.905s9.414.281,12.82,5.746" transform="translate(-19.725 -15.417)" fill="#a0cd8e"/>
      </g>
    </g>
    <g id="Grupo_1071308" data-name="Grupo 1071308" transform="translate(494.767 5135.173)">
      <g id="Grupo_1071307" data-name="Grupo 1071307" clip-path="url(#clip-path-5)">
        <rect id="Rectángulo_377394" data-name="Rectángulo 377394" width="65.754" height="6.433" transform="translate(-2.725 31.227) rotate(-31.941)" fill="#46a287"/>
        <rect id="Rectángulo_377395" data-name="Rectángulo 377395" width="65.754" height="6.433" transform="matrix(0.849, -0.529, 0.529, 0.849, 14.668, 59.126)" fill="#46a287"/>
        <rect id="Rectángulo_377396" data-name="Rectángulo 377396" width="7.147" height="40.739" transform="translate(47.464 -1.748) rotate(-31.944)" fill="#46a287"/>
        <rect id="Rectángulo_377397" data-name="Rectángulo 377397" width="8.577" height="40.739" transform="matrix(0.849, -0.529, 0.529, 0.849, -5.301, 31.147)" fill="#46a287"/>
        <path id="Trazado_608821" data-name="Trazado 608821" d="M93.305,6.447A4.522,4.522,0,1,1,87.075,5a4.522,4.522,0,0,1,6.231,1.446" transform="translate(-37.985 -7.191)" fill="#46a287"/>
        <path id="Trazado_608822" data-name="Trazado 608822" d="M119.232,48.036A4.522,4.522,0,1,1,113,46.591a4.522,4.522,0,0,1,6.23,1.446" transform="translate(-47.96 -23.193)" fill="#46a287"/>
        <path id="Trazado_608823" data-name="Trazado 608823" d="M14.012,55.883a4.522,4.522,0,1,1-6.231-1.445,4.522,4.522,0,0,1,6.231,1.445" transform="translate(-7.476 -26.212)" fill="#46a287"/>
        <path id="Trazado_608824" data-name="Trazado 608824" d="M39.939,97.469a4.522,4.522,0,1,1-6.231-1.446,4.523,4.523,0,0,1,6.231,1.446" transform="translate(-17.451 -42.213)" fill="#46a287"/>
      </g>
    </g>
    <g id="Grupo_1071310" data-name="Grupo 1071310" transform="translate(489.465 5129.643)">
      <g id="Grupo_1071309" data-name="Grupo 1071309" clip-path="url(#clip-path-4)">
        <path id="Trazado_608825" data-name="Trazado 608825" d="M88.445,40.847c.441.706-.576,2.135-2.272,3.192s-3.428,1.342-3.869.636.577-2.137,2.274-3.194,3.426-1.342,3.867-.634" transform="translate(-31.628 -15.567)" fill="#46a287"/>
        <path id="Trazado_608826" data-name="Trazado 608826" d="M45.748,67.464c.441.707-.576,2.137-2.273,3.194s-3.427,1.342-3.868.635.576-2.136,2.273-3.193,3.427-1.341,3.868-.636" transform="translate(-15.2 -25.808)" fill="#46a287"/>
        <rect id="Rectángulo_377399" data-name="Rectángulo 377399" width="57.177" height="30.733" transform="translate(16.211 38.363) rotate(-31.941)" fill="#7bc38e"/>
        <path id="Trazado_608827" data-name="Trazado 608827" d="M80.565,47.429c3.406,5.465,3.19,11.75-.485,14.041s-9.414-.282-12.82-5.747-3.19-11.75.484-14.04,9.414.282,12.821,5.746" transform="translate(-24.948 -15.716)" fill="#a0cd8e"/>
      </g>
    </g>
    <g id="Grupo_1071312" data-name="Grupo 1071312" transform="translate(503.478 5136.015)">
      <g id="Grupo_1071311" data-name="Grupo 1071311" clip-path="url(#clip-path-7)">
        <rect id="Rectángulo_377401" data-name="Rectángulo 377401" width="65.04" height="6.432" transform="translate(-2.725 30.849) rotate(-31.941)" fill="#46a287"/>
        <rect id="Rectángulo_377402" data-name="Rectángulo 377402" width="65.04" height="6.432" transform="matrix(0.849, -0.529, 0.529, 0.849, 14.668, 58.748)" fill="#46a287"/>
        <rect id="Rectángulo_377403" data-name="Rectángulo 377403" width="7.862" height="40.739" transform="translate(46.856 -1.746) rotate(-31.949)" fill="#46a287"/>
        <rect id="Rectángulo_377404" data-name="Rectángulo 377404" width="7.862" height="40.739" transform="translate(-5.302 30.772) rotate(-31.946)" fill="#46a287"/>
        <path id="Trazado_608828" data-name="Trazado 608828" d="M106.88,7.224a4.522,4.522,0,1,1-6.229-1.446,4.522,4.522,0,0,1,6.229,1.446" transform="translate(-51.92 -8.332)" fill="#46a287"/>
        <path id="Trazado_608829" data-name="Trazado 608829" d="M132.807,48.812a4.523,4.523,0,1,1-6.231-1.446,4.523,4.523,0,0,1,6.231,1.446" transform="translate(-61.895 -24.333)" fill="#46a287"/>
        <path id="Trazado_608830" data-name="Trazado 608830" d="M27.587,56.66a4.522,4.522,0,1,1-6.23-1.445,4.522,4.522,0,0,1,6.23,1.445" transform="translate(-21.411 -27.353)" fill="#46a287"/>
        <path id="Trazado_608831" data-name="Trazado 608831" d="M53.515,98.247A4.523,4.523,0,1,1,47.283,96.8a4.523,4.523,0,0,1,6.231,1.446" transform="translate(-31.386 -43.354)" fill="#46a287"/>
      </g>
    </g>
    <g id="Grupo_1071314" data-name="Grupo 1071314" transform="translate(489.465 5129.643)">
      <g id="Grupo_1071313" data-name="Grupo 1071313" clip-path="url(#clip-path-4)">
        <path id="Trazado_608832" data-name="Trazado 608832" d="M102.021,41.623c.441.706-.578,2.137-2.273,3.193s-3.427,1.342-3.868.636.576-2.137,2.273-3.194,3.427-1.341,3.869-.635" transform="translate(-36.851 -15.866)" fill="#46a287"/>
        <path id="Trazado_608833" data-name="Trazado 608833" d="M59.324,68.241c.44.707-.578,2.137-2.273,3.194s-3.428,1.342-3.869.635.577-2.136,2.273-3.194,3.427-1.341,3.869-.635" transform="translate(-20.423 -26.107)" fill="#46a287"/>
        <rect id="Rectángulo_377406" data-name="Rectángulo 377406" width="57.177" height="30.018" transform="translate(24.923 38.827) rotate(-31.941)" fill="#7bc38e"/>
        <path id="Trazado_608834" data-name="Trazado 608834" d="M94.14,48.206c3.406,5.465,3.19,11.75-.484,14.04s-9.414-.282-12.82-5.746-3.19-11.75.485-14.041,9.413.283,12.82,5.747" transform="translate(-30.171 -16.015)" fill="#a0cd8e"/>
      </g>
    </g>
    <g id="Grupo_1071316" data-name="Grupo 1071316" transform="translate(511.812 5136.251)">
      <g id="Grupo_1071315" data-name="Grupo 1071315" clip-path="url(#clip-path-9)">
        <rect id="Rectángulo_377408" data-name="Rectángulo 377408" width="65.754" height="6.433" transform="matrix(0.849, -0.529, 0.529, 0.849, -2.954, 31.455)" fill="#46a287"/>
        <rect id="Rectángulo_377409" data-name="Rectángulo 377409" width="65.755" height="5.718" transform="matrix(0.849, -0.529, 0.529, 0.849, 14.44, 59.354)" fill="#46a287"/>
        <rect id="Rectángulo_377410" data-name="Rectángulo 377410" width="8.576" height="40.739" transform="matrix(0.849, -0.529, 0.529, 0.849, 46.252, -1.747)" fill="#46a287"/>
        <rect id="Rectángulo_377411" data-name="Rectángulo 377411" width="7.862" height="40.739" transform="translate(-5.909 30.772) rotate(-31.946)" fill="#46a287"/>
        <path id="Trazado_608835" data-name="Trazado 608835" d="M120.456,8a4.523,4.523,0,1,1-6.232-1.446A4.522,4.522,0,0,1,120.456,8" transform="translate(-65.476 -8.867)" fill="#46a287"/>
        <path id="Trazado_608836" data-name="Trazado 608836" d="M146.382,49.589a4.523,4.523,0,1,1-6.231-1.446,4.522,4.522,0,0,1,6.231,1.446" transform="translate(-75.452 -24.868)" fill="#46a287"/>
        <path id="Trazado_608837" data-name="Trazado 608837" d="M41.162,57.437a4.523,4.523,0,1,1-6.231-1.445,4.523,4.523,0,0,1,6.231,1.445" transform="translate(-34.968 -27.888)" fill="#46a287"/>
        <path id="Trazado_608838" data-name="Trazado 608838" d="M67.089,99.023a4.522,4.522,0,1,1-6.231-1.446,4.523,4.523,0,0,1,6.231,1.446" transform="translate(-44.943 -43.888)" fill="#46a287"/>
      </g>
    </g>
    <g id="Grupo_1071318" data-name="Grupo 1071318" transform="translate(489.465 5129.643)">
      <g id="Grupo_1071317" data-name="Grupo 1071317" clip-path="url(#clip-path-4)">
        <path id="Trazado_608839" data-name="Trazado 608839" d="M115.595,42.4c.441.706-.576,2.136-2.272,3.192s-3.427,1.342-3.868.636.576-2.137,2.273-3.194,3.426-1.342,3.867-.634" transform="translate(-42.074 -16.165)" fill="#46a287"/>
        <path id="Trazado_608840" data-name="Trazado 608840" d="M72.9,69.019c.441.706-.577,2.136-2.273,3.193s-3.428,1.342-3.869.636.577-2.137,2.273-3.195,3.427-1.341,3.869-.634" transform="translate(-25.646 -26.406)" fill="#46a287"/>
        <rect id="Rectángulo_377413" data-name="Rectángulo 377413" width="57.892" height="30.018" transform="matrix(0.849, -0.529, 0.529, 0.849, 33.029, 39.67)" fill="#7bc38e"/>
        <path id="Trazado_608841" data-name="Trazado 608841" d="M107.714,48.982c3.407,5.464,3.19,11.751-.484,14.041s-9.414-.282-12.82-5.746-3.189-11.749.484-14.04,9.414.281,12.82,5.746" transform="translate(-35.394 -16.314)" fill="#a0cd8e"/>
      </g>
    </g>
    <g id="Grupo_1071320" data-name="Grupo 1071320" transform="translate(519.917 5136.716)">
      <g id="Grupo_1071319" data-name="Grupo 1071319" clip-path="url(#clip-path-11)">
        <rect id="Rectángulo_377415" data-name="Rectángulo 377415" width="65.04" height="5.718" transform="translate(-2.347 31.455) rotate(-31.942)" fill="#46a287"/>
        <rect id="Rectángulo_377416" data-name="Rectángulo 377416" width="65.039" height="5.718" transform="matrix(0.849, -0.529, 0.529, 0.849, 15.046, 59.354)" fill="#46a287"/>
        <rect id="Rectángulo_377417" data-name="Rectángulo 377417" width="7.862" height="40.739" transform="matrix(0.849, -0.529, 0.529, 0.849, 46.859, -1.749)" fill="#46a287"/>
        <rect id="Rectángulo_377418" data-name="Rectángulo 377418" width="7.862" height="40.739" transform="matrix(0.849, -0.529, 0.529, 0.849, -5.301, 30.77)" fill="#46a287"/>
        <path id="Trazado_608842" data-name="Trazado 608842" d="M134.031,8.778A4.523,4.523,0,1,1,127.8,7.333a4.523,4.523,0,0,1,6.231,1.446" transform="translate(-78.805 -9.631)" fill="#46a287"/>
        <path id="Trazado_608843" data-name="Trazado 608843" d="M159.957,50.367a4.523,4.523,0,1,1-6.231-1.445,4.521,4.521,0,0,1,6.231,1.445" transform="translate(-88.78 -25.632)" fill="#46a287"/>
        <path id="Trazado_608844" data-name="Trazado 608844" d="M54.736,58.214a4.523,4.523,0,1,1-6.231-1.446,4.523,4.523,0,0,1,6.231,1.446" transform="translate(-48.296 -28.651)" fill="#46a287"/>
        <path id="Trazado_608845" data-name="Trazado 608845" d="M80.664,99.8a4.523,4.523,0,1,1-6.23-1.446,4.522,4.522,0,0,1,6.23,1.446" transform="translate(-58.271 -44.653)" fill="#46a287"/>
      </g>
    </g>
    <g id="Grupo_1071322" data-name="Grupo 1071322" transform="translate(489.465 5129.643)">
      <g id="Grupo_1071321" data-name="Grupo 1071321" clip-path="url(#clip-path-4)">
        <path id="Trazado_608846" data-name="Trazado 608846" d="M129.17,43.178c.441.707-.576,2.137-2.272,3.194s-3.427,1.342-3.869.634.577-2.135,2.273-3.193,3.428-1.341,3.868-.635" transform="translate(-47.297 -16.464)" fill="#46a287"/>
        <path id="Trazado_608847" data-name="Trazado 608847" d="M86.474,69.8c.441.706-.577,2.137-2.273,3.194s-3.427,1.341-3.868.635.577-2.136,2.273-3.194,3.428-1.341,3.869-.635" transform="translate(-30.869 -26.706)" fill="#46a287"/>
      </g>
    </g>
    <g id="Grupo_1071324" data-name="Grupo 1071324" transform="translate(761.474 5208)" clip-path="url(#clip-path-13)">
      <path id="Trazado_608848" data-name="Trazado 608848" d="M74.452,22.251A8.507,8.507,0,0,0,71,21.745,18.83,18.83,0,0,0,65.335,9.489,18.17,18.17,0,0,0,69.029.618.57.57,0,0,0,68.461,0a19.827,19.827,0,0,0-9.37,2.641c-.021.012-1.105.642-2.145,1.347A47,47,0,0,0,38.541.571c-11.31,0-21.267,3.183-27.093,9.209a5.787,5.787,0,0,0-1.7-2.216,4.323,4.323,0,0,0-1.29-.679,3.485,3.485,0,0,0-.274-.335c-1-1.088-3.14-2.058-7.612-.509a.856.856,0,0,0,.561,1.617,10.243,10.243,0,0,1,3.968-.7c-2.337.693-3.069,2.223-2.947,3.506a3.83,3.83,0,0,0,3.865,3.228A3.176,3.176,0,0,0,8.748,11.5,5.5,5.5,0,0,0,9.2,9.384a5.406,5.406,0,0,1,.985,1.837A18.826,18.826,0,0,0,6.077,23.3c0,8.094,4.634,15.339,11.433,20.222v6.555a3.388,3.388,0,0,0,3.447,3.467h6.579a3.493,3.493,0,0,0,3.571-3.467v-.861a39.382,39.382,0,0,0,7.378.71,38.844,38.844,0,0,0,5.6-.412v.564a3.593,3.593,0,0,0,3.686,3.467h6.578a3.3,3.3,0,0,0,3.332-3.467V44.684A29.944,29.944,0,0,0,66.9,36.16c1.738,1.051,4.645,1.849,7.494-1.357,4.564-5.135,2.338-11.411.056-12.552M7.18,10.816c-.3.687-.776,1.166-1.158,1.166A2.113,2.113,0,0,1,3.862,10.3c-.082-.859.786-1.549,2.323-1.845A4.3,4.3,0,0,1,7,8.374a3.305,3.305,0,0,1,.335.016,3.455,3.455,0,0,1-.156,2.426" transform="translate(0)" fill="#ffbab0"/>
      <path id="Trazado_608849" data-name="Trazado 608849" d="M120.439,43.411c0,1.032-.511,1.87-1.142,1.87s-1.14-.837-1.14-1.87.51-1.87,1.14-1.87,1.142.837,1.142,1.87" transform="translate(-45.131 -15.867)" fill="#02084d"/>
      <path id="Trazado_608850" data-name="Trazado 608850" d="M102.521,30.581a2.572,2.572,0,1,1-2.568-2.425,2.5,2.5,0,0,1,2.568,2.425" transform="translate(-37.197 -10.754)" fill="#02084d"/>
      <path id="Trazado_608851" data-name="Trazado 608851" d="M65.907,9.977a20.266,20.266,0,0,0-17.746-.025l-.844-1.489a21.7,21.7,0,0,1,19.338-.025Z" transform="translate(-18.073 -2.36)" fill="#02084d"/>
      <path id="Trazado_608852" data-name="Trazado 608852" d="M16.211,26.721l-.064.176-.159.5c-.064.218-.144.483-.216.792s-.146.658-.22,1.042-.127.8-.2,1.241c-.03.446-.1.912-.1,1.4q-.013.363-.027.737c0,.25.016.5.023.756,0,.509.065,1.022.114,1.536s.169,1.018.238,1.522c.1.5.244.979.346,1.454.127.468.3.907.42,1.337a11.755,11.755,0,0,0,.449,1.177c.155.36.269.7.418.986l.36.747.305.659.012.025a.309.309,0,0,1-.535.3l-.423-.617-.477-.719a7.868,7.868,0,0,1-.54-.98,12.8,12.8,0,0,1-.574-1.2c-.175-.439-.364-.9-.522-1.394-.139-.5-.294-1.011-.408-1.542-.088-.536-.218-1.077-.257-1.629a14.913,14.913,0,0,1-.1-1.645c0-.272,0-.541.006-.807s.036-.528.055-.786c.031-.517.138-1.008.2-1.476.1-.462.179-.9.3-1.3a13.727,13.727,0,0,1,.664-1.879c.1-.22.184-.391.248-.51l.1-.174a.309.309,0,0,1,.562.253Z" transform="translate(-5.379 -10.043)" fill="#ffd7b0"/>
      <path id="Trazado_608853" data-name="Trazado 608853" d="M21.383,56.619s1.141,1.9,2.092,2.091Z" transform="translate(-8.167 -21.626)" fill="#ffd7b0"/>
      <path id="Trazado_608854" data-name="Trazado 608854" d="M21.383,56.619s1.141,1.9,2.092,2.091Z" transform="translate(-8.167 -21.626)" fill="none" stroke="#ffd7b0" stroke-linecap="round" stroke-linejoin="round" stroke-width="1"/>
    </g>
    <g id="Grupo_1071326" data-name="Grupo 1071326" transform="translate(1010.943 5162.425)" clip-path="url(#clip-path-14)">
      <path id="Trazado_608855" data-name="Trazado 608855" d="M3.812,34.472a2.09,2.09,0,0,0,1.728-.907l12.92-18.79,75.462-4.6A2.092,2.092,0,1,0,93.669,6l-77.5,4.726L2.094,31.195a2.092,2.092,0,0,0,1.718,3.277" transform="translate(0.296 1.027)" fill="#9d9d9c"/>
      <path id="Trazado_608856" data-name="Trazado 608856" d="M93.776,34.56a2.091,2.091,0,0,1-1.728-.91L79.16,14.839,3.706,10.109a2.092,2.092,0,1,1,.26-4.176L81.458,10.79,95.5,31.286a2.092,2.092,0,0,1-1.723,3.274" transform="translate(0.298 1.016)" fill="#878787"/>
      <rect id="Rectángulo_377422" data-name="Rectángulo 377422" width="5.76" height="6.939" transform="translate(92.295 5.644)" fill="#575756"/>
      <path id="Trazado_608857" data-name="Trazado 608857" d="M88.182.067,57.481.041a4.1,4.1,0,0,0-4.106,4.1V5.371a13.418,13.418,0,0,0-8.7-.008V4.131a4.1,4.1,0,0,0-4.1-4.106L9.871,0A4.1,4.1,0,0,0,5.765,4.1V5.569l-5.758,0L0,12.5l5.758,0v2A16.033,16.033,0,0,0,21.777,30.555l6.84.006A16.035,16.035,0,0,0,44.664,14.541l0-5.273a10.388,10.388,0,0,1,8.7.008l0,5.272A16.034,16.034,0,0,0,69.386,30.595l6.84.006A16.033,16.033,0,0,0,92.272,14.581l.008-10.409a4.1,4.1,0,0,0-4.1-4.106M40.056,14.538A11.426,11.426,0,0,1,28.62,25.954l-6.84-.006A11.426,11.426,0,0,1,10.364,14.513L10.37,7.3a2.694,2.694,0,0,1,2.7-2.692l24.3.02a2.7,2.7,0,0,1,2.693,2.7Zm47.609.04A11.426,11.426,0,0,1,76.228,25.994l-6.84-.006A11.425,11.425,0,0,1,57.973,14.553l.007-7.211a2.694,2.694,0,0,1,2.7-2.692l24.3.02a2.7,2.7,0,0,1,2.692,2.7Z" transform="translate(0 0)" fill="#4a4a49"/>
    </g>
  </g>
</svg>
