<svg xmlns="http://www.w3.org/2000/svg" xmlns:xlink="http://www.w3.org/1999/xlink" width="1030" height="192" viewBox="0 0 1030 192">
  <defs>
    <clipPath id="clip-path">
      <rect id="Rectángulo_377632" data-name="Rectángulo 377632" width="48.184" height="40.575" fill="none"/>
    </clipPath>
    <clipPath id="clip-path-2">
      <rect id="Rectángulo_377634" data-name="Rectángulo 377634" width="47.083" height="40.632" fill="none"/>
    </clipPath>
    <clipPath id="clip-path-3">
      <rect id="Rectángulo_377637" data-name="Rectángulo 377637" width="40.715" height="41.71" fill="none"/>
    </clipPath>
    <clipPath id="clip-path-4">
      <rect id="Rectángulo_377642" data-name="Rectángulo 377642" width="42.709" height="42.71" fill="none"/>
    </clipPath>
    <clipPath id="clip-path-5">
      <rect id="Rectángulo_377651" data-name="Rectángulo 377651" width="39.985" height="38.763" fill="none"/>
    </clipPath>
  </defs>
  <g id="Grupo_1080483" data-name="Grupo 1080483" transform="translate(-285 -11859.929)">
    <rect id="Rectángulo_377450" data-name="Rectángulo 377450" width="1030" height="192" transform="translate(285 11859.929)" fill="none"/>
    <path id="Trazado_609064" data-name="Trazado 609064" d="M0,0,105,26.6,206,0V67a12,12,0,0,1-12,12H12A12,12,0,0,1,0,67Z" transform="translate(285 11953)" fill="#c1cdf5"/>
    <path id="Trazado_609066" data-name="Trazado 609066" d="M0,0,105,26.6,206,0V67a12,12,0,0,1-12,12H12A12,12,0,0,1,0,67Z" transform="translate(697 11953)" fill="#c1cdf5"/>
    <path id="Trazado_609068" data-name="Trazado 609068" d="M0,0,105,26.6,206,0V67a12,12,0,0,1-12,12H12A12,12,0,0,1,0,67Z" transform="translate(1109 11953)" fill="#c1cdf5"/>
    <path id="Trazado_609065" data-name="Trazado 609065" d="M0,0,105,26.6,206,0V67a12,12,0,0,1-12,12H12A12,12,0,0,1,0,67Z" transform="translate(697 11953) rotate(180)" fill="#cadeb4"/>
    <path id="Trazado_609067" data-name="Trazado 609067" d="M0,0,105,26.6,206,0V67a12,12,0,0,1-12,12H12A12,12,0,0,1,0,67Z" transform="translate(1109 11953) rotate(180)" fill="#cadeb4"/>
    <rect id="Rectángulo_377618" data-name="Rectángulo 377618" width="165" height="92" rx="8" transform="translate(306 11929)" fill="#f3f9ff"/>
    <rect id="Rectángulo_377619" data-name="Rectángulo 377619" width="165" height="92" rx="8" transform="translate(718 11929)" fill="#f3f9ff"/>
    <rect id="Rectángulo_377620" data-name="Rectángulo 377620" width="165" height="92" rx="8" transform="translate(1130 11929)" fill="#f3f9ff"/>
    <rect id="Rectángulo_377621" data-name="Rectángulo 377621" width="165" height="93" rx="8" transform="translate(676 11977) rotate(180)" fill="#f3f9ff"/>
    <rect id="Rectángulo_377622" data-name="Rectángulo 377622" width="165" height="93" rx="8" transform="translate(1089 11977) rotate(180)" fill="#f3f9ff"/>
    <path id="Trazado_831901" data-name="Trazado 831901" d="M23.058,14.323h5.487V16H20.958V3.914h2.1Zm10.857,1.843a4.173,4.173,0,0,1-3.109-1.208,4.381,4.381,0,0,1-1.191-3.217v-.249a5.389,5.389,0,0,1,.519-2.4,3.949,3.949,0,0,1,1.457-1.648,3.851,3.851,0,0,1,2.092-.589,3.525,3.525,0,0,1,2.835,1.17,4.949,4.949,0,0,1,1,3.312v.813H31.649a2.7,2.7,0,0,0,.743,1.76,2.23,2.23,0,0,0,1.639.647,2.731,2.731,0,0,0,2.258-1.121l1.087,1.038a3.631,3.631,0,0,1-1.44,1.249A4.509,4.509,0,0,1,33.916,16.166Zm-.241-7.695a1.7,1.7,0,0,0-1.341.581,3.012,3.012,0,0,0-.652,1.619h3.843v-.149a2.452,2.452,0,0,0-.54-1.531A1.686,1.686,0,0,0,33.675,8.471Zm8.442,4.64,1.826-6.093h2.15L42.523,17.361a2.9,2.9,0,0,1-2.789,2.266,3.6,3.6,0,0,1-.971-.15V17.909l.382.025a1.964,1.964,0,0,0,1.15-.278,1.842,1.842,0,0,0,.61-.933l.291-.771L38.041,7.019h2.175ZM56.817,16H54.809V6.291L51.845,7.3V5.607L56.56,3.873h.257ZM68.9,10.912a6.591,6.591,0,0,1-.975,3.93,3.445,3.445,0,0,1-2.968,1.324A3.49,3.49,0,0,1,62,14.875a6.311,6.311,0,0,1-1.017-3.823V8.961a6.492,6.492,0,0,1,.975-3.91,4.066,4.066,0,0,1,5.935-.033,6.294,6.294,0,0,1,1,3.8ZM66.878,8.654a5.114,5.114,0,0,0-.465-2.494,1.777,1.777,0,0,0-2.93-.042,4.726,4.726,0,0,0-.49,2.345V11.2a5.246,5.246,0,0,0,.473,2.523,1.589,1.589,0,0,0,1.486.83,1.561,1.561,0,0,0,1.436-.768,4.936,4.936,0,0,0,.49-2.4Zm11.679,2.258a6.591,6.591,0,0,1-.975,3.93,3.445,3.445,0,0,1-2.968,1.324,3.49,3.49,0,0,1-2.951-1.291,6.312,6.312,0,0,1-1.017-3.823V8.961a6.492,6.492,0,0,1,.975-3.91,4.066,4.066,0,0,1,5.935-.033,6.294,6.294,0,0,1,1,3.8ZM76.54,8.654a5.114,5.114,0,0,0-.465-2.494,1.777,1.777,0,0,0-2.93-.042,4.726,4.726,0,0,0-.49,2.345V11.2a5.246,5.246,0,0,0,.473,2.523,1.589,1.589,0,0,0,1.486.83,1.561,1.561,0,0,0,1.436-.768,4.936,4.936,0,0,0,.49-2.4Zm7.786,2.789a5.34,5.34,0,0,1,.963-3.333,3.085,3.085,0,0,1,2.582-1.258,2.931,2.931,0,0,1,2.308,1V3.25H92.2V16H90.369l-.1-.93a2.973,2.973,0,0,1-2.416,1.1A3.068,3.068,0,0,1,85.3,14.9,5.535,5.535,0,0,1,84.326,11.443Zm2.017.174a3.739,3.739,0,0,0,.527,2.137,1.71,1.71,0,0,0,1.5.768,1.9,1.9,0,0,0,1.81-1.1V9.583A1.876,1.876,0,0,0,88.385,8.5a1.723,1.723,0,0,0-1.511.776A4.163,4.163,0,0,0,86.343,11.617Zm11.912,4.549a4.173,4.173,0,0,1-3.109-1.208,4.381,4.381,0,0,1-1.191-3.217v-.249a5.389,5.389,0,0,1,.519-2.4,3.949,3.949,0,0,1,1.457-1.648,3.851,3.851,0,0,1,2.092-.589,3.525,3.525,0,0,1,2.835,1.17,4.949,4.949,0,0,1,1,3.312v.813H95.989a2.7,2.7,0,0,0,.743,1.76,2.23,2.23,0,0,0,1.639.647,2.731,2.731,0,0,0,2.258-1.121l1.087,1.038a3.631,3.631,0,0,1-1.44,1.249A4.509,4.509,0,0,1,98.255,16.166Zm-.241-7.695a1.7,1.7,0,0,0-1.341.581,3.012,3.012,0,0,0-.652,1.619h3.843v-.149a2.452,2.452,0,0,0-.54-1.531A1.686,1.686,0,0,0,98.014,8.471ZM112.989,16H110.98V6.291L108.017,7.3V5.607l4.715-1.735h.257Zm9.919-5.055A3.3,3.3,0,0,1,118,10.9a4.384,4.384,0,0,1-.946-2.934,4.811,4.811,0,0,1,.481-2.167,3.59,3.59,0,0,1,1.37-1.511,3.886,3.886,0,0,1,2.059-.54,3.491,3.491,0,0,1,2.9,1.361,5.734,5.734,0,0,1,1.071,3.644v.564a7.447,7.447,0,0,1-1.478,4.989,5.562,5.562,0,0,1-4.408,1.743h-.241V14.381h.291a4.13,4.13,0,0,0,2.739-.859A3.581,3.581,0,0,0,122.908,10.945Zm-1.942-.506a2.036,2.036,0,0,0,1.137-.349,2.3,2.3,0,0,0,.822-.963V8.338a3.786,3.786,0,0,0-.548-2.15,1.65,1.65,0,0,0-1.419-.813,1.631,1.631,0,0,0-1.39.718,3.018,3.018,0,0,0-.519,1.814,2.981,2.981,0,0,0,.523,1.834A1.657,1.657,0,0,0,120.966,10.438Zm11.6.506a3.3,3.3,0,0,1-4.906-.046,4.384,4.384,0,0,1-.946-2.934A4.811,4.811,0,0,1,127.2,5.8a3.59,3.59,0,0,1,1.37-1.511,3.886,3.886,0,0,1,2.059-.54,3.491,3.491,0,0,1,2.9,1.361A5.734,5.734,0,0,1,134.6,8.753v.564a7.447,7.447,0,0,1-1.478,4.989,5.562,5.562,0,0,1-4.408,1.743h-.241V14.381h.291a4.13,4.13,0,0,0,2.739-.859A3.581,3.581,0,0,0,132.57,10.945Zm-1.942-.506a2.036,2.036,0,0,0,1.137-.349,2.3,2.3,0,0,0,.822-.963V8.338a3.786,3.786,0,0,0-.548-2.15,1.65,1.65,0,0,0-1.419-.813,1.631,1.631,0,0,0-1.39.718,3.018,3.018,0,0,0-.519,1.814,2.981,2.981,0,0,0,.523,1.834A1.657,1.657,0,0,0,130.628,10.438Zm8.218-1.4h1.229a2.2,2.2,0,0,0,1.473-.481,1.718,1.718,0,0,0,.544-1.37,1.872,1.872,0,0,0-.452-1.341,1.821,1.821,0,0,0-1.382-.477,1.926,1.926,0,0,0-1.336.469A1.567,1.567,0,0,0,138.4,7.06H136.38a3.053,3.053,0,0,1,.494-1.693,3.318,3.318,0,0,1,1.378-1.191,4.489,4.489,0,0,1,1.98-.427,4.157,4.157,0,0,1,2.843.909,3.19,3.19,0,0,1,1.033,2.528,2.568,2.568,0,0,1-.519,1.531A3.253,3.253,0,0,1,142.249,9.8a2.965,2.965,0,0,1,1.515,1.071,2.932,2.932,0,0,1,.519,1.743,3.246,3.246,0,0,1-1.116,2.59,4.9,4.9,0,0,1-5.79.033,3.062,3.062,0,0,1-1.112-2.474h2.017a1.687,1.687,0,0,0,.535,1.295,2.03,2.03,0,0,0,1.44.5,2.094,2.094,0,0,0,1.478-.5,1.868,1.868,0,0,0,.54-1.444,1.887,1.887,0,0,0-.564-1.469,2.413,2.413,0,0,0-1.677-.515h-1.187Z" transform="translate(306 11980)" fill="#12263f"/>
    <circle id="Elipse_5886" data-name="Elipse 5886" cx="39" cy="39" r="39" transform="translate(350 11890)" fill="#c1cdf5"/>
    <ellipse id="Elipse_5887" data-name="Elipse 5887" cx="38.5" cy="39" rx="38.5" ry="39" transform="translate(763 11890)" fill="#c1cdf5"/>
    <circle id="Elipse_5888" data-name="Elipse 5888" cx="39" cy="39" r="39" transform="translate(1175 11890)" fill="#c1cdf5"/>
    <circle id="Elipse_5889" data-name="Elipse 5889" cx="39" cy="39" r="39" transform="translate(634 12015) rotate(180)" fill="#cadeb4"/>
    <circle id="Elipse_5890" data-name="Elipse 5890" cx="39" cy="39" r="39" transform="translate(1046 12015) rotate(180)" fill="#cadeb4"/>
    <path id="Trazado_831902" data-name="Trazado 831902" d="M23.058,14.323h5.487V16H20.958V3.914h2.1Zm10.857,1.843a4.173,4.173,0,0,1-3.109-1.208,4.381,4.381,0,0,1-1.191-3.217v-.249a5.389,5.389,0,0,1,.519-2.4,3.949,3.949,0,0,1,1.457-1.648,3.851,3.851,0,0,1,2.092-.589,3.525,3.525,0,0,1,2.835,1.17,4.949,4.949,0,0,1,1,3.312v.813H31.649a2.7,2.7,0,0,0,.743,1.76,2.23,2.23,0,0,0,1.639.647,2.731,2.731,0,0,0,2.258-1.121l1.087,1.038a3.631,3.631,0,0,1-1.44,1.249A4.509,4.509,0,0,1,33.916,16.166Zm-.241-7.695a1.7,1.7,0,0,0-1.341.581,3.012,3.012,0,0,0-.652,1.619h3.843v-.149a2.452,2.452,0,0,0-.54-1.531A1.686,1.686,0,0,0,33.675,8.471Zm8.442,4.64,1.826-6.093h2.15L42.523,17.361a2.9,2.9,0,0,1-2.789,2.266,3.6,3.6,0,0,1-.971-.15V17.909l.382.025a1.964,1.964,0,0,0,1.15-.278,1.842,1.842,0,0,0,.61-.933l.291-.771L38.041,7.019h2.175ZM56.817,16H54.809V6.291L51.845,7.3V5.607L56.56,3.873h.257Zm12.327,0H61.018V14.614l4.026-4.391A10.025,10.025,0,0,0,66.284,8.6a2.629,2.629,0,0,0,.369-1.307A1.986,1.986,0,0,0,66.168,5.9a1.684,1.684,0,0,0-1.307-.531,1.942,1.942,0,0,0-1.519.6A2.35,2.35,0,0,0,62.8,7.6H60.785a3.953,3.953,0,0,1,.5-1.988,3.458,3.458,0,0,1,1.436-1.374,4.571,4.571,0,0,1,2.154-.49,4.088,4.088,0,0,1,2.777.884,3.069,3.069,0,0,1,1.017,2.445,4.148,4.148,0,0,1-.51,1.9,10.785,10.785,0,0,1-1.673,2.254L63.533,14.39h5.611Zm9.662,0H70.68V14.614l4.026-4.391A10.025,10.025,0,0,0,75.947,8.6a2.629,2.629,0,0,0,.369-1.307A1.986,1.986,0,0,0,75.83,5.9a1.684,1.684,0,0,0-1.307-.531,1.942,1.942,0,0,0-1.519.6,2.35,2.35,0,0,0-.54,1.635H70.447a3.953,3.953,0,0,1,.5-1.988,3.458,3.458,0,0,1,1.436-1.374,4.571,4.571,0,0,1,2.154-.49,4.088,4.088,0,0,1,2.777.884,3.069,3.069,0,0,1,1.017,2.445,4.148,4.148,0,0,1-.51,1.9,10.785,10.785,0,0,1-1.673,2.254L73.195,14.39h5.611Zm5.52-4.557a5.34,5.34,0,0,1,.963-3.333,3.085,3.085,0,0,1,2.582-1.258,2.931,2.931,0,0,1,2.308,1V3.25H92.2V16H90.369l-.1-.93a2.973,2.973,0,0,1-2.416,1.1A3.068,3.068,0,0,1,85.3,14.9,5.535,5.535,0,0,1,84.326,11.443Zm2.017.174a3.739,3.739,0,0,0,.527,2.137,1.71,1.71,0,0,0,1.5.768,1.9,1.9,0,0,0,1.81-1.1V9.583A1.876,1.876,0,0,0,88.385,8.5a1.723,1.723,0,0,0-1.511.776A4.163,4.163,0,0,0,86.343,11.617Zm11.912,4.549a4.173,4.173,0,0,1-3.109-1.208,4.381,4.381,0,0,1-1.191-3.217v-.249a5.389,5.389,0,0,1,.519-2.4,3.949,3.949,0,0,1,1.457-1.648,3.851,3.851,0,0,1,2.092-.589,3.525,3.525,0,0,1,2.835,1.17,4.949,4.949,0,0,1,1,3.312v.813H95.989a2.7,2.7,0,0,0,.743,1.76,2.23,2.23,0,0,0,1.639.647,2.731,2.731,0,0,0,2.258-1.121l1.087,1.038a3.631,3.631,0,0,1-1.44,1.249A4.509,4.509,0,0,1,98.255,16.166Zm-.241-7.695a1.7,1.7,0,0,0-1.341.581,3.012,3.012,0,0,0-.652,1.619h3.843v-.149a2.452,2.452,0,0,0-.54-1.531A1.686,1.686,0,0,0,98.014,8.471ZM115.653,16h-8.126V14.614l4.026-4.391A10.025,10.025,0,0,0,112.794,8.6a2.629,2.629,0,0,0,.369-1.307,1.986,1.986,0,0,0-.486-1.395,1.684,1.684,0,0,0-1.307-.531,1.942,1.942,0,0,0-1.519.6,2.35,2.35,0,0,0-.54,1.635h-2.017a3.953,3.953,0,0,1,.5-1.988,3.458,3.458,0,0,1,1.436-1.374,4.571,4.571,0,0,1,2.154-.49,4.088,4.088,0,0,1,2.777.884,3.069,3.069,0,0,1,1.017,2.445,4.148,4.148,0,0,1-.51,1.9A10.785,10.785,0,0,1,113,11.227l-2.955,3.163h5.611Zm9.413-5.088a6.591,6.591,0,0,1-.975,3.93,3.445,3.445,0,0,1-2.968,1.324,3.49,3.49,0,0,1-2.951-1.291,6.312,6.312,0,0,1-1.017-3.823V8.961a6.492,6.492,0,0,1,.975-3.91,4.066,4.066,0,0,1,5.935-.033,6.294,6.294,0,0,1,1,3.8Zm-2.017-2.258a5.114,5.114,0,0,0-.465-2.494,1.777,1.777,0,0,0-2.93-.042,4.726,4.726,0,0,0-.49,2.345V11.2a5.246,5.246,0,0,0,.473,2.523,1.589,1.589,0,0,0,1.486.83,1.561,1.561,0,0,0,1.436-.768,4.936,4.936,0,0,0,.49-2.4Zm11.679,2.258a6.591,6.591,0,0,1-.975,3.93,3.445,3.445,0,0,1-2.968,1.324,3.49,3.49,0,0,1-2.951-1.291,6.312,6.312,0,0,1-1.017-3.823V8.961a6.492,6.492,0,0,1,.975-3.91,4.066,4.066,0,0,1,5.935-.033,6.294,6.294,0,0,1,1,3.8Zm-2.017-2.258a5.114,5.114,0,0,0-.465-2.494,1.777,1.777,0,0,0-2.93-.042,4.726,4.726,0,0,0-.49,2.345V11.2a5.246,5.246,0,0,0,.473,2.523,1.589,1.589,0,0,0,1.486.83,1.561,1.561,0,0,0,1.436-.768,4.936,4.936,0,0,0,.49-2.4Zm11.845-3.619L139.726,16h-2.117l4.823-10.467h-6.25V3.914h8.375Z" transform="translate(511 11907)" fill="#12263f"/>
    <path id="Trazado_831903" data-name="Trazado 831903" d="M18.227,14.323h5.487V16H16.127V3.914h2.1Zm10.857,1.843a4.173,4.173,0,0,1-3.109-1.208,4.381,4.381,0,0,1-1.191-3.217v-.249a5.389,5.389,0,0,1,.519-2.4A3.949,3.949,0,0,1,26.76,7.442a3.851,3.851,0,0,1,2.092-.589,3.525,3.525,0,0,1,2.835,1.17,4.949,4.949,0,0,1,1,3.312v.813H26.818a2.7,2.7,0,0,0,.743,1.76,2.23,2.23,0,0,0,1.639.647,2.731,2.731,0,0,0,2.258-1.121l1.087,1.038a3.631,3.631,0,0,1-1.44,1.249A4.509,4.509,0,0,1,29.084,16.166Zm-.241-7.695a1.7,1.7,0,0,0-1.341.581,3.012,3.012,0,0,0-.652,1.619h3.843v-.149a2.452,2.452,0,0,0-.54-1.531A1.686,1.686,0,0,0,28.844,8.471Zm8.442,4.64,1.826-6.093h2.15L37.692,17.361A2.9,2.9,0,0,1,34.9,19.627a3.6,3.6,0,0,1-.971-.15V17.909l.382.025a1.964,1.964,0,0,0,1.15-.278,1.842,1.842,0,0,0,.61-.933l.291-.771L33.21,7.019h2.175ZM51.986,16H49.978V6.291L47.014,7.3V5.607l4.715-1.735h.257ZM63.01,11.692h1.5v1.619h-1.5V16H60.993V13.311H55.771l-.058-1.229,5.213-8.168H63.01Zm-5.18,0h3.163V6.645l-.149.266ZM68.181,9.036H69.41a2.2,2.2,0,0,0,1.473-.481,1.718,1.718,0,0,0,.544-1.37,1.872,1.872,0,0,0-.452-1.341,1.821,1.821,0,0,0-1.382-.477,1.926,1.926,0,0,0-1.336.469,1.567,1.567,0,0,0-.523,1.224H65.716a3.053,3.053,0,0,1,.494-1.693,3.318,3.318,0,0,1,1.378-1.191,4.489,4.489,0,0,1,1.98-.427,4.157,4.157,0,0,1,2.843.909,3.19,3.19,0,0,1,1.033,2.528,2.568,2.568,0,0,1-.519,1.531A3.253,3.253,0,0,1,71.584,9.8,2.965,2.965,0,0,1,73.1,10.87a2.932,2.932,0,0,1,.519,1.743A3.246,3.246,0,0,1,72.5,15.2a4.9,4.9,0,0,1-5.79.033A3.062,3.062,0,0,1,65.6,12.763h2.017a1.687,1.687,0,0,0,.535,1.295,2.03,2.03,0,0,0,1.44.5,2.094,2.094,0,0,0,1.478-.5,1.868,1.868,0,0,0,.54-1.444,1.887,1.887,0,0,0-.564-1.469,2.413,2.413,0,0,0-1.677-.515H68.181ZM83.123,7.1a2.81,2.81,0,0,1-.457,1.581,3.167,3.167,0,0,1-1.245,1.092,3.449,3.449,0,0,1,1.457,1.2,3.036,3.036,0,0,1,.51,1.727,3.171,3.171,0,0,1-1.079,2.528,4.894,4.894,0,0,1-5.757,0A3.168,3.168,0,0,1,75.469,12.7a3.071,3.071,0,0,1,.515-1.743,3.306,3.306,0,0,1,1.444-1.187A3.149,3.149,0,0,1,76.2,8.683,2.828,2.828,0,0,1,75.743,7.1a3.144,3.144,0,0,1,1-2.449,4.462,4.462,0,0,1,5.387,0A3.144,3.144,0,0,1,83.123,7.1Zm-1.751,5.5a1.992,1.992,0,0,0-.535-1.448A1.882,1.882,0,0,0,79.42,10.6a1.862,1.862,0,0,0-1.407.548,2.007,2.007,0,0,0-.527,1.453,1.944,1.944,0,0,0,.519,1.419,2.211,2.211,0,0,0,2.855.017A1.95,1.95,0,0,0,81.371,12.6Zm-.257-5.429a1.876,1.876,0,0,0-.457-1.3,1.754,1.754,0,0,0-2.449-.025,1.876,1.876,0,0,0-.448,1.324,1.869,1.869,0,0,0,.452,1.32,1.775,1.775,0,0,0,2.449,0A1.869,1.869,0,0,0,81.114,7.176Zm8.043,4.267A5.34,5.34,0,0,1,90.12,8.11,3.085,3.085,0,0,1,92.7,6.853a2.931,2.931,0,0,1,2.308,1V3.25h2.017V16H95.2l-.1-.93a2.973,2.973,0,0,1-2.416,1.1,3.068,3.068,0,0,1-2.552-1.27A5.535,5.535,0,0,1,89.157,11.443Zm2.017.174a3.739,3.739,0,0,0,.527,2.137,1.71,1.71,0,0,0,1.5.768,1.9,1.9,0,0,0,1.81-1.1V9.583A1.876,1.876,0,0,0,93.216,8.5a1.723,1.723,0,0,0-1.511.776A4.163,4.163,0,0,0,91.174,11.617Zm11.912,4.549a4.173,4.173,0,0,1-3.109-1.208,4.381,4.381,0,0,1-1.191-3.217v-.249a5.389,5.389,0,0,1,.519-2.4,3.949,3.949,0,0,1,1.457-1.648,3.851,3.851,0,0,1,2.092-.589,3.525,3.525,0,0,1,2.835,1.17,4.949,4.949,0,0,1,1,3.312v.813H100.82a2.7,2.7,0,0,0,.743,1.76,2.23,2.23,0,0,0,1.639.647,2.731,2.731,0,0,0,2.258-1.121l1.087,1.038a3.631,3.631,0,0,1-1.44,1.249A4.509,4.509,0,0,1,103.086,16.166Zm-.241-7.695a1.7,1.7,0,0,0-1.341.581,3.012,3.012,0,0,0-.652,1.619H104.7v-.149a2.452,2.452,0,0,0-.54-1.531A1.686,1.686,0,0,0,102.845,8.471ZM120.484,16h-8.126V14.614l4.026-4.391A10.025,10.025,0,0,0,117.625,8.6a2.629,2.629,0,0,0,.369-1.307,1.986,1.986,0,0,0-.486-1.395,1.684,1.684,0,0,0-1.307-.531,1.942,1.942,0,0,0-1.519.6,2.35,2.35,0,0,0-.54,1.635h-2.017a3.953,3.953,0,0,1,.5-1.988,3.458,3.458,0,0,1,1.436-1.374,4.571,4.571,0,0,1,2.154-.49,4.088,4.088,0,0,1,2.777.884,3.069,3.069,0,0,1,1.017,2.445,4.148,4.148,0,0,1-.51,1.9,10.785,10.785,0,0,1-1.673,2.254l-2.955,3.163h5.611Zm9.413-5.088a6.591,6.591,0,0,1-.975,3.93,3.445,3.445,0,0,1-2.968,1.324A3.49,3.49,0,0,1,123,14.875a6.312,6.312,0,0,1-1.017-3.823V8.961a6.492,6.492,0,0,1,.975-3.91,4.066,4.066,0,0,1,5.935-.033,6.294,6.294,0,0,1,1,3.8ZM127.88,8.654a5.114,5.114,0,0,0-.465-2.494,1.777,1.777,0,0,0-2.93-.042A4.726,4.726,0,0,0,124,8.463V11.2a5.246,5.246,0,0,0,.473,2.523,1.589,1.589,0,0,0,1.486.83,1.561,1.561,0,0,0,1.436-.768,4.936,4.936,0,0,0,.49-2.4ZM137.144,16h-2.009V6.291L132.172,7.3V5.607l4.715-1.735h.257Zm9.662,0H144.8V6.291L141.834,7.3V5.607l4.715-1.735h.257Z" transform="translate(718 11980)" fill="#12263f"/>
    <path id="Trazado_831904" data-name="Trazado 831904" d="M18.227,14.323h5.487V16H16.127V3.914h2.1Zm10.857,1.843a4.173,4.173,0,0,1-3.109-1.208,4.381,4.381,0,0,1-1.191-3.217v-.249a5.389,5.389,0,0,1,.519-2.4A3.949,3.949,0,0,1,26.76,7.442a3.851,3.851,0,0,1,2.092-.589,3.525,3.525,0,0,1,2.835,1.17,4.949,4.949,0,0,1,1,3.312v.813H26.818a2.7,2.7,0,0,0,.743,1.76,2.23,2.23,0,0,0,1.639.647,2.731,2.731,0,0,0,2.258-1.121l1.087,1.038a3.631,3.631,0,0,1-1.44,1.249A4.509,4.509,0,0,1,29.084,16.166Zm-.241-7.695a1.7,1.7,0,0,0-1.341.581,3.012,3.012,0,0,0-.652,1.619h3.843v-.149a2.452,2.452,0,0,0-.54-1.531A1.686,1.686,0,0,0,28.844,8.471Zm8.442,4.64,1.826-6.093h2.15L37.692,17.361A2.9,2.9,0,0,1,34.9,19.627a3.6,3.6,0,0,1-.971-.15V17.909l.382.025a1.964,1.964,0,0,0,1.15-.278,1.842,1.842,0,0,0,.61-.933l.291-.771L33.21,7.019h2.175ZM51.986,16H49.978V6.291L47.014,7.3V5.607l4.715-1.735h.257ZM64.23,5.035,59.4,16H57.282L62.1,5.533h-6.25V3.914H64.23Zm2.158,4.972.656-6.093h6.491V5.657H68.721l-.332,2.889a3.732,3.732,0,0,1,1.893-.481,3.367,3.367,0,0,1,2.685,1.1,4.375,4.375,0,0,1,.959,2.972,4.027,4.027,0,0,1-1.062,2.934,3.878,3.878,0,0,1-2.914,1.092,4.061,4.061,0,0,1-2.752-.942,3.406,3.406,0,0,1-1.183-2.486h1.951a2.13,2.13,0,0,0,.631,1.349,1.919,1.919,0,0,0,1.345.469,1.734,1.734,0,0,0,1.448-.664,2.866,2.866,0,0,0,.519-1.81,2.533,2.533,0,0,0-.573-1.747,2,2,0,0,0-1.577-.643,2.2,2.2,0,0,0-1.76.714ZM80.973,16H78.964V6.291L76,7.3V5.607l4.715-1.735h.257Zm8.185-4.557A5.34,5.34,0,0,1,90.12,8.11,3.085,3.085,0,0,1,92.7,6.853a2.931,2.931,0,0,1,2.308,1V3.25h2.017V16H95.2l-.1-.93a2.973,2.973,0,0,1-2.416,1.1,3.068,3.068,0,0,1-2.552-1.27A5.535,5.535,0,0,1,89.157,11.443Zm2.017.174a3.739,3.739,0,0,0,.527,2.137,1.71,1.71,0,0,0,1.5.768,1.9,1.9,0,0,0,1.81-1.1V9.583A1.876,1.876,0,0,0,93.216,8.5a1.723,1.723,0,0,0-1.511.776A4.163,4.163,0,0,0,91.174,11.617Zm11.912,4.549a4.173,4.173,0,0,1-3.109-1.208,4.381,4.381,0,0,1-1.191-3.217v-.249a5.389,5.389,0,0,1,.519-2.4,3.949,3.949,0,0,1,1.457-1.648,3.851,3.851,0,0,1,2.092-.589,3.525,3.525,0,0,1,2.835,1.17,4.949,4.949,0,0,1,1,3.312v.813H100.82a2.7,2.7,0,0,0,.743,1.76,2.23,2.23,0,0,0,1.639.647,2.731,2.731,0,0,0,2.258-1.121l1.087,1.038a3.631,3.631,0,0,1-1.44,1.249A4.509,4.509,0,0,1,103.086,16.166Zm-.241-7.695a1.7,1.7,0,0,0-1.341.581,3.012,3.012,0,0,0-.652,1.619H104.7v-.149a2.452,2.452,0,0,0-.54-1.531A1.686,1.686,0,0,0,102.845,8.471ZM120.484,16h-8.126V14.614l4.026-4.391A10.025,10.025,0,0,0,117.625,8.6a2.629,2.629,0,0,0,.369-1.307,1.986,1.986,0,0,0-.486-1.395,1.684,1.684,0,0,0-1.307-.531,1.942,1.942,0,0,0-1.519.6,2.35,2.35,0,0,0-.54,1.635h-2.017a3.953,3.953,0,0,1,.5-1.988,3.458,3.458,0,0,1,1.436-1.374,4.571,4.571,0,0,1,2.154-.49,4.088,4.088,0,0,1,2.777.884,3.069,3.069,0,0,1,1.017,2.445,4.148,4.148,0,0,1-.51,1.9,10.785,10.785,0,0,1-1.673,2.254l-2.955,3.163h5.611Zm9.413-5.088a6.591,6.591,0,0,1-.975,3.93,3.445,3.445,0,0,1-2.968,1.324A3.49,3.49,0,0,1,123,14.875a6.312,6.312,0,0,1-1.017-3.823V8.961a6.492,6.492,0,0,1,.975-3.91,4.066,4.066,0,0,1,5.935-.033,6.294,6.294,0,0,1,1,3.8ZM127.88,8.654a5.114,5.114,0,0,0-.465-2.494,1.777,1.777,0,0,0-2.93-.042A4.726,4.726,0,0,0,124,8.463V11.2a5.246,5.246,0,0,0,.473,2.523,1.589,1.589,0,0,0,1.486.83,1.561,1.561,0,0,0,1.436-.768,4.936,4.936,0,0,0,.49-2.4ZM137.144,16h-2.009V6.291L132.172,7.3V5.607l4.715-1.735h.257Zm4.74-5.993.656-6.093h6.491V5.657h-4.814l-.332,2.889a3.731,3.731,0,0,1,1.893-.481,3.367,3.367,0,0,1,2.685,1.1,4.375,4.375,0,0,1,.959,2.972,4.027,4.027,0,0,1-1.062,2.934,3.878,3.878,0,0,1-2.914,1.092,4.061,4.061,0,0,1-2.752-.942,3.406,3.406,0,0,1-1.183-2.486h1.951a2.13,2.13,0,0,0,.631,1.349,1.919,1.919,0,0,0,1.345.469,1.734,1.734,0,0,0,1.448-.664,2.866,2.866,0,0,0,.519-1.81,2.533,2.533,0,0,0-.573-1.747,2,2,0,0,0-1.577-.643,2.2,2.2,0,0,0-1.76.714Z" transform="translate(924 11905)" fill="#12263f"/>
    <path id="Trazado_831905" data-name="Trazado 831905" d="M15.387,11.352H13.047V16h-2.1V3.914H15.2a4.944,4.944,0,0,1,3.229.939A3.321,3.321,0,0,1,19.563,7.57,3.4,3.4,0,0,1,18.978,9.6a3.724,3.724,0,0,1-1.631,1.259l2.714,5.033V16h-2.25ZM13.047,9.658H15.2a2.4,2.4,0,0,0,1.66-.535,1.867,1.867,0,0,0,.6-1.465,1.988,1.988,0,0,0-.552-1.5,2.345,2.345,0,0,0-1.648-.548H13.047Zm12.269,6.508a4.173,4.173,0,0,1-3.109-1.208,4.381,4.381,0,0,1-1.191-3.217v-.249a5.389,5.389,0,0,1,.519-2.4,3.949,3.949,0,0,1,1.457-1.648,3.851,3.851,0,0,1,2.092-.589,3.525,3.525,0,0,1,2.835,1.17,4.949,4.949,0,0,1,1,3.312v.813H23.049a2.7,2.7,0,0,0,.743,1.76,2.23,2.23,0,0,0,1.639.647,2.731,2.731,0,0,0,2.258-1.121l1.087,1.038a3.631,3.631,0,0,1-1.44,1.249A4.509,4.509,0,0,1,25.315,16.166Zm-.241-7.695a1.7,1.7,0,0,0-1.341.581,3.012,3.012,0,0,0-.652,1.619h3.843v-.149a2.452,2.452,0,0,0-.54-1.531A1.686,1.686,0,0,0,25.074,8.471ZM35.517,13.56a.914.914,0,0,0-.444-.822,4.723,4.723,0,0,0-1.473-.5,7.574,7.574,0,0,1-1.718-.548A2.293,2.293,0,0,1,30.37,9.575a2.391,2.391,0,0,1,.979-1.942,3.872,3.872,0,0,1,2.49-.78,4.029,4.029,0,0,1,2.6.8,2.529,2.529,0,0,1,.992,2.067H35.417a1.243,1.243,0,0,0-.432-.967,1.654,1.654,0,0,0-1.146-.386,1.787,1.787,0,0,0-1.083.307.968.968,0,0,0-.419.822.818.818,0,0,0,.39.722,5.365,5.365,0,0,0,1.577.519,7.466,7.466,0,0,1,1.864.623,2.639,2.639,0,0,1,1,.867,2.212,2.212,0,0,1,.328,1.229,2.34,2.34,0,0,1-1,1.963,4.283,4.283,0,0,1-2.631.751,4.644,4.644,0,0,1-1.967-.4,3.238,3.238,0,0,1-1.345-1.1,2.594,2.594,0,0,1-.481-1.5h1.959a1.421,1.421,0,0,0,.54,1.1,2.1,2.1,0,0,0,1.32.386,2.04,2.04,0,0,0,1.212-.3A.938.938,0,0,0,35.517,13.56Zm3.362-2.133A5.3,5.3,0,0,1,39.4,9.048a3.819,3.819,0,0,1,1.469-1.627,4.14,4.14,0,0,1,2.175-.569A3.923,3.923,0,0,1,46,8.023a4.6,4.6,0,0,1,1.224,3.1l.008.473a5.343,5.343,0,0,1-.51,2.374,3.773,3.773,0,0,1-1.461,1.619,4.17,4.17,0,0,1-2.2.573A3.9,3.9,0,0,1,40.02,14.9a4.848,4.848,0,0,1-1.141-3.374ZM40.9,11.6a3.619,3.619,0,0,0,.573,2.171,1.862,1.862,0,0,0,1.594.784,1.842,1.842,0,0,0,1.59-.8,4,4,0,0,0,.569-2.333,3.572,3.572,0,0,0-.585-2.158,1.973,1.973,0,0,0-3.158-.012A3.922,3.922,0,0,0,40.9,11.6ZM51.081,16H49.064V3.25h2.017Zm7.637-.88a3.128,3.128,0,0,1-2.523,1.046,2.788,2.788,0,0,1-2.212-.855,3.637,3.637,0,0,1-.751-2.474V7.019h2.017v5.794q0,1.71,1.419,1.71a1.993,1.993,0,0,0,1.984-1.054V7.019h2.017V16h-1.9Zm7.695-.564a1.824,1.824,0,0,0,1.253-.44,1.5,1.5,0,0,0,.531-1.087h1.9a2.963,2.963,0,0,1-.523,1.565,3.43,3.43,0,0,1-1.328,1.15,3.958,3.958,0,0,1-1.81.423,3.829,3.829,0,0,1-2.988-1.22,4.84,4.84,0,0,1-1.1-3.37v-.208a4.759,4.759,0,0,1,1.1-3.283,3.8,3.8,0,0,1,2.988-1.233,3.69,3.69,0,0,1,2.611.934A3.345,3.345,0,0,1,70.1,10.239H68.2a1.847,1.847,0,0,0-.527-1.27,1.7,1.7,0,0,0-1.258-.5,1.775,1.775,0,0,0-1.511.71,3.621,3.621,0,0,0-.54,2.154v.324a3.681,3.681,0,0,0,.527,2.179A1.773,1.773,0,0,0,66.412,14.556ZM73.767,16H71.75V7.019h2.017ZM71.625,4.686a1.071,1.071,0,0,1,.295-.772,1.113,1.113,0,0,1,.843-.307,1.127,1.127,0,0,1,.847.307,1.062,1.062,0,0,1,.3.772,1.038,1.038,0,0,1-.3.76,1.136,1.136,0,0,1-.847.3,1.122,1.122,0,0,1-.843-.3A1.046,1.046,0,0,1,71.625,4.686Zm3.959,6.74a5.3,5.3,0,0,1,.523-2.378,3.819,3.819,0,0,1,1.469-1.627,4.14,4.14,0,0,1,2.175-.569A3.923,3.923,0,0,1,82.7,8.023a4.6,4.6,0,0,1,1.224,3.1l.008.473a5.343,5.343,0,0,1-.51,2.374,3.773,3.773,0,0,1-1.461,1.619,4.17,4.17,0,0,1-2.2.573A3.9,3.9,0,0,1,76.726,14.9a4.848,4.848,0,0,1-1.141-3.374ZM77.6,11.6a3.619,3.619,0,0,0,.573,2.171,1.862,1.862,0,0,0,1.594.784,1.842,1.842,0,0,0,1.59-.8,4,4,0,0,0,.569-2.333,3.572,3.572,0,0,0-.585-2.158,1.973,1.973,0,0,0-3.158-.012A3.922,3.922,0,0,0,77.6,11.6ZM80.308,3.25h2.3l-2.3,2.515-1.619,0Zm7.205,3.769.058,1.038a3.229,3.229,0,0,1,2.615-1.2q2.806,0,2.855,3.212V16H91.024V10.181a1.85,1.85,0,0,0-.369-1.266A1.554,1.554,0,0,0,89.447,8.5a1.944,1.944,0,0,0-1.818,1.1V16H85.612V7.019Zm18.511,4.673h1.5v1.619h-1.5V16h-2.017V13.311H98.785l-.058-1.229,5.213-8.168h2.083Zm-5.18,0h3.163V6.645l-.149.266ZM116.989,16h-8.126V14.614l4.026-4.391A10.025,10.025,0,0,0,114.129,8.6a2.629,2.629,0,0,0,.369-1.307,1.986,1.986,0,0,0-.486-1.395,1.684,1.684,0,0,0-1.307-.531,1.942,1.942,0,0,0-1.519.6,2.35,2.35,0,0,0-.54,1.635H108.63a3.953,3.953,0,0,1,.5-1.988,3.458,3.458,0,0,1,1.436-1.374,4.571,4.571,0,0,1,2.154-.49,4.088,4.088,0,0,1,2.777.884,3.069,3.069,0,0,1,1.017,2.445,4.148,4.148,0,0,1-.51,1.9,10.785,10.785,0,0,1-1.673,2.254l-2.955,3.163h5.611Zm7.255-5.055a3.3,3.3,0,0,1-4.906-.046,4.384,4.384,0,0,1-.946-2.934,4.811,4.811,0,0,1,.481-2.167,3.59,3.59,0,0,1,1.37-1.511,3.886,3.886,0,0,1,2.059-.54,3.491,3.491,0,0,1,2.9,1.361,5.734,5.734,0,0,1,1.071,3.644v.564a7.447,7.447,0,0,1-1.478,4.989,5.562,5.562,0,0,1-4.408,1.743h-.241V14.381h.291a4.13,4.13,0,0,0,2.739-.859A3.581,3.581,0,0,0,124.244,10.945Zm-1.942-.506a2.036,2.036,0,0,0,1.137-.349,2.3,2.3,0,0,0,.822-.963V8.338a3.786,3.786,0,0,0-.548-2.15,1.65,1.65,0,0,0-1.419-.813,1.631,1.631,0,0,0-1.39.718,3.018,3.018,0,0,0-.519,1.814,2.981,2.981,0,0,0,.523,1.834A1.657,1.657,0,0,0,122.3,10.438Zm-83.946,21a5.34,5.34,0,0,1,.963-3.333A3.085,3.085,0,0,1,41.9,26.853a2.931,2.931,0,0,1,2.308,1v-4.6h2.017V36H44.4l-.1-.93a2.973,2.973,0,0,1-2.416,1.1,3.068,3.068,0,0,1-2.552-1.27A5.535,5.535,0,0,1,38.356,31.443Zm2.017.174a3.739,3.739,0,0,0,.527,2.137,1.71,1.71,0,0,0,1.5.768,1.9,1.9,0,0,0,1.81-1.1V29.583A1.876,1.876,0,0,0,42.415,28.5a1.723,1.723,0,0,0-1.511.776A4.163,4.163,0,0,0,40.373,31.617Zm11.912,4.549a4.173,4.173,0,0,1-3.109-1.208,4.381,4.381,0,0,1-1.191-3.217v-.249a5.389,5.389,0,0,1,.519-2.4,3.949,3.949,0,0,1,1.457-1.648,3.851,3.851,0,0,1,2.092-.589,3.525,3.525,0,0,1,2.835,1.17,4.949,4.949,0,0,1,1,3.312v.813H50.018a2.7,2.7,0,0,0,.743,1.76,2.23,2.23,0,0,0,1.639.647,2.731,2.731,0,0,0,2.258-1.121l1.087,1.038a3.631,3.631,0,0,1-1.44,1.249A4.509,4.509,0,0,1,52.284,36.166Zm-.241-7.695a1.7,1.7,0,0,0-1.341.581,3.012,3.012,0,0,0-.652,1.619h3.843v-.149a2.452,2.452,0,0,0-.54-1.531A1.686,1.686,0,0,0,52.044,28.471ZM69.683,36H61.556V34.614l4.026-4.391A10.025,10.025,0,0,0,66.823,28.6a2.629,2.629,0,0,0,.369-1.307,1.986,1.986,0,0,0-.486-1.395,1.684,1.684,0,0,0-1.307-.531,1.942,1.942,0,0,0-1.519.6,2.35,2.35,0,0,0-.54,1.635H61.324a3.953,3.953,0,0,1,.5-1.988,3.458,3.458,0,0,1,1.436-1.374,4.571,4.571,0,0,1,2.154-.49,4.088,4.088,0,0,1,2.777.884,3.069,3.069,0,0,1,1.017,2.445,4.148,4.148,0,0,1-.51,1.9,10.785,10.785,0,0,1-1.673,2.254L64.072,34.39h5.611ZM79.1,30.912a6.591,6.591,0,0,1-.975,3.93,3.445,3.445,0,0,1-2.968,1.324A3.49,3.49,0,0,1,72.2,34.875a6.312,6.312,0,0,1-1.017-3.823V28.961a6.492,6.492,0,0,1,.975-3.91,4.066,4.066,0,0,1,5.935-.033,6.294,6.294,0,0,1,1,3.8Zm-2.017-2.258a5.114,5.114,0,0,0-.465-2.494,1.777,1.777,0,0,0-2.93-.042,4.726,4.726,0,0,0-.49,2.345V31.2a5.246,5.246,0,0,0,.473,2.523,1.589,1.589,0,0,0,1.486.83,1.561,1.561,0,0,0,1.436-.768,4.936,4.936,0,0,0,.49-2.4ZM86.343,36H84.334V26.291L81.37,27.3V25.607l4.715-1.735h.257ZM96.818,23.856v1.668h-.249a4,4,0,0,0-2.706.93,3.89,3.89,0,0,0-1.2,2.565A3.275,3.275,0,0,1,95.141,28a3.094,3.094,0,0,1,2.528,1.129,4.446,4.446,0,0,1,.926,2.914,4.157,4.157,0,0,1-1.083,2.984,3.739,3.739,0,0,1-2.843,1.141,3.652,3.652,0,0,1-2.934-1.336,5.257,5.257,0,0,1-1.125-3.5v-.689a7.4,7.4,0,0,1,1.548-4.98,5.551,5.551,0,0,1,4.453-1.8Zm-2.167,5.769A2.124,2.124,0,0,0,93.436,30a2.183,2.183,0,0,0-.809,1v.614a3.618,3.618,0,0,0,.564,2.137,1.721,1.721,0,0,0,1.461.793,1.7,1.7,0,0,0,1.419-.672,2.8,2.8,0,0,0,.523-1.768,2.84,2.84,0,0,0-.531-1.785A1.693,1.693,0,0,0,94.652,29.625Z" transform="translate(1144 11974)" fill="#12263f"/>
    <rect id="Rectángulo_377626" data-name="Rectángulo 377626" width="61" height="61" rx="30.5" transform="translate(359 11898)" fill="#fff"/>
    <rect id="Rectángulo_377633" data-name="Rectángulo 377633" width="61" height="61" rx="30.5" transform="translate(771 11899)" fill="#fff"/>
    <rect id="Rectángulo_377638" data-name="Rectángulo 377638" width="61" height="61" rx="30.5" transform="translate(1184 11899)" fill="#fff"/>
    <rect id="Rectángulo_377635" data-name="Rectángulo 377635" width="61" height="61" rx="30.5" transform="translate(565 11946)" fill="#fff"/>
    <rect id="Rectángulo_377639" data-name="Rectángulo 377639" width="61" height="61" rx="30.5" transform="translate(977 11946)" fill="#fff"/>
    <g id="Grupo_1071467" data-name="Grupo 1071467" transform="translate(365 11908.212)">
      <g id="Grupo_1071466" data-name="Grupo 1071466" transform="translate(0 0)" clip-path="url(#clip-path)">
        <path id="Trazado_609069" data-name="Trazado 609069" d="M51.063,52.6H24.3a3.263,3.263,0,0,1-3.263-3.263v-4.9A3.263,3.263,0,0,1,24.3,41.169H51.063a3.263,3.263,0,0,1,3.263,3.263v4.9A3.263,3.263,0,0,1,51.063,52.6" transform="translate(-6.143 -12.023)" fill="#fb6f05"/>
        <path id="Trazado_609070" data-name="Trazado 609070" d="M21.482,15.259A1.25,1.25,0,0,0,21.305,17l.016.016a1.25,1.25,0,0,0,1.741-.177l.181-.18-1.58-1.58Z" transform="translate(-6.141 -4.403)" fill="#f7bd6d"/>
        <path id="Trazado_609071" data-name="Trazado 609071" d="M33.608,6.2l.4-.4a1.25,1.25,0,0,0,.177-1.741l-.016-.016a1.25,1.25,0,0,0-1.741.177l-.4.4Z" transform="translate(-9.354 -1.1)" fill="#f7bd6d"/>
        <rect id="Rectángulo_377631" data-name="Rectángulo 377631" width="10.116" height="2.234" transform="translate(15.522 10.674) rotate(-45)" fill="#f7bd6d"/>
        <path id="Trazado_609072" data-name="Trazado 609072" d="M27.206.294,27.19.279a1.249,1.249,0,0,0-1.74.176L17.716,8.188a1.25,1.25,0,0,0-.176,1.741l.016.016c.432.432,2.3,1.439,2.827.91l.181-.181,7.152-7.152.4-.4c.53-.53-.478-2.4-.91-2.827" transform="translate(-5.041 0)" fill="#f7a22e"/>
        <path id="Trazado_609073" data-name="Trazado 609073" d="M44.7,17.784l-.016-.016A5.013,5.013,0,0,0,42.06,16.6a1.579,1.579,0,0,1-.207.259l-.4.4L34.3,24.411l-.181.181a1.616,1.616,0,0,1-.259.207,5.008,5.008,0,0,0,1.169,2.619l.016.016a1.25,1.25,0,0,0,1.741-.177l7.733-7.733a1.25,1.25,0,0,0,.177-1.741" transform="translate(-9.888 -4.847)" fill="#eb8e11"/>
        <path id="Trazado_609074" data-name="Trazado 609074" d="M41.3,14.387l-.016-.016a1.252,1.252,0,0,0-1.741.177l-.4.4L31.99,22.1l-.181.181a1.249,1.249,0,0,0-.177,1.74l.016.016a1.175,1.175,0,0,0,1.482.03,1.579,1.579,0,0,0,.259-.207l.181-.181,7.152-7.152.4-.4a1.579,1.579,0,0,0,.207-.259,1.174,1.174,0,0,0-.03-1.482" transform="translate(-9.157 -4.116)" fill="#f7a22e"/>
        <path id="Trazado_609075" data-name="Trazado 609075" d="M.936,40.662l.014.014a2.507,2.507,0,0,0,3.012.265C10.6,36.021,14.129,28,20.766,23.076a1.873,1.873,0,0,0,.573-.62l-1.1-1.1Z" transform="translate(-0.273 -6.237)" fill="#f7a22e"/>
        <path id="Trazado_609076" data-name="Trazado 609076" d="M18.869,19.8a1.883,1.883,0,0,0-.62.574C13.329,27.014,5.3,30.544.383,37.181a2.508,2.508,0,0,0,.266,3.013l.013.013,19.3-19.3Z" transform="translate(0 -5.784)" fill="#f7bd6d"/>
        <path id="Trazado_609077" data-name="Trazado 609077" d="M31.309,7.206l-7.152,7.153,1.766,1.766,1.1,1.1.777-.777,6.377-6.375Z" transform="translate(-7.055 -2.104)" fill="#f7a22e"/>
        <path id="Trazado_609078" data-name="Trazado 609078" d="M35.357,11.253l-6.376,6.375-.777.777,1.1,1.1,1.766,1.766,7.153-7.152Z" transform="translate(-8.237 -3.287)" fill="#eb8e11"/>
        <path id="Trazado_609079" data-name="Trazado 609079" d="M29.5,39.768a.82.82,0,0,0,.82.82H49.987a.82.82,0,0,0,.821-.82v-.479H29.5Z" transform="translate(-8.614 -11.474)" fill="#f7a22e"/>
        <path id="Trazado_609080" data-name="Trazado 609080" d="M49.835,35.889a.82.82,0,0,0-.821-.82H32.657a.819.819,0,0,0-.82.82v.056h18Z" transform="translate(-9.298 -10.242)" fill="#f7bd6d"/>
        <path id="Trazado_609081" data-name="Trazado 609081" d="M49.987,37.333h-.016a.821.821,0,0,1-.821-.821v-.207h-18v.207a.821.821,0,0,1-.821.821h-.016a.82.82,0,0,0-.82.82v.265H50.808v-.265a.82.82,0,0,0-.821-.82" transform="translate(-8.614 -10.603)" fill="#eb8e11"/>
      </g>
    </g>
    <g id="Grupo_1071470" data-name="Grupo 1071470" transform="translate(571.959 11956.449)">
      <g id="Grupo_1071469" data-name="Grupo 1071469" transform="translate(0 0)" clip-path="url(#clip-path-2)">
        <path id="Trazado_609082" data-name="Trazado 609082" d="M.778,45.852H0a6.57,6.57,0,0,0,6.526,6.54,6.57,6.57,0,0,0,6.526-6.54H.778Z" transform="translate(0 -14.132)" fill="#fb6f05"/>
        <path id="Trazado_609083" data-name="Trazado 609083" d="M62.023,24.371H49.194a6.526,6.526,0,1,0,13.051,0Z" transform="translate(-15.162 -7.512)" fill="#e55c00"/>
        <path id="Trazado_609084" data-name="Trazado 609084" d="M46.945,16.762,41.18,1.439A.818.818,0,0,0,40.658,0L6.625,14.86A.817.817,0,0,0,6.1,16.3L.337,31.622a.306.306,0,0,0-.015.1H.878L6.606,16.5l.019,0h.02L12.374,31.72h.555a.258.258,0,0,0-.015-.1L7.222,16.5,40.014,1.91,34.37,16.762a.272.272,0,0,0-.017.1h.557L40.639,1.637h.019l.019,0L46.406,16.86h.556a.287.287,0,0,0-.016-.1" transform="translate(-0.099 0)" fill="#f7a22e"/>
        <path id="Trazado_609085" data-name="Trazado 609085" d="M27.771,16.48v26.5H19.435a1.365,1.365,0,0,0,0,2.729h9.682V16.825a2.873,2.873,0,0,1-1.346-.345" transform="translate(-5.575 -5.079)" fill="#f7bd6d"/>
        <path id="Trazado_609086" data-name="Trazado 609086" d="M34.03,16.825V45.712h9.682a1.364,1.364,0,0,0,0-2.728H35.376V16.48a2.871,2.871,0,0,1-1.346.345" transform="translate(-10.488 -5.079)" fill="#f7a22e"/>
        <path id="Trazado_609087" data-name="Trazado 609087" d="M36.738,10.189a2.976,2.976,0,0,0-.38-.642A2.912,2.912,0,0,0,34.03,8.368v5.957a2.879,2.879,0,0,0,1.346-.345,2.963,2.963,0,0,0,1.546-2.154,3.043,3.043,0,0,0,.047-.479,2.994,2.994,0,0,0-.23-1.157" transform="translate(-10.488 -2.579)" fill="#f7a22e"/>
        <path id="Trazado_609088" data-name="Trazado 609088" d="M30.39,9.551a2.864,2.864,0,0,0-.606,1.8,3.072,3.072,0,0,0,1.592,2.633,2.875,2.875,0,0,0,1.346.345V8.368A2.912,2.912,0,0,0,30.39,9.551" transform="translate(-9.18 -2.579)" fill="#f7bd6d"/>
        <path id="Trazado_609089" data-name="Trazado 609089" d="M34.03,6.547a2.912,2.912,0,0,1,2.328,1.179,2.831,2.831,0,0,0-.97-1.076L34.03,2.461Z" transform="translate(-10.488 -0.759)" fill="#f7a22e"/>
        <path id="Trazado_609090" data-name="Trazado 609090" d="M32.991,6.423V2.336l-.091-.28L31.4,6.69a2.855,2.855,0,0,0-.739.916,2.912,2.912,0,0,1,2.331-1.183" transform="translate(-9.45 -0.634)" fill="#f7bd6d"/>
      </g>
    </g>
    <g id="Grupo_1071473" data-name="Grupo 1071473" transform="translate(781.144 11906.021)">
      <path id="Trazado_609091" data-name="Trazado 609091" d="M21.093,47.894H2.867v3.052H21.093Z" transform="translate(-0.736 -12.287)" fill="#c4f7f7"/>
      <path id="Trazado_609092" data-name="Trazado 609092" d="M42.168,47.894H27.382v3.052H45.608V47.894h-3.44Z" transform="translate(-7.025 -12.287)" fill="#97efec"/>
      <path id="Trazado_609093" data-name="Trazado 609093" d="M2.131,52H0V55.05H20.357V52Z" transform="translate(0 -13.34)" fill="#97efec"/>
      <path id="Trazado_609094" data-name="Trazado 609094" d="M45.608,52H27.382V55.05H47.739V52Z" transform="translate(-7.025 -13.34)" fill="#70efeb"/>
      <g id="Grupo_1071472" data-name="Grupo 1071472" transform="translate(0 0)">
        <g id="Grupo_1071471" data-name="Grupo 1071471" clip-path="url(#clip-path-3)">
          <path id="Trazado_609095" data-name="Trazado 609095" d="M23.013,21.561a1.23,1.23,0,0,1,1.23,1.23v.025a1.23,1.23,0,0,1-1.23,1.23h-.265l.488,17.092h2.957V21.561Z" transform="translate(-5.836 -5.532)" fill="#64bdc5"/>
          <path id="Trazado_609096" data-name="Trazado 609096" d="M37.5,22.791v.025a1.23,1.23,0,0,1-1.23,1.23h-.265L36.5,41.138H42.41L42.9,24.046h-.264a1.23,1.23,0,0,1-1.23-1.23v-.025a1.23,1.23,0,0,1,1.23-1.23h-6.36a1.23,1.23,0,0,1,1.23,1.23" transform="translate(-9.238 -5.532)" fill="#49b2b7"/>
          <path id="Trazado_609097" data-name="Trazado 609097" d="M30.826,24.045h-.264a1.229,1.229,0,0,1-1.23-1.23v-.025a1.23,1.23,0,0,1,1.23-1.231H27.382V41.137h2.957Z" transform="translate(-7.025 -5.531)" fill="#49b2b7"/>
          <path id="Trazado_609098" data-name="Trazado 609098" d="M16.115,24.045a1.23,1.23,0,0,1-1.23-1.23v-.025a1.231,1.231,0,0,1,1.23-1.231H9.754a1.231,1.231,0,0,1,1.231,1.231v.025a1.23,1.23,0,0,1-1.231,1.23H9.49l.488,17.092h5.914l.487-17.092Z" transform="translate(-2.435 -5.531)" fill="#64bdc5"/>
          <path id="Trazado_609099" data-name="Trazado 609099" d="M5.571,16.072H20.358V14.015H6.269L20.358,3.009V.168L0,16.072H5.571Z" transform="translate(0 -0.043)" fill="#c4f7f7"/>
          <path id="Trazado_609100" data-name="Trazado 609100" d="M27.492,2.879,41.47,13.973H27.382v2.056H47.74L27.542,0l-.16.125V2.966Z" transform="translate(-7.025 0)" fill="#97efec"/>
          <path id="Trazado_609101" data-name="Trazado 609101" d="M27.492,3.873l-.11.086V14.966H41.47Z" transform="translate(-7.025 -0.994)" fill="#70efeb"/>
          <path id="Trazado_609102" data-name="Trazado 609102" d="M8.432,15H22.521V3.989Z" transform="translate(-2.163 -1.024)" fill="#97efec"/>
          <path id="Trazado_609103" data-name="Trazado 609103" d="M5.744,21.561H4.718a1.231,1.231,0,0,0-1.231,1.23v.025a1.231,1.231,0,0,0,1.231,1.23h.263L4.494,41.138H6.465V21.561Z" transform="translate(-0.895 -5.532)" fill="#97efec"/>
          <path id="Trazado_609104" data-name="Trazado 609104" d="M9.242,24.045a1.23,1.23,0,0,0,1.23-1.23v-.025a1.231,1.231,0,0,0-1.23-1.231H7.493V41.137H9.465L8.978,24.045Z" transform="translate(-1.922 -5.531)" fill="#70efeb"/>
          <path id="Trazado_609105" data-name="Trazado 609105" d="M17.976,21.561a1.23,1.23,0,0,0-1.23,1.23v.025a1.23,1.23,0,0,0,1.23,1.23h.264l-.487,17.092h1.972V21.561Z" transform="translate(-4.296 -5.532)" fill="#97efec"/>
          <path id="Trazado_609106" data-name="Trazado 609106" d="M22.5,24.045a1.23,1.23,0,0,0,1.23-1.23v-.025A1.23,1.23,0,0,0,22.5,21.56H20.752V41.137h1.972l-.488-17.092Z" transform="translate(-5.324 -5.531)" fill="#70efeb"/>
          <path id="Trazado_609107" data-name="Trazado 609107" d="M30,22.791v.025a1.229,1.229,0,0,0,1.23,1.23H31.5l-.487,17.093h1.971V21.561H31.235A1.23,1.23,0,0,0,30,22.791" transform="translate(-7.698 -5.532)" fill="#70efeb"/>
          <path id="Trazado_609108" data-name="Trazado 609108" d="M35.983,41.138l-.488-17.092h.265a1.229,1.229,0,0,0,1.23-1.23v-.025a1.23,1.23,0,0,0-1.23-1.23H34.011V41.138Z" transform="translate(-8.725 -5.532)" fill="#64bdc5"/>
          <path id="Trazado_609109" data-name="Trazado 609109" d="M43.264,22.791v.025a1.23,1.23,0,0,0,1.23,1.23h.264l-.487,17.093h1.971V21.561H44.494a1.23,1.23,0,0,0-1.23,1.23" transform="translate(-11.099 -5.532)" fill="#70efeb"/>
          <path id="Trazado_609110" data-name="Trazado 609110" d="M48.242,41.138h1.25L49,24.046h.265a1.23,1.23,0,0,0,1.23-1.23v-.025a1.23,1.23,0,0,0-1.23-1.23H48.242Z" transform="translate(-12.376 -5.532)" fill="#64bdc5"/>
          <rect id="Rectángulo_377636" data-name="Rectángulo 377636" width="0.723" height="19.577" transform="translate(35.143 16.029)" fill="#64bdc5"/>
          <path id="Trazado_609111" data-name="Trazado 609111" d="M4.254,24.506H6.288V21.56H4.254A1.458,1.458,0,0,0,2.8,23.018v.03a1.458,1.458,0,0,0,1.458,1.458" transform="translate(-0.717 -5.531)" fill="#8feaf9"/>
          <path id="Trazado_609112" data-name="Trazado 609112" d="M9.529,24.506H7.494V21.56H9.529a1.458,1.458,0,0,1,1.457,1.458v.03a1.458,1.458,0,0,1-1.457,1.458" transform="translate(-1.923 -5.531)" fill="#97efec"/>
          <path id="Trazado_609113" data-name="Trazado 609113" d="M17.513,24.506h2.035V21.56H17.513a1.458,1.458,0,0,0-1.458,1.458v.03a1.458,1.458,0,0,0,1.458,1.458" transform="translate(-4.119 -5.531)" fill="#8feaf9"/>
          <path id="Trazado_609114" data-name="Trazado 609114" d="M22.787,24.506H20.753V21.56h2.034a1.458,1.458,0,0,1,1.458,1.458v.03a1.458,1.458,0,0,1-1.458,1.458" transform="translate(-5.324 -5.531)" fill="#97efec"/>
          <path id="Trazado_609115" data-name="Trazado 609115" d="M30.768,24.506H32.8V21.56H30.768a1.458,1.458,0,0,0-1.458,1.458v.03a1.458,1.458,0,0,0,1.458,1.458" transform="translate(-7.519 -5.531)" fill="#70efeb"/>
          <path id="Trazado_609116" data-name="Trazado 609116" d="M36.045,24.506H34.01V21.56h2.035A1.457,1.457,0,0,1,37.5,23.018v.03a1.457,1.457,0,0,1-1.457,1.458" transform="translate(-8.725 -5.531)" fill="#64bdc5"/>
          <path id="Trazado_609117" data-name="Trazado 609117" d="M44.026,24.506h2.035V21.56H44.026a1.458,1.458,0,0,0-1.458,1.458v.03a1.458,1.458,0,0,0,1.458,1.458" transform="translate(-10.921 -5.531)" fill="#70efeb"/>
          <path id="Trazado_609118" data-name="Trazado 609118" d="M49.3,24.506H47.266V21.56H49.3a1.458,1.458,0,0,1,1.458,1.458v.03A1.458,1.458,0,0,1,49.3,24.506" transform="translate(-12.126 -5.531)" fill="#64bdc5"/>
        </g>
      </g>
    </g>
    <g id="Grupo_1071475" data-name="Grupo 1071475" transform="translate(988.426 11953)">
      <g id="Grupo_1071474" data-name="Grupo 1071474" transform="translate(0 0)" clip-path="url(#clip-path-4)">
        <path id="Trazado_609119" data-name="Trazado 609119" d="M23.17,15.3a1.522,1.522,0,0,1,.215,2.119l-.019.019a1.522,1.522,0,0,1-2.119-.215L21.027,17l1.923-1.923Z" transform="translate(0.865 -2.084)" fill="#f7bd6d"/>
        <path id="Trazado_609120" data-name="Trazado 609120" d="M33.069,6.731l-.487-.487a1.522,1.522,0,0,1-.215-2.119l.02-.019a1.522,1.522,0,0,1,2.119.215l.487.486Z" transform="translate(-19.884 -0.52)" fill="#f7bd6d"/>
        <rect id="Rectángulo_377641" data-name="Rectángulo 377641" width="12.313" height="2.72" transform="translate(21.892 14.917) rotate(-135)" fill="#f7bd6d"/>
        <path id="Trazado_609121" data-name="Trazado 609121" d="M18.552.358l.02-.02A1.521,1.521,0,0,1,20.69.554L30.1,9.967a1.522,1.522,0,0,1,.215,2.119l-.019.02c-.526.526-2.8,1.752-3.441,1.107l-.221-.221L17.931,4.286,17.444,3.8C16.8,3.155,18.026.884,18.552.358" transform="translate(-2.823 0)" fill="#f7a22e"/>
        <path id="Trazado_609122" data-name="Trazado 609122" d="M34.2,18.042l.019-.019A6.1,6.1,0,0,1,37.4,16.6a1.921,1.921,0,0,0,.252.315l.487.487,8.706,8.705.22.221a2.016,2.016,0,0,0,.315.252,6.1,6.1,0,0,1-1.423,3.188l-.019.019a1.52,1.52,0,0,1-2.119-.215l-9.413-9.412a1.523,1.523,0,0,1-.215-2.12" transform="translate(-33.856 -2.294)" fill="#eb8e11"/>
        <path id="Trazado_609123" data-name="Trazado 609123" d="M31.691,14.451l.019-.02a1.523,1.523,0,0,1,2.119.215l.487.487,8.706,8.706.22.221a1.521,1.521,0,0,1,.215,2.118l-.019.02a1.43,1.43,0,0,1-1.8.037,1.921,1.921,0,0,1-.315-.252l-.22-.22-8.706-8.706-.487-.487a1.921,1.921,0,0,1-.252-.315,1.429,1.429,0,0,1,.037-1.8" transform="translate(-28.106 -1.948)" fill="#f7a22e"/>
        <path id="Trazado_609124" data-name="Trazado 609124" d="M25.772,44.855l-.017.017a3.052,3.052,0,0,1-3.667.323C14.01,39.207,9.712,29.438,1.634,23.449a2.28,2.28,0,0,1-.7-.755l1.337-1.337Z" transform="translate(16.131 -2.952)" fill="#f7a22e"/>
        <path id="Trazado_609125" data-name="Trazado 609125" d="M1.338,19.8a2.292,2.292,0,0,1,.755.7C8.081,28.58,17.85,32.878,23.839,40.956a3.053,3.053,0,0,1-.324,3.668l-.016.016L0,21.141Z" transform="translate(18.404 -2.738)" fill="#f7bd6d"/>
        <path id="Trazado_609126" data-name="Trazado 609126" d="M27.645,7.206l8.706,8.707-2.15,2.15L32.864,19.4l-.945-.946-7.762-7.76Z" transform="translate(-14.459 -0.996)" fill="#f7a22e"/>
        <path id="Trazado_609127" data-name="Trazado 609127" d="M31.691,11.253l7.761,7.76.946.946L39.06,21.3l-2.15,2.15L28.2,14.741Z" transform="translate(-21.994 -1.555)" fill="#eb8e11"/>
      </g>
    </g>
    <g id="Grupo_1071478" data-name="Grupo 1071478" transform="translate(1199.379 11910.428)">
      <path id="Trazado_609155" data-name="Trazado 609155" d="M0,0H31.768V38.763H0Z" transform="translate(0 0)" fill="#fff5ce"/>
      <rect id="Rectángulo_377644" data-name="Rectángulo 377644" width="12.822" height="10.093" transform="translate(3.157 3.751)" fill="#f7a22e"/>
      <path id="Trazado_609128" data-name="Trazado 609128" d="M37.777,7.11H27.972l.446-1.531h9.8Z" transform="translate(-9.166 -1.828)" fill="#64bdc5"/>
      <path id="Trazado_609129" data-name="Trazado 609129" d="M37.777,13.477H27.972l.446-1.531h9.8Z" transform="translate(-9.166 -3.915)" fill="#a3dadd"/>
      <path id="Trazado_609130" data-name="Trazado 609130" d="M37.777,19.845H27.972l.446-1.531h9.8Z" transform="translate(-9.166 -6.001)" fill="#a3dadd"/>
      <rect id="Rectángulo_377645" data-name="Rectángulo 377645" width="25.454" height="1.531" transform="translate(3.157 18.616)" fill="#a3dadd"/>
      <rect id="Rectángulo_377646" data-name="Rectángulo 377646" width="25.454" height="1.531" transform="translate(3.157 22.124)" fill="#a3dadd"/>
      <rect id="Rectángulo_377647" data-name="Rectángulo 377647" width="25.454" height="1.532" transform="translate(3.157 25.632)" fill="#a3dadd"/>
      <rect id="Rectángulo_377648" data-name="Rectángulo 377648" width="25.454" height="1.532" transform="translate(3.157 29.14)" fill="#a3dadd"/>
      <rect id="Rectángulo_377649" data-name="Rectángulo 377649" width="25.454" height="1.532" transform="translate(3.157 32.648)" fill="#a3dadd"/>
      <path id="Trazado_609131" data-name="Trazado 609131" d="M26.247,42.431l-.048.094-2.572,5.007.095.1,3.651-3.651Z" transform="translate(-7.742 -13.904)" fill="#fff4d7"/>
      <path id="Trazado_609132" data-name="Trazado 609132" d="M23.583,46.8,26.155,41.8l-.775-1.589L23.495,46.8l.042-.042Z" transform="translate(-7.699 -13.176)" fill="#ffedb3"/>
      <path id="Trazado_609133" data-name="Trazado 609133" d="M27.123,41.7,26.3,40.208l.776,1.589Z" transform="translate(-8.618 -13.176)" fill="#e0e0e0"/>
      <path id="Trazado_609134" data-name="Trazado 609134" d="M23.776,48.388l.085.085,4.917-2.611.126-.067-1.477-1.06Z" transform="translate(-7.791 -14.66)" fill="#ffe59c"/>
      <path id="Trazado_609135" data-name="Trazado 609135" d="M27.425,44.734l-.007,0-.312.312L23.768,48.38l.005.006,3.341-3.341Z" transform="translate(-7.789 -14.657)" fill="#e0e0e0"/>
      <path id="Trazado_609136" data-name="Trazado 609136" d="M23.9,49.022l.048.048.026.026,6.537-1.854-1.694-.831Z" transform="translate(-7.833 -15.208)" fill="#ffd878"/>
      <path id="Trazado_609137" data-name="Trazado 609137" d="M31.218,46.378l1.694.83-1.568-.9Z" transform="translate(-10.23 -15.176)" fill="#e0e0e0"/>
      <path id="Trazado_609138" data-name="Trazado 609138" d="M40.675,25.631h0l.408-.409Z" transform="translate(-13.329 -8.265)" fill="#a3dadd"/>
      <path id="Trazado_609139" data-name="Trazado 609139" d="M41.283,24.957h0l.545-.545Z" transform="translate(-13.528 -8)" fill="#6c7482"/>
      <path id="Trazado_609140" data-name="Trazado 609140" d="M43.951,21.65h0l-1.858,1.858Z" transform="translate(-13.793 -7.095)" fill="#d98d8d"/>
      <g id="Grupo_1071477" data-name="Grupo 1071477" transform="translate(0 0)">
        <g id="Grupo_1071476" data-name="Grupo 1071476" clip-path="url(#clip-path-5)">
          <path id="Trazado_609141" data-name="Trazado 609141" d="M41.644,20.1c-.622-.767-.96-1.359-.814-1.5l-2.055,2.054-1.858,1.858-.545.545-.408.408h0L26.3,33.126l.824,1.495Z" transform="translate(-8.618 -6.094)" fill="#f7a22e"/>
          <path id="Trazado_609142" data-name="Trazado 609142" d="M45.925,24.648,31.405,39.167l1.567.9L48.383,24.507l-.953.953c-.147.147-.738-.188-1.506-.812" transform="translate(-10.291 -8.031)" fill="#f69512"/>
          <path id="Trazado_609143" data-name="Trazado 609143" d="M43.323,22.236l-.025-.025a17.938,17.938,0,0,1-1.253-1.379L27.524,35.353,28.649,36.9Z" transform="translate(-9.019 -6.827)" fill="#ffdf57"/>
          <path id="Trazado_609144" data-name="Trazado 609144" d="M43.871,22.92,29.2,37.583l.007,0,1.477,1.06L45.2,24.127a17.784,17.784,0,0,1-1.331-1.207" transform="translate(-9.568 -7.511)" fill="#f7a22e"/>
          <path id="Trazado_609145" data-name="Trazado 609145" d="M48.71,19.9a18.078,18.078,0,0,0,1.253,1.379l.025.025.409-.409c-.009-.007-.017-.016-.025-.024-.372-.372-.71-.738-1-1.08-.779-.91-1.228-1.64-1.064-1.8L47.9,18.4c-.146.145.192.737.814,1.5" transform="translate(-15.684 -5.894)" fill="#a3dadd"/>
          <path id="Trazado_609146" data-name="Trazado 609146" d="M52.354,23.929c.768.625,1.359.959,1.506.812l.409-.408c-.147.147-.738-.188-1.507-.813-.407-.33-.862-.741-1.329-1.206l-.409.407c.468.466.924.877,1.331,1.207" transform="translate(-16.72 -7.312)" fill="#7d8390"/>
          <rect id="Rectángulo_377650" data-name="Rectángulo 377650" height="0.577" transform="translate(34.507 14.917)" fill="#2e384c"/>
          <path id="Trazado_609147" data-name="Trazado 609147" d="M52.176,21.5l-.545.545c.468.465.922.876,1.33,1.206.768.625,1.359.959,1.506.813l.545-.545c-.224.224-1.484-.673-2.836-2.02" transform="translate(-16.919 -7.046)" fill="#1d283e"/>
          <path id="Trazado_609148" data-name="Trazado 609148" d="M49.568,19.525c.293.342.631.708,1,1.08l.025.025h0l.545-.545-.026-.025c-1.361-1.361-2.292-2.658-2.067-2.884l-.545.544c-.164.165.285.895,1.064,1.8" transform="translate(-15.883 -5.629)" fill="#6c7482"/>
          <path id="Trazado_609149" data-name="Trazado 609149" d="M51.379,19.155l.026.025,1.858-1.858-.025-.025c-1.361-1.361-2.293-2.658-2.067-2.884l-1.858,1.858c-.225.226.707,1.523,2.067,2.884" transform="translate(-16.148 -4.723)" fill="#f98a8a"/>
          <path id="Trazado_609150" data-name="Trazado 609150" d="M54.3,18.74,52.441,20.6c1.351,1.347,2.612,2.243,2.836,2.02l1.858-1.858c-.225.225-1.485-.672-2.836-2.019" transform="translate(-17.184 -6.141)" fill="#e05858"/>
          <path id="Trazado_609151" data-name="Trazado 609151" d="M54.143,17.281l.025.025.817-.817-.025-.025C53.6,15.1,52.3,14.171,52.077,14.4s.706,1.523,2.067,2.884" transform="translate(-17.054 -4.707)" fill="#e2a7a7"/>
          <path id="Trazado_609152" data-name="Trazado 609152" d="M56.021,17.525l-.817.817c1.351,1.347,2.612,2.243,2.836,2.019s-.673-1.484-2.02-2.836" transform="translate(-18.09 -5.743)" fill="#d98d8d"/>
          <path id="Trazado_609153" data-name="Trazado 609153" d="M23.413,50.229l-.048-.048L23.28,50.1l-.006-.006-.1-.1-.046-.046-.042.042-.719.719a.4.4,0,0,0,0,.558Z" transform="translate(-7.295 -16.368)" fill="#ff5c50"/>
          <path id="Trazado_609154" data-name="Trazado 609154" d="M22.431,51.4l0,0a.394.394,0,0,0,.557,0l.76-.76-.255-.255-.026-.026Z" transform="translate(-7.35 -16.505)" fill="#f72616"/>
        </g>
      </g>
    </g>
  </g>
</svg>
