<svg xmlns="http://www.w3.org/2000/svg" xmlns:xlink="http://www.w3.org/1999/xlink" width="253" height="141" viewBox="0 0 253 141">
  <defs>
    <clipPath id="clip-path">
      <rect id="Rectángulo_377369" data-name="Rectángulo 377369" width="253" height="141" transform="translate(327 2912)" fill="#fff"/>
    </clipPath>
    <clipPath id="clip-path-2">
      <rect id="Rectángulo_377368" data-name="Rectángulo 377368" width="264.284" height="226.07" fill="none"/>
    </clipPath>
    <clipPath id="clip-path-4">
      <rect id="Rectángulo_377345" data-name="Rectángulo 377345" width="238.056" height="170.762" fill="none"/>
    </clipPath>
    <clipPath id="clip-path-5">
      <rect id="Rectángulo_377346" data-name="Rectángulo 377346" width="9.951" height="10.302" fill="none"/>
    </clipPath>
    <clipPath id="clip-path-6">
      <rect id="Rectángulo_377347" data-name="Rectángulo 377347" width="7.74" height="8.013" fill="none"/>
    </clipPath>
    <clipPath id="clip-path-7">
      <rect id="Rectángulo_377348" data-name="Rectángulo 377348" width="9.399" height="9.73" fill="none"/>
    </clipPath>
    <clipPath id="clip-path-8">
      <rect id="Rectángulo_377349" data-name="Rectángulo 377349" width="9.398" height="9.73" fill="none"/>
    </clipPath>
    <clipPath id="clip-path-9">
      <rect id="Rectángulo_377350" data-name="Rectángulo 377350" width="7.187" height="7.44" fill="none"/>
    </clipPath>
    <clipPath id="clip-path-12">
      <rect id="Rectángulo_377353" data-name="Rectángulo 377353" width="4.515" height="4.674" fill="none"/>
    </clipPath>
    <clipPath id="clip-path-13">
      <rect id="Rectángulo_377354" data-name="Rectángulo 377354" width="246.863" height="10.049" fill="none"/>
    </clipPath>
    <clipPath id="clip-path-14">
      <rect id="Rectángulo_377366" data-name="Rectángulo 377366" width="146.157" height="202.222" fill="none"/>
    </clipPath>
  </defs>
  <g id="Enmascarar_grupo_78" data-name="Enmascarar grupo 78" transform="translate(-327 -2912)" clip-path="url(#clip-path)">
    <g id="Grupo_1071264" data-name="Grupo 1071264" transform="translate(311.501 2912)">
      <g id="Grupo_1071263" data-name="Grupo 1071263" clip-path="url(#clip-path-2)">
        <g id="Grupo_1071262" data-name="Grupo 1071262">
          <g id="Grupo_1071261" data-name="Grupo 1071261" clip-path="url(#clip-path-2)">
            <g id="Grupo_1071230" data-name="Grupo 1071230" transform="translate(0 11.82)" opacity="0.5" style="mix-blend-mode: multiply;isolation: isolate">
              <g id="Grupo_1071229" data-name="Grupo 1071229" transform="translate(21.528 15.443)">
                <g id="Grupo_1071228" data-name="Grupo 1071228" clip-path="url(#clip-path-4)">
                  <path id="Trazado_608393" data-name="Trazado 608393" d="M238.055,155.916l-.008-.712-.036-.662c-.019-.45-.064-.86-.1-1.279s-.091-.821-.142-1.222c-.213-1.6-.478-3.124-.787-4.607-.6-2.976-1.336-5.818-2.108-8.609-1.557-5.571-3.316-10.893-5.169-16.028a297.62,297.62,0,0,0-12.058-28.52A254.935,254.935,0,0,0,203.4,68.656c-6.863-14.035-15.4-26-25.841-33.387a35.31,35.31,0,0,0-8.43-4.362c-.824-.542-1.624-1.042-2.392-1.493a43.307,43.307,0,0,0-7.831-3.754c-.71-.238-1.8-.619-2.89-.988a7.284,7.284,0,0,1-1.365-.632l-.007,0c-.232-.134-.491-.29-.788-.439l-1-.441-1.188-.5-1.4-.455c-3.969-1.3-10.291-2.137-18.2-1.047a71.583,71.583,0,0,0-12.839,3.051,110.642,110.642,0,0,0-14.4,6.021A180.119,180.119,0,0,0,73.272,50.952,260.815,260.815,0,0,0,47.793,74.5C26.784,91.023,9.435,109.553,1.033,125.782c-2.16,4.172-.851,8.523,3.157,12.912-.006.015-.013.029-.018.045-.868,2.29-1.7,4.621-2.393,7.04l-.265.906-.133.453c-.048.181-.1.428-.151.639a10.67,10.67,0,0,0-.242,1.348l-.082.693c-.019.234-.022.474-.03.711a13.571,13.571,0,0,0,1.039,5.588,16.318,16.318,0,0,0,2.767,4.41,23.883,23.883,0,0,0,3.37,3.168A40.074,40.074,0,0,0,15.2,168a88.93,88.93,0,0,0,14.721,5.271A225.808,225.808,0,0,0,60.3,178.959c10.3,1.292,20.757,2.15,31.341,2.707,10.784.564,21.437.793,31.932.761,50.669,10.066,98.509,13.119,102.366,1.608.851-2.54,1.219-7.777,1.027-14.851a37.54,37.54,0,0,0,3.744-1.992,20.447,20.447,0,0,0,4.224-3.357,13.1,13.1,0,0,0,1.935-2.679,10.441,10.441,0,0,0,1.121-3.629l.056-.865c.02-.283.011-.5.012-.745M61.623,168.276a221.61,221.61,0,0,1-28.943-5.243,79.676,79.676,0,0,1-12.981-4.5,30.113,30.113,0,0,1-5.294-3.086,9.281,9.281,0,0,1-2.955-3.317,3.234,3.234,0,0,1-.282-1.349c0-.058-.006-.114,0-.175s.019-.124.025-.187a1.95,1.95,0,0,1,.065-.395c.017-.076.018-.119.044-.224l.111-.4.222-.793c.279-1.019.591-2.032.922-3.042,12.516,8.309,33.261,16.49,57.036,23.59q-4.007-.4-7.968-.882M91.134,46.429a168.5,168.5,0,0,1,16.544-10.862A115.866,115.866,0,0,1,121,29.052,74.607,74.607,0,0,1,132.811,25.3a47.787,47.787,0,0,1,16.989-.969l1.384.178,1.2.22,1.034.17.847.172.008,0a5.083,5.083,0,0,1,1.469.514c.966.52,1.916,1.041,2.5,1.423.752.493,1.675,1.1,2.735,1.837-19.332-3.035-44.749,4.565-69.842,17.58M228.587,155.845a3.228,3.228,0,0,1-.012.354l-.013.146-.005.088a1.935,1.935,0,0,1-.1.232,4.328,4.328,0,0,1-.49.6,9.812,9.812,0,0,1-1.618,1.274A297.394,297.394,0,0,0,221.9,127c1.5,4.6,2.921,9.331,4.157,14.176.67,2.654,1.3,5.348,1.783,8.028.251,1.341.449,2.675.6,3.964.034.321.073.647.091.951s.052.626.056.906l.016.434Z" transform="translate(0 -20.653)" fill="#b2ebf2"/>
                </g>
              </g>
            </g>
            <g id="Grupo_1071233" data-name="Grupo 1071233" transform="translate(8.253 50.746)" opacity="0.5" style="mix-blend-mode: multiply;isolation: isolate">
              <g id="Grupo_1071232" data-name="Grupo 1071232">
                <g id="Grupo_1071231" data-name="Grupo 1071231" clip-path="url(#clip-path-5)">
                  <path id="Trazado_608394" data-name="Trazado 608394" d="M19.4,88.667c-6.629,0-6.64,10.3,0,10.3s6.64-10.3,0-10.3" transform="translate(-14.421 -88.667)" fill="#b2ebf2"/>
                </g>
              </g>
            </g>
            <g id="Grupo_1071236" data-name="Grupo 1071236" transform="translate(2.873 77.073)" opacity="0.5" style="mix-blend-mode: multiply;isolation: isolate">
              <g id="Grupo_1071235" data-name="Grupo 1071235">
                <g id="Grupo_1071234" data-name="Grupo 1071234" clip-path="url(#clip-path-6)">
                  <path id="Trazado_608395" data-name="Trazado 608395" d="M8.889,134.667c-5.155,0-5.164,8.013,0,8.013s5.164-8.013,0-8.013" transform="translate(-5.019 -134.667)" fill="#b2ebf2"/>
                </g>
              </g>
            </g>
            <g id="Grupo_1071239" data-name="Grupo 1071239" transform="translate(79.879 3.72)" opacity="0.5" style="mix-blend-mode: multiply;isolation: isolate">
              <g id="Grupo_1071238" data-name="Grupo 1071238">
                <g id="Grupo_1071237" data-name="Grupo 1071237" clip-path="url(#clip-path-7)">
                  <path id="Trazado_608396" data-name="Trazado 608396" d="M144.269,6.5c-6.261,0-6.271,9.73,0,9.73s6.271-9.73,0-9.73" transform="translate(-139.57 -6.5)" fill="#b2ebf2"/>
                </g>
              </g>
            </g>
            <g id="Grupo_1071242" data-name="Grupo 1071242" transform="translate(254.886 104.475)" opacity="0.5" style="mix-blend-mode: multiply;isolation: isolate">
              <g id="Grupo_1071241" data-name="Grupo 1071241">
                <g id="Grupo_1071240" data-name="Grupo 1071240" clip-path="url(#clip-path-8)">
                  <path id="Trazado_608397" data-name="Trazado 608397" d="M450.05,182.546c-6.261,0-6.271,9.729,0,9.729s6.271-9.729,0-9.729" transform="translate(-445.352 -182.546)" fill="#b2ebf2"/>
                </g>
              </g>
            </g>
            <g id="Grupo_1071245" data-name="Grupo 1071245" transform="translate(80.222 24.324)" opacity="0.5" style="mix-blend-mode: multiply;isolation: isolate">
              <g id="Grupo_1071244" data-name="Grupo 1071244">
                <g id="Grupo_1071243" data-name="Grupo 1071243" clip-path="url(#clip-path-9)">
                  <path id="Trazado_608398" data-name="Trazado 608398" d="M143.763,42.5c-4.787,0-4.8,7.44,0,7.44s4.8-7.44,0-7.44" transform="translate(-140.169 -42.5)" fill="#b2ebf2"/>
                </g>
              </g>
            </g>
            <g id="Grupo_1071248" data-name="Grupo 1071248" transform="translate(238.368)" opacity="0.5" style="mix-blend-mode: multiply;isolation: isolate">
              <g id="Grupo_1071247" data-name="Grupo 1071247">
                <g id="Grupo_1071246" data-name="Grupo 1071246" clip-path="url(#clip-path-9)">
                  <path id="Trazado_608399" data-name="Trazado 608399" d="M420.086,0c-4.787,0-4.8,7.44,0,7.44s4.8-7.44,0-7.44" transform="translate(-416.492)" fill="#b2ebf2"/>
                </g>
              </g>
            </g>
            <g id="Grupo_1071251" data-name="Grupo 1071251" transform="translate(249.265 85.896)" opacity="0.5" style="mix-blend-mode: multiply;isolation: isolate">
              <g id="Grupo_1071250" data-name="Grupo 1071250">
                <g id="Grupo_1071249" data-name="Grupo 1071249" clip-path="url(#clip-path-9)">
                  <path id="Trazado_608400" data-name="Trazado 608400" d="M439.125,150.083c-4.787,0-4.8,7.44,0,7.44s4.8-7.44,0-7.44" transform="translate(-435.532 -150.083)" fill="#b2ebf2"/>
                </g>
              </g>
            </g>
            <g id="Grupo_1071254" data-name="Grupo 1071254" transform="translate(247.008 21.987)" opacity="0.5" style="mix-blend-mode: multiply;isolation: isolate">
              <g id="Grupo_1071253" data-name="Grupo 1071253">
                <g id="Grupo_1071252" data-name="Grupo 1071252" clip-path="url(#clip-path-12)">
                  <path id="Trazado_608401" data-name="Trazado 608401" d="M433.845,38.417c-3.008,0-3.012,4.674,0,4.674s3.012-4.674,0-4.674" transform="translate(-431.587 -38.417)" fill="#b2ebf2"/>
                </g>
              </g>
            </g>
            <g id="Grupo_1071257" data-name="Grupo 1071257" transform="translate(11.321 216.022)" opacity="0.5" style="mix-blend-mode: multiply;isolation: isolate">
              <g id="Grupo_1071256" data-name="Grupo 1071256">
                <g id="Grupo_1071255" data-name="Grupo 1071255" clip-path="url(#clip-path-13)">
                  <path id="Trazado_608402" data-name="Trazado 608402" d="M266.644,382.47s-55.262,5.024-123.432,5.024S19.781,382.47,19.781,382.47s55.262-5.024,123.431-5.024,123.432,5.024,123.432,5.024" transform="translate(-19.781 -377.446)" fill="#78909c"/>
                </g>
              </g>
            </g>
            <path id="Trazado_608403" data-name="Trazado 608403" d="M308.593,39.983l.112,185.079a8.59,8.59,0,0,1-8.564,8.573l-132.24.08a8.571,8.571,0,0,1-8.573-8.564l-.112-185.078a8.571,8.571,0,0,1,8.563-8.573l132.24-.08a8.564,8.564,0,0,1,8.573,8.563" transform="translate(-68.093 -13.438)" fill="#c27e3b"/>
            <path id="Trazado_608404" data-name="Trazado 608404" d="M305.639,59.369l.081,133.291-24.366,23.618-101.565.061-.1-156.894Z" transform="translate(-76.851 -25.391)" fill="#fff"/>
            <path id="Trazado_608405" data-name="Trazado 608405" d="M381.675,292.263,357.31,315.881l-.014-23.6Z" transform="translate(-152.807 -124.994)" fill="#eaeaea"/>
            <rect id="Rectángulo_377355" data-name="Rectángulo 377355" width="101.565" height="13.329" transform="translate(115.043 43.539)" fill="#d1d1d1"/>
            <rect id="Rectángulo_377356" data-name="Rectángulo 377356" width="49.149" height="2.428" transform="translate(115.052 63.736)" fill="#090909"/>
            <rect id="Rectángulo_377357" data-name="Rectángulo 377357" width="101.564" height="2.428" transform="translate(115.056 70.314)" fill="#090909"/>
            <rect id="Rectángulo_377358" data-name="Rectángulo 377358" width="101.564" height="2.428" transform="translate(115.06 76.908)" fill="#090909"/>
            <rect id="Rectángulo_377359" data-name="Rectángulo 377359" width="101.564" height="2.428" transform="translate(115.064 83.501)" fill="#090909"/>
            <rect id="Rectángulo_377360" data-name="Rectángulo 377360" width="101.564" height="2.428" transform="translate(115.068 90.095)" fill="#090909"/>
            <rect id="Rectángulo_377361" data-name="Rectángulo 377361" width="101.564" height="2.428" transform="translate(115.072 96.689)" fill="#090909"/>
            <rect id="Rectángulo_377362" data-name="Rectángulo 377362" width="101.565" height="2.428" transform="translate(115.076 103.283)" fill="#090909"/>
            <rect id="Rectángulo_377363" data-name="Rectángulo 377363" width="101.564" height="2.428" transform="translate(115.08 109.876)" fill="#090909"/>
            <rect id="Rectángulo_377364" data-name="Rectángulo 377364" width="101.565" height="2.428" transform="translate(115.084 116.47)" fill="#090909"/>
            <path id="Trazado_608406" data-name="Trazado 608406" d="M225.545,272.217a12.26,12.26,0,1,1-12.26-12.26,12.26,12.26,0,0,1,12.26,12.26" transform="translate(-85.974 -111.177)" fill="#df2b2b"/>
            <path id="Trazado_608407" data-name="Trazado 608407" d="M224.4,273.248H219v-5.407h-4.68v5.407H208.91v4.68h5.407v5.407H219v-5.407H224.4Z" transform="translate(-89.346 -114.549)" fill="#fff"/>
            <path id="Trazado_608408" data-name="Trazado 608408" d="M285.245,16.428l0-3.236a8.759,8.759,0,0,0-8.764-8.754l-42.271.026a8.759,8.759,0,0,0-8.753,8.765l0,3.236-16.077.01.014,23.23,91.941-.056-.014-23.23Z" transform="translate(-89.547 -1.898)" fill="#005e7c"/>
            <rect id="Rectángulo_377365" data-name="Rectángulo 377365" width="91.941" height="7.19" transform="translate(119.845 30.589)" fill="#047c9d"/>
            <path id="Trazado_608409" data-name="Trazado 608409" d="M292.312,20.285l-33.327.02a2.142,2.142,0,0,1,0-4.284L292.31,16a2.142,2.142,0,1,1,0,4.284" transform="translate(-109.845 -6.843)" fill="#143358"/>
            <g id="Grupo_1071260" data-name="Grupo 1071260" transform="translate(91.123 18.056)" opacity="0.3" style="mix-blend-mode: multiply;isolation: isolate">
              <g id="Grupo_1071259" data-name="Grupo 1071259">
                <g id="Grupo_1071258" data-name="Grupo 1071258" clip-path="url(#clip-path-14)">
                  <path id="Trazado_608410" data-name="Trazado 608410" d="M305.373,231.893a8.477,8.477,0,0,1-5.232,1.8l-132.24.08a8.57,8.57,0,0,1-8.573-8.563l-.112-185.078a8.571,8.571,0,0,1,8.563-8.573l10.682-.007a100.4,100.4,0,0,0-3.9,9.5A155.75,155.75,0,0,0,171.578,116a155.913,155.913,0,0,0,52.377,87.1c12.253,10.206,26.3,18.572,41.713,22.664,12.58,3.34,25.742,3.754,38.573,5.917.377.069.754.125,1.131.2" transform="translate(-159.216 -31.548)" fill="#b3b3b3"/>
                </g>
              </g>
            </g>
            <path id="Trazado_608411" data-name="Trazado 608411" d="M101.677,62.544H92.386l.232-4.974.262-5.611,0-.075h8.248l.29,5.678Z" transform="translate(-39.511 -22.19)" fill="#ffa07f"/>
            <path id="Trazado_608412" data-name="Trazado 608412" d="M101.594,57.562a8.756,8.756,0,0,1-8.8.008l.263-5.611,0-.075H101.3Z" transform="translate(-39.684 -22.19)" fill="#ff7d6f"/>
            <path id="Trazado_608413" data-name="Trazado 608413" d="M93.647,62.544c-.187-1.7-.324-8.814-.408-10.66h-.355l-.5,10.66Z" transform="translate(-39.511 -22.19)" fill="#ffd39c"/>
            <path id="Trazado_608414" data-name="Trazado 608414" d="M107.887,62.544l-.545-10.66h-.436c.084,1.863.149,9,.195,10.66Z" transform="translate(-45.721 -22.19)" fill="#ffd39c"/>
            <path id="Trazado_608415" data-name="Trazado 608415" d="M84.256,41.873A4.722,4.722,0,0,1,80.9,39.52a5.072,5.072,0,0,1-.334-.632c-.453-1.042-.583-4.657.583-5.5.817-.588,1.412.265,1.695.829v0a3.833,3.833,0,0,1,.184.427Z" transform="translate(-34.315 -14.196)" fill="#ffbf90"/>
            <path id="Trazado_608416" data-name="Trazado 608416" d="M84.4,42.128a4.722,4.722,0,0,1-3.357-2.352c-.054-.1-.1-.2-.14-.291-.453-1.042-.583-4.657.583-5.5.662-.477,1.177-.008,1.5.488v0a3.831,3.831,0,0,1,.184.427Z" transform="translate(-34.46 -14.451)" fill="#ffa07f"/>
            <path id="Trazado_608417" data-name="Trazado 608417" d="M81.164,38.07a1.958,1.958,0,0,0,.053.876,6.793,6.793,0,0,0,2.187,3,3.739,3.739,0,0,1-.32-1.9c.02-.225.058-.449.06-.675.007-.909-1.634-3.009-1.979-1.3" transform="translate(-34.699 -16.004)" fill="#ff7d6f"/>
            <path id="Trazado_608418" data-name="Trazado 608418" d="M84.059,42.274l-.052-.037c-.033-.026-.086-.059-.147-.112a2.338,2.338,0,0,1-.451-.517,2.631,2.631,0,0,1-.37-.963,2.509,2.509,0,0,1,.115-1.275,1.179,1.179,0,0,1,.066-.159l.018-.039,0,0h0s0,0,0-.006l-.015-.035-.03-.069c-.021-.045-.042-.09-.064-.135a5.481,5.481,0,0,0-.275-.5c-.1-.155-.2-.3-.294-.428a2.96,2.96,0,0,0-.289-.341.582.582,0,0,0-.3-.166.379.379,0,0,0-.251.053.275.275,0,0,0-.112.129.291.291,0,0,0-.016.061.192.192,0,0,1,0-.065.3.3,0,0,1,.094-.165.444.444,0,0,1,.289-.116.683.683,0,0,1,.391.143,2.645,2.645,0,0,1,.356.323,4.506,4.506,0,0,1,.351.418,4.415,4.415,0,0,1,.325.511c.025.046.049.094.073.142l.035.072.047.1.032.072c-.009.023-.021.048-.031.072l-.046.1a1.084,1.084,0,0,0-.057.139,2.638,2.638,0,0,0-.148,1.127,2.877,2.877,0,0,0,.242.92,2.7,2.7,0,0,0,.345.559c.049.062.093.1.12.136l.043.048" transform="translate(-34.896 -15.989)" fill="#cf4a57"/>
            <path id="Trazado_608419" data-name="Trazado 608419" d="M113.654,41.873a4.722,4.722,0,0,0,3.357-2.352,5.064,5.064,0,0,0,.334-.632c.453-1.042.583-4.657-.583-5.5-.817-.588-1.412.265-1.694.829v0a3.782,3.782,0,0,0-.185.427Z" transform="translate(-48.607 -14.196)" fill="#ffbf90"/>
            <path id="Trazado_608420" data-name="Trazado 608420" d="M113.654,42.128a4.722,4.722,0,0,0,3.357-2.352c.054-.1.1-.2.14-.291.453-1.042.583-4.657-.583-5.5-.662-.477-1.177-.008-1.5.488v0a3.782,3.782,0,0,0-.185.427Z" transform="translate(-48.607 -14.451)" fill="#ffa07f"/>
            <path id="Trazado_608421" data-name="Trazado 608421" d="M118.054,38.07a1.949,1.949,0,0,1-.053.876,6.793,6.793,0,0,1-2.187,3,3.739,3.739,0,0,0,.32-1.9c-.02-.225-.058-.449-.06-.675-.007-.909,1.634-3.009,1.979-1.3" transform="translate(-49.531 -16.004)" fill="#ff7d6f"/>
            <path id="Trazado_608422" data-name="Trazado 608422" d="M115.012,42.274l.052-.037c.033-.026.086-.059.147-.112a2.338,2.338,0,0,0,.451-.517,2.641,2.641,0,0,0,.371-.963,2.516,2.516,0,0,0-.116-1.275,1.179,1.179,0,0,0-.066-.159l-.018-.039c0-.01,0,0,0,0h0s0,0,0-.006l.015-.035.03-.069c.021-.045.042-.09.064-.135.086-.177.18-.345.275-.5s.2-.3.294-.428a2.96,2.96,0,0,1,.289-.341.584.584,0,0,1,.3-.166.379.379,0,0,1,.251.053.275.275,0,0,1,.112.129.288.288,0,0,1,.016.061.192.192,0,0,0,0-.065.3.3,0,0,0-.094-.165.445.445,0,0,0-.289-.116.682.682,0,0,0-.391.143,2.645,2.645,0,0,0-.356.323,4.506,4.506,0,0,0-.351.418,4.414,4.414,0,0,0-.325.511c-.025.046-.049.094-.073.142l-.035.072-.046.1-.033.072c.009.023.021.048.031.072l.047.1a1.173,1.173,0,0,1,.057.139,2.638,2.638,0,0,1,.148,1.127,2.876,2.876,0,0,1-.242.92,2.7,2.7,0,0,1-.345.559c-.049.062-.093.1-.12.136l-.043.048" transform="translate(-49.188 -15.989)" fill="#cf4a57"/>
            <path id="Trazado_608423" data-name="Trazado 608423" d="M102.409,28.156s-1.54,7.828-3.273,9.763-5.761,2.3-5.761,2.3-4.027-.366-5.757-2.3-3.033-9.784-3.033-9.784a10.235,10.235,0,0,1-.427-2.282v-.014a31.3,31.3,0,0,1-.011-4.551s.09-4.548,2.294-6.483a4.766,4.766,0,0,1,3.654-.811,31.855,31.855,0,0,0,6.565,0,4.768,4.768,0,0,1,3.654.811A7.429,7.429,0,0,1,102.29,18.8a14.542,14.542,0,0,1,.316,2.491s.6,4.547-.2,6.87" transform="translate(-35.953 -5.964)" fill="#ffa07f"/>
            <path id="Trazado_608424" data-name="Trazado 608424" d="M99.015,38.52c-2.193,3.72-8.579,2.874-11.054.4C84.067,32.993,84.258,24.83,85.6,17.2a12.411,12.411,0,0,0-1.45,5.478s-.357,4.524.439,6.849c0,0,1.3,7.85,3.032,9.784s5.759,2.3,5.759,2.3,4.028-.369,5.759-2.3,3.271-9.761,3.271-9.761a16.759,16.759,0,0,0,.314-5.743c-.444,4.885-.734,9.673-3.705,14.714" transform="translate(-35.953 -7.356)" fill="#ffd39c"/>
            <path id="Trazado_608425" data-name="Trazado 608425" d="M98.239,41.6a.513.513,0,0,1,.219.022,4.01,4.01,0,0,0,.775.07,3.783,3.783,0,0,0,1.038-.219c.441-.143.267.176.146.478a4.456,4.456,0,0,1-.527.957,4.234,4.234,0,0,1-1.976-.6,2,2,0,0,1,.259-.664.186.186,0,0,1,.066-.039" transform="translate(-41.875 -17.722)" fill="#ff7d6f"/>
            <path id="Trazado_608426" data-name="Trazado 608426" d="M98.762,31.618a8.229,8.229,0,0,1,.237,1.2,9.786,9.786,0,0,1-.078,2.958,9.625,9.625,0,0,1-.432,1.577l-.133.342-.07.161-.031.049c-.019.02-.011.033,0,.045a.44.44,0,0,0,.043.043c.078.058.157.111.232.161a4.693,4.693,0,0,0,.769.4c.193.077.305.112.305.112a2.975,2.975,0,0,1-.328-.023,3.625,3.625,0,0,1-.88-.224c-.09-.037-.184-.077-.279-.124-.066-.034-.142-.08-.217-.124l-.116-.07c-.032-.007,0-.035,0-.054l.018-.064c.026-.088.053-.176.079-.266l.045-.164c.028-.112.057-.227.086-.344.115-.471.227-.99.327-1.537a26,26,0,0,0,.363-2.843c.048-.739.058-1.208.058-1.208" transform="translate(-41.816 -13.522)" fill="#fc5b68"/>
            <path id="Trazado_608427" data-name="Trazado 608427" d="M92,32.9l-.139-.164c-.09-.1-.22-.25-.389-.416l-.05-.048a3.961,3.961,0,0,0-1.4-.9,2.352,2.352,0,0,0-.576-.125,2.43,2.43,0,0,0-1.085.146,2.613,2.613,0,0,0-.5.252c-.057.036-.1.07-.128.09l-.046.032.027-.048c.019-.031.043-.081.083-.139a1.924,1.924,0,0,1,.414-.441,2.142,2.142,0,0,1,.366-.228,2.167,2.167,0,0,1,1.034-.208l.069.005a2.16,2.16,0,0,1,.528.111,2.541,2.541,0,0,1,.96.608c.059.058.114.118.164.177a3.191,3.191,0,0,1,.374.544,3.452,3.452,0,0,1,.235.547c.042.134.059.208.059.208" transform="translate(-37.502 -13.131)" fill="#161818"/>
            <path id="Trazado_608428" data-name="Trazado 608428" d="M92.6,32.593c0,1.3-.489,2.355-1.092,2.355s-1.093-1.055-1.093-2.355a4.425,4.425,0,0,1,.195-1.339,2.467,2.467,0,0,1,.238-.538,2.175,2.175,0,0,1,.528.11,2.53,2.53,0,0,1,.96.608c.059.058.114.118.164.177a4.438,4.438,0,0,1,.089.671c.007.1.01.2.01.31" transform="translate(-38.668 -13.136)" fill="#161818"/>
            <path id="Trazado_608429" data-name="Trazado 608429" d="M88.236,31.72l-.28,1.343,2.248-.252Z" transform="translate(-37.617 -13.566)" fill="#fff"/>
            <path id="Trazado_608430" data-name="Trazado 608430" d="M92.042,30.71l-.027-.032c-.018-.021-.042-.053-.077-.09a2.53,2.53,0,0,0-.311-.3,2.541,2.541,0,0,0-2.965-.147c-.044.027-.075.052-.1.067l-.034.023.027-.031c.018-.021.043-.053.08-.09a1.942,1.942,0,0,1,.343-.284,2.1,2.1,0,0,1,2.736.369,1.939,1.939,0,0,1,.255.365c.026.045.041.084.053.108l.018.038" transform="translate(-37.862 -12.608)" fill="#fc5b68"/>
            <path id="Trazado_608431" data-name="Trazado 608431" d="M105.517,32.9l.139-.164c.09-.1.22-.25.389-.416.016-.017.033-.032.05-.048a3.961,3.961,0,0,1,1.4-.9,2.352,2.352,0,0,1,.576-.125,2.43,2.43,0,0,1,1.085.146,2.612,2.612,0,0,1,.5.252c.057.036.1.07.128.09l.046.032-.027-.048c-.019-.031-.043-.081-.083-.139a1.915,1.915,0,0,0-.415-.441,2.1,2.1,0,0,0-.366-.228,2.163,2.163,0,0,0-1.034-.208l-.069.005a2.16,2.16,0,0,0-.528.111,2.541,2.541,0,0,0-.96.608c-.059.058-.114.118-.164.177a3.191,3.191,0,0,0-.374.544,3.454,3.454,0,0,0-.235.547c-.042.134-.059.208-.059.208" transform="translate(-45.127 -13.131)" fill="#161818"/>
            <path id="Trazado_608432" data-name="Trazado 608432" d="M106.51,32.593c0,1.3.489,2.355,1.092,2.355s1.093-1.055,1.093-2.355a4.425,4.425,0,0,0-.195-1.339,2.466,2.466,0,0,0-.238-.538,2.175,2.175,0,0,0-.528.11,2.526,2.526,0,0,0-.96.608c-.059.058-.114.118-.164.177a4.438,4.438,0,0,0-.089.671c-.007.1-.01.2-.01.31" transform="translate(-45.552 -13.136)" fill="#161818"/>
            <path id="Trazado_608433" data-name="Trazado 608433" d="M110.825,31.72l.28,1.343-2.248-.252Z" transform="translate(-46.556 -13.566)" fill="#fff"/>
            <path id="Trazado_608434" data-name="Trazado 608434" d="M106.074,30.71l.027-.032c.018-.021.041-.053.077-.09a2.505,2.505,0,0,1,2.9-.644,2.5,2.5,0,0,1,.378.2c.045.027.076.052.1.067l.034.023-.027-.031c-.018-.021-.043-.053-.08-.09a1.942,1.942,0,0,0-.343-.284,2.1,2.1,0,0,0-2.736.369,1.94,1.94,0,0,0-.255.365c-.026.045-.041.084-.053.108s-.018.038-.018.038" transform="translate(-45.365 -12.608)" fill="#fc5b68"/>
            <path id="Trazado_608435" data-name="Trazado 608435" d="M88.341,40.478c-.153.409-1.275.366-2.506-.094s-2.1-1.165-1.951-1.574,1.275-.366,2.505.094,2.1,1.165,1.952,1.574" transform="translate(-35.868 -16.478)" fill="#ff7d6f"/>
            <path id="Trazado_608436" data-name="Trazado 608436" d="M114.391,38.688c.168.4-.68,1.138-1.893,1.644s-2.332.588-2.5.185.68-1.138,1.893-1.644,2.333-.588,2.5-.185" transform="translate(-47.035 -16.437)" fill="#ff7d6f"/>
            <path id="Trazado_608437" data-name="Trazado 608437" d="M101.613,45.7l-.053.082a2,2,0,0,1-.175.22,3.139,3.139,0,0,1-.839.625,8.425,8.425,0,0,1-1.415.588,7.635,7.635,0,0,1-1.859.349,6.452,6.452,0,0,1-1.9-.17,5.82,5.82,0,0,1-1.446-.567,5.023,5.023,0,0,1-.845-.6c-.092-.08-.158-.146-.2-.191l-.068-.069.088.041c.057.026.141.066.251.112a7.564,7.564,0,0,0,.935.329,9.546,9.546,0,0,0,3.142.3,17.755,17.755,0,0,0,3.168-.5,3.791,3.791,0,0,0,.911-.346,2.567,2.567,0,0,0,.23-.145l.078-.057" transform="translate(-39.693 -19.543)" fill="#ff7d6f"/>
            <path id="Trazado_608438" data-name="Trazado 608438" d="M100.613,49.793l-.058.084a1.409,1.409,0,0,1-.189.207,1.665,1.665,0,0,1-1.751.312,1.39,1.39,0,0,1-.249-.13l-.084-.058s.149,0,.367-.013a7.188,7.188,0,0,0,.815-.1,7.274,7.274,0,0,0,.8-.184c.21-.064.35-.115.35-.115" transform="translate(-42.032 -21.295)" fill="#ff7d6f"/>
            <path id="Trazado_608439" data-name="Trazado 608439" d="M92.277,28.143l-.2-.121c-.125-.075-.3-.18-.513-.286a10.173,10.173,0,0,0-1.578-.621,7.06,7.06,0,0,0-1.618-.355,2.9,2.9,0,0,0-.565.017c-.141.02-.224.039-.224.039a1.131,1.131,0,0,1,.125-.2,1.777,1.777,0,0,1,.5-.442,2.663,2.663,0,0,1,2.154-.224,2.884,2.884,0,0,1,1.047.6,2.8,2.8,0,0,1,.6.763,2.452,2.452,0,0,1,.231.6c.031.15.04.232.04.232" transform="translate(-37.457 -11.042)" fill="#161818"/>
            <path id="Trazado_608440" data-name="Trazado 608440" d="M108.954,24.443l-.223.022c-.14.013-.337.038-.563.075a8.829,8.829,0,0,0-1.553.419,6.679,6.679,0,0,0-1.419.69,4.7,4.7,0,0,0-.447.337l-.168.147a1.544,1.544,0,0,1,0-.229,2.079,2.079,0,0,1,.128-.618,2.436,2.436,0,0,1,.5-.815,2.558,2.558,0,0,1,.991-.662,2.656,2.656,0,0,1,2.076.129,2.423,2.423,0,0,1,.519.346,1.845,1.845,0,0,1,.163.16" transform="translate(-44.724 -10.117)" fill="#161818"/>
            <path id="Trazado_608441" data-name="Trazado 608441" d="M98.547,27.186a3.892,3.892,0,0,0-3.8,3.057,2.284,2.284,0,0,0-2.283.033,3.884,3.884,0,1,0,.223,1.3,3.845,3.845,0,0,0-.066-.708,2.3,2.3,0,0,1,.925-.3,1.7,1.7,0,0,1,1.083.315l.033.021c0,.056,0,.112,0,.168a3.886,3.886,0,1,0,3.886-3.886m-9.742,7.749a3.363,3.363,0,1,1,3.363-3.363,3.367,3.367,0,0,1-3.363,3.363m9.742-.5a3.363,3.363,0,1,1,3.363-3.363,3.367,3.367,0,0,1-3.363,3.363" transform="translate(-36.318 -11.627)" fill="#161818"/>
            <path id="Trazado_608442" data-name="Trazado 608442" d="M105.622,14.462a10.19,10.19,0,0,1-3.127,6.458,14.39,14.39,0,0,0-.844-5.232,4.9,4.9,0,0,0-3.965-3.14q.443.518.888,1.035A22.144,22.144,0,0,1,90,13.029q.468.928.935,1.858a10.294,10.294,0,0,1-4.069-1.4,5.557,5.557,0,0,1-1.389-1.318,6.332,6.332,0,0,1-1.016-2.1,6.5,6.5,0,0,1-.234-1.956,5.266,5.266,0,0,1,1.342-3.431c2.794-3,5.272-3.077,7.327-2.8,3.849.521,11.058,4.645,12.277,8.333a10.293,10.293,0,0,1,.449,4.239" transform="translate(-36.02 -0.763)" fill="#161818"/>
            <path id="Trazado_608443" data-name="Trazado 608443" d="M85.143,11.319c-.706.383-1.239,1.522-1.641,3-.136.5-.257,1.043-.365,1.607a65.878,65.878,0,0,0-.856,9.71l-1.031-.8s-.539-1.4-1.115-3.157c-.8-2.444-1.682-5.577-1.286-6.571a11.07,11.07,0,0,1,3.038-3.232c.942-.759,1.733-1.307,1.733-1.307Z" transform="translate(-33.68 -4.52)" fill="#161818"/>
            <path id="Trazado_608444" data-name="Trazado 608444" d="M90.127,9.283l1.9,1.988a19.106,19.106,0,0,1-7.491-1.93q.349.921.7,1.843L83.5,10.566l-1.381-.49-.5-.177a21.917,21.917,0,0,1-.289,5.1,8.511,8.511,0,0,1-1.2,2.929c-.334-1.021-.684-2.16-.947-3.214a7.269,7.269,0,0,1-.339-3.357,6.452,6.452,0,0,1,1.517-1.914c.487-.464,1.024-.921,1.521-1.319.006-.174.019-.348.041-.519a5.143,5.143,0,0,1,1.3-2.912c2.794-3,5.272-3.077,7.327-2.8,3.661.5,10.357,4.25,12.053,7.788a4.5,4.5,0,0,1,.224.546,10.283,10.283,0,0,1,.449,4.239,17.552,17.552,0,0,0-13.154-5.18" transform="translate(-33.68 -0.764)" fill="#2c2c2c"/>
            <path id="Trazado_608445" data-name="Trazado 608445" d="M80.367,15.158a9.607,9.607,0,0,1-1.178,5.27,7.268,7.268,0,0,1-.339-3.357,6.451,6.451,0,0,1,1.517-1.913" transform="translate(-33.68 -6.483)" fill="#474747"/>
            <path id="Trazado_608446" data-name="Trazado 608446" d="M96.083,7.065q-4.771-.642-9.545-1.283l.973,1.3A16.625,16.625,0,0,1,84.3,7.6a5.143,5.143,0,0,1,1.3-2.912c2.794-3,5.272-3.077,7.327-2.8,3.661.5,10.357,4.249,12.053,7.788a31.021,31.021,0,0,0-10.9-4.614l2,2" transform="translate(-36.054 -0.764)" fill="#474747"/>
            <path id="Trazado_608447" data-name="Trazado 608447" d="M79.836,372.272s-5.854,2.672-7.254,2.25a13.5,13.5,0,0,1-4.486-2.5c-.67-.763,2.875-10.393,2.875-10.393l.032,0,6.967-.857c.436.718.988,6.833,1.483,9.445.229,1.206.382,2.063.382,2.063" transform="translate(-29.087 -154.29)" fill="#691205"/>
            <path id="Trazado_608448" data-name="Trazado 608448" d="M79.836,372.912s-5.854,2.672-7.254,2.25a13.5,13.5,0,0,1-4.486-2.5c-.67-.763,2.875-10.393,2.875-10.393l.032,0c.145.7-.27,3.622-.16,4.262a5.638,5.638,0,0,0,1.762,3.394,6.612,6.612,0,0,0,4.383,1.256,9.756,9.756,0,0,0,2.466-.324c.229,1.206.382,2.063.382,2.063" transform="translate(-29.087 -154.931)" fill="#4e0601"/>
            <path id="Trazado_608449" data-name="Trazado 608449" d="M116.514,358s-3.636,11.107-3.273,12.923l.363,1.815s19.971,1.453,22.331,0c0,0,.544-2.541-1.271-2.9s-5.446-.545-7.08-1.453-6.173-5.81-4.9-8.533Z" transform="translate(-48.42 -153.109)" fill="#691205"/>
            <path id="Trazado_608450" data-name="Trazado 608450" d="M134.665,374.105c-.988-.2-2.511-.342-3.959-.578a23.373,23.373,0,0,1-9.9.546,8.2,8.2,0,0,1-6.045-6.09c-.871,3.023-1.7,6.3-1.52,7.21l.363,1.815s19.97,1.453,22.33,0c0,0,.545-2.542-1.27-2.9" transform="translate(-48.42 -157.378)" fill="#4e0601"/>
            <path id="Trazado_608451" data-name="Trazado 608451" d="M106.986,211.641s-7.077,10.067-30.5,1.2c0,0-8.572-12.16-5.382-15.449s15.349-24.419,16.046-25.615,15.25-11.662,15.25-11.662l5.781,20.333,2.193,24.818Z" transform="translate(-30.106 -68.476)" fill="#d1d1d1"/>
            <path id="Trazado_608452" data-name="Trazado 608452" d="M107.811,146.26a60.269,60.269,0,0,1-24.557,0l.221-2.772,1.2-15.086,1-12.589L78.807,94.22l-2.99-20.69,4.13-6.142,4.242-2.712,7.625,2.712,2.94-1.9,5.743,2.425,1.533.647,4.884,29.453-.1,2.268-1.3,30.528,1.7,11.481Z" transform="translate(-32.425 -27.661)" fill="#df2b2b"/>
            <path id="Trazado_608453" data-name="Trazado 608453" d="M112.945,162.011c-8.071.441-17.885.918-23.747,1.2l1.2-15.086c3.638,3.2,8.45,6.452,10.148,3.131,2.864-5.6,6.977-40.466,6.977-40.466L112.541,120l-1.3,30.528Z" transform="translate(-38.148 -47.38)" fill="#be1b1b"/>
            <path id="Trazado_608454" data-name="Trazado 608454" d="M99.237,72.467l1.91,2.616,1.771,48.417,5.622,5.18,4.609-5.7-8.4-48.512.678-2.006-3.6-3.052Z" transform="translate(-42.441 -29.687)" fill="#171228"/>
            <path id="Trazado_608455" data-name="Trazado 608455" d="M103.584,67.914l-.738,7.437-7.056-4.08L90.982,76.73l-7.948-9.342,4.242-2.712L94.9,67.388l2.94-1.9Z" transform="translate(-35.512 -27.66)" fill="#be1b1b"/>
            <path id="Trazado_608456" data-name="Trazado 608456" d="M107.006,64.676l5.449,3.192-2.724,4.577-5.964-5.058Z" transform="translate(-44.379 -27.661)" fill="#df2b2b"/>
            <path id="Trazado_608457" data-name="Trazado 608457" d="M94.9,66.578l-4.834,5.691-7.032-5.691,4.041-3.8Z" transform="translate(-35.512 -26.85)" fill="#df2b2b"/>
            <path id="Trazado_608458" data-name="Trazado 608458" d="M105.58,290.03l-13.78.534s-2.591-26.911-3.588-31.3S92.5,231.361,92.5,231.361l.536-23.789s-6.815,28.772-6.217,31.364-6.578,51.628-6.578,51.628H68.079a41.171,41.171,0,0,1-.331-5.392c-.145-14.725,3.369-44.732,3.369-44.732l3.76-10.874,3.737-29.837,1.756-14.018c8.717,3.508,22.866.535,22.866.535l2.7,28.2,1.677,17.516c-1.68,5.948-2.037,28.617-2.078,43.809-.026,8.229.044,14.263.044,14.263" transform="translate(-28.972 -79.425)" fill="#006d93"/>
            <path id="Trazado_608459" data-name="Trazado 608459" d="M105.583,290.03l-13.78.534s-2.591-26.911-3.588-31.3S92.5,231.361,92.5,231.361l.536-23.789s-6.815,28.772-6.217,31.364-6.578,51.628-6.578,51.628H68.082a41.168,41.168,0,0,1-.331-5.392c6.15-5.825,16.517-21.243,16.109-58.783L78.617,199.73l1.756-14.018c8.717,3.508,22.866.535,22.866.535l2.7,28.2c-4.351,10.938-12.462,33.08-10.525,41.636,1.256,5.552,5.771,13.218,10.124,19.689-.026,8.229.044,14.263.044,14.263" transform="translate(-28.975 -79.425)" fill="#005e7c"/>
            <path id="Trazado_608460" data-name="Trazado 608460" d="M117.277,205.6c-.559.159-1.356.429-2.319.763-.481.165-1,.346-1.56.514-.278.087-.564.166-.861.235s-.592.163-.91.211a20.261,20.261,0,0,1-4.1.4c-.57,0-1.13-.025-1.675-.068.064-.348.134-.761.207-1.23.17-1.105.344-2.519.444-4.105a6.43,6.43,0,0,0,1.286-.389,6.962,6.962,0,0,0,1.9-1.192l.239-.221.117-.118.076-.08c.033-.035.066-.072.1-.11l.4-.467c.029-.02,0-.041,0-.062l-.027-.062-.055-.125-.111-.254-.114-.259-.029-.065-.013-.038-.026-.072-.106-.289c-.064-.2-.132-.4-.19-.6a26.765,26.765,0,0,1-.747-4.48c-.065-.6-.116-1.091-.159-1.431s-.07-.529-.07-.529-.053.184-.137.517-.2.816-.3,1.423a14.148,14.148,0,0,0-.205,2.165,9.358,9.358,0,0,0,.341,2.7c.066.236.15.468.235.693l.141.331.036.081.017.039.006.009.025.037.052.076a.082.082,0,0,1,0,.026l0,.009s0,0,0,.009l-.022.029-.086.114-.176.219a9.71,9.71,0,0,1-2.368,2.057c.029-.522.05-1.061.061-1.613a45.616,45.616,0,0,0-.311-6.04c-.183-1.543-.372-2.494-.372-2.494s-.15.957-.307,2.5-.328,3.665-.369,6.011.054,4.474.157,6.02c.031.466.063.877.093,1.226-.715-.068-1.405-.168-2.057-.295a21.014,21.014,0,0,1-3.318-.925c-.235-.083-.449-.183-.66-.266s-.412-.16-.589-.252l-.507-.24c-.157-.073-.3-.138-.426-.211-.5-.272-.792-.42-.792-.42s.2.243.6.675a4.567,4.567,0,0,0,.346.343l.428.394c.152.147.332.278.519.425s.385.306.6.453a13.892,13.892,0,0,0,3.342,1.684,14.089,14.089,0,0,0,4.56.773,13.525,13.525,0,0,0,4.57-.78c.341-.1.655-.261.966-.39a9.541,9.541,0,0,0,.877-.425c.551-.3,1.035-.6,1.47-.884.866-.571,1.534-1.061,2.007-1.391l.735-.516s-.315.067-.873.229" transform="translate(-41.538 -81.888)" fill="#143358"/>
            <path id="Trazado_608461" data-name="Trazado 608461" d="M124.938,269.071s-5.989,11.3-2.754,14.087c0,0,5.3-1.728,5.528-6.512a10.171,10.171,0,0,0-2.774-7.575" transform="translate(-51.845 -115.075)" fill="#047c9d"/>
            <path id="Trazado_608462" data-name="Trazado 608462" d="M78.337,275.855s-3.346,4.108-2.6,5.56,5.862,4.64,5.862,4.64,6.108-3.567,4.482-7.066-7.744-3.133-7.744-3.133" transform="translate(-32.344 -117.972)" fill="#047c9d"/>
            <path id="Trazado_608463" data-name="Trazado 608463" d="M186.518,94.93c.03-.116.058-.23.086-.345.044-.085.086-.168.13-.253.116-.225.238-.449.366-.665,0,0,0,0,0-.007a18.488,18.488,0,0,1,2.911-3.721,11.17,11.17,0,0,1,3.937-2.812c1.437-.331,6.967-3.167,7-2.672a2.28,2.28,0,0,1-1.26,1.994c-.956.452-4.51,2.236-4.577,3.24s8.152-.8,9.278-1.643c1-.751,6.193-2.866,6.6-2.469.051.05.025.139-.09.272C209.86,87.068,201.074,93,201.074,93s-4.24,1.331-7.777,2.62h0c-.364.134-.723.265-1.068.4-.152.057-.3.113-.445.17l-.514.2c-.688.273-1.289.529-1.745.754l-2.183-1.6Z" transform="translate(-79.769 -36.095)" fill="#ffa07f"/>
            <path id="Trazado_608464" data-name="Trazado 608464" d="M185.208,98.581l1.263-1.807,7.043,4-2.99,2.707Z" transform="translate(-79.209 -41.388)" fill="#be1b1b"/>
            <path id="Trazado_608465" data-name="Trazado 608465" d="M165.8,93.734s-9.967,17.225-15.68,19.153c-3.568,1.2-13.25-4.45-20.019-8.866l-.543-.354-.574-.379v0c-3.5-2.317-5.974-4.131-5.974-4.131l-.931-17.588,6.712-4.577,18.539,22.285L157.7,88.133l5.759,3.979Z" transform="translate(-52.211 -32.926)" fill="#fff"/>
            <path id="Trazado_608466" data-name="Trazado 608466" d="M171.391,105.035s-9.967,17.225-15.68,19.153c-3.568,1.2-13.25-4.45-20.019-8.866l-.543-.354.161-2.464s10.814,7.829,15.066,7.589S161.8,108.468,161.8,108.468s2.591,3.748,4.386,1a32.114,32.114,0,0,0,2.855-6.055Z" transform="translate(-57.8 -44.227)" fill="#eaeaea"/>
            <path id="Trazado_608467" data-name="Trazado 608467" d="M135.263,115.472c-.383-.249-.755-.5-1.117-.733v0c.028-.141,1.439-7.253.654-10.971.066.189,1.455,4.358.462,11.706" transform="translate(-57.371 -44.378)" fill="#d1d1d1"/>
            <path id="Trazado_608468" data-name="Trazado 608468" d="M163.316,119.43s.783,7.462-3.039,8.072c0,0,5.631-.406,3.039-8.072" transform="translate(-68.547 -51.077)" fill="#d1d1d1"/>
            <path id="Trazado_608469" data-name="Trazado 608469" d="M136.794,173.129a33.5,33.5,0,0,1-16.346,7.228l-.462-15.618-.933-31.543-2.966-46.433,1.952-6.209s-.381-8.131-.315-10.3l8.506,3.854s.419,30.651.026,40.919c-.232,6.083,3.107,23.6,6.087,37.824,2.336,11.151,4.452,20.276,4.452,20.276" transform="translate(-49.648 -30.046)" fill="#fff"/>
            <path id="Trazado_608470" data-name="Trazado 608470" d="M127.712,180.229l5.548,6.191-1.849.755-3.7-5.613Z" transform="translate(-54.62 -77.079)" fill="#b0b0b0"/>
            <path id="Trazado_608471" data-name="Trazado 608471" d="M139.708,234.851a33.5,33.5,0,0,1-16.346,7.228l-.462-15.618c1.794.8,4.216,1.283,6.291-.4,2.173-1.765,4.473-7.136,6.066-11.481,2.336,11.151,4.452,20.276,4.452,20.276" transform="translate(-52.561 -91.769)" fill="#eaeaea"/>
            <path id="Trazado_608472" data-name="Trazado 608472" d="M83.051,181.623s-23.323-2.711-28.306-8.131c0,0,1.288-3.377,3.163-8.427,5.239-14.108,15.06-41.274,14.179-44.335-1.2-4.156-10.764-44.089-10.764-44.089l9.612-7.226L74,76.52,78.3,88.1l.767,10.95s4.374,37.741,4.794,64a116.936,116.936,0,0,1-.808,18.573" transform="translate(-23.413 -29.687)" fill="#fff"/>
            <path id="Trazado_608473" data-name="Trazado 608473" d="M84.938,182.327l-7.819,8.335.749,1.689,9.484-10.334Z" transform="translate(-32.982 -77.845)" fill="#b0b0b0"/>
            <path id="Trazado_608474" data-name="Trazado 608474" d="M83.051,249.281s-23.323-2.71-28.306-8.131c0,0,1.288-3.377,3.163-8.427,2.709,2.255,6.086,4.125,8.9,2.766a17.679,17.679,0,0,0,7.987-7.875s5.047,6.422,9.066,3.094a116.935,116.935,0,0,1-.808,18.573" transform="translate(-23.413 -97.345)" fill="#eaeaea"/>
            <path id="Trazado_608475" data-name="Trazado 608475" d="M91.972,116.77a.815.815,0,1,0,0,1.627.815.815,0,1,0,0-1.627" transform="translate(-38.963 -49.94)" fill="#d1d1d1"/>
            <path id="Trazado_608476" data-name="Trazado 608476" d="M94.758,143.132a.815.815,0,1,0,0,1.626.815.815,0,1,0,0-1.626" transform="translate(-40.155 -61.214)" fill="#d1d1d1"/>
            <path id="Trazado_608477" data-name="Trazado 608477" d="M98.067,174.861a.815.815,0,1,0,0,1.627.815.815,0,1,0,0-1.627" transform="translate(-41.57 -74.784)" fill="#d1d1d1"/>
            <path id="Trazado_608478" data-name="Trazado 608478" d="M98.938,201.382a.815.815,0,1,0,0,1.627.815.815,0,1,0,0-1.627" transform="translate(-41.943 -86.126)" fill="#d1d1d1"/>
            <path id="Trazado_608479" data-name="Trazado 608479" d="M98.59,227.27a.815.815,0,1,0,0,1.626.815.815,0,1,0,0-1.626" transform="translate(-41.794 -97.198)" fill="#d1d1d1"/>
            <path id="Trazado_608480" data-name="Trazado 608480" d="M55.212,122.363l2.358,2.691-5.814,6.866-18.6-15.9,3.237-6.668L49.762,81.808l6.171-4.82,2.6,4.7.532,14.455L56.86,99.7v0l-.743,1.2L47.95,114.076Z" transform="translate(-14.178 -32.926)" fill="#fff"/>
            <path id="Trazado_608481" data-name="Trazado 608481" d="M72.788,112.387v0l-.743,1.2-1.651-6.929Z" transform="translate(-30.106 -45.615)" fill="#d1d1d1"/>
            <path id="Trazado_608482" data-name="Trazado 608482" d="M57.57,149.236,51.755,156.1l-18.6-15.9,3.237-6.668c-.006,3.023.59,5.8,2.392,7.334,3.642,3.093,11.64,4.859,16.432,5.677Z" transform="translate(-14.178 -57.109)" fill="#eaeaea"/>
            <path id="Trazado_608483" data-name="Trazado 608483" d="M50.563,141.812s-4.537-.331-7,.873c0,0,2.2-2.379,7-.873" transform="translate(-18.633 -60.436)" fill="#d1d1d1"/>
            <path id="Trazado_608484" data-name="Trazado 608484" d="M77.408,161.115s3.231-2.674,4.124-1.817S80,162.535,80,162.535Z" transform="translate(-33.106 -68.055)" fill="#ff7d6f"/>
            <path id="Trazado_608485" data-name="Trazado 608485" d="M83.418,164.664c-.3.9-6.267-1.854-6.267-1.854l-1.3,1.281,2.386,1.386,2.093,3.433s-.436.649-1.018,1.411c-.072.1-.148.192-.223.289a15.728,15.728,0,0,1-1.115,1.3c-.034.038-.072.074-.105.11a4.953,4.953,0,0,1-.536.463,1.09,1.09,0,0,1-.49.225l-2.173-2.258s-4.306.361-4.9.09a9.691,9.691,0,0,1-1.545-2.165c-.323-.532-.658-1.1-.963-1.627l1.25-1.476,2.831-3.343c.409-.121.953-.271,1.565-.417v0c.3-.072.618-.143.943-.209a13.2,13.2,0,0,1,3.477-.329,3.223,3.223,0,0,1,1.114.262c2.093.994,5.282,2.531,4.983,3.433" transform="translate(-28.764 -68.833)" fill="#ffa07f"/>
            <path id="Trazado_608486" data-name="Trazado 608486" d="M83.51,177.5c-.034.038-.072.074-.105.11-.078-.105-.178-.244-.3-.41-.277-.376-.66-.879-1.085-1.413a10.374,10.374,0,0,0-1.2-1.29l-.243-.206c-.078-.054-.144-.1-.2-.141l-.173-.129s.078.013.219.044c.07.014.158.034.258.06s.2.074.325.123a4.1,4.1,0,0,1,1.551,1.184,4.884,4.884,0,0,1,.851,1.644c.048.166.08.309.1.425" transform="translate(-34.302 -74.423)" fill="#cd4a57"/>
            <path id="Trazado_608487" data-name="Trazado 608487" d="M85.948,175.121c-.072.1-.148.192-.223.289-.018-.02-.034-.044-.05-.065-.277-.375-.66-.878-1.085-1.411a10.337,10.337,0,0,0-1.2-1.292l-.241-.2c-.078-.056-.145-.1-.2-.143l-.173-.126s.076.013.217.042c.07.016.158.034.258.061s.2.074.325.121a4.091,4.091,0,0,1,1.551,1.185,4.826,4.826,0,0,1,.821,1.543" transform="translate(-35.402 -73.632)" fill="#cd4a57"/>
            <path id="Trazado_608488" data-name="Trazado 608488" d="M77.331,175.71a1.093,1.093,0,0,1-.49.226l-2.173-2.259s-4.306.362-4.9.09a9.674,9.674,0,0,1-1.545-2.165c-.323-.531-.658-1.1-.963-1.627l1.25-1.476c.261.5.536,1.008.817,1.485.775,1.328,1.573,2.425,2.123,2.517,1.455.24,3.833.452,3.833.452Z" transform="translate(-28.764 -72.063)" fill="#ff7d6f"/>
            <path id="Trazado_608489" data-name="Trazado 608489" d="M72.581,161.92v0L69,167.167l-1.1,1.617-.366.539-1.025-1.659.429-.506,1.25-1.477,2.831-3.343.363-.428Z" transform="translate(-28.443 -69.245)" fill="#be1b1b"/>
            <path id="Trazado_608490" data-name="Trazado 608490" d="M88.484,103.951a3.582,3.582,0,0,0-3.574-1.235A50.291,50.291,0,0,1,81.964,92a42.207,42.207,0,0,1,.2-11.136c.072-.519-.7-.538-.8-.046-1.384,7.14-.676,15.717,2.721,22.253a3.8,3.8,0,0,0-1.35,1.442c-1.584,2.865-.456,6.526.961,9.205.619,1.17,3.264,6.674,5.107,3.821.357-.552-.421-1.206-.814-.65-.729,1.031-2.325-2-2.48-2.26a21.469,21.469,0,0,1-1.574-3.091c-.767-1.961-1.65-6.087.731-7.36,2.571-1.374,4.259,2.531,5.218,4.343a42.556,42.556,0,0,1,2.456,5.644l-.628.286c-.751.342-.3,1.549.452,1.2l1.206-.552a.657.657,0,0,0,.376-.826c-1.2-3.464-2.778-7.555-5.267-10.322" transform="translate(-34.513 -34.41)" fill="#090909"/>
            <path id="Trazado_608491" data-name="Trazado 608491" d="M126.173,102.019a5.206,5.206,0,0,0-4.436-3.538,25.873,25.873,0,0,0-3.3-17.79c-.282-.473-1-.014-.72.458a24.846,24.846,0,0,1,2.9,17.339,5.209,5.209,0,1,0,5.556,3.53" transform="translate(-49.619 -34.425)" fill="#090909"/>
            <path id="Trazado_608492" data-name="Trazado 608492" d="M125.671,118.087a2.718,2.718,0,1,1-3.436-1.722,2.717,2.717,0,0,1,3.436,1.722" transform="translate(-51.481 -49.707)" fill="#d1d1d1"/>
            <path id="Trazado_608493" data-name="Trazado 608493" d="M123.617,122.061a1.5,1.5,0,0,0,1.174-.464c-.837-.209-1.716-.757-1.815-1.613-.077-.667.154-1.476-.773-1.449-.647.02-.878.561-.911,1.109a2.441,2.441,0,0,0,2.324,2.418" transform="translate(-51.873 -50.694)" fill="#fff"/>
            <path id="Trazado_608494" data-name="Trazado 608494" d="M117.723,70.254l4.8,1.325s-3.006,10.971-6.437,15.183Z" transform="translate(-49.647 -30.046)" fill="#d1d1d1"/>
            <path id="Trazado_608495" data-name="Trazado 608495" d="M76.881,69.415,68.645,73.75,84.241,88.1S83.256,76.4,76.881,69.415" transform="translate(-29.358 -29.687)" fill="#d1d1d1"/>
          </g>
        </g>
      </g>
    </g>
  </g>
</svg>
