<svg id="Grupo_1080445" data-name="Grupo 1080445" xmlns="http://www.w3.org/2000/svg" xmlns:xlink="http://www.w3.org/1999/xlink" width="368.015" height="173.537" viewBox="0 0 368.015 173.537">
  <defs>
    <clipPath id="clip-path">
      <rect id="Rectángulo_379278" data-name="Rectángulo 379278" width="368.015" height="173.537" fill="none"/>
    </clipPath>
    <clipPath id="clip-path-2">
      <rect id="Rectángulo_379277" data-name="Rectángulo 379277" width="368.015" height="173.538" fill="none"/>
    </clipPath>
    <clipPath id="clip-path-3">
      <rect id="Rectángulo_379266" data-name="Rectángulo 379266" width="177.045" height="93.055" fill="none"/>
    </clipPath>
    <clipPath id="clip-path-4">
      <rect id="Rectángulo_379250" data-name="Rectángulo 379250" width="38.556" height="9.42" fill="none"/>
    </clipPath>
    <clipPath id="clip-path-5">
      <rect id="Rectángulo_379263" data-name="Rectángulo 379263" width="38.556" height="9.421" fill="none"/>
    </clipPath>
    <clipPath id="clip-path-6">
      <rect id="Rectángulo_379267" data-name="Rectángulo 379267" width="2.868" height="14.832" fill="none"/>
    </clipPath>
    <clipPath id="clip-path-7">
      <rect id="Rectángulo_379269" data-name="Rectángulo 379269" width="9.167" height="6.835" fill="none"/>
    </clipPath>
    <clipPath id="clip-path-8">
      <rect id="Rectángulo_379270" data-name="Rectángulo 379270" width="3.124" height="4.65" fill="none"/>
    </clipPath>
  </defs>
  <g id="Grupo_1080444" data-name="Grupo 1080444" clip-path="url(#clip-path)">
    <g id="Grupo_1080443" data-name="Grupo 1080443" transform="translate(0 -0.001)">
      <g id="Grupo_1080442" data-name="Grupo 1080442" clip-path="url(#clip-path-2)">
        <path id="Trazado_831687" data-name="Trazado 831687" d="M438.123,126.773c-.324,16.42-4.953,31.413-12.157,46.179l-66.53.011c-96.926.014-265.535.037-265.547.028l-.2-.157c-7.9-6.136-10.781-15.1-9.04-25.081a.005.005,0,0,1,0,0c1.881-10.868,9.153-22.67,20.431-32.646,16.126-14.264,29.013-17.99,20.549-47.92a36.99,36.99,0,0,1,.55-22.829c7.51-21.387,33.106-34.031,39.9-36.856,22.7-9.448,54.711-9.018,78.843-3.955,38.778,8.137,52.4,29.91,63.993,41.795,4.3,4.4,8.308,7.385,13.22,7.707,8.022.519,19.46-3.814,33.35-5.091a66.707,66.707,0,0,1,34.754,5.554c13.883,6.305,27.518,18.56,35.255,29.8,8.952,13,12.932,27.75,12.63,43.469" transform="translate(-72.138 0.004)" fill="#fff"/>
        <g id="Grupo_1080432" data-name="Grupo 1080432" transform="translate(165.992 79.995)" opacity="0.5">
          <g id="Grupo_1080431" data-name="Grupo 1080431">
            <g id="Grupo_1080430" data-name="Grupo 1080430" clip-path="url(#clip-path-3)">
              <rect id="Rectángulo_379212" data-name="Rectángulo 379212" width="74.25" height="91.454" transform="translate(101.417 1.288)" fill="#98baf4"/>
              <rect id="Rectángulo_379213" data-name="Rectángulo 379213" width="66.845" height="9.962" transform="translate(108.822 5.76)" fill="#edf4ff"/>
              <rect id="Rectángulo_379214" data-name="Rectángulo 379214" width="83.857" height="70.89" transform="translate(53.78 22.165)" fill="#ebf3ff"/>
              <rect id="Rectángulo_379215" data-name="Rectángulo 379215" width="87.243" height="2.576" transform="translate(51.706 19.589)" fill="#fff"/>
              <rect id="Rectángulo_379216" data-name="Rectángulo 379216" width="77.126" height="2.576" transform="translate(99.919 0)" fill="#fff"/>
              <rect id="Rectángulo_379217" data-name="Rectángulo 379217" width="54.256" height="13.176" transform="translate(53.78 28.573)" fill="#afcdfb"/>
              <rect id="Rectángulo_379218" data-name="Rectángulo 379218" width="50.614" height="28.073" transform="translate(3.166 30.564)" fill="#afcdfb"/>
              <rect id="Rectángulo_379219" data-name="Rectángulo 379219" width="50.614" height="28.073" transform="translate(3.166 64.477)" fill="#afcdfb"/>
              <rect id="Rectángulo_379220" data-name="Rectángulo 379220" width="43.599" height="5.841" transform="translate(10.181 58.636)" fill="#7fa8e5"/>
              <path id="Trazado_831688" data-name="Trazado 831688" d="M1650.011,790.208h1.008v1.814h1.859v-1.814h1.008v4.583h-1.008v-1.84h-1.859v1.84h-1.008Z" transform="translate(-1580.335 -757.339)" fill="#fff"/>
              <path id="Trazado_831689" data-name="Trazado 831689" d="M1683.429,792.028a2.437,2.437,0,1,1,2.429,2.37,2.37,2.37,0,0,1-2.429-2.37m3.817,0a1.392,1.392,0,0,0-1.388-1.44,1.374,1.374,0,0,0-1.375,1.44,1.392,1.392,0,0,0,1.388,1.441,1.374,1.374,0,0,0,1.375-1.441" transform="translate(-1608.98 -756.867)" fill="#fff"/>
              <path id="Trazado_831690" data-name="Trazado 831690" d="M1721.386,793.731l.6-.714a2.1,2.1,0,0,0,1.368.556c.412,0,.661-.164.661-.445,0-.255-.157-.386-.923-.583-.923-.236-1.519-.491-1.519-1.414a1.433,1.433,0,0,1,1.6-1.381,2.653,2.653,0,0,1,1.7.583l-.524.759a2.152,2.152,0,0,0-1.192-.452c-.386,0-.589.177-.589.413,0,.3.2.4.989.6.93.242,1.453.576,1.453,1.388,0,.91-.694,1.421-1.683,1.421a2.917,2.917,0,0,1-1.945-.733" transform="translate(-1641.516 -756.946)" fill="#fff"/>
              <path id="Trazado_831691" data-name="Trazado 831691" d="M1752.927,790.208h1.872a1.572,1.572,0,0,1,1.755,1.6,1.638,1.638,0,0,1-1.853,1.611h-.766v1.375h-1.008Zm1.807,2.311a.712.712,0,0,0,.8-.707c0-.452-.314-.694-.818-.694h-.779v1.4Z" transform="translate(-1668.552 -757.338)" fill="#fff"/>
              <rect id="Rectángulo_379221" data-name="Rectángulo 379221" width="1.008" height="4.583" transform="translate(88.795 32.87)" fill="#fff"/>
              <path id="Trazado_831692" data-name="Trazado 831692" d="M1798.054,791.138h-1.394v-.93h3.8v.93h-1.394v3.653h-1.009Z" transform="translate(-1706.038 -757.338)" fill="#fff"/>
              <path id="Trazado_831693" data-name="Trazado 831693" d="M1823.744,789.979h.93l1.964,4.616h-1.054l-.419-1.028h-1.938l-.419,1.028h-1.028Zm1.061,2.7-.609-1.486-.609,1.486Z" transform="translate(-1727.571 -757.142)" fill="#fff"/>
              <path id="Trazado_831694" data-name="Trazado 831694" d="M1860.746,790.208h1.008v3.666h2.285v.917h-3.293Z" transform="translate(-1760.971 -757.339)" fill="#fff"/>
              <rect id="Rectángulo_379222" data-name="Rectángulo 379222" width="33.816" height="22.317" transform="translate(141.851 59.154)" fill="#afcdfb"/>
              <rect id="Rectángulo_379223" data-name="Rectángulo 379223" width="33.816" height="22.317" transform="translate(141.851 26.294)" fill="#afcdfb"/>
              <rect id="Rectángulo_379224" data-name="Rectángulo 379224" width="66.141" height="8.792" transform="translate(109.526 6.291)" fill="#afcdfb"/>
              <path id="Trazado_831695" data-name="Trazado 831695" d="M1538.717,716.147l83.857,2.529v-3.413h-83.857Z" transform="translate(-1484.937 -693.097)" fill="#dfebfd"/>
              <rect id="Rectángulo_379225" data-name="Rectángulo 379225" width="53.78" height="2.779" transform="translate(0 30.396)" fill="#fff"/>
              <rect id="Rectángulo_379226" data-name="Rectángulo 379226" width="58.924" height="30.782" transform="translate(66.83 61.543)" fill="#98baf4"/>
              <rect id="Rectángulo_379227" data-name="Rectángulo 379227" width="55.237" height="28.733" transform="translate(68.811 63.695)" fill="#fff"/>
              <rect id="Rectángulo_379228" data-name="Rectángulo 379228" width="51.166" height="6.602" transform="translate(70.902 65.513)" fill="#afcdfb"/>
              <rect id="Rectángulo_379229" data-name="Rectángulo 379229" width="14.962" height="18.396" transform="translate(70.902 73.908)" fill="#afcdfb"/>
              <rect id="Rectángulo_379230" data-name="Rectángulo 379230" width="18.395" height="18.396" transform="translate(87.288 73.908)" fill="#afcdfb"/>
              <rect id="Rectángulo_379231" data-name="Rectángulo 379231" width="15.12" height="18.396" transform="translate(106.948 73.908)" fill="#afcdfb"/>
              <path id="Trazado_831696" data-name="Trazado 831696" d="M1794.516,1077.535h12.368v6.808l-2.2,11.588h-13.663Z" transform="translate(-1701.201 -1003.627)" fill="#cce1ff"/>
              <rect id="Rectángulo_379232" data-name="Rectángulo 379232" width="13.762" height="14.916" transform="translate(89.699 77.409)" fill="#fff"/>
              <rect id="Rectángulo_379233" data-name="Rectángulo 379233" width="12.45" height="14.242" transform="translate(90.355 78.083)" fill="#98baf4"/>
              <rect id="Rectángulo_379234" data-name="Rectángulo 379234" width="0.464" height="14.242" transform="translate(96.348 78.083)" fill="#fff"/>
              <path id="Trazado_831697" data-name="Trazado 831697" d="M1828.988,1154.857a.294.294,0,1,1,.294.294.294.294,0,0,1-.294-.294" transform="translate(-1733.749 -1069.653)" fill="#fff"/>
              <path id="Trazado_831698" data-name="Trazado 831698" d="M1843.652,1154.857a.294.294,0,1,1,.294.294.294.294,0,0,1-.294-.294" transform="translate(-1746.319 -1069.653)" fill="#fff"/>
              <path id="Trazado_831699" data-name="Trazado 831699" d="M1677.409,1077.535h7.575l-2.418,18.4h-7.575Z" transform="translate(-1601.747 -1003.627)" fill="#cce1ff"/>
              <path id="Trazado_831700" data-name="Trazado 831700" d="M1702.011,1018.756l-.868,6.6h-7.575l.868-6.6Z" transform="translate(-1617.671 -953.243)" fill="#cce1ff"/>
              <path id="Trazado_831701" data-name="Trazado 831701" d="M1921.513,1077.535h7.575l-2.418,18.4h-7.575Z" transform="translate(-1810.986 -1003.627)" fill="#cce1ff"/>
              <path id="Trazado_831702" data-name="Trazado 831702" d="M1946.116,1018.756l-.868,6.6h-7.575l.867-6.6Z" transform="translate(-1826.911 -953.243)" fill="#cce1ff"/>
              <path id="Trazado_831703" data-name="Trazado 831703" d="M1832.825,1018.756l-1.256,6.6h-13.663l1.256-6.6Z" transform="translate(-1724.25 -953.243)" fill="#cce1ff"/>
              <path id="Trazado_831704" data-name="Trazado 831704" d="M1911.052,1087.026h.028l-.028.147Z" transform="translate(-1804.092 -1011.762)" fill="#cce1ff"/>
              <path id="Trazado_831705" data-name="Trazado 831705" d="M2198.851,766.489h-11.189l4.9-22.317h11.189Z" transform="translate(-2041.195 -717.878)" fill="#bdd7fd"/>
              <path id="Trazado_831706" data-name="Trazado 831706" d="M2268.261,996.555h-11.189l4.9-22.316h11.188Z" transform="translate(-2100.691 -915.084)" fill="#cce1ff"/>
              <path id="Trazado_831707" data-name="Trazado 831707" d="M2165.148,974.237l-4.9,22.317h-4.911V974.237Z" transform="translate(-2013.49 -915.082)" fill="#cce1ff"/>
              <path id="Trazado_831708" data-name="Trazado 831708" d="M2318.283,744.17v22.317h-12.3l5.463-22.317Z" transform="translate(-2142.617 -717.876)" fill="#cce1ff"/>
              <rect id="Rectángulo_379235" data-name="Rectángulo 379235" width="0.932" height="8.792" transform="translate(125.722 6.291)" fill="#edf4ff"/>
              <rect id="Rectángulo_379236" data-name="Rectángulo 379236" width="0.932" height="8.792" transform="translate(144.545 6.291)" fill="#edf4ff"/>
              <rect id="Rectángulo_379237" data-name="Rectángulo 379237" width="0.932" height="8.792" transform="translate(162.901 6.291)" fill="#edf4ff"/>
              <g id="Grupo_1080426" data-name="Grupo 1080426" transform="translate(8.758 40.354)" opacity="0.5">
                <g id="Grupo_1080425" data-name="Grupo 1080425">
                  <g id="Grupo_1080424" data-name="Grupo 1080424" clip-path="url(#clip-path-4)">
                    <rect id="Rectángulo_379238" data-name="Rectángulo 379238" width="5.607" height="8.85" transform="translate(0.338 0.285)" fill="#98baf4"/>
                    <path id="Trazado_831709" data-name="Trazado 831709" d="M1229.673,852.031H1223.5V842.61h6.177Zm-5.607-.57h5.037v-8.28h-5.037Z" transform="translate(-1223.497 -842.61)" fill="#fff"/>
                    <rect id="Rectángulo_379239" data-name="Rectángulo 379239" width="5.179" height="0.428" transform="translate(0.498 3.245)" fill="#fff"/>
                    <rect id="Rectángulo_379240" data-name="Rectángulo 379240" width="5.179" height="0.428" transform="translate(0.498 6.19)" fill="#fff"/>
                    <rect id="Rectángulo_379241" data-name="Rectángulo 379241" width="0.428" height="8.892" transform="translate(2.874 0.244)" fill="#fff"/>
                    <rect id="Rectángulo_379242" data-name="Rectángulo 379242" width="5.607" height="8.85" transform="translate(16.528 0.285)" fill="#98baf4"/>
                    <path id="Trazado_831710" data-name="Trazado 831710" d="M1343.024,852.031h-6.177V842.61h6.177Zm-5.607-.57h5.037v-8.28h-5.037Z" transform="translate(-1320.658 -842.61)" fill="#fff"/>
                    <rect id="Rectángulo_379243" data-name="Rectángulo 379243" width="5.179" height="0.428" transform="translate(16.688 3.245)" fill="#fff"/>
                    <rect id="Rectángulo_379244" data-name="Rectángulo 379244" width="5.179" height="0.428" transform="translate(16.688 6.19)" fill="#fff"/>
                    <rect id="Rectángulo_379245" data-name="Rectángulo 379245" width="0.427" height="8.892" transform="translate(19.064 0.244)" fill="#fff"/>
                    <rect id="Rectángulo_379246" data-name="Rectángulo 379246" width="5.607" height="8.85" transform="translate(32.718 0.285)" fill="#98baf4"/>
                    <path id="Trazado_831711" data-name="Trazado 831711" d="M1456.376,852.031H1450.2V842.61h6.177Zm-5.607-.57h5.037v-8.28h-5.037Z" transform="translate(-1417.82 -842.61)" fill="#fff"/>
                    <rect id="Rectángulo_379247" data-name="Rectángulo 379247" width="5.179" height="0.428" transform="translate(32.878 3.245)" fill="#fff"/>
                    <rect id="Rectángulo_379248" data-name="Rectángulo 379248" width="5.179" height="0.428" transform="translate(32.878 6.19)" fill="#fff"/>
                    <rect id="Rectángulo_379249" data-name="Rectángulo 379249" width="0.428" height="8.892" transform="translate(35.254 0.244)" fill="#fff"/>
                  </g>
                </g>
              </g>
              <g id="Grupo_1080429" data-name="Grupo 1080429" transform="translate(8.758 70.7)" opacity="0.5">
                <g id="Grupo_1080428" data-name="Grupo 1080428">
                  <g id="Grupo_1080427" data-name="Grupo 1080427" clip-path="url(#clip-path-5)">
                    <rect id="Rectángulo_379251" data-name="Rectángulo 379251" width="5.607" height="8.85" transform="translate(0.338 0.285)" fill="#98baf4"/>
                    <path id="Trazado_831712" data-name="Trazado 831712" d="M1229.673,1064.494H1223.5v-9.42h6.177Zm-5.607-.57h5.037v-8.28h-5.037Z" transform="translate(-1223.497 -1055.074)" fill="#fff"/>
                    <rect id="Rectángulo_379252" data-name="Rectángulo 379252" width="5.179" height="0.427" transform="translate(0.498 3.245)" fill="#fff"/>
                    <rect id="Rectángulo_379253" data-name="Rectángulo 379253" width="5.179" height="0.428" transform="translate(0.498 6.19)" fill="#fff"/>
                    <rect id="Rectángulo_379254" data-name="Rectángulo 379254" width="0.428" height="8.892" transform="translate(2.874 0.244)" fill="#fff"/>
                    <rect id="Rectángulo_379255" data-name="Rectángulo 379255" width="5.607" height="8.85" transform="translate(16.528 0.285)" fill="#98baf4"/>
                    <path id="Trazado_831713" data-name="Trazado 831713" d="M1343.024,1064.494h-6.177v-9.42h6.177Zm-5.607-.57h5.037v-8.28h-5.037Z" transform="translate(-1320.658 -1055.074)" fill="#fff"/>
                    <rect id="Rectángulo_379256" data-name="Rectángulo 379256" width="5.179" height="0.427" transform="translate(16.688 3.245)" fill="#fff"/>
                    <rect id="Rectángulo_379257" data-name="Rectángulo 379257" width="5.179" height="0.428" transform="translate(16.688 6.19)" fill="#fff"/>
                    <rect id="Rectángulo_379258" data-name="Rectángulo 379258" width="0.427" height="8.892" transform="translate(19.064 0.244)" fill="#fff"/>
                    <rect id="Rectángulo_379259" data-name="Rectángulo 379259" width="5.607" height="8.85" transform="translate(32.718 0.285)" fill="#98baf4"/>
                    <path id="Trazado_831714" data-name="Trazado 831714" d="M1456.376,1064.494H1450.2v-9.42h6.177Zm-5.607-.57h5.037v-8.28h-5.037Z" transform="translate(-1417.82 -1055.074)" fill="#fff"/>
                    <rect id="Rectángulo_379260" data-name="Rectángulo 379260" width="5.179" height="0.427" transform="translate(32.878 3.245)" fill="#fff"/>
                    <rect id="Rectángulo_379261" data-name="Rectángulo 379261" width="5.179" height="0.428" transform="translate(32.878 6.19)" fill="#fff"/>
                    <rect id="Rectángulo_379262" data-name="Rectángulo 379262" width="0.428" height="8.892" transform="translate(35.254 0.244)" fill="#fff"/>
                  </g>
                </g>
              </g>
              <rect id="Rectángulo_379264" data-name="Rectángulo 379264" width="87.631" height="3.084" transform="translate(52.477 52.232)" fill="#d4e6ff"/>
              <rect id="Rectángulo_379265" data-name="Rectángulo 379265" width="65.469" height="1.368" transform="translate(64.328 91.687)" fill="#7fa8e5"/>
              <path id="Trazado_831715" data-name="Trazado 831715" d="M1600.964,1173.931a3.75,3.75,0,0,1,2.9-4.035c3.263-.816,4.544-3.729,8.333-1.282s2.589,5.317,2.589,5.317Z" transform="translate(-1538.283 -1080.876)" fill="#acd29a"/>
            </g>
          </g>
        </g>
        <path id="Trazado_831716" data-name="Trazado 831716" d="M1030.7,850.056s1.043,3.664.8,4.58-1.346,2.626-1.834,2.565,0-5.863,0-5.863Z" transform="translate(-882.407 -728.644)" fill="#ffb27d"/>
        <path id="Trazado_831717" data-name="Trazado 831717" d="M883.9,515.489c-.38-.733,8.288-3.371,8.425,3.86,0,0,16.237-.4,8.484-9.45-2.684-3.133-2.408-5.724-2.327-8.135s-1.672-9.421-7.682-8.715a4.474,4.474,0,0,0-3.538.378c-4.467,2.318-14.474,24.728-3.362,22.061" transform="translate(-753.319 -422.457)" fill="#163560"/>
        <path id="Trazado_831718" data-name="Trazado 831718" d="M1008.995,648.433s-.092.44-1,.661a6.278,6.278,0,0,1-1.861.1c-.179-.013-.372-.029-.575-.053-.387-.042-.815-.106-1.292-.2l.335-19.88-1.4-15.514s2.988,1.413,4.454,5.993c1.125,3.518,1.314,18.667,1.341,25.51.009,2.069,0,3.377,0,3.377" transform="translate(-859.913 -525.921)" fill="#aec3ff"/>
        <g id="Grupo_1080435" data-name="Grupo 1080435" transform="translate(146.216 108.466)" opacity="0.3">
          <g id="Grupo_1080434" data-name="Grupo 1080434">
            <g id="Grupo_1080433" data-name="Grupo 1080433" clip-path="url(#clip-path-6)">
              <path id="Trazado_831719" data-name="Trazado 831719" d="M1026.586,773.456s-.092.44-1,.661a6.279,6.279,0,0,1-1.862.1l.269-14.811s.222,8.087,2.594,10.67c.009,2.069,0,3.377,0,3.377" transform="translate(-1023.721 -759.41)" fill="#8c9df4"/>
            </g>
          </g>
        </g>
        <path id="Trazado_831720" data-name="Trazado 831720" d="M828.286,1147.395s-1.82,1.66-1.465,2.84,2,1.966,2.219,3.408,1.109,2.229,1.908,2.229h3.808s.588-1.015-.832-1.321-1.955-2-1.867-3.573a27.741,27.741,0,0,0-.133-3.671l-3.018-.7Z" transform="translate(-708.689 -982.84)" fill="#23417c"/>
        <path id="Trazado_831721" data-name="Trazado 831721" d="M943.657,1157.051s-.655,7.034.144,7.428l10.223-.021s0-1.18-1.642-1.442-4.526-1.224-5.015-3.365-3.71-2.6-3.71-2.6" transform="translate(-808.66 -991.791)" fill="#23417c"/>
        <path id="Trazado_831722" data-name="Trazado 831722" d="M944.354,752.873s2.947,9.174,3.137,12.3-5.634,44.37-5.868,45.809c-.221,1.357-1.905,2.222-1.905,2.222a2.55,2.55,0,0,1-1.88.145,4.651,4.651,0,0,1-2.019-.952s-2.294-29.417-.875-39.925a166.426,166.426,0,0,0,1.436-19.6Z" transform="translate(-801.01 -645.341)" fill="#233862"/>
        <path id="Trazado_831723" data-name="Trazado 831723" d="M852.34,750.957s-4.5,6.032-4.915,10.11-.658,18.4-1.551,22.376-4.173,11.625-4.173,24.024a2.472,2.472,0,0,0,1.394,1.089,11.5,11.5,0,0,0,1.226.339,1.927,1.927,0,0,0,2.156-1.023c2.218-4.466,9.283-18.869,9.645-21.859.256-2.116,1.762-14.816,6.628-23.033,1.168-1.973,1.1-10.572,1.1-10.572Z" transform="translate(-721.483 -643.699)" fill="#2b478b"/>
        <path id="Trazado_831724" data-name="Trazado 831724" d="M889.708,614.546a40.666,40.666,0,0,0,0,4.725c.1,1.708,1.829,4,2.074,4.563.615,1.42,1.309,1.651,1.309,1.651l5.367,1.316.45,2.874s4.5,1.924,7.628-1.054c2.719-2.591,2.472-10.7,1.383-14.96a32.733,32.733,0,0,0-2.752-7.217s-4.035-1.592-11.18-.4Z" transform="translate(-762.575 -519.101)" fill="#2b478b"/>
        <path id="Trazado_831725" data-name="Trazado 831725" d="M905.755,605.6a30.914,30.914,0,0,0-3.63.833L901.113,618.8h9.324l-3.5-9.191Z" transform="translate(-772.409 -519.102)" fill="#aec3ff"/>
        <path id="Trazado_831726" data-name="Trazado 831726" d="M871.029,683.282l-1.023,38.12s-5.109,2.426-14.867,0l2.517-40.582Z" transform="translate(-733 -583.58)" fill="#aec3ff"/>
        <path id="Trazado_831727" data-name="Trazado 831727" d="M853.618,686.8l6.9,6.008a1.2,1.2,0,0,0,1.689-.117l8.8-10.11a1.2,1.2,0,0,0-.117-1.689l-6.9-6.008a1.2,1.2,0,0,0-1.689.117l-8.8,10.11a1.2,1.2,0,0,0,.117,1.689" transform="translate(-731.345 -578.24)" fill="#c65447"/>
        <path id="Trazado_831728" data-name="Trazado 831728" d="M923.922,754.771c.1.026,3.665.445,3.666,1.182a2.218,2.218,0,0,1-2.031,1.94,11.711,11.711,0,0,1-2.239-1.714Z" transform="translate(-791.442 -646.968)" fill="#ffb27d"/>
        <path id="Trazado_831729" data-name="Trazado 831729" d="M939.737,579.915a11.878,11.878,0,0,0,.636-4.339l.27.053,4.531.9s-.1,1.426-.106,2.769c0,.011,0,.022,0,.033-.006,1.167.788,2.337-1.083,2.8-.578.143-5.1-.147-4.247-2.214" transform="translate(-805.425 -493.367)" fill="#ffb27d"/>
        <path id="Trazado_831730" data-name="Trazado 831730" d="M951.247,576.846s-.1,1.426-.106,2.769c-2.535-.072-3.876-2.385-4.425-3.666Z" transform="translate(-811.499 -493.687)" fill="#e8945b"/>
        <path id="Trazado_831731" data-name="Trazado 831731" d="M947.937,530.386s-6,.1-6-3.638-.781-6.24,3.049-6.462,4.576,1.2,4.88,2.451-.366,7.527-1.926,7.649" transform="translate(-807.342 -445.955)" fill="#ffb27d"/>
        <path id="Trazado_831732" data-name="Trazado 831732" d="M936.139,515.225s-1.642,4.384-4.163,5.032-3.614-.027-3.614-.027a7.139,7.139,0,0,0,2.335-4.217s4.2-2.874,5.442-.788" transform="translate(-795.766 -440.985)" fill="#163560"/>
        <path id="Trazado_831733" data-name="Trazado 831733" d="M979.963,517.985a3.722,3.722,0,0,1,1.719,1.343,6.041,6.041,0,0,1,.811,3.431s1.237-2.98-.153-4.665c-1.475-1.788-2.377-.109-2.377-.109" transform="translate(-839.997 -443.389)" fill="#163560"/>
        <path id="Trazado_831734" data-name="Trazado 831734" d="M927.552,753.516a4.075,4.075,0,0,1,1.426-.195c.571.08.994-.011.994.148s-.738.235-.894.312a7.768,7.768,0,0,1-1.526-.265" transform="translate(-795.072 -645.713)" fill="#ffb27d"/>
        <path id="Trazado_831735" data-name="Trazado 831735" d="M856.35,608.686a7.263,7.263,0,0,0-5.891,4.267c-1.632,3.968-4.729,10.631-4.729,11.751s1.73,4.576,11.021,6.563c0,0,.961-1.011.9-1.81,0,0-5.8-4.982-5.784-5.564.03-1.1.951-2.555,6.043-7.649,1.384-1.385-1.562-7.557-1.562-7.557" transform="translate(-724.936 -521.748)" fill="#aec3ff"/>
        <path id="Trazado_831736" data-name="Trazado 831736" d="M932.3,606.291s-1.6-4.375-1.286-7.667a3.663,3.663,0,0,0-1.893,1.243s-.292,5.035.624,7.371a6.4,6.4,0,0,0,1.662-.1s-.6,1.008-.5,1.122,3.5,4.565,3.5,4.565Z" transform="translate(-796.379 -513.123)" fill="#8c9df4"/>
        <path id="Trazado_831737" data-name="Trazado 831737" d="M983.256,618.035l1.007,39.206a5.439,5.439,0,0,0,3.756-1.374l-1.253-42.48s-1.311-5.112-3.892-5.759l-2.58-.647Z" transform="translate(-840.281 -520.287)" fill="#aec3ff"/>
        <path id="Trazado_831738" data-name="Trazado 831738" d="M977.7,601.618a13.612,13.612,0,0,0,.158,1.7c.423,2.952,3.567,8.871,3.211,11.513,0,0,.331-4.6.331-5.574l-.916-.641,1.191-.489s-2.223-5.547-3.974-6.507" transform="translate(-838.055 -515.69)" fill="#8c9df4"/>
        <rect id="Rectángulo_379268" data-name="Rectángulo 379268" width="0.908" height="8.903" transform="translate(125.977 122.974) rotate(-85.85)" fill="#8c9df4"/>
        <g id="Grupo_1080438" data-name="Grupo 1080438" transform="translate(125.689 122.974)" opacity="0.3">
          <g id="Grupo_1080437" data-name="Grupo 1080437">
            <g id="Grupo_1080436" data-name="Grupo 1080436" clip-path="url(#clip-path-7)">
              <path id="Trazado_831739" data-name="Trazado 831739" d="M880.291,860.992s-.647,5.507,0,6.01,7.406,1.145,8.034.641.845-6.007.845-6.007Z" transform="translate(-880.004 -860.992)" fill="#8c9df4"/>
            </g>
          </g>
        </g>
        <path id="Trazado_831740" data-name="Trazado 831740" d="M547.235,206.782s3.626-6.1,12.3-5.418c0,0,12.588-10.16,26.012-1.354,0,0,14.269-2.182,24.837,1.889,7.046,2.714,9.373,5.561,9.373,5.561Z" transform="translate(-469.075 -168.364)" fill="#bcc7ee"/>
        <path id="Trazado_831741" data-name="Trazado 831741" d="M1064.844,158.449s2.647-6.683,8.977-5.941c0,0,9.19-11.14,18.99-1.485,0,0,10.417-2.392,18.132,2.071,5.144,2.976,6.843,6.1,6.843,6.1Z" transform="translate(-912.755 -126.077)" fill="#bcc7ee"/>
        <path id="Trazado_831742" data-name="Trazado 831742" d="M1643.779,471.984s1.819-4.5,6.17-4c0,0,6.317-7.494,13.053-1,0,0,7.161-1.609,12.464,1.394a12.525,12.525,0,0,1,4.7,4.1Z" transform="translate(-1409.002 -398.018)" fill="#bcc7ee"/>
        <path id="Trazado_831743" data-name="Trazado 831743" d="M924.87,348.157a7.486,7.486,0,0,1,7.142-3.3s7.311-6.195,15.108-.826c0,0,8.288-1.33,14.426,1.152,4.092,1.655,5.444,3.391,5.444,3.391Z" transform="translate(-792.773 -293.013)" fill="#bcc7ee"/>
        <path id="Trazado_831744" data-name="Trazado 831744" d="M2288.333,1050.608v2.516a1.409,1.409,0,0,1-1.41,1.41h-.451a1.414,1.414,0,0,1-1.41-1.41v-2.516a1.388,1.388,0,0,1,.2-.724v0a1.414,1.414,0,0,1,1.205-.682h.451a1.415,1.415,0,0,1,1.41,1.41" transform="translate(-1958.691 -899.343)" fill="#233862"/>
        <g id="Grupo_1080441" data-name="Grupo 1080441" transform="translate(326.37 150.541)" opacity="0.3">
          <g id="Grupo_1080440" data-name="Grupo 1080440">
            <g id="Grupo_1080439" data-name="Grupo 1080439" clip-path="url(#clip-path-8)">
              <path id="Trazado_831745" data-name="Trazado 831745" d="M2288.185,1057.869a1.415,1.415,0,0,1-1.262.781h-.451a1.415,1.415,0,0,1-1.41-1.41v-2.516a1.389,1.389,0,0,1,.2-.724c.027.156.625,3.608,2.918,3.87" transform="translate(-2285.062 -1053.999)" fill="#233862"/>
            </g>
          </g>
        </g>
        <path id="Trazado_831746" data-name="Trazado 831746" d="M2149.662,1145.815h6.969v-7.034h-7.27Z" transform="translate(-1842.372 -976.131)" fill="#172944"/>
        <path id="Trazado_831747" data-name="Trazado 831747" d="M2099.845,980.64l-34.239.844V963.429h22.484a5.712,5.712,0,0,1,5.084,3.107l1.471,2.872Z" transform="translate(-1770.58 -825.824)" fill="#fff"/>
        <path id="Trazado_831748" data-name="Trazado 831748" d="M2168.695,1155.918a11.213,11.213,0,0,0,.985,4.015h1.667c1.465,0,2.652-1.8,2.652-4.015s-2.855-4.015-4.32-4.015-.985,1.8-.985,4.015" transform="translate(-1858.88 -987.378)" fill="#233862"/>
        <path id="Trazado_831749" data-name="Trazado 831749" d="M2157.472,1155.918c0,2.218,1.187,4.015,2.652,4.015s2.652-1.8,2.652-4.015-1.187-4.015-2.652-4.015-2.652,1.8-2.652,4.015" transform="translate(-1849.325 -987.378)" fill="#2b478b"/>
        <path id="Trazado_831750" data-name="Trazado 831750" d="M2162.289,1161.864c0,1.67.895,3.025,2,3.025s2-1.354,2-3.025-.894-3.025-2-3.025-2,1.354-2,3.025" transform="translate(-1853.454 -993.324)" fill="#afcdfb"/>
        <path id="Trazado_831751" data-name="Trazado 831751" d="M2302.918,1155.918a11.213,11.213,0,0,0,.985,4.015h1.667c1.465,0,2.652-1.8,2.652-4.015s-2.855-4.015-4.32-4.015-.985,1.8-.985,4.015" transform="translate(-1973.933 -987.378)" fill="#233862"/>
        <path id="Trazado_831752" data-name="Trazado 831752" d="M2291.7,1155.918c0,2.218,1.188,4.015,2.652,4.015s2.652-1.8,2.652-4.015-1.188-4.015-2.652-4.015-2.652,1.8-2.652,4.015" transform="translate(-1964.377 -987.378)" fill="#2b478b"/>
        <path id="Trazado_831753" data-name="Trazado 831753" d="M1994.687,1155.918a11.212,11.212,0,0,0,.985,4.015h1.667c1.465,0,2.652-1.8,2.652-4.015s-2.855-4.015-4.32-4.015-.985,1.8-.985,4.015" transform="translate(-1709.725 -987.378)" fill="#233862"/>
        <path id="Trazado_831754" data-name="Trazado 831754" d="M1983.465,1155.918c0,2.218,1.187,4.015,2.652,4.015s2.652-1.8,2.652-4.015-1.188-4.015-2.652-4.015-2.652,1.8-2.652,4.015" transform="translate(-1700.171 -987.378)" fill="#2b478b"/>
        <path id="Trazado_831755" data-name="Trazado 831755" d="M2110.394,1091.529c0,1.679-1.3,2.368-2.971,2.368l-18.841.163c.057-.33-.772-.163-.772-.516,0-2.6-1.558-4.7-3.476-4.7a3.74,3.74,0,0,0-3.747,4.008c0,.353-.418.835-.361,1.164l-10.1-.886a25,25,0,0,1-1.073-6.253c.045-2.236.045-6.617-.087-7.686,0-.159,11.066-.178,13.86-.189.379,0,.606,0,.629,0l.038.027.042.03c.515.36,3.4,2.384,5.2,3.57,1.581,1.042,13.246,1.467,17.82,1.6,1.137.03,1.838.042,1.838.042a8.259,8.259,0,0,1,1.178,1.653,6.263,6.263,0,0,1,.811,2.9c0,.686.008,1.512.008,2.323,0,.133,0,.265,0,.4" transform="translate(-1773.463 -924.885)" fill="#fff"/>
        <path id="Trazado_831756" data-name="Trazado 831756" d="M2165.613,1021.406h-15.387a.91.91,0,0,1-.826-.531l-3.809-8.474a.42.42,0,0,1,.383-.591h16.232a.9.9,0,0,1,.826.542l2.729,6.234.682,1.558a.9.9,0,0,1-.83,1.262" transform="translate(-1839.108 -867.295)" fill="#98baf4"/>
        <path id="Trazado_831757" data-name="Trazado 831757" d="M2089.911,992.078c0,.266-.015.516-.029.739a4.644,4.644,0,0,1-1.592,2.7h-3.457a6.116,6.116,0,0,0-.4-3.437,3.091,3.091,0,0,0-5.97,0c-.31.705-1.039,1.477-1.039,2.359,0,.352-.3.346-.245.676l-11.574.4V963.438h9.995l.047,5.977a9.445,9.445,0,0,0,.51,1.7c.305.715.712,1.667,1.153,2.7.91,2.125,1.972,4.6,2.637,6.131.333.773.569,1.3.629,1.413.187.356,2.96,1.858,5.3,3.192.585.333,1.144.655,1.628.945a11.567,11.567,0,0,1,1.485,1c.64.577.958,3.571.925,5.582" transform="translate(-1770.574 -825.832)" fill="#dfebfd"/>
        <path id="Trazado_831758" data-name="Trazado 831758" d="M2195.347,1084.261h-18.237l-6.659-5.238-.038-.026h18.4l5.238,4.214Z" transform="translate(-1860.417 -924.885)" fill="#fff"/>
        <path id="Trazado_831759" data-name="Trazado 831759" d="M2214.739,1116.975l-1.649-.163a1.291,1.291,0,0,1-1.145-1.057l-.379-2.085a.291.291,0,0,1-.008-.1,20,20,0,0,1,2.539,1.614,3.649,3.649,0,0,1,.641,1.789" transform="translate(-1895.686 -954.522)" fill="#a8302d"/>
        <path id="Trazado_831760" data-name="Trazado 831760" d="M2136.95,969.41h-19a10.974,10.974,0,0,0-.55-2.6,6.213,6.213,0,0,0-2.442-3.374h15.525a6.1,6.1,0,0,1,5.664,3.374,2.672,2.672,0,0,1,.11.251,15.853,15.853,0,0,1,.692,2.353" transform="translate(-1812.884 -825.826)" fill="#fff"/>
        <path id="Trazado_831761" data-name="Trazado 831761" d="M2214.744,1116.952l-1.652-.163a1.291,1.291,0,0,1-1.145-1.057l-.379-2.084a.314.314,0,0,1-.008-.1,20.335,20.335,0,0,1,2.539,1.618,3.675,3.675,0,0,1,.644,1.789" transform="translate(-1895.687 -954.499)" fill="#a2c2dd"/>
        <path id="Trazado_831762" data-name="Trazado 831762" d="M2220.5,1164.358a2.89,2.89,0,0,1-3.2,3.111l-19.689,0a7.667,7.667,0,0,0,.21-1.158,5.717,5.717,0,0,0-.4-2.355H2220.5c0,.133,0,.265,0,.4" transform="translate(-1883.572 -997.713)" fill="#233862"/>
        <path id="Trazado_831763" data-name="Trazado 831763" d="M2077.967,1166.375a6.035,6.035,0,0,0,.083,1.023H2065.6v-3.437h12.859a6.006,6.006,0,0,0-.493,2.414" transform="translate(-1770.575 -997.714)" fill="#233862"/>
        <path id="Trazado_831764" data-name="Trazado 831764" d="M2266.735,1116.89h7.458c.238,0,.42.321.384.677l-.265,2.592c-.039.381-.256.662-.511.662h-6.144c-.394,0-.741-.39-.856-.96l-.442-2.2c-.077-.382.112-.768.376-.768" transform="translate(-1942.644 -957.366)" fill="#233862"/>
        <path id="Trazado_831765" data-name="Trazado 831765" d="M2187.751,1018.586a27.5,27.5,0,0,1-16.543-6.776H2184.2a.9.9,0,0,1,.826.542Z" transform="translate(-1861.099 -867.295)" fill="#afcdfb"/>
        <path id="Trazado_831766" data-name="Trazado 831766" d="M1890.552,963.427v30.5l-33.273.436V963.427Z" transform="translate(-1592.008 -825.822)" fill="#fff"/>
        <path id="Trazado_831767" data-name="Trazado 831767" d="M2151.6,989.66h-19a10.98,10.98,0,0,0-.55-2.6H2150.8a2.613,2.613,0,0,1,.11.251,15.883,15.883,0,0,1,.692,2.353" transform="translate(-1827.538 -846.076)" fill="#dfebfd"/>
        <path id="Trazado_831768" data-name="Trazado 831768" d="M2333.52,1111.205a.615.615,0,0,1-.39.314l-2.558.474c-.216.042-.383-.333-.326-.72l.25-1.721.008-.042.049-.353a.743.743,0,0,1,.341-.6l.148-.057,1.3,1.05a8.262,8.262,0,0,1,1.179,1.652" transform="translate(-1997.411 -950.177)" fill="#233862"/>
        <rect id="Rectángulo_379271" data-name="Rectángulo 379271" width="53.141" height="2.704" transform="translate(265.272 158.72)" fill="#ea6a60"/>
        <rect id="Rectángulo_379272" data-name="Rectángulo 379272" width="33.273" height="2.703" transform="translate(265.271 143.164)" fill="#ea6a60"/>
        <path id="Trazado_831769" data-name="Trazado 831769" d="M1940.6,1037.426a4.736,4.736,0,1,1,4.736,4.736,4.736,4.736,0,0,1-4.736-4.736" transform="translate(-1663.427 -885.192)" fill="#ea6a60"/>
        <path id="Trazado_831770" data-name="Trazado 831770" d="M1948.593,1044.877a4.193,4.193,0,1,1,2.965-1.228,4.166,4.166,0,0,1-2.965,1.228m0-8a3.807,3.807,0,1,0,2.692,1.115,3.784,3.784,0,0,0-2.692-1.115" transform="translate(-1666.685 -888.451)" fill="#fff"/>
        <path id="Trazado_831771" data-name="Trazado 831771" d="M1960.212,1048.911h-2.024v-2.024h-1.368v2.024H1954.8v1.368h2.024v2.024h1.368v-2.024h2.024Z" transform="translate(-1675.596 -897.362)" fill="#fff"/>
        <path id="Trazado_831772" data-name="Trazado 831772" d="M2217.87,1112.947l-3.127-.311h0l-1.649-.163a1.292,1.292,0,0,1-1.145-1.057l-.379-2.084a.292.292,0,0,1-.008-.1v0a.694.694,0,0,1,.834-.7l4.87.989a.839.839,0,0,1,.64.6l.573,2.115a.571.571,0,0,1-.606.72" transform="translate(-1895.686 -950.183)" fill="#233862"/>
        <path id="Trazado_831773" data-name="Trazado 831773" d="M2113.518,1014.38l3.278,8.073h-5.624s-1.154-.193-1.3-2.551c-.158-2.517-.158-6.86-.158-6.86l2.469-.012c.941.142,1.088.659,1.337,1.35" transform="translate(-1808.386 -868.341)" fill="#98baf4"/>
        <path id="Trazado_831774" data-name="Trazado 831774" d="M2139.665,1049.983s.284,3.263-1.326,4.156h3.009Z" transform="translate(-1832.925 -900.016)" fill="#233862"/>
        <path id="Trazado_831775" data-name="Trazado 831775" d="M2146.292,1059.963s-.679-.484-.738-.884v2.282h.889Z" transform="translate(-1839.109 -907.812)" fill="#233862"/>
        <path id="Trazado_831776" data-name="Trazado 831776" d="M2125.921,1050.608v2.516a1.409,1.409,0,0,1-1.41,1.41h-.451a1.414,1.414,0,0,1-1.41-1.41v-2.516a1.389,1.389,0,0,1,.2-.724v0a1.413,1.413,0,0,1,1.205-.682h.451a1.415,1.415,0,0,1,1.41,1.41" transform="translate(-1819.476 -899.343)" fill="#233862"/>
        <path id="Trazado_831777" data-name="Trazado 831777" d="M1953.9,1166.375a3.36,3.36,0,0,0,.153,1.023h-22.909v-3.437H1954.8a3.819,3.819,0,0,0-.907,2.414" transform="translate(-1655.321 -997.714)" fill="#233862"/>
        <path id="Trazado_831778" data-name="Trazado 831778" d="M1880.035,1166.375a3.36,3.36,0,0,0,.153,1.023h-22.909v-3.437h23.662a3.82,3.82,0,0,0-.906,2.414" transform="translate(-1592.008 -997.714)" fill="#233862"/>
        <path id="Trazado_831779" data-name="Trazado 831779" d="M1883.592,1152.038h-8.184c-.173-.739-.693-6,3.893-6,4.168,0,4.475,4.8,4.291,6" transform="translate(-1607.453 -982.352)" fill="#172944"/>
        <path id="Trazado_831780" data-name="Trazado 831780" d="M1893.552,1155.918a11.213,11.213,0,0,0,.985,4.015h1.667c1.465,0,2.652-1.8,2.652-4.015s-2.855-4.015-4.32-4.015-.985,1.8-.985,4.015" transform="translate(-1623.035 -987.378)" fill="#233862"/>
        <path id="Trazado_831781" data-name="Trazado 831781" d="M1882.33,1155.918c0,2.218,1.187,4.015,2.652,4.015s2.652-1.8,2.652-4.015-1.188-4.015-2.652-4.015-2.652,1.8-2.652,4.015" transform="translate(-1613.481 -987.378)" fill="#2b478b"/>
        <path id="Trazado_831782" data-name="Trazado 831782" d="M1887.146,1161.864c0,1.67.895,3.025,2,3.025s2-1.354,2-3.025-.895-3.025-2-3.025-2,1.354-2,3.025" transform="translate(-1617.609 -993.324)" fill="#afcdfb"/>
        <path id="Trazado_831783" data-name="Trazado 831783" d="M1172.8,461.659s-1.622-3.448-1.3-5.267.252-4.232,2.677-5.164,2.639-.035,5.275-.315c2.554-.271,3.466,2.962,3.708,4.337a6.93,6.93,0,0,1-1.133,5.7c-.665.847-.968,1.271-.968,1.271Z" transform="translate(-1004.142 -386.406)" fill="#233862"/>
        <path id="Trazado_831784" data-name="Trazado 831784" d="M1133.661,1178.242a9.254,9.254,0,0,1,.242-2.266c.243-.566,1.131-2.868,1.131-2.868h3.474a21.318,21.318,0,0,1,.687,2.787c.04.687,0,2.347,0,2.347Z" transform="translate(-971.743 -1005.555)" fill="#233862"/>
        <path id="Trazado_831785" data-name="Trazado 831785" d="M1254.775,1178.242a9.249,9.249,0,0,0-.242-2.266c-.242-.566-1.131-2.868-1.131-2.868h-3.474a21.283,21.283,0,0,0-.687,2.787c-.04.687,0,2.347,0,2.347Z" transform="translate(-1070.799 -1005.555)" fill="#233862"/>
        <path id="Trazado_831786" data-name="Trazado 831786" d="M1132.489,796.674s.608,18.561-.3,29.151.006,25.328.006,25.328a6.874,6.874,0,0,0,6.058,0s3.456-20.459,3.434-25.328c-.023-5.185,3.761-28.342,3.761-28.342Z" transform="translate(-970.135 -682.886)" fill="#6bb7bf"/>
        <path id="Trazado_831787" data-name="Trazado 831787" d="M1207.687,850.964a6.869,6.869,0,0,1-6.057,0s-3.455-20.459-3.433-25.328c.01-2.19-.659-7.586-1.436-13.088-1.063-7.527-2.326-15.253-2.326-15.253l13.46-.841s-1.11,18.592-.2,29.182-.007,25.328-.007,25.328" transform="translate(-1023.836 -682.698)" fill="#6bb7bf"/>
        <path id="Trazado_831788" data-name="Trazado 831788" d="M1100.467,585.368s-5.007.595-6.107,5.093-5.423,15.931-1.1,18.514c0,0,4.58-6.137,6.321-11.084s.885-12.523.885-12.523" transform="translate(-935.498 -501.761)" fill="#aec3ff"/>
        <path id="Trazado_831789" data-name="Trazado 831789" d="M1268.645,602s5.038-.634,6.138,3.865,4.614,14.544.29,17.128c0,0-4.889-5.924-6.629-10.87s.2-10.122.2-10.122" transform="translate(-1086.653 -515.987)" fill="#aec3ff"/>
        <path id="Trazado_831790" data-name="Trazado 831790" d="M1163.984,528.849a32.524,32.524,0,0,1-.607,5.484l-3.836,2.676,14.441,2.161-3.444-4.759s-1.04-5.078-.495-6.956-6.059,1.394-6.059,1.394" transform="translate(-993.925 -451.621)" fill="#ffb27d"/>
        <path id="Trazado_831791" data-name="Trazado 831791" d="M1190.5,544.366s1.142,2.749,3.293,2.689,2.641-2.493,2.641-2.493Z" transform="translate(-1020.467 -466.615)" fill="#ed985f"/>
        <path id="Trazado_831792" data-name="Trazado 831792" d="M1185.263,493.4c-1.558-.027-4.427-2.1-4.427-4.673v-4.01a1.6,1.6,0,0,1,1.454-1.706h5.946a1.6,1.6,0,0,1,1.454,1.706V488.5c0,2.7-2.64,4.932-4.427,4.9" transform="translate(-1012.18 -414.02)" fill="#ffb27d"/>
        <path id="Trazado_831793" data-name="Trazado 831793" d="M1151.4,618.436a88.939,88.939,0,0,1-23.108.366l1.11-22.536c-.03-.326-.051-.661-.06-1-.013-.451,0-.984.024-1.578.223-4.728,1.653-13.238,2.742-13.7a20.037,20.037,0,0,1,4.483-.9c0,.057,1.662,2.486,3.633,2.757a6.831,6.831,0,0,0,3.529-2.678c.786.091,1.612.205,2.49.372l.2.037a27.035,27.035,0,0,1,3.082.791s1.416.55,1.1,10.423Z" transform="translate(-967.142 -496.381)" fill="#abddda"/>
        <path id="Trazado_831794" data-name="Trazado 831794" d="M1203.141,537.038a1.7,1.7,0,0,0,1.333.633,1.586,1.586,0,0,0,1.247-.633,8.457,8.457,0,0,0-2.58,0" transform="translate(-1031.299 -460.244)" fill="#fff"/>
        <path id="Trazado_831795" data-name="Trazado 831795" d="M1108.828,601.157l-.623,33.557a59.368,59.368,0,0,0,9.35,1.575l1.119-41.022-1.539-13.885-1.4-2.29s-4.623.362-7.391,2.616c-1.889,1.539-2.761,6.785-2.761,6.785l4.352,4.572Z" transform="translate(-947.676 -496.381)" fill="#aec3ff"/>
        <path id="Trazado_831796" data-name="Trazado 831796" d="M1237.069,601.157l.623,33.557a59.377,59.377,0,0,1-9.35,1.575l-.909-39.8,1.329-15.108,1.4-2.29s4.61.378,7.391,2.616c2.984,2.4,3.583,8.312,3.583,8.312l-5.174,3.045Z" transform="translate(-1052.121 -496.381)" fill="#aec3ff"/>
        <path id="Trazado_831797" data-name="Trazado 831797" d="M1103.911,697.145c5.06,1.363,7.907-2.158,19.748-7.027l-.359-1.889s-13.614.158-16,1.45c-3.1,1.68-3.805,7.354-3.389,7.466" transform="translate(-946.149 -589.93)" fill="#ffb27d"/>
        <path id="Trazado_831798" data-name="Trazado 831798" d="M1142.695,679.128s-5.113-.29-5.168,2.318l4.727-.214Z" transform="translate(-975.056 -582.121)" fill="#ffb27d"/>
        <path id="Trazado_831799" data-name="Trazado 831799" d="M1262.253,687.422s3.826-.97,4.467,1.592-5.5,0-5.5,0Z" transform="translate(-1081.082 -589.084)" fill="#ed985f"/>
        <path id="Trazado_831800" data-name="Trazado 831800" d="M1171.432,696.061a22.474,22.474,0,0,0-4.977-3.969l5.977,1.128,1.825,1.5-.832.422Z" transform="translate(-999.853 -593.241)" fill="#ed985f"/>
        <path id="Trazado_831801" data-name="Trazado 831801" d="M1243.619,687.616l5.1-.373-.355,1.456Z" transform="translate(-1065.995 -589.085)" fill="#ed985f"/>
        <path id="Trazado_831802" data-name="Trazado 831802" d="M1137.528,689.718s3.5-.6,3.435-.644a3.792,3.792,0,0,0-1.548-.275c-.277.137-1.887.919-1.887.919" transform="translate(-975.057 -590.393)" fill="#ed985f"/>
        <path id="Trazado_831803" data-name="Trazado 831803" d="M1171.672,565.364s-2.117,1.171-2.488,2.269c0,0-1.025,4.466.327,7.473l2.161-.525-1.11,1.364s.572,6.2,2.308,7.555c0,0-1.354-16.473-1.2-18.136" transform="translate(-1001.873 -484.614)" fill="#8c9df4"/>
        <path id="Trazado_831804" data-name="Trazado 831804" d="M1228.38,565.364s2.117,1.171,2.488,2.269c0,0,1.352,4.151,0,7.158l-2.488-.21,1.78,1.469s-.991,7.323-2.727,8.673c0,0,1.1-17.7.947-19.359" transform="translate(-1052.121 -484.614)" fill="#8c9df4"/>
        <path id="Trazado_831805" data-name="Trazado 831805" d="M1182.345,689.18s-10.5-1.14-22.8-8.9l2.024-1.093s16.133,1.752,18.154,3.271c3.172,2.383,5.005,6.168,2.627,6.723" transform="translate(-993.925 -582.179)" fill="#ffb27d"/>
        <rect id="Rectángulo_379273" data-name="Rectángulo 379273" width="3.45" height="1.515" transform="translate(164.189 91.856)" fill="#ebf3fa"/>
        <path id="Trazado_831806" data-name="Trazado 831806" d="M1179.9,469.133a4.9,4.9,0,0,0,3.614,1.155c2.028-.284,1.981-1.133,2.264-.774s.314,3.271.708,3.463l.21-3.843-4.022-2.312-5.77.665.561,5.631s-.107-2.063.768-2.658a16.572,16.572,0,0,0,1.667-1.325" transform="translate(-1008.811 -400.145)" fill="#233862"/>
        <path id="Trazado_831807" data-name="Trazado 831807" d="M305.707,1177.362a9.252,9.252,0,0,1,.242-2.266c.243-.566,1.131-2.868,1.131-2.868h3.474a21.288,21.288,0,0,1,.687,2.787c.04.687,0,2.347,0,2.347Z" transform="translate(-262.044 -1004.801)" fill="#233862"/>
        <path id="Trazado_831808" data-name="Trazado 831808" d="M426.821,1177.362a9.252,9.252,0,0,0-.242-2.266c-.243-.566-1.131-2.868-1.131-2.868h-3.474a21.308,21.308,0,0,0-.687,2.787c-.04.687,0,2.347,0,2.347Z" transform="translate(-361.1 -1004.801)" fill="#233862"/>
        <path id="Trazado_831809" data-name="Trazado 831809" d="M304.534,795.8s.608,18.56-.3,29.151.006,25.328.006,25.328a6.874,6.874,0,0,0,6.058,0s3.456-20.459,3.434-25.328c-.023-5.185,3.761-28.342,3.761-28.342Z" transform="translate(-260.436 -682.134)" fill="#2b478b"/>
        <path id="Trazado_831810" data-name="Trazado 831810" d="M379.733,850.085a6.869,6.869,0,0,1-6.057,0s-3.455-20.459-3.433-25.328c.01-2.19-.659-7.586-1.436-13.088-1.063-7.527-2.326-15.253-2.326-15.253l13.46-.841s-1.11,18.592-.2,29.182-.007,25.328-.007,25.328" transform="translate(-314.137 -681.944)" fill="#2b478b"/>
        <path id="Trazado_831811" data-name="Trazado 831811" d="M384.2,882.635c.01-2.19-.659-7.586-1.436-13.088a25.9,25.9,0,0,1,2.769-6.45c2.484,6.968-1.333,19.538-1.333,19.538" transform="translate(-328.094 -739.822)" fill="#233862"/>
        <path id="Trazado_831812" data-name="Trazado 831812" d="M272.512,584.49s-5.007.595-6.106,5.093-5.423,15.93-1.1,18.514c0,0,4.58-6.137,6.321-11.084s.885-12.524.885-12.524" transform="translate(-225.799 -501.008)" fill="#ffb27d"/>
        <path id="Trazado_831813" data-name="Trazado 831813" d="M440.69,601.117s5.038-.634,6.137,3.865,4.614,14.544.29,17.128c0,0-4.889-5.924-6.629-10.87s.2-10.122.2-10.122" transform="translate(-376.953 -515.234)" fill="#ffb27d"/>
        <path id="Trazado_831814" data-name="Trazado 831814" d="M336.03,527.97a32.524,32.524,0,0,1-.607,5.484l-3.836,2.676,14.441,2.161-3.444-4.759s-1.04-5.078-.494-6.956-6.059,1.394-6.059,1.394" transform="translate(-284.226 -450.867)" fill="#ffb27d"/>
        <path id="Trazado_831815" data-name="Trazado 831815" d="M362.549,543.487s1.142,2.749,3.293,2.689,2.64-2.493,2.64-2.493Z" transform="translate(-310.767 -465.861)" fill="#ed985f"/>
        <path id="Trazado_831816" data-name="Trazado 831816" d="M344.9,462.241a34.5,34.5,0,0,0-1.179-4.518c-.485-1.05-.889-5.736,4.484-5.978a6.188,6.188,0,0,0,3.191-.444s0,.687-.283.929a3.571,3.571,0,0,1,3.312,1.171c1.454,1.616-.969,7.271-.848,8.6Z" transform="translate(-294.404 -386.841)" fill="#2c3a64"/>
        <path id="Trazado_831817" data-name="Trazado 831817" d="M357.308,492.519c-1.559-.028-4.427-2.1-4.427-4.673v-4.011a1.6,1.6,0,0,1,1.454-1.706h5.946a1.6,1.6,0,0,1,1.454,1.706v3.784c0,2.7-2.64,4.932-4.428,4.9" transform="translate(-302.48 -413.267)" fill="#ffb27d"/>
        <path id="Trazado_831818" data-name="Trazado 831818" d="M351.691,480.525s.008-2.41,1.917-2.78,6.18,1.175,6.787-.583-8.257-1.727-8.7-.606,0,3.969,0,3.969" transform="translate(-301.29 -407.815)" fill="#2c3a64"/>
        <path id="Trazado_831819" data-name="Trazado 831819" d="M324.066,589.989l-.617,27.569a88.935,88.935,0,0,1-23.108.367l1.11-22.536c-.029-.326-.051-.661-.06-1-.013-.451,0-.984.024-1.577.224-4.729,1.653-13.239,2.743-13.7a20.035,20.035,0,0,1,4.483-.9c0,.057,1.662,2.486,3.633,2.757a6.828,6.828,0,0,0,3.529-2.678c.786.092,1.612.205,2.49.372.064.011.13.024.2.037a26.991,26.991,0,0,1,3.082.791s1.416.549,1.1,10.423Z" transform="translate(-257.444 -495.628)" fill="#abddda"/>
        <path id="Trazado_831820" data-name="Trazado 831820" d="M375.186,536.16a1.7,1.7,0,0,0,1.333.633,1.585,1.585,0,0,0,1.246-.633,8.453,8.453,0,0,0-2.58,0" transform="translate(-321.599 -459.491)" fill="#fff"/>
        <path id="Trazado_831821" data-name="Trazado 831821" d="M275.957,696.266c5.06,1.362,7.907-2.159,19.748-7.027l-.359-1.889s-13.614.158-16,1.451c-3.1,1.68-3.805,7.354-3.389,7.466" transform="translate(-236.45 -589.177)" fill="#ffb27d"/>
        <path id="Trazado_831822" data-name="Trazado 831822" d="M275.163,580.355v0l-1.193,3.53-.055.161-.017.048-.086.258-1.479,4.375-.146.436-1.627,4.818c-.152.015-.3.028-.449.038-4.234.3-6.33-.965-6.33-.965s.87-5.634,2.977-8.84c1.378-2.1,4.549-3.1,6.577-3.549.066-.013.128-.028.191-.04.971-.2,1.636-.273,1.636-.273" transform="translate(-226.107 -497.464)" fill="#abddda"/>
        <path id="Trazado_831823" data-name="Trazado 831823" d="M435.153,584.49a11.061,11.061,0,0,1,6.217,3.491c2.473,2.941,3.115,8.071,3.115,8.071a17.17,17.17,0,0,1-7.466,1.1c-4.03-.366-1.865-12.661-1.865-12.661" transform="translate(-372.504 -501.008)" fill="#abddda"/>
        <rect id="Rectángulo_379274" data-name="Rectángulo 379274" width="5.164" height="1.965" transform="translate(58.235 91.292)" fill="#ebf3fa"/>
        <path id="Trazado_831824" data-name="Trazado 831824" d="M319.777,613.78l.243-.112a11.018,11.018,0,0,1-.494-6.819,2.694,2.694,0,0,1,2.2-1.94,2.394,2.394,0,0,1,2.41,1.289c1.336,2.25-1.1,7.7-1.12,7.75l.244.11a23.014,23.014,0,0,0,1.084-3.081c.609-2.261.617-3.915.022-4.916a2.652,2.652,0,0,0-2.675-1.418,2.965,2.965,0,0,0-2.421,2.134,11.3,11.3,0,0,0,.509,7" transform="translate(-273.368 -518.262)" fill="#2b478b"/>
        <path id="Trazado_831825" data-name="Trazado 831825" d="M346.511,668.113a.385.385,0,1,0-.475.267.385.385,0,0,0,.475-.267" transform="translate(-296.371 -572.268)" fill="#2b478b"/>
        <path id="Trazado_831826" data-name="Trazado 831826" d="M324.047,666.212a.385.385,0,1,0-.475.267.385.385,0,0,0,.475-.267" transform="translate(-277.116 -570.638)" fill="#2b478b"/>
        <path id="Trazado_831827" data-name="Trazado 831827" d="M341.416,581.138l-.02,0a.091.091,0,0,1-.069-.109,10.885,10.885,0,0,1,1.908-4.065.092.092,0,0,1,.137.121,10.684,10.684,0,0,0-1.866,3.984.092.092,0,0,1-.089.072" transform="translate(-292.573 -494.528)" fill="#2b478b"/>
        <path id="Trazado_831828" data-name="Trazado 831828" d="M314.741,678.249s-5.113-.29-5.168,2.318l4.727-.214Z" transform="translate(-265.357 -581.367)" fill="#ffb27d"/>
        <path id="Trazado_831829" data-name="Trazado 831829" d="M434.3,686.544s3.826-.97,4.468,1.592-5.5,0-5.5,0Z" transform="translate(-371.383 -588.331)" fill="#ed985f"/>
        <path id="Trazado_831830" data-name="Trazado 831830" d="M413.037,582.014a.092.092,0,0,1-.086-.06,15.175,15.175,0,0,0-2.436-4.231.092.092,0,1,1,.138-.12,15.368,15.368,0,0,1,2.47,4.288.091.091,0,0,1-.055.117.1.1,0,0,1-.032.006" transform="translate(-351.863 -495.077)" fill="#2b478b"/>
        <path id="Trazado_831831" data-name="Trazado 831831" d="M423.832,604.05a.895.895,0,1,0-.9.895.9.9,0,0,0,.9-.895" transform="translate(-361.763 -517.007)" fill="#2b478b"/>
        <path id="Trazado_831832" data-name="Trazado 831832" d="M426.27,606.976a.407.407,0,1,0-.407.408.407.407,0,0,0,.407-.408" transform="translate(-364.688 -519.933)" fill="#6980e2"/>
        <path id="Trazado_831833" data-name="Trazado 831833" d="M343.477,695.182a22.47,22.47,0,0,0-4.977-3.969l5.977,1.128,1.824,1.5-.831.422Z" transform="translate(-290.153 -592.488)" fill="#ed985f"/>
        <path id="Trazado_831834" data-name="Trazado 831834" d="M415.664,686.737l5.1-.373-.356,1.456Z" transform="translate(-356.295 -588.331)" fill="#ed985f"/>
        <path id="Trazado_831835" data-name="Trazado 831835" d="M354.39,688.3s-10.5-1.14-22.8-8.9l2.024-1.093s16.133,1.752,18.154,3.271c3.172,2.383,5.005,6.168,2.627,6.723" transform="translate(-284.225 -581.425)" fill="#ffb27d"/>
        <path id="Trazado_831836" data-name="Trazado 831836" d="M309.574,688.839s3.5-.6,3.435-.644a3.792,3.792,0,0,0-1.548-.275c-.278.137-1.887.919-1.887.919" transform="translate(-265.358 -589.64)" fill="#ed985f"/>
        <path id="Trazado_831837" data-name="Trazado 831837" d="M1404.252,676.565c-.177.334-1.352,12.851-.429,14.5s5.284-3.14,5.392-11.218c.091-6.806-4.964-3.28-4.964-3.28" transform="translate(-1203.018 -579.15)" fill="#ffb27d"/>
        <rect id="Rectángulo_379275" data-name="Rectángulo 379275" width="12.719" height="18.038" transform="translate(192.623 116.886) rotate(-72.777)" fill="#233862"/>
        <path id="Trazado_831838" data-name="Trazado 831838" d="M1406.069,856.353l1.775.661s7.708-10.691,8.657-20.1a14.28,14.28,0,0,0-.254-4.809s.075-.43.207-1.191c.061-.355.136-.783.222-1.272.25-1.436.6-3.4.99-5.638.907-5.148,2.082-11.729,2.995-16.567l-.478-.154-5.174-1.669-1.069-3.4-3.853-1.014s-.861,1.684-1.63,9.637c-.142,1.043-.271,2.194-.368,3.441a68.09,68.09,0,0,0,.366,13.931q.265,2.074.677,4.276a19.065,19.065,0,0,1,.148,4.222c-.388,7.69-3.211,19.64-3.211,19.64" transform="translate(-1205.243 -686.771)" fill="#2b478b"/>
        <path id="Trazado_831839" data-name="Trazado 831839" d="M1420.21,814.284l8.366,16.632c.061-.355.136-.783.222-1.272.251-1.436.6-3.4.99-5.638.907-5.148,2.082-11.729,2.995-16.567l-.478-.154-5.174-1.669-1.069-3.4-3.853-1.014s-.861,1.684-1.63,9.637c-.142,1.043-.271,2.194-.368,3.441" transform="translate(-1217.364 -686.771)" fill="#233862"/>
        <path id="Trazado_831840" data-name="Trazado 831840" d="M1445.979,791.73l.194-1.661c3.245.862,11.914-2.408,11.914-2.408s3.143,2.763,2.731,9.386c-.2,3.233-.569,16.97-.954,21.035-.139,1.473-.26,2.522-.31,2.94a.007.007,0,0,0,0,0,.583.583,0,0,0,.094.36,19.068,19.068,0,0,1,1.419,2.983c3.772,10.051-.581,22.43-.581,22.43l-1.13-.455s-2.477-13.776-4.49-19.862a12.06,12.06,0,0,0-.969-2.328,26.281,26.281,0,0,1-2.425-6.465,159,159,0,0,1-3.261-17.151c-.1,0-2.231-8.809-2.231-8.809" transform="translate(-1239.453 -675.16)" fill="#2b478b"/>
        <path id="Trazado_831841" data-name="Trazado 831841" d="M1501.558,1177.939h8.938a4.908,4.908,0,0,0-.253-2.4c-.447-.992-1.148-1.443-.98-2.642a3.219,3.219,0,0,1-2.786,1.066,9.8,9.8,0,0,1-1.551,2.011c-.584.42-3.189.27-3.369,1.962" transform="translate(-1287.094 -1005.377)" fill="#233862"/>
        <path id="Trazado_831842" data-name="Trazado 831842" d="M1367.183,1180.344h8.939a3.715,3.715,0,0,0-.253-2.4,1.723,1.723,0,0,1,.064-2.058,3.473,3.473,0,0,1-1.505.284,3.149,3.149,0,0,1-1.329-.468,32.136,32.136,0,0,1-2.547,2.676c-.584.42-3.189.27-3.369,1.962" transform="translate(-1171.911 -1007.783)" fill="#233862"/>
        <path id="Trazado_831843" data-name="Trazado 831843" d="M1468.665,482.188c.07-.24.919-2.8,4.932-1.935,0,0-2.016-.262-2.571.513,0,0,1.6-.726,2.6-.109s1.155,2.679,1,3.305-1.265,2.49-2,2.487a2.166,2.166,0,0,1-.834-.21,9.685,9.685,0,0,1,.293,1.089c.763,3.661-1.68,6.432-2.935,5.74-.8-.444-1.421.965-1.421.965l-6.659-8.9s4.687-5.587,7.59-2.946" transform="translate(-1252.393 -411.506)" fill="#2c3a64"/>
        <path id="Trazado_831844" data-name="Trazado 831844" d="M1468.737,584.641c5.514,1.721,6.395-6.924,6.043-6.969-.594-.53-1.383-2.577-1.359-5.66l-.269.051-4.515.876s.1,1.421.095,2.758a5.278,5.278,0,0,1-.281,2.269c-.351.049-.562.082-.562.082l0,0c-.067.093-.621,6.131.85,6.59" transform="translate(-1258.097 -490.312)" fill="#ffb27d"/>
        <path id="Trazado_831845" data-name="Trazado 831845" d="M1474.079,573.251s.1,1.42.095,2.758c2.525-.061,3.868-2.359,4.42-3.633Z" transform="translate(-1263.539 -490.623)" fill="#ed985f"/>
        <path id="Trazado_831846" data-name="Trazado 831846" d="M1456.359,526.913s5.973.122,5.991-3.6.8-6.211-3.01-6.446-4.561,1.181-4.869,2.421.335,7.5,1.888,7.623" transform="translate(-1246.668 -443.023)" fill="#ffb27d"/>
        <path id="Trazado_831847" data-name="Trazado 831847" d="M1452.226,512.633c.928-1.116,1.625-.867,2.014-.529a4.174,4.174,0,0,1,5.365.88,7.108,7.108,0,0,0,2.308,4.208s-1.091.668-3.6.013a4.268,4.268,0,0,1-2.027-1.411,13.942,13.942,0,0,0,2.387,2.939c-2.993-1.4-4.18-5.572-4.3-6.013a4.679,4.679,0,0,0-1.309,1.731c-.3.946-.443,2.9-1.011,2.827,0,0-1.22-2.972.171-4.645" transform="translate(-1244.237 -438.434)" fill="#2c3a64"/>
        <path id="Trazado_831848" data-name="Trazado 831848" d="M1486.886,604.505s.938.306.989.968c0,0-2.515,4.7-5.3,4.966Z" transform="translate(-1270.825 -518.164)" fill="#91cecf"/>
        <path id="Trazado_831849" data-name="Trazado 831849" d="M1402.822,632.668l-2.158,12.308c1.274.78,2.5,1.449,3.687,2.023a14.844,14.844,0,0,1,.971-2.117,6.652,6.652,0,0,0,.536,2.8c11.007,4.743,17.653,1.1,17.653,1.1-1.652-12.158-.427-32.174-.724-33.6-.564-2.717-5.862-3.9-5.862-3.9a13.282,13.282,0,0,1-5.3,4.967c-1.264-1.248-1.593-4.592-1.593-4.592l-2.209.543a8.346,8.346,0,0,0-3.809,2.073c-.095.092-.19.187-.28.284-1.091,1.168-3.932,8.7-3.932,8.7a8.261,8.261,0,0,0,1.691,3.112,12.9,12.9,0,0,0,2.156,1.566Z" transform="translate(-1199.873 -523.975)" fill="#abddda"/>
        <path id="Trazado_831850" data-name="Trazado 831850" d="M1468.225,615.121s-1.378-4.562-1.218-5.154c0,0-1.08.134-1.174.759,0,0,1.221,3.807,2.392,4.395" transform="translate(-1256.471 -522.846)" fill="#91cecf"/>
        <path id="Trazado_831851" data-name="Trazado 831851" d="M1464.674,572.38s-.266.581-.639.646a3.088,3.088,0,0,1-1.092,0c-.132-.062-.341-.472-.43-.6a18.354,18.354,0,0,1,2.074-.047Z" transform="translate(-1253.624 -490.622)" fill="#fff"/>
        <path id="Trazado_831852" data-name="Trazado 831852" d="M1411.646,686.407a15.344,15.344,0,0,0,2.156,1.566s1.654-6.186,1.161-6.617-1.4,3.637-3.317,5.052" transform="translate(-1210.024 -584.011)" fill="#91cecf"/>
        <path id="Trazado_831853" data-name="Trazado 831853" d="M1555.011,667.546s7.71,10.5,6.962,14.062c-.6,2.84-8.4,9.367-8.4,9.367l-2.014-1.3s4.871-7.059,4.444-9.128c-.332-1.609-5.163-7.709-5.163-7.709Z" transform="translate(-1329.339 -572.201)" fill="#ffb27d"/>
        <path id="Trazado_831854" data-name="Trazado 831854" d="M1527.675,620.425s4.276,2.3,7.957,9.586a14.006,14.006,0,0,1-6.5,4.292c-4.323,1.4-4.178-6.951-4.178-6.951Z" transform="translate(-1307.151 -531.81)" fill="#abddda"/>
        <path id="Trazado_831855" data-name="Trazado 831855" d="M1449.025,677.88l-5.3.013-.035,4.354,2.327,1.31,2.891-1.116Z" transform="translate(-1237.488 -581.059)" fill="#91cecf"/>
        <path id="Trazado_831856" data-name="Trazado 831856" d="M1530.642,819.925a7.451,7.451,0,0,0-3.392-.5c-.687.183-1.962,2.611-1.168,2.977s1.691-.931,2.668-.687,2.187,1.664,3.385-.618Z" transform="translate(-1307.899 -702.32)" fill="#ffb27d"/>
        <path id="Trazado_831857" data-name="Trazado 831857" d="M1549.171,817.172a10.466,10.466,0,0,1-1.214-.641c-.378-.263-.607.206,0,.641s.824.241.824.241Z" transform="translate(-1326.545 -699.841)" fill="#ffb27d"/>
        <path id="Trazado_831858" data-name="Trazado 831858" d="M1352.233,816.73s2.467-1.171,2.969.143-.365,2.416-1.192,2.157-2.3-1.139-1.778-2.3" transform="translate(-1159.003 -699.665)" fill="#ffb27d"/>
        <path id="Trazado_831859" data-name="Trazado 831859" d="M1505.889,651.813l-.193-.186a11.017,11.017,0,0,0,2.714-6.275,2.693,2.693,0,0,0-1.435-2.557,2.394,2.394,0,0,0-2.7.423c-2,1.684-1.5,7.627-1.5,7.687l-.267.024a22.976,22.976,0,0,1-.008-3.266c.17-2.336.709-3.9,1.6-4.649a2.652,2.652,0,0,1,2.993-.457,2.965,2.965,0,0,1,1.583,2.813,11.306,11.306,0,0,1-2.789,6.444" transform="translate(-1287.857 -550.543)" fill="#2b478b"/>
        <path id="Trazado_831860" data-name="Trazado 831860" d="M1501.119,700.418a.385.385,0,1,1,.36.409.385.385,0,0,1-.36-.409" transform="translate(-1286.717 -600.069)" fill="#2b478b"/>
        <path id="Trazado_831861" data-name="Trazado 831861" d="M1522.954,706.029a.385.385,0,1,1,.36.409.385.385,0,0,1-.36-.409" transform="translate(-1305.433 -604.879)" fill="#2b478b"/>
        <path id="Trazado_831862" data-name="Trazado 831862" d="M1527.947,616.937h-.01a.092.092,0,0,1-.081-.1,10.692,10.692,0,0,0-.449-4.376.092.092,0,0,1,.169-.069,10.886,10.886,0,0,1,.461,4.466.092.092,0,0,1-.091.081" transform="translate(-1309.245 -524.873)" fill="#2b478b"/>
        <path id="Trazado_831863" data-name="Trazado 831863" d="M1452,619.445h0a.092.092,0,0,1-.088-.1,15.36,15.36,0,0,1,1.035-4.839.091.091,0,1,1,.168.072,15.177,15.177,0,0,0-1.02,4.775.092.092,0,0,1-.092.088" transform="translate(-1244.534 -526.693)" fill="#2b478b"/>
        <path id="Trazado_831864" data-name="Trazado 831864" d="M1446.75,644.973a.895.895,0,1,1,1.126.577.895.895,0,0,1-1.126-.577" transform="translate(-1240.077 -551.849)" fill="#2b478b"/>
        <path id="Trazado_831865" data-name="Trazado 831865" d="M1450.14,647.749a.407.407,0,1,1,.513.263.407.407,0,0,1-.513-.263" transform="translate(-1243.003 -554.776)" fill="#6980e2"/>
        <path id="Trazado_831866" data-name="Trazado 831866" d="M604.62,1187.069h5.774a13.943,13.943,0,0,0-.461-2.073,5.9,5.9,0,0,0-.327-.832c-.561-1.121-4.129-.408-4.129-.408a2.747,2.747,0,0,0-.59,1.368,11.464,11.464,0,0,0-.268,1.944" transform="translate(-518.263 -1014.49)" fill="#233862"/>
        <path id="Trazado_831867" data-name="Trazado 831867" d="M674.955,588.2s4.6.808,5.641,3.524,6.917,46.585,6.917,46.585-2.91,2.306-9.157,1.478-3.4-51.586-3.4-51.586" transform="translate(-577.999 -504.189)" fill="#aec3ff"/>
        <path id="Trazado_831868" data-name="Trazado 831868" d="M726.771,1172.408a3.131,3.131,0,0,0,.4,1.823h11.421a1.971,1.971,0,0,0-1.729-1.225,8.664,8.664,0,0,1-4.622-2.139,3.441,3.441,0,0,1-.895-1.621c-.537-2.392-4.443.733-4.443.733a19.33,19.33,0,0,0-.133,2.429" transform="translate(-622.965 -1001.472)" fill="#233862"/>
        <path id="Trazado_831869" data-name="Trazado 831869" d="M651.656,861.767c-1.276.407-3.716,1.65-5.266,1.065-1-.377-6.6-16.571-6.962-23.653a18.135,18.135,0,0,0-.286-2.11c-.332-1.828-.911-4.34-1.58-7.112-1.792-7.427-4.214-16.718-4.162-19.687.081-4.609,13.736-.966,13.736-.966a49.309,49.309,0,0,1,1.126,9.255c.371,10.866,1.39,29.219,4.163,41.965a1.094,1.094,0,0,1-.769,1.243" transform="translate(-542.932 -692.541)" fill="#59a9ad"/>
        <path id="Trazado_831870" data-name="Trazado 831870" d="M602.946,814.395l-7.218,52.316a14.119,14.119,0,0,1-5.636.153s-2.113-27.824-1.937-34.551-1.517-18,.386-19.243,14.4,1.324,14.4,1.324" transform="translate(-503.699 -696.649)" fill="#6bb7bf"/>
        <path id="Trazado_831871" data-name="Trazado 831871" d="M587.628,586.312s7.586-4.905,13.027-2.4a10.2,10.2,0,0,1,2.564,2.3c1.967,2.167,5.81,36.593,5.81,36.593s-10.909,3.695-21.4-1.254Z" transform="translate(-503.698 -499.903)" fill="#fff"/>
        <path id="Trazado_831872" data-name="Trazado 831872" d="M681.857,587.33s7.68,3.147,8.72,5.565S695,610.164,695,611.905s-5.886.389-6.834-2.419c-.787-2.332-3.441-9.5-4.84-14.029Z" transform="translate(-584.469 -503.442)" fill="#aec3ff"/>
        <path id="Trazado_831873" data-name="Trazado 831873" d="M635.028,562.943a8.64,8.64,0,0,1-5.943-1.21,17.091,17.091,0,0,0,1.267-4.473c.007-.053.012-.1.017-.153a4.57,4.57,0,0,0,.021-1.025h4.334s1.185.542,1.185.916q0,.3.005.575c.009.5.029.934.055,1.307a11.9,11.9,0,0,0,.222,1.789s.53,1.942-1.163,2.274" transform="translate(-539.234 -476.657)" fill="#ffb27d"/>
        <path id="Trazado_831874" data-name="Trazado 831874" d="M643.019,563.676a5.989,5.989,0,0,1-5.617-1.62c-.061-.066-.092-.1-.092-.1.035-.017.071-.033.109-.048,1.222-.495,4-.1,5.545.466.009.5.029.934.055,1.307" transform="translate(-546.284 -481.453)" fill="#e2915a"/>
        <path id="Trazado_831875" data-name="Trazado 831875" d="M625.486,503.363c.587,3.158,4.662,3.054,6.423,2.856.5-.055.807-.118.807-.118.559-.149.871-1.029,1.015-2.182a17.954,17.954,0,0,0-.461-6.487c-.58-1.289-1.673-2.683-5.776-1.677s-2.761,3.563-2.008,7.609" transform="translate(-535.441 -424.651)" fill="#ffb27d"/>
        <path id="Trazado_831876" data-name="Trazado 831876" d="M617.1,480.08a9.381,9.381,0,0,0-2.83-2.31c-2.321-1.255-5.29.039-5.3.045-3.352,1.474-4.227,4.038-2.45,8.033,1.879,4.224,3.669,3.749,3.669,3.749s-.38-.236-.346-1.553c0-.075,0-.137.008-.191a.884.884,0,0,0-.28-.72c-.416-.372-.619-1.5-.27-1.808.42-.378,1.011.081,1.2.434a.515.515,0,0,0,.736.162c1.043-.66.366-1.979,1.363-2.785s3.019-.13,4.515-.773c1.957-.729.411-1.7-.012-2.282" transform="translate(-519.122 -409.061)" fill="#233862"/>
        <path id="Trazado_831877" data-name="Trazado 831877" d="M589.15,640.862q-.991.255-1.964.417c-.575.1-1.147.171-1.72.219a27.953,27.953,0,0,1-10.319-1.267q-1.287-.369-2.665-.835c-.1-.033.25-10.112.653-20.508.041-1.073.083-2.151.125-3.22q.027-.68.054-1.354c.365-9.195.726-17.5.8-17.945.174-1.012.337-1.874.515-2.621.519-2.178,1.164-3.373,2.57-4.4.137-.1,1.261-.671,2.253-1.164.822-.409,1.552-.765,1.552-.765h0a4.332,4.332,0,0,1,1.131,1.961,70.866,70.866,0,0,1,2.137,7.123.072.072,0,0,1,0,.011h0c.365,1.431.627,2.546.7,2.866.127.54.294,1.586.491,3,.267,1.929.586,4.547.923,7.517.035.3.069.614.1.927q.06.534.121,1.081.02.176.038.351c.13,1.176.261,2.391.391,3.625.108,1.02,1.656,1.758,1.762,2.8.061.609.19,6.231.356,8.026.119,1.281.034,13.554-.012,14.157" transform="translate(-490.701 -503.518)" fill="#aec3ff"/>
        <path id="Trazado_831878" data-name="Trazado 831878" d="M585.111,676.034c0,.021-.263,9.3,6.715,10.425s2.342,1.425,2.342,1.425-13.129-.558-13.346-.9,4.289-10.945,4.289-10.945" transform="translate(-497.858 -579.477)" fill="#9db0f4"/>
        <path id="Trazado_831879" data-name="Trazado 831879" d="M578.236,765.63s-.131.093-.382.255l-.013.008a32.763,32.763,0,0,1-8.824,3.774q-.724.2-1.5.369c.041-1.073.083-2.151.125-3.22a13.507,13.507,0,0,1-1.729-.239c.018-.141.037-.283.056-.424.585-.24,1.167-.472,1.728-.691.457-.179.9-.349,1.317-.506,1.89-.718,3.29-1.2,3.29-1.2l5.594,1.772Z" transform="translate(-485.087 -654.666)" fill="#9db0f4"/>
        <path id="Trazado_831880" data-name="Trazado 831880" d="M553.743,614.327s-.719.179-1.863.41l-.012,0a45.841,45.841,0,0,1-8.825.986c-.467-.005-.927-.023-1.371-.058a13.493,13.493,0,0,1-1.729-.239,5.382,5.382,0,0,1-2.763-1.3c-4.713-4.8,2.572-22.03,4.1-23.706,1.788-1.957,5.052-2.644,6.854-2.88l.218-.028c.634-.075,1.04-.091,1.063-.092h0s-.141.454-.378,1.225c-.092.3-.2.644-.315,1.03-1.107,3.625-3.243,10.75-4.184,14.767a10.2,10.2,0,0,0-.446,2.839c.367,1.372,4.176,2.078,6.588,2.39,1.006.13,1.77.192,1.941.2l.036,0,.14.572.334,1.372.328,1.348Z" transform="translate(-459.113 -503.519)" fill="#aec3ff"/>
        <path id="Trazado_831881" data-name="Trazado 831881" d="M657.435,708.485l-16.187-.682,3.284-20.172,16.186.682Z" transform="translate(-549.66 -589.417)" fill="#233862"/>
        <path id="Trazado_831882" data-name="Trazado 831882" d="M649.551,744.473s3.151-.22,3.309.515c.368,1.712-2.709,3.118-3.706,3.022s-.328-3.651.4-3.536" transform="translate(-556.005 -638.115)" fill="#ffb27d"/>
        <path id="Trazado_831883" data-name="Trazado 831883" d="M750.544,718.025s-3.015-.943-3.338-.265c-.754,1.58,1.914,3.66,2.906,3.8s1.164-3.476.432-3.532" transform="translate(-640.37 -615.033)" fill="#ffb27d"/>
        <path id="Trazado_831884" data-name="Trazado 831884" d="M622.609,580.326a5.883,5.883,0,0,0-1.99,1.585s4.955,8.6,4.933,8.522-1.675-9.006-2.943-10.108" transform="translate(-531.977 -497.439)" fill="#9db0f4"/>
        <path id="Trazado_831885" data-name="Trazado 831885" d="M677.762,581.175a3.78,3.78,0,0,1,1.462,1.5l.589,7.51s-1.258-5.512-1.9-8a4.213,4.213,0,0,1-.153-1" transform="translate(-580.959 -498.166)" fill="#9db0f4"/>
        <path id="Trazado_831886" data-name="Trazado 831886" d="M701.809,686.213a.735.735,0,0,1,.865-.495c.737.065,4.876.269,4.876.269s.8-.013.724.5Z" transform="translate(-601.571 -587.774)" fill="#c65447"/>
        <path id="Trazado_831887" data-name="Trazado 831887" d="M668.566,553.412a1.728,1.728,0,0,0,1.4.338c.514-.09.8-.758.8-.758a3.881,3.881,0,0,0-2.206.42" transform="translate(-573.076 -473.987)" fill="#fff"/>
        <rect id="Rectángulo_379276" data-name="Rectángulo 379276" width="4.19" height="1.879" transform="translate(85.953 89.979)" fill="#ebf3fa"/>
        <path id="Trazado_831888" data-name="Trazado 831888" d="M192.623,1159.575c-.415-.652-1.664-2.344-3.328-2.121-1.813.244,2,1.44,3.17,2.126a1.931,1.931,0,0,1-.646-.075,4.36,4.36,0,0,0-2.546.443h7.434a1.178,1.178,0,0,0-.531-.68,1.328,1.328,0,0,0-.684-.061c.442-.521.749-2.186-.482-1.757-.9.313-.9,1.33-.808,1.932-.191.03-.385.06-.577.088-.37-1.886-1.679-7.415-4.333-7.562-2.69-.15,2.281,5.733,3.936,7.615-.212.026-.416.045-.605.054" transform="translate(-161.584 -987.379)" fill="#82b378"/>
        <path id="Trazado_831889" data-name="Trazado 831889" d="M367.6,1209.152H.417a.418.418,0,0,1-.417-.417v-.142a.418.418,0,0,1,.417-.417H367.6a.418.418,0,0,1,.417.417v.142a.418.418,0,0,1-.417.417" transform="translate(0 -1035.614)" fill="#2e3552"/>
      </g>
    </g>
  </g>
</svg>
