<svg id="Grupo_1080411" data-name="Grupo 1080411" xmlns="http://www.w3.org/2000/svg" xmlns:xlink="http://www.w3.org/1999/xlink" width="295" height="174.516" viewBox="0 0 295 174.516">
  <defs>
    <clipPath id="clip-path">
      <rect id="Rectángulo_379209" data-name="Rectángulo 379209" width="295" height="174.516" fill="none"/>
    </clipPath>
  </defs>
  <g id="Grupo_1080410" data-name="Grupo 1080410" clip-path="url(#clip-path)">
    <path id="Trazado_831556" data-name="Trazado 831556" d="M42.441,173.648s-28.8-35.8,6.063-68.772S54.567,15.85,102.317,3.132s42.823,45.219,94.363,38.154,89.057,5.2,90.952,41.7-9.474,61.461,14.779,90.665Z" transform="translate(-17.715 -0.737)" fill="#ebebeb"/>
    <rect id="Rectángulo_379189" data-name="Rectángulo 379189" width="274.753" height="1.589" transform="translate(13.549 172.911)" fill="#070707"/>
    <path id="Trazado_831557" data-name="Trazado 831557" d="M113.233,295.96a76.3,76.3,0,0,1-11.026-4.588l-.268-2.16-1.694,1.051c-4-2.417-7.017-5.36-5.5-8.313,1.544-3,5-3.548,8.517-2.058l.257,2.621,1.747-1.554c4.014,2.594,7.627,7.8,7.965,15" transform="translate(-53.46 -158.144)" fill="#cadeb4"/>
    <path id="Trazado_831558" data-name="Trazado 831558" d="M97.845,286.977s15.231,1.653,19.385,19.341" transform="translate(-55.442 -162.611)" fill="none" stroke="#080808" stroke-miterlimit="10" stroke-width="1.237"/>
    <path id="Trazado_831559" data-name="Trazado 831559" d="M121.521,259.807s-5.4-6.432-12.151-13.641l1.286-3.179s-2.069.236-3.768.461c-5.886-7.091-2.948-12.065-1.683-13.459,1.12-1.233,6.9-4.513,12.821,1.292l-.359,3.13h2.921c.316.461.627.949.933,1.474,6.93,11.792,0,23.922,0,23.922" transform="translate(-58.559 -129.163)" fill="#cadeb4"/>
    <path id="Trazado_831560" data-name="Trazado 831560" d="M111.038,232.66s13.311,10.407,14.383,23.539,1.1,22.423,1.1,22.423" transform="translate(-62.918 -131.833)" fill="none" stroke="#080808" stroke-miterlimit="10" stroke-width="1.237"/>
    <path id="Trazado_831561" data-name="Trazado 831561" d="M165.195,276.48l-1.978-.338.536,1.56c-7.311,6.051-8.185,5.43-11.128,9.214,0,0-3.328-12.129,4.192-18.942l2.2.75-.289-2.214c9.342-6.014,14.188,3.034,6.464,9.97" transform="translate(-86.067 -149.899)" fill="#cadeb4"/>
    <path id="Trazado_831562" data-name="Trazado 831562" d="M166.914,269.455s-14.472,5.762-15.678,27.738" transform="translate(-85.696 -152.683)" fill="none" stroke="#080808" stroke-miterlimit="10" stroke-width="1.237"/>
    <path id="Trazado_831563" data-name="Trazado 831563" d="M142.253,326.139H115.812s-1.169,10.1,1.158,18.535v11.642a2.921,2.921,0,0,0,1.667,2.632,3.426,3.426,0,0,0,1.458.37,2.122,2.122,0,0,0,1.19-.348c1-.664,1.587-2.257,1.747-4.754a11.752,11.752,0,0,0,12.778-.45c.118,2.755.713,4.5,1.769,5.2a2.148,2.148,0,0,0,1.19.348,3.431,3.431,0,0,0,1.463-.37,2.926,2.926,0,0,0,1.662-2.632V341.774h-.016a59.315,59.315,0,0,0,.375-15.635M120.99,358.524a2.09,2.09,0,0,1-2.123-.059,2.4,2.4,0,0,1-1.362-2.149v-9.921a15.144,15.144,0,0,0,5.011,7.461c-.144,3.05-.874,4.234-1.527,4.669m20.368-2.208A2.39,2.39,0,0,1,140,358.465a2.1,2.1,0,0,1-2.128.059c-.692-.461-1.458-1.747-1.538-5.183,2.551-2.176,4.1-5.521,5.022-9.133Z" transform="translate(-65.457 -184.802)" fill="#070707"/>
    <rect id="Rectángulo_379190" data-name="Rectángulo 379190" width="29.301" height="4.467" transform="translate(48.924 139.106)" fill="#2a2832"/>
    <path id="Trazado_831564" data-name="Trazado 831564" d="M633.368,317.272a32.912,32.912,0,0,0-6.082-5.129v-1.317l-.924.644c-3.434-2.722-3.272-5.444.084-5.827a4.7,4.7,0,0,1,2.721.462l-.078,1.282,1.371-.314c1.636,1.685,2.766,4.923,2.908,10.2" transform="translate(-353.5 -173.168)" fill="#83b44d"/>
    <path id="Trazado_831565" data-name="Trazado 831565" d="M660.257,292.789a12.207,12.207,0,0,1-1.71,1.827l-2-.6.315,2.009a97.926,97.926,0,0,1-8.421,5.738c-.216-4.893.752-10.744,4.962-13.309l1.474.708-.457-1.238a9.257,9.257,0,0,1,.963-.354c5.9-1.783,7.187,1.965,4.874,5.217" transform="translate(-367.414 -162.687)" fill="#83b44d"/>
    <path id="Trazado_831566" data-name="Trazado 831566" d="M633.289,280.292a37.007,37.007,0,0,1-5.979-3.822v-1.6l-1.125.619c-1.71-1.636-2.835-3.463-2.009-5.1.933-1.847,3.031-1.99,5-.81l.084,1.547,1.16-.6a10.738,10.738,0,0,1,2.869,9.771" transform="translate(-353.523 -152.323)" fill="#83b44d"/>
    <path id="Trazado_831567" data-name="Trazado 831567" d="M661.964,272.347l-1.994-.6v1.366c-3.208,1.154-7.148,2.284-7.148,2.284.712-3.729,2.442-7.074,5.989-8.15l.791.757.536-1.041c.246-.035.5-.054.757-.069,4.957-.246,4.3,4.088,1.071,5.453" transform="translate(-369.911 -151.226)" fill="#83b44d"/>
    <path id="Trazado_831568" data-name="Trazado 831568" d="M634.368,253.191s-3.38-3.758-7.359-7.723l.555-2.029-2.127.487c-.04-.039-.084-.079-.123-.118-4.667-4.505-2.368-10.646,4.589-7.944a7.929,7.929,0,0,1,1.764.943l-.25,1.72,1.72-.368c3.316,3.974,2.442,10.936,1.233,15.033" transform="translate(-352.942 -133.273)" fill="#83b44d"/>
    <path id="Trazado_831569" data-name="Trazado 831569" d="M666.278,246.156a7.053,7.053,0,0,1-1.695,2.157l-1.852.2.192,1.106a36.4,36.4,0,0,1-6.961,3.567s.079-5.674,3.881-9.3c.054-.054.108-.1.162-.147l1.538.516-.133-1.543c3.331-1.867,6.421.1,4.868,3.444" transform="translate(-371.691 -137.12)" fill="#83b44d"/>
    <path id="Trazado_831570" data-name="Trazado 831570" d="M643.574,334.364H624.537l3.071,19.574V361.2a1.564,1.564,0,0,0,.471,1.063,1.734,1.734,0,0,0,1.224.419c.073,0,.149,0,.226-.009,1.562-.116,1.507-3.184,1.463-5.65,0-.254-.009-.5-.011-.736H638.2c0,.235-.007.482-.011.736-.044,2.465-.1,5.534,1.463,5.65.078.006.154.009.226.009a1.735,1.735,0,0,0,1.224-.419,1.563,1.563,0,0,0,.471-1.063v-6.968ZM630.5,357.032c.036,2.019.09,5.069-1.009,5.151a1.391,1.391,0,0,1-1.075-.276,1.078,1.078,0,0,1-.319-.707v-4.913h2.391c0,.238.007.488.011.745m10.263,4.871a1.391,1.391,0,0,1-1.079.28c-1.1-.081-1.044-3.132-1.009-5.151,0-.257.009-.507.011-.745h2.391V361.2a1.075,1.075,0,0,1-.315.7" transform="translate(-353.885 -189.462)" fill="#070707"/>
    <rect id="Rectángulo_379191" data-name="Rectángulo 379191" width="21.125" height="3.07" transform="translate(269.547 143.366)" fill="#252728"/>
    <path id="Trazado_831571" data-name="Trazado 831571" d="M659.925,246.366s-13.141,5.4-13.817,24.564,0,22.108,0,22.108" transform="translate(-365.938 -139.6)" fill="none" stroke="#252728" stroke-miterlimit="10" stroke-width="1.134"/>
    <path id="Trazado_831572" data-name="Trazado 831572" d="M626.049,308.526a12.131,12.131,0,0,1,8.563,10.4" transform="translate(-354.742 -174.822)" fill="none" stroke="#252728" stroke-miterlimit="10" stroke-width="1.134"/>
    <path id="Trazado_831573" data-name="Trazado 831573" d="M658.779,289.822s-12.842,6.55-12.971,20.142" transform="translate(-365.938 -164.223)" fill="none" stroke="#252728" stroke-miterlimit="10" stroke-width="1.134"/>
    <path id="Trazado_831574" data-name="Trazado 831574" d="M626.049,273.289a13.593,13.593,0,0,1,8.863,12.9" transform="translate(-354.742 -154.855)" fill="none" stroke="#252728" stroke-miterlimit="10" stroke-width="1.134"/>
    <path id="Trazado_831575" data-name="Trazado 831575" d="M628.505,239s10.426,7.238,9.054,19.3" transform="translate(-356.133 -135.424)" fill="none" stroke="#252728" stroke-miterlimit="10" stroke-width="1.134"/>
    <path id="Trazado_831576" data-name="Trazado 831576" d="M660.318,271.306s-13.141,1.31-13.817,15.393" transform="translate(-366.33 -153.732)" fill="none" stroke="#252728" stroke-miterlimit="10" stroke-width="1.134"/>
    <rect id="Rectángulo_379192" data-name="Rectángulo 379192" width="4.358" height="95.699" transform="translate(180.318 78.036)" fill="#37539a"/>
    <rect id="Rectángulo_379193" data-name="Rectángulo 379193" width="117.657" height="95.699" transform="translate(123.668 24.444)" fill="#cedbea"/>
    <path id="Trazado_831577" data-name="Trazado 831577" d="M400.894,55.02H281.841a1.679,1.679,0,0,1,0-3.357H400.894a1.679,1.679,0,0,1,0,3.357" transform="translate(-158.75 -29.274)" fill="#344b7e"/>
    <path id="Trazado_831578" data-name="Trazado 831578" d="M515.177,186.617h-9.342a2.122,2.122,0,0,1-2.122-2.122v-9.166a2.122,2.122,0,0,1,2.122-2.122h9.342a2.122,2.122,0,0,1,2.122,2.122V184.5a2.122,2.122,0,0,1-2.122,2.122" transform="translate(-285.422 -98.145)" fill="#93b1ce"/>
    <path id="Trazado_831579" data-name="Trazado 831579" d="M513.072,181.471l-.42-.074a2.2,2.2,0,0,0-.217-.523l.245-.349a.323.323,0,0,0-.036-.413l-.251-.251a.323.323,0,0,0-.414-.029l-.349.245a2.166,2.166,0,0,0-.523-.217l-.072-.429a.323.323,0,0,0-.312-.268h-.363a.323.323,0,0,0-.318.268l-.074.419a2.162,2.162,0,0,0-.523.217l-.348-.234a.322.322,0,0,0-.414.036l-.251.251a.322.322,0,0,0-.036.413l.244.349a2.2,2.2,0,0,0-.217.523l-.419.074a.322.322,0,0,0-.267.319v.356a.322.322,0,0,0,.267.318l.419.074a2.194,2.194,0,0,0,.217.523l-.244.349a.322.322,0,0,0,.036.413l.251.252a.323.323,0,0,0,.414.036l.349-.245a2.164,2.164,0,0,0,.523.217l.074.419a.323.323,0,0,0,.319.268h.361a.323.323,0,0,0,.319-.268l.073-.419a2.158,2.158,0,0,0,.523-.217l.341.24a.323.323,0,0,0,.414-.036l.251-.251a.323.323,0,0,0,.036-.413l-.245-.352a2.185,2.185,0,0,0,.217-.523l.42-.074a.322.322,0,0,0,.267-.319v-.356a.322.322,0,0,0-.267-.317m-2.533,1.455a.96.96,0,1,1,.96-.96v.005a.961.961,0,0,1-.96.955" transform="translate(-287.703 -101.52)" fill="#fff"/>
    <path id="Trazado_831580" data-name="Trazado 831580" d="M524.943,177.74l-.337-.059a1.756,1.756,0,0,0-.174-.42l.2-.28a.259.259,0,0,0-.029-.332l-.2-.2a.258.258,0,0,0-.331-.024l-.28.2a1.753,1.753,0,0,0-.42-.174l-.058-.345a.259.259,0,0,0-.25-.215h-.291a.259.259,0,0,0-.255.215l-.059.336a1.731,1.731,0,0,0-.419.174l-.28-.188a.258.258,0,0,0-.331.029l-.2.2a.258.258,0,0,0-.029.332l.2.28a1.757,1.757,0,0,0-.174.42l-.336.059a.259.259,0,0,0-.215.256v.286a.259.259,0,0,0,.215.256l.336.059a1.757,1.757,0,0,0,.174.42l-.2.28a.259.259,0,0,0,.029.332l.2.2a.258.258,0,0,0,.331.029l.28-.2a1.755,1.755,0,0,0,.42.174l.059.336a.259.259,0,0,0,.256.215h.29a.259.259,0,0,0,.256-.215l.059-.336a1.755,1.755,0,0,0,.42-.174l.274.192a.258.258,0,0,0,.331-.029l.2-.2a.259.259,0,0,0,.029-.332l-.2-.283a1.756,1.756,0,0,0,.174-.42l.337-.059a.259.259,0,0,0,.215-.256v-.286a.259.259,0,0,0-.215-.254m-2.034,1.168a.771.771,0,1,1,.771-.771v0a.771.771,0,0,1-.771.767" transform="translate(-295.026 -99.664)" fill="#fff"/>
    <path id="Trazado_831581" data-name="Trazado 831581" d="M520.881,192.929l-.337-.059a1.761,1.761,0,0,0-.174-.42l.2-.28a.259.259,0,0,0-.029-.332l-.2-.2a.258.258,0,0,0-.331-.024l-.281.2a1.751,1.751,0,0,0-.42-.174l-.058-.345a.259.259,0,0,0-.25-.215H518.7a.259.259,0,0,0-.255.215l-.059.336a1.734,1.734,0,0,0-.419.174l-.28-.188a.258.258,0,0,0-.331.029l-.2.2a.258.258,0,0,0-.029.332l.2.28a1.757,1.757,0,0,0-.174.42l-.336.059a.259.259,0,0,0-.215.256v.286a.259.259,0,0,0,.215.256l.336.059a1.757,1.757,0,0,0,.174.42l-.2.28a.258.258,0,0,0,.029.332l.2.2a.258.258,0,0,0,.331.029l.28-.2a1.755,1.755,0,0,0,.42.174l.059.336a.259.259,0,0,0,.256.215H519a.259.259,0,0,0,.256-.215l.059-.336a1.751,1.751,0,0,0,.42-.174l.274.192a.258.258,0,0,0,.331-.029l.2-.2a.258.258,0,0,0,.029-.332l-.2-.283a1.759,1.759,0,0,0,.174-.42l.337-.059a.259.259,0,0,0,.215-.256v-.286a.259.259,0,0,0-.215-.254m-2.034,1.168a.771.771,0,1,1,.771-.771v0a.771.771,0,0,1-.771.767" transform="translate(-292.724 -108.27)" fill="#fff"/>
    <path id="Trazado_831582" data-name="Trazado 831582" d="M515.177,143.951h-9.342a2.122,2.122,0,0,1-2.122-2.122v-9.166a2.122,2.122,0,0,1,2.122-2.122h9.342a2.122,2.122,0,0,1,2.122,2.122v9.166a2.122,2.122,0,0,1-2.122,2.122" transform="translate(-285.422 -73.969)" fill="#93b1ce"/>
    <path id="Trazado_831583" data-name="Trazado 831583" d="M519.073,152.921a.305.305,0,0,1-.3.295h-.048a.5.5,0,0,1-.459.321.653.653,0,0,1-.672.594l-.243,0a.659.659,0,0,1-.646-.628.5.5,0,0,1-.429-.342h-.056a.3.3,0,0,1,.009-.6h.03l.009-.312h-.026a.3.3,0,0,1,0-.607h.035l.013-.464,2.509.056-.013.468h.009a.3.3,0,0,1,.295.308.3.3,0,0,1-.3.295h-.017l-.009.312h.009a.308.308,0,0,1,.3.312" transform="translate(-292.34 -85.658)" fill="#f2f8fc"/>
    <path id="Trazado_831584" data-name="Trazado 831584" d="M518.8,137.409a3.581,3.581,0,0,0-7.138-.166,3.222,3.222,0,0,0,1.4,2.694h0a1.048,1.048,0,0,1,.441.856l-.011.444a.394.394,0,0,0,.4.387l2.49.058a.393.393,0,0,0,.417-.367l.01-.448a1.042,1.042,0,0,1,.472-.829h0a3.223,3.223,0,0,0,1.523-2.628" transform="translate(-289.922 -75.944)" fill="#c2ddef"/>
    <path id="Trazado_831585" data-name="Trazado 831585" d="M517.594,146.077l.087-3.719a.5.5,0,0,0-1-.023l-.006.279a.5.5,0,0,0,.487.51l.86.023" transform="translate(-292.768 -80.376)" fill="none" stroke="#fff" stroke-miterlimit="10" stroke-width="0.236"/>
    <path id="Trazado_831586" data-name="Trazado 831586" d="M520.013,146.146l.086-3.719a.5.5,0,0,1,1,.023l-.007.279a.5.5,0,0,1-.51.487l-.926-.02" transform="translate(-294.454 -80.428)" fill="none" stroke="#fff" stroke-miterlimit="10" stroke-width="0.236"/>
    <path id="Trazado_831587" data-name="Trazado 831587" d="M515.177,101.284h-9.342a2.122,2.122,0,0,1-2.122-2.122V90a2.122,2.122,0,0,1,2.122-2.122h9.342A2.122,2.122,0,0,1,517.3,90v9.166a2.122,2.122,0,0,1-2.122,2.122" transform="translate(-285.422 -49.793)" fill="#93b1ce"/>
    <path id="Trazado_831588" data-name="Trazado 831588" d="M517.81,96.636a5.132,5.132,0,1,1-5.132-5.132,5.132,5.132,0,0,1,5.132,5.132" transform="translate(-287.594 -51.849)" fill="#fff"/>
    <path id="Trazado_831589" data-name="Trazado 831589" d="M518.226,98.4a3.78,3.78,0,1,1-3.78-3.78,3.78,3.78,0,0,1,3.78,3.78" transform="translate(-289.361 -53.617)" fill="#93b1ce"/>
    <path id="Trazado_831590" data-name="Trazado 831590" d="M518.536,99.727a2.768,2.768,0,1,1-2.768-2.768,2.768,2.768,0,0,1,2.768,2.768" transform="translate(-290.684 -54.94)" fill="#fff"/>
    <path id="Trazado_831591" data-name="Trazado 831591" d="M518.832,100.98a1.809,1.809,0,1,1-1.809-1.809,1.809,1.809,0,0,1,1.809,1.809" transform="translate(-291.938 -56.194)" fill="#93b1ce"/>
    <path id="Trazado_831592" data-name="Trazado 831592" d="M519.081,102.043a1,1,0,1,1-1-1,1,1,0,0,1,1,1" transform="translate(-293 -57.256)" fill="#fff"/>
    <rect id="Rectángulo_379194" data-name="Rectángulo 379194" width="7.801" height="13.831" transform="translate(145.861 90.319)" fill="#93b1ce"/>
    <rect id="Rectángulo_379195" data-name="Rectángulo 379195" width="7.801" height="26.998" transform="translate(163.779 77.152)" fill="#93b1ce"/>
    <rect id="Rectángulo_379196" data-name="Rectángulo 379196" width="7.801" height="39.87" transform="translate(181.696 64.281)" fill="#93b1ce"/>
    <rect id="Rectángulo_379197" data-name="Rectángulo 379197" width="7.801" height="51.137" transform="translate(199.614 53.013)" fill="#93b1ce"/>
    <path id="Trazado_831593" data-name="Trazado 831593" d="M345.578,135.016l45.359-38.042,3.755,3.053V88l-11.845,1.444L386.82,93.2Z" transform="translate(-195.816 -49.862)" fill="#344b7e"/>
    <path id="Trazado_831594" data-name="Trazado 831594" d="M310.386,91v64.716H394.4" transform="translate(-175.876 -51.562)" fill="none" stroke="#93b1ce" stroke-miterlimit="10" stroke-width="1"/>
    <path id="Trazado_831595" data-name="Trazado 831595" d="M131.507,138.913H75.446L57.439,59.41H113.5Z" transform="translate(-32.547 -33.664)" fill="#344b7e"/>
    <rect id="Rectángulo_379198" data-name="Rectángulo 379198" width="76.446" height="5.776" transform="translate(26.777 167.085)" fill="#344b7e"/>
    <rect id="Rectángulo_379199" data-name="Rectángulo 379199" width="5.096" height="96.661" transform="translate(38.329 73.312)" fill="#344b7e"/>
    <rect id="Rectángulo_379200" data-name="Rectángulo 379200" width="5.096" height="91.969" transform="translate(88.952 78.004)" fill="#344b7e"/>
    <rect id="Rectángulo_379201" data-name="Rectángulo 379201" width="62.119" height="4.53" transform="translate(40.877 105.25)" fill="#344b7e"/>
    <rect id="Rectángulo_379202" data-name="Rectángulo 379202" width="23.104" height="4.077" transform="translate(31.024 81.976)" fill="#344b7e"/>
    <path id="Trazado_831596" data-name="Trazado 831596" d="M83.217,46.6h4.813L91.371,55.1H86.615Z" transform="translate(-47.154 -26.408)" fill="#344b7e"/>
    <path id="Trazado_831597" data-name="Trazado 831597" d="M148.289,46.6H153.1l3.341,8.494h-4.757Z" transform="translate(-84.026 -26.408)" fill="#344b7e"/>
    <path id="Trazado_831598" data-name="Trazado 831598" d="M135.855,138.913H79.8L61.788,59.41h56.06Z" transform="translate(-35.011 -33.664)" fill="#fff"/>
    <path id="Trazado_831599" data-name="Trazado 831599" d="M157.489,182.485h-56.06l-1.465-6.474c2.583-8.672,12.836-12.979,29.1-14.561,12.81-1.244,16.91-13.82,17.967-25.144Z" transform="translate(-56.643 -77.236)" fill="#fafbfc"/>
    <path id="Trazado_831600" data-name="Trazado 831600" d="M137.22,118.626c4.5,12.175-.374,25.2-10.9,29.095s-22.7-2.821-27.21-15,.374-25.2,10.9-29.095,22.7,2.821,27.209,15" transform="translate(-55.211 -58.093)" fill="#ce6363"/>
    <path id="Trazado_831601" data-name="Trazado 831601" d="M139.718,115.126c4.5,12.175-.374,25.2-10.9,29.095s-22.7-2.821-27.21-15,.374-25.2,10.9-29.095,22.7,2.821,27.209,15" transform="translate(-56.626 -56.11)" fill="#f99595"/>
    <path id="Trazado_831602" data-name="Trazado 831602" d="M141.84,124.957c3.318,8.968-.276,18.563-8.026,21.43s-16.724-2.078-20.041-11.046.275-18.563,8.026-21.43,16.724,2.078,20.041,11.046" transform="translate(-63.767 -64.085)" fill="#fff"/>
    <path id="Trazado_831603" data-name="Trazado 831603" d="M143.861,134.323c2.188,5.913-.182,12.238-5.292,14.129s-11.026-1.37-13.213-7.283.182-12.238,5.292-14.129,11.026,1.37,13.213,7.283" transform="translate(-70.569 -71.681)" fill="#f99595"/>
    <path id="Trazado_831604" data-name="Trazado 831604" d="M145.235,140.695c1.418,3.834-.118,7.935-3.431,9.161s-7.149-.888-8.568-4.722.118-7.936,3.431-9.161,7.149.888,8.568,4.722" transform="translate(-75.197 -76.85)" fill="#fff"/>
    <path id="Trazado_831605" data-name="Trazado 831605" d="M146.729,147.619a2.655,2.655,0,1,1-3.519-1.939,2.857,2.857,0,0,1,3.519,1.939" transform="translate(-80.226 -82.466)" fill="#f99595"/>
    <line id="Línea_1017" data-name="Línea 1017" y1="14.443" x2="26.167" transform="translate(63.81 51.657)" fill="none" stroke="#344b7e" stroke-linecap="round" stroke-miterlimit="10" stroke-width="2"/>
    <path id="Trazado_831606" data-name="Trazado 831606" d="M198.624,117.663v2.819l2.384,1.442" transform="translate(-112.547 -66.672)" fill="none" stroke="#344b7e" stroke-linecap="round" stroke-miterlimit="10" stroke-width="2"/>
    <path id="Trazado_831607" data-name="Trazado 831607" d="M204.874,114.283V117.1l2.383,1.442" transform="translate(-116.089 -64.757)" fill="none" stroke="#344b7e" stroke-linecap="round" stroke-miterlimit="10" stroke-width="2"/>
    <path id="Trazado_831608" data-name="Trazado 831608" d="M147.267,145.059c-.09.269-1.993,3.665-1.993,3.665l4.052.208Z" transform="translate(-82.317 -82.196)" fill="#344b7e"/>
    <path id="Trazado_831609" data-name="Trazado 831609" d="M274.975,157.48l-1.418-1.625.442-8.614,1.55.53.618,6.375Z" transform="translate(-155.007 -83.432)" fill="#bc610f"/>
    <path id="Trazado_831610" data-name="Trazado 831610" d="M226.882,133.985l15.244,9.553a3.348,3.348,0,1,0,3.017-5.948l-16.724-6.662-.735-1.456a6.624,6.624,0,0,0-1.843-2.238l-1.906-1.484a1.418,1.418,0,0,0,.234,1.9l.159.137-1.767-.76a7.553,7.553,0,0,0-2.365-.589,2.51,2.51,0,0,0-.924,4.906l1.214.363,2.118,1.231a7.82,7.82,0,0,0,4.277,1.051" transform="translate(-123.232 -71.254)" fill="#f0bf9c"/>
    <path id="Trazado_831611" data-name="Trazado 831611" d="M232.706,130.438h0a4.5,4.5,0,0,0,1.622,4.3l.5.4-.5-.178a3.11,3.11,0,0,1-1.627-4.525" transform="translate(-131.609 -73.911)" fill="#eba588"/>
    <path id="Trazado_831612" data-name="Trazado 831612" d="M274.409,157.767l2.133,1.446-.7-8.68-1.619-.627Z" transform="translate(-155.382 -84.942)" fill="#bc825b"/>
    <path id="Trazado_831613" data-name="Trazado 831613" d="M274.577,147.525v-.283s12.216,4.248,13.6,3.881l7.833-2.078,4.937-.467,7.931,1.871a6.4,6.4,0,0,1,4.552,4.059l4.359,12.079-7.27,1.734L311.853,186H287.174l.867-17.075-1.134-6.136-11.354-5.3.024-1.548c.046-2.927.909-6.188-1-8.408" transform="translate(-155.585 -83.433)" fill="#cadeb4"/>
    <path id="Trazado_831614" data-name="Trazado 831614" d="M301.026,174.148l-1.2-6.853-.224,1.515a9.922,9.922,0,0,0,.525,4.938Z" transform="translate(-169.704 -94.795)" fill="#b1c898"/>
    <path id="Trazado_831615" data-name="Trazado 831615" d="M351.292,175.5l-1.5.317-2.2-10.405,2.151-5.5a6.33,6.33,0,0,0-2.452,5v.494a7.3,7.3,0,0,0-.591,4.789l1.6,7.38a3,3,0,0,0,.81,1.483,3,3,0,0,1,.868,1.874l.906,12.244h1.738Z" transform="translate(-196.358 -90.609)" fill="#b1c898"/>
    <path id="Trazado_831616" data-name="Trazado 831616" d="M354.078,379.094a2.249,2.249,0,0,0-1.59-.659H349.9a4.631,4.631,0,0,0,.353-3.258l-.145-.561H356.3l.859,5.136h-1.491a2.249,2.249,0,0,1-1.59-.659" transform="translate(-198.268 -212.271)" fill="#f0bf9c"/>
    <path id="Trazado_831617" data-name="Trazado 831617" d="M335.406,387.524l1.473-.577a4.636,4.636,0,0,0,1.811-1.28l1.126-1.3a4.631,4.631,0,0,0,.631-.94h2.584a2.249,2.249,0,0,1,1.59.659,2.249,2.249,0,0,0,1.59.659H347.7l.764,4.569H333.214a4.631,4.631,0,0,1,2.192-1.791" transform="translate(-188.811 -217.264)" fill="#070707"/>
    <path id="Trazado_831618" data-name="Trazado 831618" d="M347.584,397.011l.282,1.684H331.657a4.63,4.63,0,0,1,.675-1.684Z" transform="translate(-187.929 -224.96)" fill="#fff"/>
    <path id="Trazado_831619" data-name="Trazado 831619" d="M315.379,379.094a2.249,2.249,0,0,0-1.59-.659h-2.251a4.63,4.63,0,0,0,.738-2.783l-.061-1.036h6.168l-.127,2.784.4,2.351h-1.687a2.249,2.249,0,0,1-1.59-.659" transform="translate(-176.528 -212.271)" fill="#f0bf9c"/>
    <path id="Trazado_831620" data-name="Trazado 831620" d="M296.774,387.524l1.473-.577a4.632,4.632,0,0,0,1.811-1.28l1.486-1.714a4.672,4.672,0,0,0,.387-.524h2.251a2.249,2.249,0,0,1,1.59.659,2.249,2.249,0,0,0,1.59.659h1.688l.779,4.569H294.582a4.631,4.631,0,0,1,2.192-1.791" transform="translate(-166.921 -217.264)" fill="#070707"/>
    <path id="Trazado_831621" data-name="Trazado 831621" d="M308.946,397.011l.287,1.684H293.025a4.621,4.621,0,0,1,.674-1.684Z" transform="translate(-166.038 -224.96)" fill="#fff"/>
    <path id="Trazado_831622" data-name="Trazado 831622" d="M327.319,236.671l.126.551a51,51,0,0,1,1.271,12.259l-.3,16.672,2.047,32.529h-8.249l-6.572-30.395-1.4,30.395h-8.524l-2.482-32.4-1.235-16.967a50.976,50.976,0,0,1,.414-11.159l.22-1.489Z" transform="translate(-171.051 -134.106)" fill="#60a2f4"/>
    <path id="Trazado_831623" data-name="Trazado 831623" d="M322.975,276.921,321.4,253.442l-6.6-1.534,5.569,2.735-.467,15.575,1.868,6.436-1.268,5.8,1.268,2.668-1.067,2.8.867,19.389Z" transform="translate(-178.379 -142.74)" fill="#2d7fc9"/>
    <path id="Trazado_831624" data-name="Trazado 831624" d="M322.03,236.671l-.379,3.617a4.624,4.624,0,0,0,.123,1.649l.645,2.487-1.225-.643a2.656,2.656,0,0,1-1.3-1.545l-.288-.9a1.835,1.835,0,0,1-.066-.836l.586-3.826Z" transform="translate(-181.053 -134.106)" fill="#2d7fc9"/>
    <path id="Trazado_831625" data-name="Trazado 831625" d="M326.559,142.738a6.053,6.053,0,0,0,1.283-2.2c.053-.15.1-.3.144-.454l.422-.071.7,6.037-1.1.691a5.581,5.581,0,0,1-5.968-.024l-.294-2.872a4.489,4.489,0,0,0,1.457.283,4.582,4.582,0,0,0,3.358-1.39" transform="translate(-182.312 -79.336)" fill="#f0bf9c"/>
    <path id="Trazado_831626" data-name="Trazado 831626" d="M327.629,140.177c-.045.152-.091.3-.144.454a6.051,6.051,0,0,1-1.283,2.2,4.583,4.583,0,0,1-3.358,1.39,4.491,4.491,0,0,1-1.457-.283l-.273-2.664Z" transform="translate(-181.955 -79.429)" fill="#422c4f"/>
    <path id="Trazado_831627" data-name="Trazado 831627" d="M317.22,122.15h0a6.8,6.8,0,0,0,6.8-6.8v-4.41a6.8,6.8,0,0,0-13.607,0v4.41a6.8,6.8,0,0,0,6.8,6.8" transform="translate(-175.893 -59.005)" fill="#f0bf9c"/>
    <path id="Trazado_831628" data-name="Trazado 831628" d="M311.876,97.309a7.556,7.556,0,0,1,10.152,1.465,10.161,10.161,0,0,1,2.028,6.008,30.866,30.866,0,0,1-.42,6.491h-2.5a2.769,2.769,0,0,1-1.931-2.639v-2.811c-5.1,0-5.969-1.419-7.8-3.639-2.909,0-3.9,2.873-3.9,5.441v3.1s-2.195-6.292-2.235-7.93a6.08,6.08,0,0,1,1.7-4.465,5.356,5.356,0,0,1,4.917-1.023" transform="translate(-172.969 -54.386)" fill="#070707"/>
    <path id="Trazado_831629" data-name="Trazado 831629" d="M339.508,127.977a2.518,2.518,0,1,0,2.518-2.518,2.518,2.518,0,0,0-2.518,2.518" transform="translate(-192.377 -71.089)" fill="#f0bf9c"/>
    <path id="Trazado_831630" data-name="Trazado 831630" d="M341.886,129.324a1.487,1.487,0,1,0,1.487-1.487,1.487,1.487,0,0,0-1.487,1.487" transform="translate(-193.725 -72.437)" fill="#eba588"/>
    <path id="Trazado_831631" data-name="Trazado 831631" d="M358.27,192.693l-6.524,1.6,1.587,8.724-1.945,16.226L349,222.258a1.962,1.962,0,0,0-.329,1.789l1.388,4.5.366.068a2.42,2.42,0,0,0,2.751-2.851,9.583,9.583,0,0,0,1.9-5.405l4.6-15.547a8.743,8.743,0,0,0,.186-4.2Z" transform="translate(-197.521 -109.187)" fill="#f0bf9c"/>
    <path id="Trazado_831632" data-name="Trazado 831632" d="M362.467,192.693l-6.444,1.519.443,2.336,6.139-3.2Z" transform="translate(-201.736 -109.187)" fill="#bc825b"/>
    <path id="Trazado_831633" data-name="Trazado 831633" d="M323.913,119.824a2.528,2.528,0,0,1,2.016,1H321.9a2.528,2.528,0,0,1,2.016-1" transform="translate(-182.398 -67.896)" fill="#7c4756"/>
    <path id="Trazado_831634" data-name="Trazado 831634" d="M325.244,125.011a.565.565,0,1,0,.566-.566.566.566,0,0,0-.566.566" transform="translate(-184.295 -70.515)" fill="#422c4f"/>
    <path id="Trazado_831635" data-name="Trazado 831635" d="M311.03,119.824a2,2,0,0,0-1.674,1H312.7a2,2,0,0,0-1.674-1" transform="translate(-175.292 -67.896)" fill="#7c4756"/>
    <path id="Trazado_831636" data-name="Trazado 831636" d="M313.074,125.011a.478.478,0,1,1-.469-.566.524.524,0,0,1,.469.566" transform="translate(-176.867 -70.515)" fill="#422c4f"/>
    <path id="Trazado_831637" data-name="Trazado 831637" d="M318.529,132.337h2.1a1.267,1.267,0,0,1-.993.646,1.472,1.472,0,0,1-1.106-.646" transform="translate(-180.49 -74.987)" fill="#eba588"/>
    <path id="Trazado_831638" data-name="Trazado 831638" d="M316.153,135.806a17.73,17.73,0,0,0,4.978.276,2.842,2.842,0,0,1-2.51,1.573,3.063,3.063,0,0,1-2.468-1.849" transform="translate(-179.143 -76.952)" fill="#fff"/>
    <path id="Trazado_831639" data-name="Trazado 831639" d="M467.222,271.44h3.161l-11.11,55.221h-3.161Z" transform="translate(-258.45 -153.808)" fill="#37539a"/>
    <path id="Trazado_831640" data-name="Trazado 831640" d="M468.459,376.018l-1.815,7.251h-6.133l1.534-7.251Z" transform="translate(-260.942 -213.065)" fill="#f99d87"/>
    <path id="Trazado_831641" data-name="Trazado 831641" d="M446.947,387.4l1.416-.555a4.456,4.456,0,0,0,1.74-1.23l1.082-1.248a4.447,4.447,0,0,0,.606-.9h2.483a2.159,2.159,0,0,1,1.529.633,2.161,2.161,0,0,0,1.528.633h1.433l.735,4.391H444.84a4.454,4.454,0,0,1,2.107-1.721" transform="translate(-252.062 -217.285)" fill="#070707"/>
    <path id="Trazado_831642" data-name="Trazado 831642" d="M458.65,396.519l.271,1.619H443.345a4.441,4.441,0,0,1,.648-1.619Z" transform="translate(-251.215 -224.682)" fill="#fff"/>
    <path id="Trazado_831643" data-name="Trazado 831643" d="M487.54,376.018l1.255,8.925h6.275l-.252-8.925Z" transform="translate(-276.257 -213.065)" fill="#f99d87"/>
    <path id="Trazado_831644" data-name="Trazado 831644" d="M474.673,387.4l1.416-.555a4.458,4.458,0,0,0,1.74-1.23l1.082-1.248a4.45,4.45,0,0,0,.606-.9H482a2.16,2.16,0,0,1,1.528.633,2.16,2.16,0,0,0,1.528.633h1.433l.735,4.391H472.566a4.454,4.454,0,0,1,2.107-1.721" transform="translate(-267.773 -217.285)" fill="#070707"/>
    <path id="Trazado_831645" data-name="Trazado 831645" d="M486.376,396.519l.271,1.619H471.071a4.439,4.439,0,0,1,.648-1.619Z" transform="translate(-266.925 -224.682)" fill="#fff"/>
    <path id="Trazado_831646" data-name="Trazado 831646" d="M466.824,306.5s-8.8,32.141-7.4,32.459,8.843-.983,8.843-.983l5.392-21.94Z" transform="translate(-260.242 -173.673)" fill="#727997"/>
    <path id="Trazado_831647" data-name="Trazado 831647" d="M487.587,326.375l-1.115-22.685s23.8,5.579,36.628,1.3,7.066-18.965,7.066-18.965l-43.694,2.789s-13.945-1.489-11.528,14.873,3.9,22.685,3.9,22.685Z" transform="translate(-268.961 -162.074)" fill="#b0c0d2"/>
    <path id="Trazado_831648" data-name="Trazado 831648" d="M561.283,290.749c3.05-1.431,7.545-4.961,9.482-13.592,3.068-13.666,1.395-22.59-6.833-22.451s-2.928,14.874-7.9,22.869-16.594.186-17.245,7.066c-.5,5.249,3.227,6.6,5.021,6.946v1.421h1.681l-10,24.171h3.2l4.77-11.528H561.8l4.77,11.528h3.2l-10-24.171h1.518Zm-.6,12.206H544.566l4.116-9.947h7.887Z" transform="translate(-303.425 -144.324)" fill="#252728"/>
    <path id="Trazado_831649" data-name="Trazado 831649" d="M524.916,271.44h-3.161l11.109,55.221h3.161Z" transform="translate(-295.645 -153.808)" fill="#37539a"/>
    <path id="Trazado_831650" data-name="Trazado 831650" d="M570.867,277.4A7.468,7.468,0,0,1,569,282c-3.307-1.415-6.049-3.8-9.6-4.749-4.138-1.1-8.488-1.1-12.72-1.534-2.926-.314.116-5.167.8-6.513a16.947,16.947,0,0,0,1.878-8.292c4.264,2.353,10.171,4.64,12.8,8.843.95,1.516,2,3.626,3.652,4.512,1.487.8,3.41.116,4.546,1.665a2.733,2.733,0,0,1,.512,1.467" transform="translate(-309.057 -147.842)" fill="#dd9a05"/>
    <path id="Trazado_831651" data-name="Trazado 831651" d="M496.116,209.59s-3.828-4.293-2.278-5.037a7.022,7.022,0,0,1,3.486-.8c.279.124-1.488-4.321-.465-4.4s2.569,5.154,2.679,8.207-3.423,2.03-3.423,2.03" transform="translate(-279.617 -112.96)" fill="#e9b98a"/>
    <path id="Trazado_831652" data-name="Trazado 831652" d="M495.785,211.97l5.681-1.229,3.993,11.824S518.5,205.51,523.875,205.2l-3.215,13.831s-11.67,11.977-13.359,12.284-6.142.921-7.831-.768-3.685-18.58-3.685-18.58" transform="translate(-280.929 -116.275)" fill="#4498e2"/>
    <path id="Trazado_831653" data-name="Trazado 831653" d="M566.963,161.09q2.988,7.182,5.937,14.38c.419,1.024,1.472,2.616,1.518,3.71.036.858-.714,1.142-1.551,1.471a27.043,27.043,0,0,1-5.5,1.018c-2.148.362-4.313.848-6.477,1.092-2.65.3-4.843-1.845-5.6-4.26a16.9,16.9,0,0,1-.233-6.687c.223-2.25.433-4.5.6-6.756.1-1.351.2-2.708.219-4.063.014-1.334-1.315-2.465-.165-3.737a5.072,5.072,0,0,1,2.736-1.252,8.143,8.143,0,0,1,4.174-.219c2.261.693,3.432,3.12,4.34,5.3" transform="translate(-314.392 -88.163)" fill="#1f2326"/>
    <path id="Trazado_831654" data-name="Trazado 831654" d="M543.552,224.873c-.129-5.105,3.2-9.628,4.254-14.625a162.818,162.818,0,0,0-.1,17.933c.09,1.824-.979,3.985-2.6,2.077-1.116-1.316-1.511-3.727-1.553-5.385" transform="translate(-307.994 -119.134)" fill="#2d7fc9"/>
    <path id="Trazado_831655" data-name="Trazado 831655" d="M571.581,238.066c.123,2.172.188,4.347.175,6.522-.018,3.283-2.758,3.88-5.43,2.332-2.768-1.6-5.658-3.173-8.9-3.483-4.67-.447-4.976-1.6-4.938-6.653.036-4.943-2.195-9.43-3.547-14.078a21.816,21.816,0,0,1-1.205-7.071c.165-2.482,1.614-5.1,2.544-7.43,1.949-4.876,8.717-4.621,12.983-4.039,2.392.327,5.071.471,6.563,2.47,2.025,2.711,2.255,6.556,1.512,9.739-.934,4-2.659,8.025-1.933,12.071.471,2.624,1.812,4.561,2.018,7.25q.09,1.185.159,2.371" transform="translate(-310.355 -115.514)" fill="#f4b516"/>
    <path id="Trazado_831656" data-name="Trazado 831656" d="M554.16,204.859c-.061.39-3.369,1.306-3.73,2.439s-2.809,8.559-2.809,8.559l1.346,15.3-2.106,13.049-5.209-1.4,3.5-15.426-1.233-12.761,3.773-9.188a10.93,10.93,0,0,1,5.64-1.579c3.522-.088.824,1.007.824,1.007" transform="translate(-306.919 -115.507)" fill="#4498e2"/>
    <path id="Trazado_831657" data-name="Trazado 831657" d="M574.866,202.833s-4.629,8.419-4.451,13.723c.252,7.5-1.471,15.763.742,23.257.851,2.883,2.969,4.807,5.163,6.711.977.848,2.6,1.877,3.184,3.063.672,1.366-.1,2.881,1.188,4.212a5.214,5.214,0,0,0,3.332,1.425,15.486,15.486,0,0,0,3.684-.273c-1.937.3-2.251-13.232-2.4-14.592-.768-6.785-1.568-13.6-2.514-20.332-.2-1.4-.227-15.153-1.036-15.367Z" transform="translate(-322.989 -114.932)" fill="#60a2f4"/>
    <path id="Trazado_831658" data-name="Trazado 831658" d="M581.1,225.2a112.51,112.51,0,0,1-3.783,13.107,44.712,44.712,0,0,1-2.9,6.285c-.871,1.534-1.4,3.265-2.247,4.719a52.386,52.386,0,0,1-2.108-5.7c-.337-2.652.836-3.464,2.444-5.495a93.987,93.987,0,0,0,8.6-12.914" transform="translate(-322.98 -127.607)" fill="#5397e0"/>
    <path id="Trazado_831659" data-name="Trazado 831659" d="M572.655,265.743c-.033.11,1.856,3.144,2,3.382A18.554,18.554,0,0,0,578,273.186c.141.129,3.775-6.125,4.054-6.717a45.673,45.673,0,0,0,2.773-8.072c.873-3.352.264-6.409-.176-9.8l-11.994,17.146" transform="translate(-324.487 -140.864)" fill="#5397e0"/>
    <path id="Trazado_831660" data-name="Trazado 831660" d="M572.217,190.307a4.5,4.5,0,0,1-3.241,2.983c-.908.3-4,.971-4.7.232-.482-.5-.164-1.322.09-1.974a6.8,6.8,0,0,0,.431-1.791,8.078,8.078,0,0,0-1.429-5.293c.006-.007.006-.007,0-.007-.156-.248-.324-.474-.5-.706a.006.006,0,0,1-.007-.006l.314-.212a2.9,2.9,0,0,1,.334-.149,16.687,16.687,0,0,1,2.37-.482,33.778,33.778,0,0,0,4.2-1.441c.253-.1.5-.192.746-.284-1.8.652,1.694,7.844,1.4,9.129" transform="translate(-318.934 -102.662)" fill="#e9b98a"/>
    <path id="Trazado_831661" data-name="Trazado 831661" d="M571.205,182.87a14.8,14.8,0,0,1-5.283,8.3,8.079,8.079,0,0,0-1.429-5.293c.006-.007.006-.007,0-.007-.253-.551-.448-.683-.5-.706a.007.007,0,0,1-.008-.006l.314-.211a2.831,2.831,0,0,1,.334-.149,16.684,16.684,0,0,1,2.37-.482,33.776,33.776,0,0,0,4.2-1.441" transform="translate(-319.574 -103.621)" fill="#ca876f"/>
    <path id="Trazado_831662" data-name="Trazado 831662" d="M565.5,154.976c1.532,2.179,1.266,4.289,1.021,6.753-.155,1.557-1.28,4.556-3.47,3.873a3.14,3.14,0,0,0-.108.39c-.884,3.26-5.808,7.079-8.923,4.23-2.412-2.205-3.119-6.429-3.1-9.539,0-.266.012-.518.03-.752a18.1,18.1,0,0,1,.717-4.806,4.486,4.486,0,0,1,2.088-2.109c3.606-2.158,9.215-1.632,11.742,1.959" transform="translate(-312.172 -85.981)" fill="#e9b98a"/>
    <path id="Trazado_831663" data-name="Trazado 831663" d="M565.71,170.939a4.131,4.131,0,0,1-2.741-1.971c-1.6-2.045-1.905-4.266-2.091-6.728-.178-2.37.9-4.852.234-7.17a8.46,8.46,0,0,1-.428-1.736c-.005-.114,0-.228,0-.35,0,.115-.011.231-.013.345-.049,1.323-.09,2.644-.14,3.96a27.621,27.621,0,0,0-2.649-.882c-1.33-.469-.982-.063-1.28-1.406a7.7,7.7,0,0,1-.065-2c.022-.461.06-.917.055-1.324-.077.435-.155.862-.231,1.3-.169.95-.343,1.908-.511,2.858-1.021-.164-2.035-.329-3.048-.494-.037-1.109-.072-2.21-.109-3.318-.017-.526-.036-1.059-.053-1.584-.127.478-.246.956-.373,1.434-.268,1.038-.544,2.071-.812,3.109l-4.2-.364a8.284,8.284,0,0,1,.75-4.878c.106-.218.219-.437.341-.644a5.875,5.875,0,0,1,3.187-2.545c.251-.121.507-.257.788-.411a12.223,12.223,0,0,1,3.925-1.684c2.42-.436,6.445.128,6.653,3.272a2.424,2.424,0,0,1,.873-.075,2.926,2.926,0,0,1,1.173.388,3.146,3.146,0,0,1,.814.677,6.468,6.468,0,0,1,1.134,3.675c.036.423.07.838.129,1.229a37.037,37.037,0,0,0,1.223,5.6,38.346,38.346,0,0,0,2.039,5.358,15.9,15.9,0,0,0,1.308,2.544c1.851,2.6-4.181,4.1-5.88,3.81" transform="translate(-310.038 -81.782)" fill="#1f2326"/>
    <path id="Trazado_831664" data-name="Trazado 831664" d="M559.97,174.056s-1.47,3.446-2.534,4.123,1.772,1.393,2.768.072c0,0-1.005.455-1.047-.412a21.857,21.857,0,0,1,.813-3.783" transform="translate(-315.73 -98.626)" fill="#ca876f"/>
    <path id="Trazado_831665" data-name="Trazado 831665" d="M555.516,174.493c-.038.585.165,1.074.453,1.093s.552-.441.59-1.026-.165-1.074-.453-1.093-.552.441-.59,1.026" transform="translate(-314.772 -98.292)" fill="#1f2326"/>
    <path id="Trazado_831666" data-name="Trazado 831666" d="M566.769,174.705c-.038.585.165,1.074.453,1.093s.552-.441.59-1.026-.165-1.074-.453-1.093-.552.441-.59,1.026" transform="translate(-321.149 -98.412)" fill="#1f2326"/>
    <path id="Trazado_831667" data-name="Trazado 831667" d="M557.514,186.869a4.99,4.99,0,0,0,3.9-.234,2.8,2.8,0,0,1-2.263,1.226c-1.5-.008-1.632-.992-1.632-.992" transform="translate(-315.907 -105.754)" fill="#fff"/>
    <path id="Trazado_831668" data-name="Trazado 831668" d="M540.553,251.011s-1.869-1.249-3.786-2.559a8.093,8.093,0,0,0-5.346-1.236c-.854.034-2.686,1.508-.244,1.372s-2.371.8.349,2.706c2.913,2.042,5.144.755,6.216,2.488s2.811-2.771,2.811-2.771" transform="translate(-300.292 -140.069)" fill="#e9b98a"/>
    <path id="Trazado_831669" data-name="Trazado 831669" d="M563.554,215.711s-1.181,11.347-2.894,11.68-13.609-1.541-13.609-1.541l-3.5,5.4s24.814,11.724,26.368,4.71,3.569-21.819-3.159-29.1c-1.32-1.428-3.2,8.846-3.2,8.846" transform="translate(-307.994 -117.14)" fill="#60a2f4"/>
    <path id="Trazado_831670" data-name="Trazado 831670" d="M348.581,271.44H345.42l11.109,55.221h3.161Z" transform="translate(-195.727 -153.808)" fill="#37539a"/>
    <path id="Trazado_831671" data-name="Trazado 831671" d="M290.887,271.44h3.161l-11.109,55.221h-3.161Z" transform="translate(-158.532 -153.808)" fill="#37539a"/>
    <rect id="Rectángulo_379203" data-name="Rectángulo 379203" width="109.141" height="5.02" transform="translate(123.616 115.122)" fill="#f7f7f7"/>
    <rect id="Rectángulo_379204" data-name="Rectángulo 379204" width="27.142" height="2.075" transform="translate(197.623 112.666)" fill="#304573"/>
    <path id="Trazado_831672" data-name="Trazado 831672" d="M387.574,236.873l-8.624-19.5a1.142,1.142,0,0,1,1.045-1.6h37.117a1.142,1.142,0,0,1,1.053.7l8.7,20.739Z" transform="translate(-214.671 -122.261)" fill="#304573"/>
    <path id="Trazado_831673" data-name="Trazado 831673" d="M383.11,236.873l-8.624-19.5a1.142,1.142,0,0,1,1.045-1.6h37.117a1.142,1.142,0,0,1,1.053.7l8.7,20.739Z" transform="translate(-212.141 -122.261)" fill="#344b7e"/>
    <path id="Trazado_831674" data-name="Trazado 831674" d="M427.466,233.137a3.126,3.126,0,1,1-4.069-2.472,3.388,3.388,0,0,1,4.069,2.472" transform="translate(-238.777 -130.627)" fill="#fff"/>
    <path id="Trazado_831675" data-name="Trazado 831675" d="M243.263,89.8H225.025a4.408,4.408,0,0,1,0-8.816h18.238a4.408,4.408,0,1,1,0,8.816" transform="translate(-125.009 -45.89)" fill="#cadeb4"/>
    <path id="Trazado_831676" data-name="Trazado 831676" d="M240.321,89.714a1.128,1.128,0,1,1-1.132-1.124,1.128,1.128,0,0,1,1.132,1.124" transform="translate(-134.896 -50.198)" fill="#fff"/>
    <path id="Trazado_831677" data-name="Trazado 831677" d="M251.485,89.68a1.128,1.128,0,1,1-1.132-1.125,1.128,1.128,0,0,1,1.132,1.125" transform="translate(-141.222 -50.178)" fill="#fff"/>
    <path id="Trazado_831678" data-name="Trazado 831678" d="M262.648,89.645a1.128,1.128,0,1,1-1.132-1.125,1.128,1.128,0,0,1,1.132,1.125" transform="translate(-147.547 -50.159)" fill="#fff"/>
    <path id="Trazado_831679" data-name="Trazado 831679" d="M648.723,179.994l-13.179.028a1.586,1.586,0,0,1,0-3.172l13.179-.029a1.586,1.586,0,1,1,0,3.173" transform="translate(-359.222 -100.193)" fill="#b1dcfb"/>
    <path id="Trazado_831680" data-name="Trazado 831680" d="M28.539,175.367,1.588,175.4a1.586,1.586,0,1,1,0-3.173l26.951-.029a1.586,1.586,0,0,1,0,3.173" transform="translate(0.001 -97.571)" fill="#b1dcfb"/>
    <path id="Trazado_831681" data-name="Trazado 831681" d="M583.871,53.453l-2.515,0a1.2,1.2,0,0,1-1.2-1.195l0-2.361a1.2,1.2,0,0,1,1.195-1.2l2.515,0a1.2,1.2,0,0,1,1.2,1.195l0,2.361a1.2,1.2,0,0,1-1.2,1.2" transform="translate(-328.736 -27.595)" fill="#b1dcfb"/>
    <path id="Trazado_831682" data-name="Trazado 831682" d="M55.49,308.556l-2.515,0a1.2,1.2,0,0,1-1.2-1.2l0-2.361a1.2,1.2,0,0,1,1.195-1.2l2.515,0a1.2,1.2,0,0,1,1.2,1.2l0,2.361a1.2,1.2,0,0,1-1.195,1.2" transform="translate(-29.336 -172.145)" fill="#b1dcfb"/>
    <path id="Trazado_831683" data-name="Trazado 831683" d="M252.72,198.706l-2.21,0a1.052,1.052,0,0,1-1.053-1.05l0-2.074a1.051,1.051,0,0,1,1.05-1.053l2.21,0a1.051,1.051,0,0,1,1.053,1.05l0,2.075a1.052,1.052,0,0,1-1.05,1.053" transform="translate(-141.35 -110.227)" fill="#fff"/>
    <path id="Trazado_831684" data-name="Trazado 831684" d="M216.557,39.008h-13.13a1.562,1.562,0,0,1,0-3.124h13.13a1.562,1.562,0,0,1,0,3.124" transform="translate(-114.384 -20.333)" fill="#fff"/>
    <path id="Trazado_831685" data-name="Trazado 831685" d="M354.214,18.557H341.084a1.562,1.562,0,1,1,0-3.124h13.129a1.562,1.562,0,0,1,0,3.124" transform="translate(-192.385 -8.745)" fill="#60a2f4"/>
    <path id="Trazado_831686" data-name="Trazado 831686" d="M279.148,17.952H263.256a2.887,2.887,0,0,1-2.887-2.887V2.887A2.887,2.887,0,0,1,263.256,0h15.892a2.887,2.887,0,0,1,2.887,2.887V15.065a2.887,2.887,0,0,1-2.887,2.887" transform="translate(-147.534 0)" fill="#7db243"/>
    <rect id="Rectángulo_379205" data-name="Rectángulo 379205" width="2.59" height="3.408" transform="translate(116.36 10.381)" fill="#f7f7f7"/>
    <rect id="Rectángulo_379206" data-name="Rectángulo 379206" width="2.59" height="5.725" transform="translate(120.369 8.064)" fill="#f7f7f7"/>
    <rect id="Rectángulo_379207" data-name="Rectángulo 379207" width="2.59" height="7.496" transform="translate(124.377 6.292)" fill="#f7f7f7"/>
    <rect id="Rectángulo_379208" data-name="Rectángulo 379208" width="2.59" height="10.154" transform="translate(128.386 3.635)" fill="#f7f7f7"/>
  </g>
</svg>
